<?xml version="1.0" encoding="UTF-8"?>
<svg id="jellyfish" xmlns="http://www.w3.org/2000/svg" viewBox="0 0 72 72">
  <path d="M53.01,25.38c-.21,0-.42.02-.63.03v-.03c0-9.05-7.33-16.38-16.38-16.38s-16.38,7.33-16.38,16.38v.03c-.21-.02-.42-.03-.63-.03-4.17,0-7.56,3.38-7.56,7.56s3.38,7.56,7.56,7.56c2.26,0,4.28-1,5.67-2.57,1.39,1.57,3.41,2.57,5.67,2.57s4.28-1,5.67-2.57c1.39,1.57,3.41,2.57,5.67,2.57s4.28-1,5.67-2.57c1.39,1.57,3.41,2.57,5.67,2.57,4.17,0,7.56-3.38,7.56-7.56s-3.38-7.56-7.56-7.56Z" style="fill: #ed1f24; opacity: .5; stroke-width: 0px;"/>
  <path d="M31.5,40.41v13.59c0,3.73-3.02,6.75-6.75,6.75" style="fill: none; stroke: #ed2024; stroke-linecap: round; stroke-miterlimit: 10; stroke-width: 4px;"/>
  <path d="M22.5,39.63v5.37c0,2.49-2.01,4.5-4.5,4.5" style="fill: none; stroke: #ed2024; stroke-linecap: round; stroke-miterlimit: 10; stroke-width: 4px;"/>
  <path d="M49.5,39.63v5.37c0,2.49,2.01,4.5,4.5,4.5" style="fill: none; stroke: #ed2024; stroke-linecap: round; stroke-miterlimit: 10; stroke-width: 4px;"/>
  <path d="M40.5,40.41v13.59c0,3.73,3.02,6.75,6.75,6.75" style="fill: none; stroke: #ed2024; stroke-linecap: round; stroke-miterlimit: 10; stroke-width: 4px;"/>
  <path d="M53.01,25.38c-.21,0-.42.02-.63.03v-.03c0-9.05-7.33-16.38-16.38-16.38s-16.38,7.33-16.38,16.38v.03c-.21-.02-.42-.03-.63-.03-4.17,0-7.56,3.38-7.56,7.56s3.38,7.56,7.56,7.56c2.26,0,4.28-1,5.67-2.57,1.39,1.57,3.41,2.57,5.67,2.57s4.28-1,5.67-2.57c1.39,1.57,3.41,2.57,5.67,2.57s4.28-1,5.67-2.57c1.39,1.57,3.41,2.57,5.67,2.57,4.17,0,7.56-3.38,7.56-7.56s-3.38-7.56-7.56-7.56Z" style="fill: none; stroke: #000; stroke-miterlimit: 10; stroke-width: 4px;"/>
</svg>