<?xml version="1.0" encoding="UTF-8"?>
<svg id="butterfly" xmlns="http://www.w3.org/2000/svg" viewBox="0 0 72 72">
  <path d="M17.39,18.81c9.21,3.68,12.54,10.29,12.54,17.41s-5.42,8.36-12.54,8.36-12.89-11.29-12.89-18.41,6.28-10.01,12.89-7.36Z" style="fill: #ed1f24; opacity: .5; stroke-width: 0px;"/>
  <path d="M50.93,62.31c-6.58-2.63-9.21-9.64-9.21-14.73s4.12-3.68,9.21-3.68,9.21,8.07,9.21,13.15-4.49,7.15-9.21,5.26Z" style="fill: #ed1f24; opacity: .5; stroke-width: 0px;"/>
  <path d="M21.4,62.34c6.34-2.54,8.87-9.16,8.87-14.06s-3.97-3.68-8.87-3.68-8.87,7.78-8.87,12.68,4.32,6.89,8.87,5.07Z" style="fill: #ed1f24; opacity: .5; stroke-width: 0px;"/>
  <path d="M42.07,36.22c0,3.36,0,22.28-6.07,22.28s-6.07-18.92-6.07-22.28,2.72-6.07,6.07-6.07,6.07,2.72,6.07,6.07Z" style="fill: #ed1f24; opacity: .5; stroke-width: 0px;"/>
  <circle cx="36" cy="24.07" r="6.07" style="fill: #ed1f24; opacity: .5; stroke-width: 0px;"/>
  <path d="M54.61,18.12c-9.21,3.68-12.54,10.98-12.54,18.1s5.42,7.67,12.54,7.67c7.12,0,12.89-11.29,12.89-18.41s-6.28-10.01-12.89-7.36Z" style="fill: #ed1f24; opacity: .5; stroke-width: 0px;"/>
  <path d="M50.93,62.31c-6.58-2.63-9.21-9.64-9.21-14.73" style="fill: #ed1f24; opacity: .5; stroke-width: 0px;"/>
  <path d="M36,18c3.36,0,6.07,2.72,6.07,6.07" style="fill: #ed1f24; opacity: .5; stroke-width: 0px;"/>
  <g>
    <line x1="38.17" y1="18.4" x2="45" y2="8.16" style="fill: none; stroke: #ed1f24; stroke-miterlimit: 10; stroke-width: 2px;"/>
    <line x1="27" y1="8.16" x2="33.83" y2="18.41" style="fill: none; stroke: #ed1f24; stroke-miterlimit: 10; stroke-width: 2px;"/>
    <path d="M17.39,18.81c9.21,3.68,12.54,10.29,12.54,17.41s-5.42,8.36-12.54,8.36-12.89-11.29-12.89-18.41,6.28-10.01,12.89-7.36Z" style="fill: none; stroke: #000; stroke-miterlimit: 10; stroke-width: 4px;"/>
    <path d="M50.93,62.31c-6.58-2.63-9.21-9.64-9.21-14.73s4.12-3.68,9.21-3.68,9.21,8.07,9.21,13.15-4.49,7.15-9.21,5.26Z" style="fill: none; stroke: #000; stroke-miterlimit: 10; stroke-width: 4px;"/>
    <path d="M21.4,62.34c6.34-2.54,8.87-9.16,8.87-14.06s-3.97-3.68-8.87-3.68-8.87,7.78-8.87,12.68,4.32,6.89,8.87,5.07Z" style="fill: none; stroke: #000; stroke-miterlimit: 10; stroke-width: 4px;"/>
    <path d="M42.07,36.22c0,3.36,0,22.28-6.07,22.28s-6.07-18.92-6.07-22.28,2.72-6.07,6.07-6.07,6.07,2.72,6.07,6.07Z" style="fill: none; stroke: #000; stroke-miterlimit: 10; stroke-width: 4px;"/>
    <circle cx="36" cy="24.07" r="6.07" style="fill: none; stroke: #000; stroke-miterlimit: 10; stroke-width: 4px;"/>
    <path d="M54.61,18.12c-9.21,3.68-12.54,10.98-12.54,18.1s5.42,7.67,12.54,7.67c7.12,0,12.89-11.29,12.89-18.41s-6.28-10.01-12.89-7.36Z" style="fill: none; stroke: #000; stroke-miterlimit: 10; stroke-width: 4px;"/>
  </g>
  <path d="M17.39,44.59c-7.12,0-12.89-11.29-12.89-18.41" style="fill: none; stroke: #000; stroke-miterlimit: 10; stroke-width: 4px;"/>
  <path d="M50.93,62.31c-6.58-2.63-9.21-9.64-9.21-14.73" style="fill: none; stroke: #000; stroke-miterlimit: 10; stroke-width: 4px;"/>
  <path d="M12.53,57.26c0,4.9,4.32,6.89,8.87,5.07,6.34-2.54,8.87-9.16,8.87-14.06" style="fill: none; stroke: #000; stroke-miterlimit: 10; stroke-width: 4px;"/>
  <path d="M42.07,36.22c0,3.36,0,22.28-6.07,22.28s-6.07-18.92-6.07-22.28" style="fill: none; stroke: #000; stroke-miterlimit: 10; stroke-width: 4px;"/>
  <path d="M36,18c3.36,0,6.07,2.72,6.07,6.07" style="fill: none; stroke: #000; stroke-miterlimit: 10; stroke-width: 4px;"/>
  <path d="M54.61,18.12c-9.21,3.68-12.54,10.98-12.54,18.1" style="fill: none; stroke: #000; stroke-miterlimit: 10; stroke-width: 4px;"/>
</svg>