<?xml version="1.0" encoding="UTF-8"?>
<svg id="lobster" xmlns="http://www.w3.org/2000/svg" viewBox="0 0 72 72">
  <path d="M32.52,12.86l-1.13-4.54c-.56-2.24-2.58-3.82-4.89-3.82h0" style="fill: none; stroke: #ed2024; stroke-linecap: round; stroke-linejoin: round; stroke-width: 4px;"/>
  <path d="M39.48,12.86l1.13-4.54c.56-2.24,2.58-3.82,4.89-3.82h0" style="fill: none; stroke: #ed2024; stroke-linecap: round; stroke-linejoin: round; stroke-width: 4px;"/>
  <line x1="15.11" y1="37.93" x2="27.64" y2="37.93" style="fill: none; stroke: #ed2024; stroke-linecap: round; stroke-linejoin: round; stroke-width: 4px;"/>
  <line x1="44.36" y1="37.93" x2="56.89" y2="37.93" style="fill: none; stroke: #ed2024; stroke-linecap: round; stroke-linejoin: round; stroke-width: 4px;"/>
  <polyline points="31.82 42.11 19.29 46.46 15.11 54.82" style="fill: none; stroke: #ed2024; stroke-linecap: round; stroke-linejoin: round; stroke-width: 4px;"/>
  <polyline points="40.18 42.11 52.71 46.46 56.89 54.82" style="fill: none; stroke: #ed2024; stroke-linecap: round; stroke-linejoin: round; stroke-width: 4px;"/>
  <polyline points="13 26 18 31.5 29.73 33.75" style="fill: none; stroke: #ed2024; stroke-linecap: round; stroke-linejoin: round; stroke-width: 4px;"/>
  <polyline points="60.3 25.2 55.73 31.5 44 33.75" style="fill: none; stroke: #ed2024; stroke-linecap: round; stroke-linejoin: round; stroke-width: 4px;"/>
  <rect x="27.64" y="33.75" width="16.71" height="8.36" rx="4.18" ry="4.18" style="fill: #ed2024; opacity: .5; stroke-width: 0px;"/>
  <rect x="27.64" y="42.11" width="16.71" height="8.36" rx="4.18" ry="4.18" style="fill: #ed2024; opacity: .5; stroke-width: 0px;"/>
  <path d="M41.77,50.46h-11.55c-1.58,0-3.03.89-3.74,2.31l-1.01,2.02c-.93,1.85.42,4.03,2.49,4.03h3.85c0,2.31,1.87,4.18,4.18,4.18s4.18-1.87,4.18-4.18h3.85c2.07,0,3.42-2.18,2.49-4.03l-1.01-2.02c-.71-1.42-2.15-2.31-3.74-2.31Z" style="fill: #ed2024; opacity: .5; stroke-width: 0px;"/>
  <path d="M32.52,12.86h6.96l3.29,3.7c4.41,4.96,4.19,12.5-.51,17.19h0s-12.54,0-12.54,0h0c-4.69-4.69-4.91-12.23-.51-17.19l3.29-3.7Z" style="fill: #ed2024; opacity: .5; stroke-width: 0px;"/>
  <path d="M13,11.6c3.98,0,7.2,3.22,7.2,7.2s-3.22,7.2-7.2,7.2-7.2-3.22-7.2-7.2,3.22-10.8,7.2-10.8v10.8" style="fill: #ed2024; opacity: .5; stroke-width: 0px;"/>
  <path d="M60.3,10.8c-3.98,0-7.2,3.22-7.2,7.2s3.22,7.2,7.2,7.2,7.2-3.22,7.2-7.2-3.22-10.8-7.2-10.8v10.8" style="fill: #ed2024; opacity: .5; stroke-width: 0px;"/>
  <rect x="27.64" y="33.75" width="16.71" height="8.36" rx="4.18" ry="4.18" style="fill: none; stroke: #231f20; stroke-linecap: round; stroke-linejoin: round; stroke-width: 4px;"/>
  <rect x="27.64" y="42.11" width="16.71" height="8.36" rx="4.18" ry="4.18" style="fill: none; stroke: #231f20; stroke-linecap: round; stroke-linejoin: round; stroke-width: 4px;"/>
  <path d="M41.77,50.46h-11.55c-1.58,0-3.03.89-3.74,2.31l-1.01,2.02c-.93,1.85.42,4.03,2.49,4.03h3.85c0,2.31,1.87,4.18,4.18,4.18s4.18-1.87,4.18-4.18h3.85c2.07,0,3.42-2.18,2.49-4.03l-1.01-2.02c-.71-1.42-2.15-2.31-3.74-2.31Z" style="fill: none; stroke: #231f20; stroke-linecap: round; stroke-linejoin: round; stroke-width: 4px;"/>
  <path d="M32.52,12.86h6.96l3.29,3.7c4.41,4.96,4.19,12.5-.51,17.19h0s-12.54,0-12.54,0h0c-4.69-4.69-4.91-12.23-.51-17.19l3.29-3.7Z" style="fill: none; stroke: #231f20; stroke-linecap: round; stroke-linejoin: round; stroke-width: 4px;"/>
  <path d="M13,11.6c3.98,0,7.2,3.22,7.2,7.2s-3.22,7.2-7.2,7.2-7.2-3.22-7.2-7.2,3.22-10.8,7.2-10.8v10.8" style="fill: none; stroke: #231f20; stroke-linecap: round; stroke-linejoin: round; stroke-width: 4px;"/>
  <path d="M60.3,10.8c-3.98,0-7.2,3.22-7.2,7.2s3.22,7.2,7.2,7.2,7.2-3.22,7.2-7.2-3.22-10.8-7.2-10.8v10.8" style="fill: none; stroke: #231f20; stroke-linecap: round; stroke-linejoin: round; stroke-width: 4px;"/>
</svg>