<?xml version="1.0" encoding="UTF-8"?>
<svg id="animal-step" xmlns="http://www.w3.org/2000/svg" viewBox="0 0 72 72">
  <g style="opacity: .5;">
    <ellipse cx="45.25" cy="22.76" rx="6.75" ry="8.44" style="fill: #ed2024; stroke-width: 0px;"/>
    <ellipse cx="57.6" cy="35.82" rx="6.19" ry="4.95" transform="translate(-8.46 51.22) rotate(-45)" style="fill: #ed2024; stroke-width: 0px;"/>
    <path d="M36,56.19c-9.94,0-18,5.44-18-4.5,0-9.94,8.06-18,18-18,9.94,0,18,8.06,18,18s-8.06,4.5-18,4.5Z" style="fill: #ed2024; stroke-width: 0px;"/>
    <ellipse cx="26.75" cy="22.76" rx="6.75" ry="8.44" style="fill: #ed2024; stroke-width: 0px;"/>
    <ellipse cx="14.4" cy="35.82" rx="4.95" ry="6.19" transform="translate(-21.11 20.67) rotate(-45)" style="fill: #ed2024; stroke-width: 0px;"/>
  </g>
  <g>
    <ellipse cx="45.25" cy="22.76" rx="6.75" ry="8.44" style="fill: none; stroke: #010101; stroke-miterlimit: 10; stroke-width: 4px;"/>
    <ellipse cx="57.6" cy="35.82" rx="6.19" ry="4.95" transform="translate(-8.46 51.22) rotate(-45)" style="fill: none; stroke: #010101; stroke-miterlimit: 10; stroke-width: 4px;"/>
    <path d="M36,56.19c-9.94,0-18,5.44-18-4.5,0-9.94,8.06-18,18-18,9.94,0,18,8.06,18,18s-8.06,4.5-18,4.5Z" style="fill: none; stroke: #010101; stroke-miterlimit: 10; stroke-width: 4px;"/>
    <ellipse cx="26.75" cy="22.76" rx="6.75" ry="8.44" style="fill: none; stroke: #010101; stroke-miterlimit: 10; stroke-width: 4px;"/>
    <ellipse cx="14.4" cy="35.82" rx="4.95" ry="6.19" transform="translate(-21.11 20.67) rotate(-45)" style="fill: none; stroke: #010101; stroke-miterlimit: 10; stroke-width: 4px;"/>
  </g>
</svg>