<?xml version="1.0" encoding="UTF-8"?>
<svg id="turtle" xmlns="http://www.w3.org/2000/svg" viewBox="0 0 72 72">
  <path d="M50.06,47.4c-12.73,12.73-28.64,3.18-28.64,3.18,0,0-9.55-15.91,3.18-28.64,7.03-7.03,18.43-7.03,25.46,0,7.03,7.03,7.03,18.43,0,25.46Z" style="fill: #ed2024; opacity: .5; stroke-width: 0px;"/>
  <g>
    <g>
      <path d="M50.06,47.4c-12.73,12.73-28.64,3.18-28.64,3.18,0,0-9.55-15.91,3.18-28.64,7.03-7.03,18.43-7.03,25.46,0,7.03,7.03,7.03,18.43,0,25.46Z" style="fill: none; stroke: #010101; stroke-miterlimit: 10; stroke-width: 4px;"/>
      <path d="M50.06,21.94c1.25,1.25,2.26,2.64,3.07,4.11,2.7-1.23,5.27-2.91,6.48-4.11,2.64-2.64,2.64-6.91,0-9.55s-6.91-2.64-9.55,0c-1.2,1.2-2.89,3.78-4.11,6.48,1.48.81,2.87,1.82,4.11,3.07Z" style="fill: none; stroke: #010101; stroke-miterlimit: 10; stroke-width: 4px;"/>
      <path d="M37.75,8.8h-9c-4.97,0-9,4.03-9,9h0s9,0,9,0c4.97,0,9-4.03,9-9h0Z" style="fill: none; stroke: #010101; stroke-miterlimit: 10; stroke-width: 4px;"/>
      <path d="M63.2,34.25v9c0,4.97-4.03,9-9,9h0v-9c0-4.97,4.03-9,9-9h0Z" style="fill: none; stroke: #010101; stroke-miterlimit: 10; stroke-width: 4px;"/>
      <path d="M17.8,32.11v6c0,4.97-4.03,9-9,9h0v-6c0-4.97,4.03-9,9-9h0Z" style="fill: none; stroke: #010101; stroke-miterlimit: 10; stroke-width: 4px;"/>
      <path d="M39.89,54.2h-6c-4.97,0-9,4.03-9,9h0s6,0,6,0c4.97,0,9-4.03,9-9h0Z" style="fill: none; stroke: #010101; stroke-miterlimit: 10; stroke-width: 4px;"/>
    </g>
    <g>
      <polygon points="39.53 25.65 45.89 32.01 43.77 42.62 33.16 44.74 26.8 38.37 28.92 27.77 39.53 25.65" style="fill: none; stroke: #010101; stroke-miterlimit: 10; stroke-width: 4px;"/>
      <line x1="39.53" y1="25.65" x2="41.21" y2="17.2" style="fill: none; stroke: #010101; stroke-miterlimit: 10; stroke-width: 4px;"/>
      <line x1="54.33" y1="30.32" x2="45.89" y2="32.01" style="fill: none; stroke: #010101; stroke-miterlimit: 10; stroke-width: 4px;"/>
      <line x1="23.43" y1="22.28" x2="28.92" y2="27.77" style="fill: none; stroke: #010101; stroke-miterlimit: 10; stroke-width: 4px;"/>
      <line x1="43.77" y1="42.62" x2="49.25" y2="48.1" style="fill: none; stroke: #010101; stroke-miterlimit: 10; stroke-width: 4px;"/>
      <line x1="33.16" y1="44.74" x2="31.21" y2="54.48" style="fill: none; stroke: #010101; stroke-miterlimit: 10; stroke-width: 4px;"/>
      <line x1="26.8" y1="38.37" x2="17.67" y2="40.2" style="fill: none; stroke: #010101; stroke-miterlimit: 10; stroke-width: 4px;"/>
    </g>
  </g>
</svg>