<?xml version="1.0" encoding="UTF-8"?>
<svg id="squid" xmlns="http://www.w3.org/2000/svg" viewBox="0 0 72 72">
  <path d="M31.5,40.5v2.25c0,3.73-3.02,6.75-6.75,6.75h0c-3.73,0-6.75-3.02-6.75-6.75v-2.25" style="fill: none; stroke: #ed2024; stroke-linecap: round; stroke-miterlimit: 10; stroke-width: 4px;"/>
  <path d="M54,40.5v2.25c0,3.73-3.02,6.75-6.75,6.75h0c-3.73,0-6.75-3.02-6.75-6.75v-2.25" style="fill: none; stroke: #ed2024; stroke-linecap: round; stroke-miterlimit: 10; stroke-width: 4px;"/>
  <line x1="31.5" y1="58.5" x2="31.5" y2="40.5" style="fill: none; stroke: #ed2024; stroke-linecap: round; stroke-miterlimit: 10; stroke-width: 4px;"/>
  <line x1="40.5" y1="58.5" x2="40.5" y2="40.5" style="fill: none; stroke: #ed2024; stroke-linecap: round; stroke-miterlimit: 10; stroke-width: 4px;"/>
  <path d="M31.5,40.5h9l4.07-10.55c2.24-5.23,1.04-10.98-3.21-15.39l-5.36-5.56-5.36,5.56c-4.25,4.41-5.45,10.16-3.21,15.39l4.07,10.55Z" style="fill: #ed2024; opacity: .5; stroke-width: 0px;"/>
  <path d="M31.5,40.5h9l4.07-10.55c2.24-5.23,1.04-10.98-3.21-15.39l-5.36-5.56-5.36,5.56c-4.25,4.41-5.45,10.16-3.21,15.39l4.07,10.55Z" style="fill: none; stroke: #231f20; stroke-linecap: round; stroke-linejoin: round; stroke-width: 4px;"/>
  <g>
    <path d="M40.11,10.6l-4.11-1.6,5.36,5.56c2.96,3.07,4.44,6.79,4.31,10.53.09-.03.19-.05.28-.08l7.6-2.36h0c-2.25-5.24-7.08-9.58-13.43-12.05Z" style="fill: none; stroke: #231f20; stroke-linecap: round; stroke-linejoin: round; stroke-width: 4px;"/>
    <path d="M18.45,22.65h0l7.6,2.36c.09.03.19.05.28.08-.13-3.74,1.35-7.46,4.31-10.53l5.36-5.56-4.11,1.6c-6.35,2.47-11.19,6.81-13.43,12.05Z" style="fill: none; stroke: #231f20; stroke-linecap: round; stroke-linejoin: round; stroke-width: 4px;"/>
  </g>
  <path d="M40.5,45c0,2.49-2.01,4.5-4.5,4.5s-4.5-2.01-4.5-4.5" style="fill: none; stroke: #231f20; stroke-linecap: round; stroke-miterlimit: 10; stroke-width: 4px;"/>
</svg>