<?xml version="1.0" encoding="UTF-8"?>
<svg id="pufferfish" xmlns="http://www.w3.org/2000/svg" viewBox="0 0 72 72">
  <path d="M18,32.4l-9-5.4h0c-2.83,5.67-2.83,12.33,0,18h0s9-5.4,9-5.4v-7.2Z" style="fill: #ed2024; opacity: .5; stroke-width: 0px;"/>
  <path d="M46.46,37.54c-3.57,0-7.03,1.25-9.77,3.52-2.71,2.25-6.11,3.49-9.64,3.52l-6.86.02c2.86,5.22,8.23,8.9,14.4,9.37,10.06.76,18.55-6.75,19.35-16.45h-7.47Z" style="fill: #ed2024; opacity: .5; stroke-width: 0px;"/>
  <path d="M20.19,44.61l6.87-.06c3.52-.03,6.93-1.28,9.64-3.52h0c2.75-2.28,6.2-3.52,9.77-3.52h8.41" style="fill: none; stroke: #ed2024; stroke-linecap: round; stroke-miterlimit: 10; stroke-width: 4px;"/>
  <line x1="36" y1="54" x2="36" y2="58.5" style="fill: none; stroke: #231f20; stroke-linecap: round; stroke-miterlimit: 10; stroke-width: 4px;"/>
  <line x1="36" y1="13.5" x2="36" y2="18" style="fill: none; stroke: #231f20; stroke-linecap: round; stroke-miterlimit: 10; stroke-width: 4px;"/>
  <line x1="20.09" y1="20.09" x2="23.27" y2="23.27" style="fill: none; stroke: #231f20; stroke-linecap: round; stroke-miterlimit: 10; stroke-width: 4px;"/>
  <line x1="48.73" y1="23.27" x2="51.91" y2="20.09" style="fill: none; stroke: #231f20; stroke-linecap: round; stroke-miterlimit: 10; stroke-width: 4px;"/>
  <line x1="27.39" y1="15.21" x2="29.11" y2="19.37" style="fill: none; stroke: #231f20; stroke-linecap: round; stroke-miterlimit: 10; stroke-width: 4px;"/>
  <line x1="42.89" y1="19.37" x2="44.61" y2="15.21" style="fill: none; stroke: #231f20; stroke-linecap: round; stroke-miterlimit: 10; stroke-width: 4px;"/>
  <line x1="52.63" y1="42.89" x2="56.79" y2="44.61" style="fill: none; stroke: #231f20; stroke-linecap: round; stroke-miterlimit: 10; stroke-width: 4px;"/>
  <line x1="48.73" y1="48.73" x2="51.91" y2="51.91" style="fill: none; stroke: #231f20; stroke-linecap: round; stroke-miterlimit: 10; stroke-width: 4px;"/>
  <line x1="52.63" y1="29.11" x2="56.79" y2="27.39" style="fill: none; stroke: #231f20; stroke-linecap: round; stroke-miterlimit: 10; stroke-width: 4px;"/>
  <line x1="42.89" y1="52.63" x2="44.61" y2="56.79" style="fill: none; stroke: #231f20; stroke-linecap: round; stroke-miterlimit: 10; stroke-width: 4px;"/>
  <line x1="20.09" y1="51.91" x2="23.27" y2="48.73" style="fill: none; stroke: #231f20; stroke-linecap: round; stroke-miterlimit: 10; stroke-width: 4px;"/>
  <line x1="27.39" y1="56.79" x2="29.11" y2="52.63" style="fill: none; stroke: #231f20; stroke-linecap: round; stroke-miterlimit: 10; stroke-width: 4px;"/>
  <path d="M18,32.4l-9-5.4h0c-2.83,5.67-2.83,12.33,0,18h0s9-5.4,9-5.4v-7.2Z" style="fill: none; stroke: #231f20; stroke-linecap: round; stroke-linejoin: round; stroke-width: 4px;"/>
  <path d="M32.41,31.5l-4.17.19h0c-1.31,2.63-1.31,5.72,0,8.34h0s4.17.47,4.17.47" style="fill: none; stroke: #231f20; stroke-linecap: round; stroke-miterlimit: 10; stroke-width: 4px;"/>
  <line x1="40.5" y1="31.5" x2="40.5" y2="31.5" style="fill: none; stroke: #231f20; stroke-linecap: round; stroke-linejoin: round; stroke-width: 4px;"/>
  <path d="M57,37.5h-3.06c-.8,9.69-9.28,17.21-19.35,16.45-8.52-.65-15.54-7.41-16.48-15.9-1.2-10.86,7.27-20.05,17.89-20.05,8.07,0,14.9,5.31,17.18,12.63l2.71.45c1.51.25,2.61,1.55,2.61,3.08v1.85h0c0,.83-.67,1.5-1.5,1.5Z" style="fill: none; stroke: #231f20; stroke-linecap: round; stroke-miterlimit: 10; stroke-width: 4px;"/>
</svg>