<?xml version="1.0" encoding="UTF-8"?>
<svg id="cat3" xmlns="http://www.w3.org/2000/svg" viewBox="0 0 72 72">
  <path d="M36,43.71c-3.2,0-5.79,2.59-5.79,5.79v13.5h11.57v-13.5c0-3.2-2.59-5.79-5.79-5.79Z" style="fill: none; stroke: #231f20; stroke-miterlimit: 10; stroke-width: 4px;"/>
  <path d="M48.96,22.5v-1.89c0-2.93-1.16-5.74-3.24-7.81l-3.24-3.24v7.26c-3.9-2.66-9.05-2.67-12.95,0,0,0,0-7.26,0-7.26l-3.24,3.24c-2.07,2.07-3.24,4.88-3.24,7.81v1.88l-3.24,2.91,8.48,7.64c4.38,3.94,11.02,3.94,15.4,0l8.48-7.64-3.23-2.91Z" style="fill: none; stroke: #231f20; stroke-miterlimit: 10; stroke-width: 4px;"/>
  <path d="M44.02,32.76l-.32.29c-4.38,3.94-11.02,3.94-15.4,0l-.33-.29-1.26,2.52c-2.78,5.55-4.22,11.68-4.22,17.89v5.84c0,2.21,1.79,4,4,4h19c2.21,0,4-1.79,4-4v-5.84c0-6.21-1.45-12.33-4.22-17.89l-1.25-2.51Z" style="fill: none; stroke: #231f20; stroke-miterlimit: 10; stroke-width: 4px;"/>
  <path d="M49.5,49.5l.04-.04c2.47-2.47,6.46-2.47,8.93,0h0c2.49,2.49,6.55,2.46,9-.07l.04-.04" style="fill: none; stroke: #231f20; stroke-miterlimit: 10; stroke-width: 4px;"/>
</svg>