<?xml version="1.0" encoding="UTF-8"?>
<svg id="cat" xmlns="http://www.w3.org/2000/svg" viewBox="0 0 72 72">
  <path d="M22.5,58.5v-13.5c0-7.46,6.04-13.5,13.5-13.5h0c4.97,0,9-4.03,9-9v-2.3c0-3.7,3-6.7,6.7-6.7h0c1.49,0,2.94.5,4.11,1.41l2.69,2.09,4.5,1v4.5l-4.5,4.5h0c0,5.92-1.38,11.76-4.02,17.05l-.48.95v4.5h0c2.49,0,4.5,2.01,4.5,4.5h0c0,2.49-2.01,4.5-4.5,4.5h-9" style="fill: none; stroke: #231f20; stroke-miterlimit: 10; stroke-width: 4px;"/>
  <path d="M31.5,40.5h0c4.97,0,9,4.03,9,9h0s0,0,0,0h4.5c2.49,0,4.5,2.01,4.5,4.5h0c0,2.49-2.01,4.5-4.5,4.5h-28.97c-3.7,0-6.92-2.85-7.03-6.54-.11-3.82,2.95-6.96,6.75-6.96" style="fill: none; stroke: #231f20; stroke-miterlimit: 10; stroke-width: 4px;"/>
  <polyline points="47.58 14.93 48.5 10.56 51.7 13.5" style="fill: none; stroke: #231f20; stroke-miterlimit: 10; stroke-width: 4px;"/>
</svg>