<?xml version="1.0" encoding="UTF-8"?>
<svg id="cat-head2" xmlns="http://www.w3.org/2000/svg" viewBox="0 0 72 72">
  <path d="M58.5,39.65l-11.8-10.62c-6.08-5.48-15.32-5.48-21.41,0l-11.8,10.62,11.8,10.62c6.08,5.48,15.32,5.48,21.41,0l11.8-10.62Z" style="fill: none; stroke: #231f20; stroke-miterlimit: 10; stroke-width: 4px;"/>
  <g>
    <path d="M25.3,29.04c.54-.49,1.12-.92,1.7-1.32v-10.09l-4.5,4.5c-2.88,2.88-4.5,6.79-4.5,10.86v2.62l7.3-6.57Z" style="fill: none; stroke: #231f20; stroke-miterlimit: 10; stroke-width: 4px;"/>
    <path d="M46.7,29.04l7.3,6.57v-2.62c0-4.07-1.62-7.98-4.5-10.86l-4.5-4.5v10.1c.58.4,1.16.83,1.7,1.31Z" style="fill: none; stroke: #231f20; stroke-miterlimit: 10; stroke-width: 4px;"/>
  </g>
</svg>