<?xml version="1.0" encoding="UTF-8"?>
<svg id="cat2" xmlns="http://www.w3.org/2000/svg" viewBox="0 0 72 72">
  <path d="M36,39.21c-3.2,0-5.79,2.59-5.79,5.79v13.5h11.57v-13.5c0-3.2-2.59-5.79-5.79-5.79Z" style="fill: none; stroke: #231f20; stroke-miterlimit: 10; stroke-width: 4px;"/>
  <path d="M46.64,20.45c0,6.1-4.95,11.05-11.05,11.05s-11.05-4.95-11.05-11.05v-11.45s7.36,5.32,7.36,5.32h7.36l7.36-5.32v11.45Z" style="fill: none; stroke: #231f20; stroke-miterlimit: 10; stroke-width: 4px;"/>
  <path d="M40.5,58.5h9c4.97,0,9-4.03,9-9v-18c0-4.97,4.03-9,9-9h0" style="fill: none; stroke: #231f20; stroke-miterlimit: 10; stroke-width: 4px;"/>
  <path d="M45.28,30.77l-1.47-2.95c-2.02,2.25-4.95,3.68-8.21,3.68-2.99,0-5.69-1.19-7.68-3.11l-1.19,2.38c-2.78,5.55-4.22,11.68-4.22,17.89v5.84c0,2.21,1.79,4,4,4h19c2.21,0,4-1.79,4-4v-5.84c0-6.21-1.45-12.33-4.22-17.89Z" style="fill: none; stroke: #231f20; stroke-miterlimit: 10; stroke-width: 4px;"/>
</svg>