<?xml version="1.0" encoding="UTF-8"?>
<svg id="fish2" xmlns="http://www.w3.org/2000/svg" viewBox="0 0 72 72">
  <path d="M22.5,36l8-8c3.52-3.52,8.29-5.5,13.27-5.5h2.46c4.98,0,9.75,1.98,13.27,5.5h0c4.42,4.42,4.42,11.59,0,16.01h0c-3.52,3.52-8.29,5.5-13.27,5.5h-2.46c-4.98,0-9.75-1.98-13.27-5.5l-8-8Z" style="fill: #ed2024; opacity: .5; stroke-width: 0px;"/>
  <path d="M27,16.5h3c3.31,0,6,2.69,6,6h0s-3,0-3,0c-3.31,0-6-2.69-6-6h0Z" style="fill: #ed2024; opacity: .5; stroke-width: 0px;"/>
  <path d="M44.24,11.84h0c4.86,1.02,7.98,5.8,6.95,10.66h0s-8.81-1.85-8.81-1.85c-2.43-.51-3.99-2.9-3.48-5.33h0c.51-2.43,2.9-3.99,5.33-3.48Z" style="fill: #ed2024; opacity: .5; stroke-width: 0px;"/>
  <path d="M27,55.5h3c3.31,0,6-2.69,6-6h0s-3,0-3,0c-3.31,0-6,2.69-6,6h0Z" style="fill: #ed2024; opacity: .5; stroke-width: 0px;"/>
  <path d="M46.63,60.98h0c4.69-1.65,7.15-6.8,5.49-11.48h0s-8.49,3-8.49,3c-2.34.83-3.57,3.4-2.75,5.74h0c.83,2.34,3.4,3.57,5.74,2.75Z" style="fill: #ed2024; opacity: .5; stroke-width: 0px;"/>
  <path d="M14.56,27h0c-3.07,0-5.56,2.49-5.56,5.56v6.88c0,3.07,2.49,5.56,5.56,5.56h0c2.11,0,4.03-1.19,4.98-3.07l2.96-5.93-2.96-5.93c-.94-1.88-2.87-3.07-4.98-3.07Z" style="fill: #ed2024; opacity: .5; stroke-width: 0px;"/>
  <line x1="31.58" y1="27" x2="31.58" y2="45" style="fill: none; stroke: #ed2024; stroke-linejoin: round; stroke-width: 4px;"/>
  <line x1="40.58" y1="22.78" x2="40.58" y2="49.22" style="fill: none; stroke: #ed2024; stroke-linejoin: round; stroke-width: 4px;"/>
  <line x1="49.5" y1="31.5" x2="49.5" y2="31.5" style="fill: none; stroke: #231f20; stroke-linecap: round; stroke-linejoin: round; stroke-width: 4px;"/>
  <path d="M22.5,36l8-8c3.52-3.52,8.29-5.5,13.27-5.5h2.46c4.98,0,9.75,1.98,13.27,5.5h0c4.42,4.42,4.42,11.59,0,16.01h0c-3.52,3.52-8.29,5.5-13.27,5.5h-2.46c-4.98,0-9.75-1.98-13.27-5.5l-8-8Z" style="fill: none; stroke: #231f20; stroke-linejoin: round; stroke-width: 4px;"/>
  <path d="M27,16.5h3c3.31,0,6,2.69,6,6h0s-3,0-3,0c-3.31,0-6-2.69-6-6h0Z" style="fill: none; stroke: #231f20; stroke-linejoin: round; stroke-width: 4px;"/>
  <path d="M44.24,11.84h0c4.86,1.02,7.98,5.8,6.95,10.66h0s-8.81-1.85-8.81-1.85c-2.43-.51-3.99-2.9-3.48-5.33h0c.51-2.43,2.9-3.99,5.33-3.48Z" style="fill: none; stroke: #231f20; stroke-linejoin: round; stroke-width: 4px;"/>
  <path d="M27,55.5h3c3.31,0,6-2.69,6-6h0s-3,0-3,0c-3.31,0-6,2.69-6,6h0Z" style="fill: none; stroke: #231f20; stroke-linejoin: round; stroke-width: 4px;"/>
  <path d="M46.63,60.98h0c4.69-1.65,7.15-6.8,5.49-11.48h0s-8.49,3-8.49,3c-2.34.83-3.57,3.4-2.75,5.74h0c.83,2.34,3.4,3.57,5.74,2.75Z" style="fill: none; stroke: #231f20; stroke-linejoin: round; stroke-width: 4px;"/>
  <path d="M14.56,27h0c-3.07,0-5.56,2.49-5.56,5.56v6.88c0,3.07,2.49,5.56,5.56,5.56h0c2.11,0,4.03-1.19,4.98-3.07l2.96-5.93-2.96-5.93c-.94-1.88-2.87-3.07-4.98-3.07Z" style="fill: none; stroke: #231f20; stroke-linejoin: round; stroke-width: 4px;"/>
</svg>