<?xml version="1.0" encoding="UTF-8"?>
<svg id="fish" xmlns="http://www.w3.org/2000/svg" viewBox="0 0 72 72">
  <path d="M9,27h0c5.52,0,10.56,3.12,13.02,8.05l.48.95-.48.95c-2.47,4.93-7.51,8.05-13.02,8.05h0c0-4.97,0-4.5,4.5-9h0,0c-4.5-4.5-4.5-4.03-4.5-9h0Z" style="fill: #ed2024; opacity: .5; stroke-width: 0px;"/>
  <path d="M22.5,36l4.68-7.02c2.7-4.05,7.25-6.48,12.12-6.48h2.41c4.87,0,9.42,2.43,12.12,6.48l4.68,7.02-4.68,7.02c-2.7,4.05-7.25,6.48-12.12,6.48h-2.41c-4.87,0-9.42-2.43-12.12-6.48l-4.68-7.02Z" style="fill: #ed2024; opacity: .5; stroke-width: 0px;"/>
  <path d="M27,13.5h4.5c4.97,0,9,4.03,9,9h0s-4.5,0-4.5,0c-4.97,0-9-4.03-9-9h0Z" style="fill: #ed2024; opacity: .5; stroke-width: 0px;"/>
  <path d="M27,58.5h4.5c4.97,0,9-4.03,9-9h0s-4.5,0-4.5,0c-4.97,0-9,4.03-9,9h0Z" style="fill: #ed2024; opacity: .5; stroke-width: 0px;"/>
  <line x1="45" y1="36" x2="45" y2="36" style="fill: none; stroke: #231f20; stroke-linecap: round; stroke-linejoin: round; stroke-width: 4px;"/>
  <path d="M9,27h0c5.52,0,10.56,3.12,13.02,8.05l.48.95-.48.95c-2.47,4.93-7.51,8.05-13.02,8.05h0c0-4.97,0-4.5,4.5-9h0,0c-4.5-4.5-4.5-4.03-4.5-9h0Z" style="fill: none; stroke: #231f20; stroke-linejoin: round; stroke-width: 4px;"/>
  <path d="M22.5,36l4.68-7.02c2.7-4.05,7.25-6.48,12.12-6.48h2.41c4.87,0,9.42,2.43,12.12,6.48l4.68,7.02-4.68,7.02c-2.7,4.05-7.25,6.48-12.12,6.48h-2.41c-4.87,0-9.42-2.43-12.12-6.48l-4.68-7.02Z" style="fill: none; stroke: #231f20; stroke-linejoin: round; stroke-width: 4px;"/>
  <path d="M27,13.5h4.5c4.97,0,9,4.03,9,9h0s-4.5,0-4.5,0c-4.97,0-9-4.03-9-9h0Z" style="fill: none; stroke: #231f20; stroke-linejoin: round; stroke-width: 4px;"/>
  <path d="M27,58.5h4.5c4.97,0,9-4.03,9-9h0s-4.5,0-4.5,0c-4.97,0-9,4.03-9,9h0Z" style="fill: none; stroke: #231f20; stroke-linejoin: round; stroke-width: 4px;"/>
</svg>