<?xml version="1.0" encoding="UTF-8"?>
<svg id="industry-3" xmlns="http://www.w3.org/2000/svg" viewBox="0 0 72 72">
  <polygon points="9 58.5 9 49.5 9 36 27 45 27 36 45 45 45 45 45 36 63 45 63 58.5 9 58.5" style="fill: #ed2024; opacity: .5;"/>
  <polygon points="9 58.5 9 49.5 9 36 27 45 27 36 45 45 45 45 45 36 63 45 63 58.5 9 58.5" style="fill: none; stroke: #010101; stroke-miterlimit: 10; stroke-width: 4px;"/>
  <path d="M18,20.64c8.79-8.79,23.03-8.79,31.82,0" style="fill: none; stroke: #ed2024; stroke-miterlimit: 10; stroke-width: 4px;"/>
  <path d="M24.36,27c5.27-5.27,13.82-5.27,19.09,0" style="fill: none; stroke: #ed2024; stroke-miterlimit: 10; stroke-width: 4px;"/>
</svg>