<?xml version="1.0" encoding="UTF-8"?>
<svg id="iron" xmlns="http://www.w3.org/2000/svg" viewBox="0 0 72 72">
  <path d="M20.39,36c-4.33,4.33-8.22,10.01-11.13,17.49-.13.33.12.69.47.69h44.27l3.66-7.31c.56-1.11.84-2.34.84-3.58v-7.29H20.39Z" style="fill: #ed2024; opacity: .5;"/>
  <path d="M58.05,22.63c-4.15-.37-35.99-2.07-48.79,30.86-.13.33.12.69.47.69h44.27s3.66-7.31,3.66-7.31c.56-1.11.84-2.34.84-3.58v-20.16c0-.26-.19-.47-.45-.5Z" style="fill: none; stroke: #010101; stroke-linecap: square; stroke-miterlimit: 10; stroke-width: 4px;"/>
  <line x1="22.5" y1="36.18" x2="58.5" y2="36.18" style="fill: none; stroke: #010101; stroke-linecap: square; stroke-miterlimit: 10; stroke-width: 4px;"/>
  <line x1="22.5" y1="54.18" x2="58.5" y2="54.18" style="fill: none; stroke: #010101; stroke-linecap: square; stroke-miterlimit: 10; stroke-width: 4px;"/>
  <line x1="45" y1="31.68" x2="49.5" y2="31.68" style="fill: none; stroke: #010101; stroke-linecap: square; stroke-miterlimit: 10; stroke-width: 4px;"/>
  <line x1="45" y1="45.41" x2="45" y2="45.41" style="fill: none; stroke: #010101; stroke-linecap: round; stroke-linejoin: round; stroke-width: 4px;"/>
  <line x1="27" y1="63" x2="27" y2="63" style="fill: none; stroke: #010101; stroke-linecap: round; stroke-linejoin: round; stroke-width: 4px;"/>
  <line x1="36" y1="63" x2="36" y2="63" style="fill: none; stroke: #010101; stroke-linecap: round; stroke-linejoin: round; stroke-width: 4px;"/>
  <line x1="45" y1="63" x2="45" y2="63" style="fill: none; stroke: #010101; stroke-linecap: round; stroke-linejoin: round; stroke-width: 4px;"/>
</svg>