<?xml version="1.0" encoding="UTF-8"?>
<svg id="leafs" xmlns="http://www.w3.org/2000/svg" viewBox="0 0 72 72">
  <path d="M57.47,42.45c-7.9,7.9-23.84,4.77-23.84,4.77,0,0-3.13-15.94,4.77-23.84s23.84-4.77,23.84-4.77c0,0,3.13,15.94-4.77,23.84Z" style="fill: #ed2024; opacity: .5;"/>
  <path d="M25.58,33.07c6.69,3.36,8.06,14.15,8.06,14.15,0,0-9.48,5.35-16.16,1.99-6.69-3.36-8.06-14.15-8.06-14.15,0,0,9.48-5.35,16.16-1.99Z" style="fill: #ed2024; opacity: .5;"/>
  <path d="M57.47,42.45c-7.9,7.9-23.84,4.77-23.84,4.77,0,0-3.13-15.94,4.77-23.84s23.84-4.77,23.84-4.77c0,0,3.13,15.94-4.77,23.84Z" style="fill: none; stroke: #231f20; stroke-miterlimit: 10; stroke-width: 4px;"/>
  <line x1="62.24" y1="18.61" x2="33.63" y2="47.22" style="fill: none; stroke: #ed2024; stroke-miterlimit: 10; stroke-width: 4px;"/>
  <path d="M25.58,33.07c6.69,3.36,8.06,14.15,8.06,14.15,0,0-9.48,5.35-16.16,1.99-6.69-3.36-8.06-14.15-8.06-14.15,0,0,9.48-5.35,16.16-1.99Z" style="fill: none; stroke: #231f20; stroke-miterlimit: 10; stroke-width: 4px;"/>
  <line x1="9.41" y1="35.06" x2="33.63" y2="47.22" style="fill: none; stroke: #ed2024; stroke-miterlimit: 10; stroke-width: 4px;"/>
  <line x1="36" y1="58.5" x2="33.63" y2="47.22" style="fill: none; stroke: #ed2024; stroke-miterlimit: 10; stroke-width: 4px;"/>
</svg>