<?xml version="1.0" encoding="UTF-8"?>
<svg id="plant" xmlns="http://www.w3.org/2000/svg" viewBox="0 0 72 72">
  <g style="opacity: .5;">
    <polygon points="18 36 18 43.7 22.5 43.7 27 61.7 45 61.7 49.5 43.7 54 43.7 54 36 18 36" style="fill: #ed2024;"/>
    <path d="M35.24,29.43s.33-6.03-3.18-9.55-9.55-3.18-9.55-3.18c0,0-.33,6.03,3.18,9.55,3.52,3.51,9.55,3.18,9.55,3.18Z" style="fill: #ed2024;"/>
    <path d="M43.07,14.77c2.12-2.12,1.92-5.77,1.92-5.77,0,0-3.64-.2-5.77,1.92s-1.92,5.77-1.92,5.77c0,0,3.64.2,5.77-1.92Z" style="fill: #ed2024;"/>
  </g>
  <polygon points="22.5 43.7 49.5 43.7 45 61.7 27 61.7 22.5 43.7" style="fill: none; stroke: #010101; stroke-linecap: round; stroke-linejoin: round; stroke-width: 4px;"/>
  <rect x="18" y="36" width="36" height="7.7" style="fill: none; stroke: #010101; stroke-linecap: round; stroke-linejoin: round; stroke-width: 4px;"/>
  <path d="M32.05,19.89c3.51,3.51,3.18,9.55,3.18,9.55,0,0-6.03.33-9.55-3.18s-3.18-9.55-3.18-9.55c0,0,6.03-.33,9.55,3.18Z" style="fill: none; stroke: #010101; stroke-linecap: round; stroke-linejoin: round; stroke-width: 4px;"/>
  <path d="M43.07,14.77c-2.12,2.12-5.77,1.92-5.77,1.92,0,0-.2-3.64,1.92-5.77s5.77-1.92,5.77-1.92c0,0,.2,3.64-1.92,5.77Z" style="fill: none; stroke: #010101; stroke-linecap: round; stroke-linejoin: round; stroke-width: 4px;"/>
  <line x1="36" y1="9" x2="36" y2="36" style="fill: none; stroke: #010101; stroke-linecap: round; stroke-linejoin: round; stroke-width: 4px;"/>
</svg>