<?xml version="1.0" encoding="UTF-8"?>
<svg id="toy-blocks-3" xmlns="http://www.w3.org/2000/svg" viewBox="0 0 72 72">
  <path d="M18,37v16c0,.55.45,1,1,1h7.05c.51,0,.94-.38.99-.88.44-4.56,4.28-8.12,8.96-8.12s8.52,3.56,8.96,8.12c.05.5.48.88.99.88h7.05c.55,0,1-.45,1-1v-16c0-.55-.45-1-1-1H19c-.55,0-1,.45-1,1Z" style="fill: #ed2024; opacity: .5;"/>
  <rect x="9" y="54" width="54" height="9" rx="1" ry="1" style="fill: #ed2024; opacity: .5;"/>
  <rect x="31.5" y="22.5" width="9" height="13.5" rx="1" ry="1" style="fill: #ed2024; opacity: .5;"/>
  <path d="M28.71,20.79l6.59-6.59c.39-.39,1.02-.39,1.41,0l6.59,6.59c.63.63.18,1.71-.71,1.71h-13.17c-.89,0-1.34-1.08-.71-1.71Z" style="fill: #ed2024; opacity: .5;"/>
  <path d="M18,37v16c0,.55.45,1,1,1h7.05c.51,0,.94-.38.99-.88.44-4.56,4.28-8.12,8.96-8.12s8.52,3.56,8.96,8.12c.05.5.48.88.99.88h7.05c.55,0,1-.45,1-1v-16c0-.55-.45-1-1-1H19c-.55,0-1,.45-1,1Z" style="fill: none; stroke: #231f20; stroke-miterlimit: 10; stroke-width: 4px;"/>
  <rect x="9" y="54" width="54" height="9" rx="1" ry="1" style="fill: none; stroke: #231f20; stroke-miterlimit: 10; stroke-width: 4px;"/>
  <rect x="31.5" y="22.5" width="9" height="13.5" rx="1" ry="1" style="fill: none; stroke: #231f20; stroke-miterlimit: 10; stroke-width: 4px;"/>
  <path d="M28.71,20.79l6.59-6.59c.39-.39,1.02-.39,1.41,0l6.59,6.59c.63.63.18,1.71-.71,1.71h-13.17c-.89,0-1.34-1.08-.71-1.71Z" style="fill: none; stroke: #231f20; stroke-miterlimit: 10; stroke-width: 4px;"/>
</svg>