<?xml version="1.0" encoding="UTF-8"?>
<svg id="trees" xmlns="http://www.w3.org/2000/svg" viewBox="0 0 72 72">
  <path d="M40.5,40.5c0,7.46-6.04,13.5-13.5,13.5s-13.5-6.04-13.5-13.5,6.04-22.5,13.5-22.5,13.5,15.04,13.5,22.5Z" style="fill: #ed2024; opacity: .5;"/>
  <path d="M57.94,45.56c0,4.66-3.78,8.44-8.44,8.44s-8.44-3.78-8.44-8.44,3.78-14.06,8.44-14.06,8.44,9.4,8.44,14.06Z" style="fill: #ed2024; opacity: .5;"/>
  <path d="M40.5,40.5c0,7.46-6.04,13.5-13.5,13.5s-13.5-6.04-13.5-13.5,6.04-22.5,13.5-22.5,13.5,15.04,13.5,22.5Z" style="fill: none; stroke: #231f20; stroke-miterlimit: 10; stroke-width: 4px;"/>
  <path d="M57.94,45.56c0,4.66-3.78,8.44-8.44,8.44s-8.44-3.78-8.44-8.44,3.78-14.06,8.44-14.06,8.44,9.4,8.44,14.06Z" style="fill: none; stroke: #231f20; stroke-miterlimit: 10; stroke-width: 4px;"/>
  <line x1="27" y1="40.5" x2="27" y2="63" style="fill: none; stroke: #ed2024; stroke-miterlimit: 10; stroke-width: 4px;"/>
  <line x1="49.5" y1="45" x2="49.5" y2="63" style="fill: none; stroke: #ed2024; stroke-miterlimit: 10; stroke-width: 4px;"/>
  <line x1="9" y1="63" x2="63" y2="63" style="fill: none; stroke: #ed2024; stroke-miterlimit: 10; stroke-width: 4px;"/>
</svg>