<?xml version="1.0" encoding="UTF-8"?>
<svg id="yurt" xmlns="http://www.w3.org/2000/svg" viewBox="0 0 72 72">
  <path d="M36,22.5l-22.5,9v14c0,2.21,1.79,4,4,4h14v-18h9v18h14c2.21,0,4-1.79,4-4v-14l-22.5-9Z" style="fill: #ed2024; opacity: .5;"/>
  <path d="M36,22.5l-22.5,9v14c0,2.21,1.79,4,4,4h37c2.21,0,4-1.79,4-4v-14l-22.5-9Z" style="fill: none; stroke: #010101; stroke-linecap: round; stroke-linejoin: round; stroke-width: 4px;"/>
  <line x1="9" y1="49.5" x2="63" y2="49.5" style="fill: none; stroke: #010101; stroke-linecap: round; stroke-linejoin: round; stroke-width: 4px;"/>
  <line x1="40.5" y1="40.5" x2="58.5" y2="40.5" style="fill: none; stroke: #010101; stroke-linecap: round; stroke-linejoin: round; stroke-width: 4px;"/>
  <line x1="13.5" y1="40.5" x2="31.5" y2="40.5" style="fill: none; stroke: #010101; stroke-linecap: round; stroke-linejoin: round; stroke-width: 4px;"/>
  <line x1="13.5" y1="31.5" x2="58.5" y2="31.5" style="fill: none; stroke: #010101; stroke-linecap: round; stroke-linejoin: round; stroke-width: 4px;"/>
  <rect x="31.5" y="31.5" width="9" height="18" style="fill: none; stroke: #010101; stroke-linecap: round; stroke-linejoin: round; stroke-width: 4px;"/>
</svg>