<?xml version="1.0" encoding="UTF-8"?>
<svg id="aframe" xmlns="http://www.w3.org/2000/svg" viewBox="0 0 72 72">
  <path d="M61.18,50.97L37.71,11.86c-.78-1.29-2.65-1.29-3.43,0L10.82,50.97c-.8,1.33.16,3.03,1.71,3.03h18.97v-13.5h9v13.5h18.97c1.55,0,2.51-1.7,1.71-3.03Z" style="fill: #ed2024; opacity: .5;"/>
  <rect x="31.5" y="40.5" width="9" height="13.5" style="fill: none; stroke: #010101; stroke-linecap: round; stroke-linejoin: round; stroke-width: 4px;"/>
  <path d="M61.18,50.97L37.71,11.86c-.78-1.29-2.65-1.29-3.43,0L10.82,50.97c-.8,1.33.16,3.03,1.71,3.03h46.94c1.55,0,2.51-1.7,1.71-3.03Z" style="fill: none; stroke: #010101; stroke-linecap: round; stroke-linejoin: round; stroke-width: 4px;"/>
  <line x1="17.1" y1="40.5" x2="54.9" y2="40.5" style="fill: none; stroke: #010101; stroke-linecap: round; stroke-linejoin: round; stroke-width: 4px;"/>
  <line x1="25.2" y1="27" x2="46.8" y2="27" style="fill: none; stroke: #010101; stroke-linecap: round; stroke-linejoin: round; stroke-width: 4px;"/>
</svg>