<svg id="artwork-frame" xmlns="http://www.w3.org/2000/svg" viewBox="0 0 72 72"><rect x="18" y="18" width="36" height="36" style="fill: var(--icon-fill, rgba(0, 0, 0, 0)); opacity: var(--icon-fill-opacity, 1);"/><path d="M18,9s2.01,2.5,4.5,2.5,4.5-2.5,4.5-2.5c0,0,2.01,2.5,4.5,2.5s4.5-2.5,4.5-2.5c0,0,2.01,2.5,4.5,2.5s4.5-2.5,4.5-2.5c0,0,2.01,2.5,4.5,2.5s4.5-2.5,4.5-2.5h9v9s-2.5,2.01-2.5,4.5,2.5,4.5,2.5,4.5c0,0-2.5,2.01-2.5,4.5s2.5,4.5,2.5,4.5c0,0-2.5,2.01-2.5,4.5s2.5,4.5,2.5,4.5c0,0-2.5,2.01-2.5,4.5s2.5,4.5,2.5,4.5v9h-9s-2.01-2.5-4.5-2.5-4.5,2.5-4.5,2.5c0,0-2.01-2.5-4.5-2.5s-4.5,2.5-4.5,2.5c0,0-2.01-2.5-4.5-2.5s-4.5,2.5-4.5,2.5c0,0-2.01-2.5-4.5-2.5s-4.5,2.5-4.5,2.5h-9v-9s2.5-2.01,2.5-4.5-2.5-4.5-2.5-4.5c0,0,2.5-2.01,2.5-4.5s-2.5-4.5-2.5-4.5c0,0,2.5-2.01,2.5-4.5s-2.5-4.5-2.5-4.5c0,0,2.5-2.01,2.5-4.5s-2.5-4.5-2.5-4.5v-9h9Z" style="fill: none; stroke: var(--icon-stroke-color, currentColor); stroke-linecap: round; stroke-linejoin: round; stroke-width:var(--icon-stroke-width-m, calc(var(--icon-stroke-width, 5) * 1));"/><rect x="18" y="18" width="36" height="36" style="fill: none; stroke: var(--icon-stroke-color, currentColor); stroke-linecap: round; stroke-linejoin: round; stroke-width:var(--icon-stroke-width-m, calc(var(--icon-stroke-width, 5) * 1));"/></svg>
