<?xml version="1.0" encoding="UTF-8"?>
<svg id="artwork-frame" xmlns="http://www.w3.org/2000/svg" viewBox="0 0 72 72">
  <rect x="18" y="18" width="36" height="36" style="fill: #ed2024; opacity: .5;"/>
  <path d="M18,9s2.01,2.5,4.5,2.5,4.5-2.5,4.5-2.5c0,0,2.01,2.5,4.5,2.5s4.5-2.5,4.5-2.5c0,0,2.01,2.5,4.5,2.5s4.5-2.5,4.5-2.5c0,0,2.01,2.5,4.5,2.5s4.5-2.5,4.5-2.5h9v9s-2.5,2.01-2.5,4.5,2.5,4.5,2.5,4.5c0,0-2.5,2.01-2.5,4.5s2.5,4.5,2.5,4.5c0,0-2.5,2.01-2.5,4.5s2.5,4.5,2.5,4.5c0,0-2.5,2.01-2.5,4.5s2.5,4.5,2.5,4.5v9h-9s-2.01-2.5-4.5-2.5-4.5,2.5-4.5,2.5c0,0-2.01-2.5-4.5-2.5s-4.5,2.5-4.5,2.5c0,0-2.01-2.5-4.5-2.5s-4.5,2.5-4.5,2.5c0,0-2.01-2.5-4.5-2.5s-4.5,2.5-4.5,2.5h-9v-9s2.5-2.01,2.5-4.5-2.5-4.5-2.5-4.5c0,0,2.5-2.01,2.5-4.5s-2.5-4.5-2.5-4.5c0,0,2.5-2.01,2.5-4.5s-2.5-4.5-2.5-4.5c0,0,2.5-2.01,2.5-4.5s-2.5-4.5-2.5-4.5v-9h9Z" style="fill: none; stroke: #010101; stroke-linecap: round; stroke-linejoin: round; stroke-width: 4px;"/>
  <rect x="18" y="18" width="36" height="36" style="fill: none; stroke: #010101; stroke-linecap: round; stroke-linejoin: round; stroke-width: 4px;"/>
</svg>