<?xml version="1.0" encoding="UTF-8"?>
<svg id="brain" xmlns="http://www.w3.org/2000/svg" viewBox="0 0 72 72">
  <path d="M63,36c0-7.46-6.04-13.5-13.5-13.5v-4.5c0-3.73-3.02-6.75-6.75-6.75s-6.75,3.02-6.75,6.75c0-3.73-3.02-6.75-6.75-6.75s-6.75,3.02-6.75,6.75v4.5c-7.46,0-13.5,6.04-13.5,13.5,0,6.09,4.04,11.24,9.58,12.92l-.58.58c0,4.97,4.03,9,9,9s9-4.03,9-9c0,4.97,4.03,9,9,9s9-4.03,9-9l-.58-.58c5.54-1.68,9.58-6.83,9.58-12.92Z" style="fill: #ed2024; opacity: .5;"/>
  <path d="M27,40.5c4.97,0,9,4.03,9,9s-4.03,9-9,9-9-4.03-9-9" style="fill: none; stroke: #000; stroke-linecap: round; stroke-miterlimit: 10; stroke-width: 4px;"/>
  <path d="M45,40.5c-4.97,0-9,4.03-9,9s4.03,9,9,9,9-4.03,9-9" style="fill: none; stroke: #000; stroke-linecap: round; stroke-miterlimit: 10; stroke-width: 4px;"/>
  <path d="M40.5,27c0,4.97,4.03,9,9,9" style="fill: none; stroke: #000; stroke-linecap: round; stroke-miterlimit: 10; stroke-width: 4px;"/>
  <path d="M22.5,36c4.97,0,9-4.03,9-9" style="fill: none; stroke: #000; stroke-linecap: round; stroke-miterlimit: 10; stroke-width: 4px;"/>
  <path d="M27,22.5c-2.49,0-4.5,2.01-4.5,4.5" style="fill: none; stroke: #000; stroke-linecap: round; stroke-miterlimit: 10; stroke-width: 4px;"/>
  <path d="M45,22.5c2.49,0,4.5,2.01,4.5,4.5" style="fill: none; stroke: #000; stroke-linecap: round; stroke-miterlimit: 10; stroke-width: 4px;"/>
  <path d="M36,18c0-3.73-3.02-6.75-6.75-6.75s-6.75,3.02-6.75,6.75v4.5c-7.46,0-13.5,6.04-13.5,13.5s6.04,13.5,13.5,13.5" style="fill: none; stroke: #000; stroke-linecap: round; stroke-miterlimit: 10; stroke-width: 4px;"/>
  <path d="M36,18c0-3.73,3.02-6.75,6.75-6.75s6.75,3.02,6.75,6.75v4.5c7.46,0,13.5,6.04,13.5,13.5s-6.04,13.5-13.5,13.5" style="fill: none; stroke: #000; stroke-linecap: round; stroke-miterlimit: 10; stroke-width: 4px;"/>
  <line x1="36" y1="18" x2="36" y2="49.5" style="fill: none; stroke: #000; stroke-linecap: round; stroke-miterlimit: 10; stroke-width: 4px;"/>
</svg>