<?xml version="1.0" encoding="UTF-8"?>
<svg id="branch-2" xmlns="http://www.w3.org/2000/svg" viewBox="0 0 72 72">
  <path d="M39.49,20.31c-2.89,2.89-8.73,1.75-8.73,1.75,0,0-1.15-5.84,1.75-8.73,2.89-2.89,8.73-1.75,8.73-1.75,0,0,1.15,5.84-1.75,8.73Z" style="fill: #ed1c24; opacity: .5;"/>
  <path d="M21.49,22.59c0,4.09-4.94,7.41-4.94,7.41,0,0-4.94-3.32-4.94-7.41,0-4.09,4.94-7.41,4.94-7.41,0,0,4.94,3.32,4.94,7.41Z" style="fill: #ed1c24; opacity: .5;"/>
  <path d="M39.49,20.31c-2.89,2.89-8.73,1.75-8.73,1.75,0,0-1.15-5.84,1.75-8.73,2.89-2.89,8.73-1.75,8.73-1.75,0,0,1.15,5.84-1.75,8.73Z" style="fill: none; stroke: #ed1c24; stroke-miterlimit: 10; stroke-width: 4px;"/>
  <path d="M21.49,22.59c0,4.09-4.94,7.41-4.94,7.41,0,0-4.94-3.32-4.94-7.41,0-4.09,4.94-7.41,4.94-7.41,0,0,4.94,3.32,4.94,7.41Z" style="fill: none; stroke: #ed1c24; stroke-miterlimit: 10; stroke-width: 4px;"/>
  <path d="M31.5,21s-4.5,15.75,0,29.25" style="fill: #fff; stroke: #ed1c24; stroke-miterlimit: 10; stroke-width: 4px;"/>
  <line x1="16.56" y1="30" x2="29.5" y2="36.75" style="fill: #fff; stroke: #ed1c24; stroke-miterlimit: 10; stroke-width: 4px;"/>
  <path d="M18,66c31.5-13.5,45-49.5,45-49.5l-4.5-4.5s-13.5,36-45,49.5l4.5,4.5Z" style="fill: #fff; stroke: #231f20; stroke-miterlimit: 10; stroke-width: 4px;"/>
</svg>