<?xml version="1.0" encoding="UTF-8"?>
<svg id="factory-arm" xmlns="http://www.w3.org/2000/svg" viewBox="0 0 72 72">
  <path d="M15.75,63c0-7.46,6.04-13.5,13.5-13.5s13.5,6.04,13.5,13.5" style="fill: #ed2024; opacity: .5;"/>
  <circle cx="22.5" cy="22.5" r="4.5" style="fill: #ed2024; opacity: .5;"/>
  <circle cx="49.75" cy="13.5" r="4.5" style="fill: #ed2024; opacity: .5;"/>
  <polyline points="20.25 54 19 27 27 27 38.25 54" style="fill: none; stroke: #010101; stroke-miterlimit: 10; stroke-width: 4px;"/>
  <path d="M15.75,63c0-7.46,6.04-13.5,13.5-13.5s13.5,6.04,13.5,13.5" style="fill: none; stroke: #010101; stroke-miterlimit: 10; stroke-width: 4px;"/>
  <line x1="9" y1="63" x2="49.5" y2="63" style="fill: #fff; stroke: #010101; stroke-miterlimit: 10; stroke-width: 4px;"/>
  <circle cx="22.5" cy="22.5" r="4.5" style="fill: none; stroke: #010101; stroke-miterlimit: 10; stroke-width: 4px;"/>
  <polygon points="27 18 27 25 43 15 43 12 27 18" style="fill: none; stroke: #010101; stroke-miterlimit: 10; stroke-width: 4px;"/>
  <polyline points="47.25 36 42.75 31.5 47.25 27 51.75 27 56.25 31.5 51.75 36" style="fill: none; stroke: #010101; stroke-miterlimit: 10; stroke-width: 4px;"/>
  <circle cx="49.75" cy="13.5" r="4.5" style="fill: none; stroke: #010101; stroke-miterlimit: 10; stroke-width: 4px;"/>
  <line x1="49.75" y1="18.5" x2="49.75" y2="27" style="fill: none; stroke: #010101; stroke-miterlimit: 10; stroke-width: 4px;"/>
</svg>