<?xml version="1.0" encoding="UTF-8"?>
<svg id="fingerprint" xmlns="http://www.w3.org/2000/svg" viewBox="0 0 72 72">
  <circle cx="38.25" cy="31.5" r="22.5" style="fill: #ed2024; opacity: .5;"/>
  <g>
    <path d="M43.5,19.06c-.81-.34-1.66-.61-2.53-.79s-1.79-.27-2.72-.27-1.84.07-2.72.21-1.73.35-2.53.63-1.57.63-2.29,1.05-1.39.91-2,1.48-1.16,1.2-1.65,1.9-.9,1.48-1.24,2.32-.61,1.76-.79,2.74-.27,2.04-.27,3.16c0,1.69-.21,3.3-.58,4.84s-.9,3-1.53,4.37-1.37,2.65-2.16,3.84c-.79,1.19-1.63,2.28-2.48,3.26s-1.69,1.86-2.48,2.63c-.79.76-1.53,1.42-2.16,1.94s-1.16.93-1.53,1.2-.58.41-.58.41" style="fill: none; stroke: #010101; stroke-linecap: round; stroke-linejoin: round; stroke-width: 4px;"/>
    <path d="M47.25,58.5s.07-.21.19-.61.3-.98.51-1.71.46-1.63.72-2.66c.26-1.03.54-2.19.83-3.45s.56-2.64.83-4.09c.26-1.45.51-2.98.72-4.56s.39-3.22.51-4.88.19-3.35.19-5.04c0-.93-.09-1.84-.27-2.72s-.45-1.73-.79-2.53" style="fill: none; stroke: #010101; stroke-linecap: round; stroke-linejoin: round; stroke-width: 4px;"/>
    <path d="M30.9,45.98c-.53,1.45-1.09,2.82-1.65,4.09-.56,1.27-1.12,2.43-1.65,3.45s-1.02,1.92-1.44,2.66-.77,1.32-1.02,1.71-.39.61-.39.61" style="fill: none; stroke: #010101; stroke-linecap: round; stroke-linejoin: round; stroke-width: 4px;"/>
    <path d="M38.25,58.5s.07-.21.19-.61.3-.98.51-1.71.46-1.63.72-2.66c.26-1.03.54-2.19.83-3.45s.56-2.64.83-4.09c.26-1.45.51-2.98.72-4.56s.39-3.22.51-4.88.19-3.35.19-5.04c0-.31-.03-.61-.09-.91s-.15-.58-.26-.84-.25-.52-.41-.76-.35-.46-.55-.67-.43-.39-.67-.55-.5-.3-.76-.41-.55-.2-.84-.26-.6-.09-.91-.09-.61.03-.91.09-.58.15-.84.26-.52.25-.76.41-.46.35-.67.55-.39.43-.55.67-.3.5-.41.76-.2.55-.26.84-.09.6-.09.91c0,1.69-.14,3.38-.39,5.04" style="fill: none; stroke: #010101; stroke-linecap: round; stroke-linejoin: round; stroke-width: 4px;"/>
    <path d="M57.67,53.52c-.26,1.03-.51,1.92-.72,2.66s-.39,1.32-.51,1.71-.19.61-.19.61" style="fill: none; stroke: #010101; stroke-linecap: round; stroke-linejoin: round; stroke-width: 4px;"/>
    <path d="M19.59,18.92c.81-1.2,1.73-2.31,2.75-3.33s2.13-1.94,3.33-2.75,2.48-1.51,3.82-2.07c1.35-.57,2.76-1.01,4.22-1.31,1.46-.3,2.98-.46,4.53-.46s3.07.16,4.53.46c1.46.3,2.88.74,4.22,1.31,1.35.57,2.62,1.27,3.82,2.07s2.31,1.73,3.33,2.75c1.02,1.02,1.94,2.13,2.75,3.33s1.51,2.48,2.07,3.82c.57,1.35,1.01,2.76,1.31,4.22.3,1.46.46,2.98.46,4.53,0,1.69-.07,3.38-.19,5.04s-.3,3.3-.51,4.88" style="fill: none; stroke: #010101; stroke-linecap: round; stroke-linejoin: round; stroke-width: 4px;"/>
    <path d="M15.98,34.99c-.05-.38-.09-.75-.12-1.09s-.05-.67-.07-.96-.03-.54-.03-.76,0-.38-.01-.5,0-.18,0-.18c0-1.55.16-3.07.46-4.53" style="fill: none; stroke: #010101; stroke-linecap: round; stroke-linejoin: round; stroke-width: 4px;"/>
  </g>
</svg>