<?xml version="1.0" encoding="UTF-8"?>
<svg id="fire" xmlns="http://www.w3.org/2000/svg" viewBox="0 0 72 72">
  <path d="M36,9l-9,18-4.5-4.5s-7.27,6.75-7.27,19.73c0,11.16,8.81,20.24,19.85,20.72-4.54-.46-8.08-4.29-8.08-8.95,0-9,9-18,9-18,0,0,9,9,9,18,0,4.66-3.54,8.49-8.08,8.95,11.04-.49,19.85-9.56,19.85-20.72,0-20.77-20.77-33.23-20.77-33.23Z" style="fill: #ed2024; opacity: .5;"/>
  <path d="M45,54c0,4.97-4.03,9-9,9s-9-4.03-9-9c0-9,9-18,9-18,0,0,9,9,9,18Z" style="fill: none; stroke: #010101; stroke-linecap: round; stroke-linejoin: round; stroke-width: 4px;"/>
  <path d="M15.23,42.23c0-12.98,7.27-19.73,7.27-19.73l4.5,4.5,9-18s20.77,12.46,20.77,33.23c0,11.47-9.3,20.77-20.77,20.77s-20.77-9.3-20.77-20.77" style="fill: none; stroke: #010101; stroke-linecap: round; stroke-linejoin: round; stroke-width: 4px;"/>
</svg>