<?xml version="1.0" encoding="UTF-8"?>
<svg id="furniture-couch_3" xmlns="http://www.w3.org/2000/svg" version="1.1" viewBox="0 0 72 72">
  <!-- Generator: Adobe Illustrator 29.0.1, SVG Export Plug-In . SVG Version: 2.1.0 Build 192)  -->
  <defs>
    <style>
      .st0 {
        fill: #ed2024;
        isolation: isolate;
        opacity: .5;
      }

      .st1, .st2 {
        stroke: #010101;
        stroke-linecap: round;
      }

      .st1, .st2, .st3 {
        fill: none;
        stroke-width: 4px;
      }

      .st1, .st3 {
        stroke-linejoin: round;
      }

      .st2 {
        stroke-miterlimit: 10;
      }

      .st3 {
        stroke: #ff0013;
        stroke-linecap: square;
      }
    </style>
  </defs>
  <path class="st0" d="M63,31.5h-4.5c-2.5,0-4.5,2-4.5,4.5v4.5H18v-4.5c0-2.5-2-4.5-4.5-4.5h-4.5c-2.5,0-4.5,2-4.5,4.5s2,4.5,4.5,4.5v5c0,2.2,1.8,4,4,4h46c2.2,0,4-1.8,4-4v-5c2.5,0,4.5-2,4.5-4.5s-2-4.5-4.5-4.5Z"/>
  <path class="st0" d="M18,36v4.5h36v-4.5c0-2.5,2-4.5,4.5-4.5v-5c0-2.2-1.8-4-4-4h-14.5c-2.2,0-4,1.8-4,4,0-2.2-1.8-4-4-4h-14.5c-2.2,0-4,1.8-4,4v5c2.5,0,4.5,2,4.5,4.5Z"/>
  <line class="st3" x1="18" y1="54" x2="18" y2="49.5"/>
  <line class="st3" x1="54" y1="54" x2="54" y2="49.5"/>
  <path class="st1" d="M58.5,31.5v-5c0-2.2-1.8-4-4-4h-14.5c-2.2,0-4,1.8-4,4v14-14c0-2.2-1.8-4-4-4h-14.5c-2.2,0-4,1.8-4,4v5"/>
  <path class="st2" d="M67.5,36c0-2.5-2-4.5-4.5-4.5h-4.5c-2.5,0-4.5,2-4.5,4.5v4.5H18v-4.5c0-2.5-2-4.5-4.5-4.5h-4.5c-2.5,0-4.5,2-4.5,4.5h0c0,2.5,2,4.5,4.5,4.5h0v5c0,2.2,1.8,4,4,4h46c2.2,0,4-1.8,4-4v-5h0c2.5,0,4.5-2,4.5-4.5h0Z"/>
</svg>