<?xml version="1.0" encoding="UTF-8"?>
<svg id="furniture-chair_2" data-name="furniture-chair 2" xmlns="http://www.w3.org/2000/svg" viewBox="0 0 72 72">
  <path d="M54,31.5v-9.5c0-2.21-1.79-4-4-4h-28c-2.21,0-4,1.79-4,4v9.5h-4.5v18h45v-18h-4.5Z" style="fill: #ed2024; opacity: .5;"/>
  <path d="M17.5,49.5h37c2.21,0,4-1.79,4-4v-9.5c0-2.49-2.01-4.5-4.5-4.5h0c-2.49,0-4.5,2.01-4.5,4.5v4.5h-27v-4.5c0-2.49-2.01-4.5-4.5-4.5h0c-2.49,0-4.5,2.01-4.5,4.5v9.5c0,2.21,1.79,4,4,4Z" style="fill: none; stroke: #010101; stroke-linecap: round; stroke-linejoin: round; stroke-width: 4px;"/>
  <line x1="22.5" y1="54" x2="22.5" y2="49.5" style="fill: none; stroke: #010101; stroke-linecap: square; stroke-linejoin: round; stroke-width: 4px;"/>
  <line x1="49.5" y1="54" x2="49.5" y2="49.5" style="fill: none; stroke: #010101; stroke-linecap: square; stroke-linejoin: round; stroke-width: 4px;"/>
  <path d="M54,31.5v-9.5c0-2.21-1.79-4-4-4h-28c-2.21,0-4,1.79-4,4v9.5" style="fill: none; stroke: #010101; stroke-linecap: round; stroke-linejoin: round; stroke-width: 4px;"/>
</svg>