<?xml version="1.0" encoding="UTF-8"?>
<svg id="factory-belt" xmlns="http://www.w3.org/2000/svg" viewBox="0 0 72 72">
  <path d="M54,45H18c-4.97,0-9,4.03-9,9s4.03,9,9,9h36c4.97,0,9-4.03,9-9s-4.03-9-9-9Z" style="fill: #ed2024; opacity: .5;"/>
  <path d="M54,45H18c-4.97,0-9,4.03-9,9s4.03,9,9,9h36c4.97,0,9-4.03,9-9s-4.03-9-9-9Z" style="fill: none; stroke: #010101; stroke-miterlimit: 10; stroke-width: 4px;"/>
  <line x1="18" y1="54" x2="18" y2="54" style="fill: none; stroke: #010101; stroke-linecap: round; stroke-linejoin: round; stroke-width: 4px;"/>
  <line x1="27" y1="54" x2="27" y2="54" style="fill: none; stroke: #010101; stroke-linecap: round; stroke-linejoin: round; stroke-width: 4px;"/>
  <line x1="36" y1="54" x2="36" y2="54" style="fill: none; stroke: #010101; stroke-linecap: round; stroke-linejoin: round; stroke-width: 4px;"/>
  <line x1="45" y1="54" x2="45" y2="54" style="fill: none; stroke: #010101; stroke-linecap: round; stroke-linejoin: round; stroke-width: 4px;"/>
  <line x1="54" y1="54" x2="54" y2="54" style="fill: none; stroke: #010101; stroke-linecap: round; stroke-linejoin: round; stroke-width: 4px;"/>
  <rect x="13.5" y="31.5" width="13.5" height="13.5" style="fill: none; stroke: #010101; stroke-linecap: square; stroke-miterlimit: 10; stroke-width: 4px;"/>
  <line x1="20.25" y1="31.5" x2="20.25" y2="37.5" style="fill: none; stroke: #010101; stroke-linecap: square; stroke-miterlimit: 10; stroke-width: 4px;"/>
  <polyline points="13.5 27 13.5 22.5 18 18 18 18 22.5 22.5 22.5 27" style="fill: #fff; stroke: #ed2024; stroke-miterlimit: 10; stroke-width: 4px;"/>
  <line x1="18" y1="9" x2="18" y2="18" style="fill: #fff; stroke: #ed2024; stroke-miterlimit: 10; stroke-width: 4px;"/>
  <polyline points="31.5 27 31.5 22.5 36 18 36 18 40.5 22.5 40.5 27" style="fill: #fff; stroke: #ed2024; stroke-miterlimit: 10; stroke-width: 4px;"/>
  <line x1="36" y1="9" x2="36" y2="18" style="fill: #fff; stroke: #ed2024; stroke-miterlimit: 10; stroke-width: 4px;"/>
  <polyline points="49.5 27 49.5 22.5 54 18 54 18 58.5 22.5 58.5 27" style="fill: #fff; stroke: #ed2024; stroke-miterlimit: 10; stroke-width: 4px;"/>
  <line x1="54" y1="9" x2="54" y2="18" style="fill: #fff; stroke: #ed2024; stroke-miterlimit: 10; stroke-width: 4px;"/>
  <line x1="9" y1="9" x2="63" y2="9" style="fill: #fff; stroke: #ed2024; stroke-miterlimit: 10; stroke-width: 4px;"/>
</svg>