<?xml version="1.0" encoding="UTF-8"?>
<svg id="swimming-pool" xmlns="http://www.w3.org/2000/svg" viewBox="0 0 72 72">
  <path d="M45,36c-4.5,0-4.5,4.5-9,4.5s-4.5-4.5-9-4.5-4.5,4.5-9,4.5-4.5-4.5-9-4.5v27h54v-27c-4.5,0-4.5,4.5-9,4.5s-4.5-4.5-9-4.5Z" style="fill: #ed2024; opacity: .5;"/>
  <path d="M9,54c4.5,0,4.5,4.5,9,4.5s4.5-4.5,9-4.5,4.5,4.5,9,4.5,4.5-4.5,9-4.5" style="fill: none; stroke: #010101; stroke-linecap: round; stroke-linejoin: round; stroke-width: 4px;"/>
  <path d="M45,54c4.5,0,4.5,4.5,9,4.5s4.5-4.5,9-4.5" style="fill: none; stroke: #010101; stroke-linecap: round; stroke-linejoin: round; stroke-width: 4px;"/>
  <path d="M9,45c4.5,0,4.5,4.5,9,4.5s4.5-4.5,9-4.5,4.5,4.5,9,4.5,4.5-4.5,9-4.5,4.5,4.5,9,4.5,4.5-4.5,9-4.5" style="fill: none; stroke: #010101; stroke-linecap: round; stroke-linejoin: round; stroke-width: 4px;"/>
  <path d="M9,36c4.5,0,4.5,4.5,9,4.5s4.5-4.5,9-4.5,4.5,4.5,9,4.5,4.5-4.5,9-4.5,4.5,4.5,9,4.5,4.5-4.5,9-4.5" style="fill: none; stroke: #010101; stroke-linecap: round; stroke-linejoin: round; stroke-width: 4px;"/>
  <path d="M36,18c0-2.49-2.01-4.5-4.5-4.5s-4.5,2.01-4.5,4.5v4.5" style="fill: none; stroke: #010101; stroke-linecap: round; stroke-linejoin: round; stroke-width: 4px;"/>
  <path d="M36,40.5v-22.5c0-2.49,2.01-4.5,4.5-4.5s4.5,2.01,4.5,4.5v13.5" style="fill: none; stroke: #010101; stroke-linecap: round; stroke-linejoin: round; stroke-width: 4px;"/>
  <line x1="9" y1="22.5" x2="63" y2="22.5" style="fill: none; stroke: #010101; stroke-linecap: round; stroke-linejoin: round; stroke-width: 4px;"/>
</svg>