<?xml version="1.0" encoding="UTF-8"?>
<svg id="chip" xmlns="http://www.w3.org/2000/svg" viewBox="0 0 72 72">
  <line x1="27" y1="9" x2="27" y2="18" style="fill: none; stroke: #ed2024; stroke-miterlimit: 10; stroke-width: 4px;"/>
  <line x1="36" y1="9" x2="36" y2="18" style="fill: none; stroke: #ed2024; stroke-miterlimit: 10; stroke-width: 4px;"/>
  <line x1="45" y1="9" x2="45" y2="18" style="fill: none; stroke: #ed2024; stroke-miterlimit: 10; stroke-width: 4px;"/>
  <line x1="27" y1="54" x2="27" y2="63" style="fill: none; stroke: #ed2024; stroke-miterlimit: 10; stroke-width: 4px;"/>
  <line x1="36" y1="54" x2="36" y2="63" style="fill: none; stroke: #ed2024; stroke-miterlimit: 10; stroke-width: 4px;"/>
  <line x1="45" y1="54" x2="45" y2="63" style="fill: none; stroke: #ed2024; stroke-miterlimit: 10; stroke-width: 4px;"/>
  <line x1="9" y1="45" x2="18" y2="45" style="fill: none; stroke: #ed2024; stroke-miterlimit: 10; stroke-width: 4px;"/>
  <line x1="9" y1="36" x2="18" y2="36" style="fill: none; stroke: #ed2024; stroke-miterlimit: 10; stroke-width: 4px;"/>
  <line x1="9" y1="27" x2="18" y2="27" style="fill: none; stroke: #ed2024; stroke-miterlimit: 10; stroke-width: 4px;"/>
  <line x1="54" y1="45" x2="63" y2="45" style="fill: none; stroke: #ed2024; stroke-miterlimit: 10; stroke-width: 4px;"/>
  <line x1="54" y1="36" x2="63" y2="36" style="fill: none; stroke: #ed2024; stroke-miterlimit: 10; stroke-width: 4px;"/>
  <line x1="54" y1="27" x2="63" y2="27" style="fill: none; stroke: #ed2024; stroke-miterlimit: 10; stroke-width: 4px;"/>
  <rect x="18" y="18" width="36" height="36" rx="2" ry="2" style="fill: #ed2024; opacity: .5;"/>
  <rect x="18" y="18" width="36" height="36" rx="2" ry="2" style="fill: none; stroke: #010101; stroke-miterlimit: 10; stroke-width: 4px;"/>
</svg>