<?xml version="1.0" encoding="UTF-8"?>
<svg id="bathroom-essentials" xmlns="http://www.w3.org/2000/svg" viewBox="0 0 72 72">
  <g style="opacity: .5;">
    <path d="M22.51,18.1s0-.07-.01-.1v-8.5c0-.28-.22-.5-.5-.5h-8c-.28,0-.5.22-.5.5v8.5s0,.07-.01.1l-2.77,11.06c-1.14,4.54-1.7,9.21-1.68,13.89l.05,10.38c-.04.3.19.57.5.57h16.85c.3,0,.54-.27.5-.57l.05-10.38c.02-4.68-.54-9.35-1.68-13.89l-2.77-11.06Z" style="fill: #ed2024;"/>
    <path d="M40.5,9h-8.5c-.28,0-.5.22-.5.5v12.5c0,.28.22.5.5.5h8.41c.05-.87.09-1.74.09-2.62v-10.88Z" style="fill: #ed2024;"/>
  </g>
  <path d="M14,9h8c.28,0,.5.22.5.5v8.6s2.79,11.06,2.79,11.06c1.14,4.54,1.7,9.21,1.68,13.89l-.05,10.38c.04.3-.19.57-.49.57H9.58c-.3,0-.54-.27-.49-.57l-.05-10.38c-.02-4.68.54-9.35,1.68-13.89l2.77-11.06v-.1s.01-8.5.01-8.5c0-.28.22-.5.5-.5Z" style="fill: none; stroke: #010101; stroke-linecap: square; stroke-miterlimit: 10; stroke-width: 4px;"/>
  <path d="M36,54v-6.38c0-4.71.76-9.39,2.25-13.87h0c1.49-4.47,2.25-9.15,2.25-13.87v-10.88s-8.5,0-8.5,0c-.28,0-.5.22-.5.5v12.5c0,.28.22.5.5.5h7.5" style="fill: none; stroke: #010101; stroke-linecap: square; stroke-miterlimit: 10; stroke-width: 4px;"/>
  <path d="M49.5,9h11.5c1.1,0,2,.9,2,2v41c0,1.1-.9,2-2,2h-11.5" style="fill: none; stroke: #010101; stroke-linecap: square; stroke-miterlimit: 10; stroke-width: 4px;"/>
  <line x1="49.5" y1="18.61" x2="63" y2="18.61" style="fill: none; stroke: #010101; stroke-linecap: square; stroke-miterlimit: 10; stroke-width: 4px;"/>
  <line x1="49.5" y1="27" x2="63" y2="27" style="fill: none; stroke: #010101; stroke-linecap: square; stroke-miterlimit: 10; stroke-width: 4px;"/>
  <line x1="49.5" y1="36" x2="63" y2="36" style="fill: none; stroke: #010101; stroke-linecap: square; stroke-miterlimit: 10; stroke-width: 4px;"/>
  <line x1="49.5" y1="45" x2="63" y2="45" style="fill: none; stroke: #010101; stroke-linecap: square; stroke-miterlimit: 10; stroke-width: 4px;"/>
  <line x1="13.49" y1="18.07" x2="22.51" y2="18.07" style="fill: none; stroke: #010101; stroke-linecap: square; stroke-miterlimit: 10; stroke-width: 4px;"/>
</svg>