<?xml version="1.0" encoding="UTF-8"?>
<svg id="trees_2" data-name="trees 2" xmlns="http://www.w3.org/2000/svg" viewBox="0 0 72 72">
  <path d="M48.68,34.77c1.35-1.93,2.99-3.27,4.75-3.27,4.66,0,8.44,9.4,8.44,14.06s-3.78,8.44-8.44,8.44c-3.21,0-6.01-1.8-7.43-4.44" style="fill: #ed2024; opacity: .5;"/>
  <path d="M27,45.56c0,4.66-3.78,8.44-8.44,8.44s-8.44-3.78-8.44-8.44,3.78-14.06,8.44-14.06,8.44,9.4,8.44,14.06Z" style="fill: #ed2024; opacity: .5;"/>
  <path d="M26,49.55c2.47,2.73,6.03,4.45,10,4.45,7.46,0,13.5-6.04,13.5-13.5s-6.04-22.5-13.5-22.5c-5.83,0-10.8,9.2-12.69,16.77" style="fill: #ed2024; opacity: .5;"/>
  <path d="M48.68,34.77c1.35-1.93,2.99-3.27,4.75-3.27,4.66,0,8.44,9.4,8.44,14.06s-3.78,8.44-8.44,8.44c-3.21,0-6.01-1.8-7.43-4.44" style="fill: none; stroke: #231f20; stroke-miterlimit: 10; stroke-width: 4px;"/>
  <path d="M27,45.56c0,4.66-3.78,8.44-8.44,8.44s-8.44-3.78-8.44-8.44,3.78-14.06,8.44-14.06,8.44,9.4,8.44,14.06Z" style="fill: none; stroke: #231f20; stroke-miterlimit: 10; stroke-width: 4px;"/>
  <path d="M26,49.55c2.47,2.73,6.03,4.45,10,4.45,7.46,0,13.5-6.04,13.5-13.5s-6.04-22.5-13.5-22.5c-5.83,0-10.8,9.2-12.69,16.77" style="fill: none; stroke: #231f20; stroke-miterlimit: 10; stroke-width: 4px;"/>
  <line x1="36" y1="40.5" x2="36" y2="63" style="fill: none; stroke: #ed2024; stroke-miterlimit: 10; stroke-width: 4px;"/>
  <line x1="53.44" y1="45" x2="53.44" y2="63" style="fill: none; stroke: #ed2024; stroke-miterlimit: 10; stroke-width: 4px;"/>
  <line x1="18.56" y1="45" x2="18.56" y2="63" style="fill: none; stroke: #ed2024; stroke-miterlimit: 10; stroke-width: 4px;"/>
  <line x1="9" y1="63" x2="63" y2="63" style="fill: none; stroke: #ed2024; stroke-miterlimit: 10; stroke-width: 4px;"/>
  <polyline points="31.5 36 36 40.5 40.5 36" style="fill: none; stroke: #ed2024; stroke-miterlimit: 10; stroke-width: 4px;"/>
</svg>