<?xml version="1.0" encoding="UTF-8"?>
<svg id="watercooker" xmlns="http://www.w3.org/2000/svg" viewBox="0 0 72 72">
  <path d="M19.61,40.49l-1.32,12.96c-.03.29.2.55.5.55h34.89c.3,0,.53-.26.5-.55l-2.23-21.95c-17.93.08-18.25,8.75-32.34,8.99Z" style="fill: #ed2024; opacity: .5;"/>
  <path d="M18.81,40.5c14.73,0,14.73-9,33.14-9" style="fill: none; stroke: #010101; stroke-miterlimit: 10; stroke-width: 4px;"/>
  <path d="M18.55,54h34.89c.3,0,.53-.26.5-.55l-3.78-37.17c-.37-4.12-3.83-7.28-7.97-7.28h-12.39c-4.14,0-7.59,3.16-7.97,7.28l-3.78,37.17c-.03.29.2.55.5.55Z" style="fill: none; stroke: #010101; stroke-linecap: round; stroke-miterlimit: 10; stroke-width: 4px;"/>
  <path d="M9,40.5l4.18-20.89c.19-.93,1.01-1.61,1.96-1.61h45.48c1.28,0,2.23,1.19,1.95,2.44-.92,4.11-3.65,11.98-10.94,11.98" style="fill: none; stroke: #010101; stroke-linecap: square; stroke-miterlimit: 10; stroke-width: 4px;"/>
  <line x1="18" y1="63" x2="54" y2="63" style="fill: none; stroke: #010101; stroke-miterlimit: 10; stroke-width: 4px;"/>
</svg>