<?xml version="1.0" encoding="UTF-8"?>
<svg id="mountain-scape" xmlns="http://www.w3.org/2000/svg" viewBox="0 0 72 72">
  <path d="M45,31.5c4.5-4.5,9,0,9,0l-9-13.5-9,13.5s4.5,4.5,9,0Z" style="fill: #ed2024; opacity: .5;"/>
  <line x1="18" y1="11.25" x2="18" y2="45" style="fill: none; stroke: #010101; stroke-linecap: round; stroke-linejoin: round; stroke-width: 4px;"/>
  <path d="M18,9c0,3.73-3.02,6.75-6.75,6.75" style="fill: none; stroke: #010101; stroke-linecap: round; stroke-linejoin: round; stroke-width: 4px;"/>
  <path d="M18,15.75c0,4.97-4.03,9-9,9" style="fill: none; stroke: #010101; stroke-linecap: round; stroke-linejoin: round; stroke-width: 4px;"/>
  <path d="M18,9c0,3.73,3.02,6.75,6.75,6.75" style="fill: none; stroke: #010101; stroke-linecap: round; stroke-linejoin: round; stroke-width: 4px;"/>
  <path d="M18,15.75c0,4.97,4.03,9,9,9" style="fill: none; stroke: #010101; stroke-linecap: round; stroke-linejoin: round; stroke-width: 4px;"/>
  <path d="M13.5,45h31.5c2.49,0,4.5,2.01,4.5,4.5h0c0,2.49-2.01,4.5-4.5,4.5h-18c-2.49,0-4.5,2.01-4.5,4.5h0c0,2.49,2.01,4.5,4.5,4.5h9" style="fill: none; stroke: #010101; stroke-linecap: round; stroke-linejoin: round; stroke-width: 4px;"/>
  <polyline points="27 45 45 18 63 45" style="fill: none; stroke: #010101; stroke-linecap: round; stroke-linejoin: round; stroke-width: 4px;"/>
  <path d="M36,31.5s4.5,4.5,9,0,9,0,9,0" style="fill: none; stroke: #010101; stroke-linecap: round; stroke-linejoin: round; stroke-width: 4px;"/>
</svg>