<?xml version="1.0" encoding="UTF-8"?>
<svg id="moneybag" xmlns="http://www.w3.org/2000/svg" viewBox="0 0 72 72">
  <g style="opacity: .5;">
    <path d="M34.83,31.72h2.34c.68,0,1.33.31,1.76.84l9.09,7.25c5.04,4.02,8.1,10.07,8.23,16.52,0,.09,0,.16,0,.23h0c0,3.68-2.98,6.66-6.66,6.66h-27.17c-3.68,0-6.66-2.98-6.66-6.66h0c0-.06,0-.14,0-.23.13-6.45,3.19-12.49,8.23-16.52l9.09-7.25c.43-.53,1.07-.84,1.76-.84Z" style="fill: #ed2024;"/>
    <path d="M31.5,25.22h9c1.24,0,2.25,1.23,2.25,2.75h0c0,1.52-1.01,2.75-2.25,2.75h-9c-1.24,0-2.25-1.23-2.25-2.75h0c0-1.52,1.01-2.75,2.25-2.75Z" style="fill: #ed2024;"/>
    <path d="M30.88,18.47l2.25,4.5c.38.76,1.16,1.24,2.01,1.24h1.72c.85,0,1.63-.48,2.01-1.24l2.25-4.5c.75-1.5-.34-3.26-2.01-3.26h-6.22c-1.67,0-2.76,1.76-2.01,3.26Z" style="fill: #ed2024;"/>
  </g>
  <g>
    <path d="M34.83,31.72h2.34c.68,0,1.33.31,1.76.84l9.09,7.25c5.04,4.02,8.1,10.07,8.23,16.52,0,.09,0,.16,0,.23h0c0,3.68-2.98,6.66-6.66,6.66h-27.17c-3.68,0-6.66-2.98-6.66-6.66h0c0-.06,0-.14,0-.23.13-6.45,3.19-12.49,8.23-16.52l9.09-7.25c.43-.53,1.07-.84,1.76-.84Z" style="fill: none; stroke: #010101; stroke-miterlimit: 10; stroke-width: 4px;"/>
    <path d="M31.5,25.22h9c1.24,0,2.25,1.23,2.25,2.75h0c0,1.52-1.01,2.75-2.25,2.75h-9c-1.24,0-2.25-1.23-2.25-2.75h0c0-1.52,1.01-2.75,2.25-2.75Z" style="fill: none; stroke: #010101; stroke-miterlimit: 10; stroke-width: 4px;"/>
    <path d="M30.88,18.47l2.25,4.5c.38.76,1.16,1.24,2.01,1.24h1.72c.85,0,1.63-.48,2.01-1.24l2.25-4.5c.75-1.5-.34-3.26-2.01-3.26h-6.22c-1.67,0-2.76,1.76-2.01,3.26Z" style="fill: none; stroke: #010101; stroke-miterlimit: 10; stroke-width: 4px;"/>
  </g>
</svg>