<?xml version="1.0" encoding="UTF-8"?>
<svg id="ufo" xmlns="http://www.w3.org/2000/svg" viewBox="0 0 72 72">
  <path d="M9,36l5.49-5.49c2.25-2.25,5.3-3.51,8.49-3.51h26.06c3.18,0,6.23,1.26,8.49,3.51l5.49,5.49-5.49,5.49c-2.25,2.25-5.3,3.51-8.49,3.51h-26.06c-3.18,0-6.23-1.26-8.49-3.51l-5.49-5.49Z" style="fill: #ed2024; opacity: .5;"/>
  <path d="M9,36l5.49-5.49c2.25-2.25,5.3-3.51,8.49-3.51h26.06c3.18,0,6.23,1.26,8.49,3.51l5.49,5.49-5.49,5.49c-2.25,2.25-5.3,3.51-8.49,3.51h-26.06c-3.18,0-6.23-1.26-8.49-3.51l-5.49-5.49Z" style="fill: none; stroke: #010101; stroke-linecap: round; stroke-linejoin: round; stroke-width: 4px;"/>
  <line x1="36" y1="36" x2="36" y2="36" style="fill: none; stroke: #010101; stroke-linecap: round; stroke-linejoin: round; stroke-width: 4px;"/>
  <line x1="27" y1="36" x2="27" y2="36" style="fill: none; stroke: #010101; stroke-linecap: round; stroke-linejoin: round; stroke-width: 4px;"/>
  <line x1="45" y1="36" x2="45" y2="36" style="fill: none; stroke: #010101; stroke-linecap: round; stroke-linejoin: round; stroke-width: 4px;"/>
  <line x1="36" y1="58.5" x2="36" y2="45" style="fill: none; stroke: #010101; stroke-linecap: round; stroke-linejoin: round; stroke-width: 4px;"/>
  <line x1="18" y1="58.5" x2="22.5" y2="45" style="fill: none; stroke: #010101; stroke-linecap: round; stroke-linejoin: round; stroke-width: 4px;"/>
  <line x1="54" y1="58.5" x2="49.5" y2="45" style="fill: none; stroke: #010101; stroke-linecap: round; stroke-linejoin: round; stroke-width: 4px;"/>
  <path d="M22.5,27c0-7.46,6.04-13.5,13.5-13.5s13.5,6.04,13.5,13.5" style="fill: none; stroke: #010101; stroke-linecap: round; stroke-linejoin: round; stroke-width: 4px;"/>
</svg>