<?xml version="1.0" encoding="UTF-8"?>
<svg id="coins" xmlns="http://www.w3.org/2000/svg" viewBox="0 0 72 72">
  <path d="M49.5,13.5c-13.5,0-13.5,4.5-13.5,4.5v36s0,4.5,13.5,4.5,13.5-4.5,13.5-4.5V18s0-4.5-13.5-4.5Z" style="fill: #ed2024; opacity: .5;"/>
  <path d="M9,31.5s0,4.5,13.5,4.5,13.5-4.5,13.5-4.5" style="fill: none; stroke: #ed2024; stroke-miterlimit: 10; stroke-width: 4px;"/>
  <path d="M9,22.5s0,4.5,13.5,4.5,13.5-4.5,13.5-4.5" style="fill: none; stroke: #ed2024; stroke-miterlimit: 10; stroke-width: 4px;"/>
  <path d="M9,40.5s0,4.5,13.5,4.5,13.5-4.5,13.5-4.5" style="fill: none; stroke: #ed2024; stroke-miterlimit: 10; stroke-width: 4px;"/>
  <polyline points="9 22.5 9 31.5 9 40.5 9 49.5" style="fill: none; stroke: #010101; stroke-miterlimit: 10; stroke-width: 4px;"/>
  <path d="M22.5,18c-13.5,0-13.5,4.5-13.5,4.5v27s0,4.5,13.5,4.5,13.5-4.5,13.5-4.5v-27s0-4.5-13.5-4.5Z" style="fill: none; stroke: #010101; stroke-miterlimit: 10; stroke-width: 4px;"/>
  <path d="M36,27s0,4.5,13.5,4.5,13.5-4.5,13.5-4.5" style="fill: none; stroke: #ed2024; stroke-miterlimit: 10; stroke-width: 4px;"/>
  <path d="M36,18s0,4.5,13.5,4.5,13.5-4.5,13.5-4.5" style="fill: none; stroke: #ed2024; stroke-miterlimit: 10; stroke-width: 4px;"/>
  <path d="M36,45s0,4.5,13.5,4.5,13.5-4.5,13.5-4.5" style="fill: none; stroke: #ed2024; stroke-miterlimit: 10; stroke-width: 4px;"/>
  <path d="M36,36s0,4.5,13.5,4.5,13.5-4.5,13.5-4.5" style="fill: none; stroke: #ed2024; stroke-miterlimit: 10; stroke-width: 4px;"/>
  <polyline points="36 22.5 36 31.5 36 40.5 36 49.5" style="fill: none; stroke: #010101; stroke-miterlimit: 10; stroke-width: 4px;"/>
  <path d="M49.5,13.5c-13.5,0-13.5,4.5-13.5,4.5v36s0,4.5,13.5,4.5,13.5-4.5,13.5-4.5V18s0-4.5-13.5-4.5Z" style="fill: none; stroke: #010101; stroke-miterlimit: 10; stroke-width: 4px;"/>
</svg>