<?xml version="1.0" encoding="UTF-8"?>
<svg id="ai-stars-2" xmlns="http://www.w3.org/2000/svg" viewBox="0 0 72 72">
  <g style="opacity: .5;">
    <path d="M45,40.5c-9.94,0-18-8.06-18-18,0,9.94-8.06,18-18,18,9.94,0,18,8.06,18,18,0-9.94,8.06-18,18-18Z" style="fill: #ed1c24;"/>
  </g>
  <g style="opacity: .5;">
    <path d="M58.5,22.5c-4.97,0-9-4.03-9-9,0,4.97-4.03,9-9,9,4.97,0,9,4.03,9,9,0-4.97,4.03-9,9-9Z" style="fill: #ed1c24;"/>
  </g>
  <path d="M45,40.5c-9.94,0-18-8.06-18-18,0,9.94-8.06,18-18,18,9.94,0,18,8.06,18,18,0-9.94,8.06-18,18-18Z" style="fill: none; stroke: #231f20; stroke-miterlimit: 10; stroke-width: 4px;"/>
  <path d="M58.5,22.5c-4.97,0-9-4.03-9-9,0,4.97-4.03,9-9,9,4.97,0,9,4.03,9,9,0-4.97,4.03-9,9-9Z" style="fill: none; stroke: #231f20; stroke-miterlimit: 10; stroke-width: 4px;"/>
</svg>