<?xml version="1.0" encoding="UTF-8"?>
<svg id="branch-3" xmlns="http://www.w3.org/2000/svg" viewBox="0 0 72 72">
  <path d="M37.13,18.31c2.89,2.89,8.73,1.75,8.73,1.75,0,0,1.15-5.84-1.75-8.73-2.89-2.89-8.73-1.75-8.73-1.75,0,0-1.15,5.84,1.75,8.73Z" style="fill: #ed1c24; opacity: .5;"/>
  <path d="M55.12,20.59c0,4.09,4.94,7.41,4.94,7.41,0,0,4.94-3.32,4.94-7.41,0-4.09-4.94-7.41-4.94-7.41,0,0-4.94,3.32-4.94,7.41Z" style="fill: #ed1c24; opacity: .5;"/>
  <path d="M6.07,27.51s5.84-2.15,8.73.75,1.75,8.73,1.75,8.73c0,0-5.84,1.15-8.73-1.75s-1.75-7.73-1.75-7.73Z" style="fill: #ed1c24; opacity: .5;"/>
  <path d="M24.25,59.05c-3.8,1.5-8.7-1.87-8.7-1.87,0,0,1.27-5.81,5.07-7.32,3.8-1.5,8.7,1.87,8.7,1.87,0,0-1.27,5.81-5.07,7.32Z" style="fill: #ed1c24; opacity: .5;"/>
  <path d="M37.13,18.31c2.89,2.89,8.73,1.75,8.73,1.75,0,0,1.15-5.84-1.75-8.73-2.89-2.89-8.73-1.75-8.73-1.75,0,0-1.15,5.84,1.75,8.73Z" style="fill: none; stroke: #ed1c24; stroke-miterlimit: 10; stroke-width: 4px;"/>
  <path d="M55.12,20.59c0,4.09,4.94,7.41,4.94,7.41,0,0,4.94-3.32,4.94-7.41,0-4.09-4.94-7.41-4.94-7.41,0,0-4.94,3.32-4.94,7.41Z" style="fill: none; stroke: #ed1c24; stroke-miterlimit: 10; stroke-width: 4px;"/>
  <path d="M6.07,27.51s5.84-2.15,8.73.75,1.75,8.73,1.75,8.73c0,0-5.84,1.15-8.73-1.75s-1.75-7.73-1.75-7.73Z" style="fill: none; stroke: #ed1c24; stroke-miterlimit: 10; stroke-width: 4px;"/>
  <path d="M24.25,59.05c-3.8,1.5-8.7-1.87-8.7-1.87,0,0,1.27-5.81,5.07-7.32,3.8-1.5,8.7,1.87,8.7,1.87,0,0-1.27,5.81-5.07,7.32Z" style="fill: none; stroke: #ed1c24; stroke-miterlimit: 10; stroke-width: 4px;"/>
  <path d="M45.12,19s4.5,15.75,0,29.25" style="fill: #fff; stroke: #ed1c24; stroke-miterlimit: 10; stroke-width: 4px;"/>
  <line x1="60.06" y1="28" x2="47.12" y2="33.11" style="fill: #fff; stroke: #ed1c24; stroke-miterlimit: 10; stroke-width: 4px;"/>
  <path d="M15.2,36.99s9.85,3.44,18.3.63" style="fill: #fff; stroke: #ed1c24; stroke-miterlimit: 10; stroke-width: 4px;"/>
  <line x1="28.57" y1="53.64" x2="36.71" y2="41.29" style="fill: #fff; stroke: #ed1c24; stroke-miterlimit: 10; stroke-width: 4px;"/>
  <path d="M60.06,56.87s-27.81-7.94-43.65-47.52" style="fill: none; stroke: #231f20; stroke-miterlimit: 10; stroke-width: 4px;"/>
</svg>