<?xml version="1.0" encoding="UTF-8"?>
<svg id="key2" xmlns="http://www.w3.org/2000/svg" viewBox="0 0 72 72">
  <path d="M60.75,29h-27.78c-1.85-5.24-6.84-9-12.72-9-7.46,0-13.5,6.04-13.5,13.5s6.04,13.5,13.5,13.5c5.88,0,10.86-3.76,12.72-9h9.78l4.5-2.5,4.5,2.5,4.5-2.5,4.5,2.5,4.5-4.5-4.5-4.5ZM17.75,38.25c-2.49,0-4.5-2.01-4.5-4.5s2.01-4.5,4.5-4.5,4.5,2.01,4.5,4.5-2.01,4.5-4.5,4.5Z" style="fill: #ed1c24; opacity: .5;"/>
  <circle cx="17.75" cy="33.75" r="4.5" style="fill: none; stroke: #231f20; stroke-miterlimit: 10; stroke-width: 4px;"/>
  <path d="M32.97,38.25h9.78l4.5-2.5,4.5,2.5,4.5-2.5,4.5,2.5,4.5-4.5-4.5-4.5h-27.78c-1.86-5.24-6.84-9-12.72-9-7.46,0-13.5,6.04-13.5,13.5s6.04,13.5,13.5,13.5c5.88,0,10.86-3.76,12.72-9Z" style="fill: none; stroke: #231f20; stroke-miterlimit: 10; stroke-width: 4px;"/>
</svg>