<svg id="leafs" xmlns="http://www.w3.org/2000/svg" viewBox="0 0 72 72"><path d="M57.47,42.45c-7.9,7.9-23.84,4.77-23.84,4.77,0,0-3.13-15.94,4.77-23.84s23.84-4.77,23.84-4.77c0,0,3.13,15.94-4.77,23.84Z" style="fill: var(--icon-fill, rgba(0, 0, 0, 0)); opacity: var(--icon-fill-opacity, 1);"/><path d="M25.58,33.07c6.69,3.36,8.06,14.15,8.06,14.15,0,0-9.48,5.35-16.16,1.99-6.69-3.36-8.06-14.15-8.06-14.15,0,0,9.48-5.35,16.16-1.99Z" style="fill: var(--icon-fill, rgba(0, 0, 0, 0)); opacity: var(--icon-fill-opacity, 1);"/><path d="M57.47,42.45c-7.9,7.9-23.84,4.77-23.84,4.77,0,0-3.13-15.94,4.77-23.84s23.84-4.77,23.84-4.77c0,0,3.13,15.94-4.77,23.84Z" style="fill: none; stroke: var(--icon-stroke-color, currentColor); stroke-miterlimit: 10; stroke-width:var(--icon-stroke-width-m, calc(var(--icon-stroke-width, 5) * 1));"/><line x1="62.24" y1="18.61" x2="33.63" y2="47.22" style="fill: none; stroke: var(--icon-stroke-color-secondary, var(--icon-stroke-color, currentColor)); stroke-miterlimit: 10; stroke-width:var(--icon-stroke-width-secondary-m, var(--icon-stroke-width-m, calc(var(--icon-stroke-width, 5) * 1)));"/><path d="M25.58,33.07c6.69,3.36,8.06,14.15,8.06,14.15,0,0-9.48,5.35-16.16,1.99-6.69-3.36-8.06-14.15-8.06-14.15,0,0,9.48-5.35,16.16-1.99Z" style="fill: none; stroke: var(--icon-stroke-color, currentColor); stroke-miterlimit: 10; stroke-width:var(--icon-stroke-width-m, calc(var(--icon-stroke-width, 5) * 1));"/><line x1="9.41" y1="35.06" x2="33.63" y2="47.22" style="fill: none; stroke: var(--icon-stroke-color-secondary, var(--icon-stroke-color, currentColor)); stroke-miterlimit: 10; stroke-width:var(--icon-stroke-width-secondary-m, var(--icon-stroke-width-m, calc(var(--icon-stroke-width, 5) * 1)));"/><line x1="36" y1="58.5" x2="33.63" y2="47.22" style="fill: none; stroke: var(--icon-stroke-color-secondary, var(--icon-stroke-color, currentColor)); stroke-miterlimit: 10; stroke-width:var(--icon-stroke-width-secondary-m, var(--icon-stroke-width-m, calc(var(--icon-stroke-width, 5) * 1)));"/></svg>
