<?xml version="1.0" encoding="UTF-8"?>
<svg id="key" xmlns="http://www.w3.org/2000/svg" version="1.1" viewBox="0 0 72 72">
  <!-- Generator: Adobe Illustrator 29.0.1, SVG Export Plug-In . SVG Version: 2.1.0 Build 192)  -->
  <defs>
    <style>
      .st0 {
        stroke: #ff0013;
      }

      .st0, .st1 {
        fill: none;
        stroke-miterlimit: 10;
        stroke-width: 4px;
      }

      .st2 {
        isolation: isolate;
      }

      .st2, .st3 {
        opacity: .5;
      }

      .st2, .st4 {
        fill: red;
      }

      .st1 {
        stroke: #231f20;
      }
    </style>
  </defs>
  <path class="st2" d="M36.1,26.8c0,5-4,9-9,9s-9-4-9-9v-9h18v9Z"/>
  <g class="st3">
    <path class="st4" d="M40.6,62.8l-4.5-36c0,4.6-3.4,8.4-7.9,8.9l3.4,27.1s9,0,9,0Z"/>
    <path class="st4" d="M18.1,26.8l-4.5,36h9l3.4-27.1c-4.4-.6-7.9-4.3-7.9-8.9Z"/>
  </g>
  <path class="st1" d="M36,27c0,5-4,9-9,9s-9-4-9-9v-9h18v9Z"/>
  <line class="st1" x1="27" y1="9" x2="27" y2="18"/>
  <line class="st1" x1="18" y1="67.5" x2="18" y2="63"/>
  <line class="st1" x1="36" y1="67.5" x2="36" y2="63"/>
  <polyline class="st0" points="36 13.5 36 9 58.5 9 58.5 63 45 63"/>
  <line class="st0" x1="45" y1="18" x2="58.5" y2="18"/>
  <line class="st0" x1="45" y1="27" x2="58.5" y2="27"/>
  <line class="st0" x1="45" y1="36" x2="58.5" y2="36"/>
  <line class="st0" x1="45" y1="45" x2="58.5" y2="45"/>
  <line class="st0" x1="45" y1="54" x2="58.5" y2="54"/>
  <g>
    <path class="st1" d="M40.5,63l-4.5-36c0,4.6-3.4,8.4-7.9,8.9l3.4,27.1h9Z"/>
    <path class="st1" d="M18,27l-4.5,36h9l3.4-27.1c-4.4-.6-7.9-4.3-7.9-8.9Z"/>
  </g>
</svg>