<?xml version="1.0" encoding="UTF-8"?>
<svg id="money" xmlns="http://www.w3.org/2000/svg" viewBox="0 0 72 72">
  <g style="opacity: .5;">
    <rect x="9" y="23.47" width="54" height="31.5" rx="2" ry="2" style="fill: #ed2024;"/>
    <path d="M9,33.43c4.97,0,9-4.03,9-9,0-.33-.02-.65-.05-.97" style="fill: #ed2024;"/>
    <path d="M53.03,23.47c0,4.97,4.03,9,9,9,.33,0,.65-.02.97-.05" style="fill: #ed2024;"/>
    <path d="M63,45c-4.97,0-9,4.03-9,9,0,.33.02.65.05.97" style="fill: #ed2024;"/>
    <path d="M18.97,54.97c0-4.97-4.03-9-9-9-.33,0-.65.02-.97.05" style="fill: #ed2024;"/>
  </g>
  <g>
    <path d="M9,33.43c4.97,0,9-4.03,9-9,0-.33-.02-.65-.05-.97" style="fill: none; stroke: #ed2024; stroke-miterlimit: 10; stroke-width: 4px;"/>
    <path d="M53.03,23.47c0,4.97,4.03,9,9,9,.33,0,.65-.02.97-.05" style="fill: none; stroke: #ed2024; stroke-miterlimit: 10; stroke-width: 4px;"/>
    <path d="M63,45c-4.97,0-9,4.03-9,9,0,.33.02.65.05.97" style="fill: none; stroke: #ed2024; stroke-miterlimit: 10; stroke-width: 4px;"/>
    <path d="M18.97,54.97c0-4.97-4.03-9-9-9-.33,0-.65.02-.97.05" style="fill: none; stroke: #ed2024; stroke-miterlimit: 10; stroke-width: 4px;"/>
    <rect x="9" y="23.47" width="54" height="31.5" rx="2" ry="2" style="fill: none; stroke: #000; stroke-miterlimit: 10; stroke-width: 4px;"/>
  </g>
  <circle cx="36" cy="39.22" r="9" style="fill: none; stroke: #ed2024; stroke-miterlimit: 10; stroke-width: 4px;"/>
</svg>