<?xml version="1.0" encoding="UTF-8"?>
<svg id="shield-2-line" xmlns="http://www.w3.org/2000/svg" viewBox="0 0 72 72">
  <path d="M11.45,18.82s4.02,7.31,2.05,17.18c-4.5,22.5,12.48,22.99,22.5,27V9l-24.55,9.82Z" style="fill: #ed2024; opacity: .5;"/>
  <path d="M60.55,18.82l-24.55-9.82v54c10.02-4.01,27-4.5,22.5-27-1.97-9.87,2.05-17.18,2.05-17.18Z" style="fill: #ed2024; opacity: .5;"/>
  <line x1="36" y1="9" x2="36" y2="63" style="fill: none; stroke: #ee1c4e; stroke-miterlimit: 10; stroke-width: 4px;"/>
  <path d="M36,63c-10.02-4.01-27-4.5-22.5-27,1.97-9.87-2.05-17.18-2.05-17.18l24.55-9.82,24.55,9.82s-4.02,7.31-2.05,17.18c4.5,22.5-12.48,22.99-22.5,27Z" style="fill: none; stroke: #231f20; stroke-miterlimit: 10; stroke-width: 4px;"/>
</svg>