<svg id="toy-head" xmlns="http://www.w3.org/2000/svg" viewBox="0 0 72 72"><g ><rect x="13.5" y="13.5" width="45" height="40.5" rx="8" ry="8" style="fill: var(--icon-fill, rgba(0, 0, 0, 0)); opacity: var(--icon-fill-opacity, 1);" /><rect x="24.75" y="54" width="22.5" height="9" style="fill: var(--icon-fill, rgba(0, 0, 0, 0)); opacity: var(--icon-fill-opacity, 1);" /><path d="M30.97,6.75h10.05c1.1,0,2,.9,2,2v4.75h-14.05v-4.75c0-1.1.9-2,2-2Z" style="fill: var(--icon-fill, rgba(0, 0, 0, 0)); opacity: var(--icon-fill-opacity, 1);" /></g><rect x="13.5" y="13.5" width="45" height="40.5" rx="8" ry="8" style="fill: none; stroke: var(--icon-stroke-color, currentColor); stroke-miterlimit: 10; stroke-width:var(--icon-stroke-width-m, calc(var(--icon-stroke-width, 5) * 1));"/><rect x="24.75" y="54" width="22.5" height="9" style="fill: none; stroke: var(--icon-stroke-color, currentColor); stroke-miterlimit: 10; stroke-width:var(--icon-stroke-width-m, calc(var(--icon-stroke-width, 5) * 1));"/><path d="M30.97,6.75h10.05c1.1,0,2,.9,2,2v4.75h-14.05v-4.75c0-1.1.9-2,2-2Z" style="fill: none; stroke: var(--icon-stroke-color, currentColor); stroke-miterlimit: 10; stroke-width:var(--icon-stroke-width-m, calc(var(--icon-stroke-width, 5) * 1));"/><line x1="29.35" y1="28.91" x2="29.35" y2="28.91" style="fill: none; stroke: var(--icon-stroke-color-secondary, var(--icon-stroke-color, currentColor)); stroke-linecap: round; stroke-linejoin: round; stroke-width:var(--icon-stroke-width-secondary-l, var(--icon-stroke-width-l, calc(var(--icon-stroke-width, 5) * 1.5)));"/><line x1="42.51" y1="28.91" x2="42.51" y2="28.91" style="fill: none; stroke: var(--icon-stroke-color-secondary, var(--icon-stroke-color, currentColor)); stroke-linecap: round; stroke-linejoin: round; stroke-width:var(--icon-stroke-width-secondary-l, var(--icon-stroke-width-l, calc(var(--icon-stroke-width, 5) * 1.5)));"/><path d="M43.57,38.46c-4.22,4.22-11.06,4.22-15.28,0" style="fill: none; stroke: var(--icon-stroke-color-secondary, var(--icon-stroke-color, currentColor)); stroke-linecap: round; stroke-linejoin: round; stroke-width:var(--icon-stroke-width-secondary-m, var(--icon-stroke-width-m, calc(var(--icon-stroke-width, 5) * 1)));"/></svg>
