<svg id="wallet-2" data-name="wallet" xmlns="http://www.w3.org/2000/svg" viewBox="0 0 72 72"><path d="M49.5,29.25h13.5v-11.75c0-2.21-1.79-4-4-4H13c-2.21,0-4,1.79-4,4v37c0,2.21,1.79,4,4,4h46c2.21,0,4-1.79,4-4v-11.75h-13.5c-3.73,0-6.75-3.02-6.75-6.75s3.02-6.75,6.75-6.75Z" style="fill: var(--icon-fill, rgba(0, 0, 0, 0)); opacity: var(--icon-fill-opacity, 1);"/><g><path d="M63,29.25h-13.5c-3.73,0-6.75,3.02-6.75,6.75h0c0,3.73,3.02,6.75,6.75,6.75h13.5" style="fill: none; stroke: var(--icon-stroke-color-secondary, var(--icon-stroke-color, currentColor)); stroke-miterlimit: 10; stroke-width:var(--icon-stroke-width-secondary-m, var(--icon-stroke-width-m, calc(var(--icon-stroke-width, 5) * 1)));"/><line x1="49.5" y1="36" x2="49.5" y2="36" style="fill: none; stroke: var(--icon-stroke-color, currentColor); stroke-linecap: round; stroke-linejoin: round; stroke-width:var(--icon-stroke-width-m, calc(var(--icon-stroke-width, 5) * 1));"/></g><rect x="9" y="13.5" width="54" height="45" rx="4" ry="4" style="fill: none; stroke: var(--icon-stroke-color, currentColor); stroke-miterlimit: 10; stroke-width:var(--icon-stroke-width-m, calc(var(--icon-stroke-width, 5) * 1));"/></svg>
