<?xml version="1.0" encoding="UTF-8"?>
<svg id="washing_machine" data-name="washing machine" xmlns="http://www.w3.org/2000/svg" viewBox="0 0 72 72">
  <g style="opacity: .5;">
    <path d="M60.81,9.42c-.04-.25-.25-.42-.49-.42H11.68c-.25,0-.46.17-.49.42-.36,2.48-2.19,15.41-2.19,24.33s1.83,21.85,2.19,24.33c.04.25.25.42.49.42h48.64c.25,0,.46-.17.49-.42.36-2.48,2.19-15.41,2.19-24.33s-1.83-21.85-2.19-24.33ZM49.5,36c0,7.46-6.04,13.5-13.5,13.5-5.88,0-10.87-3.77-12.72-9.02-.26,0-.51.02-.78.02l.7-.23c-.45-1.34-.7-2.77-.7-4.27,0-7.46,6.04-13.5,13.5-13.5,5.88,0,10.87,3.77,12.72,9.01.26,0,.51-.01.78-.01l-.7.23c.45,1.34.7,2.77.7,4.27Z" style="fill: #ed2024;"/>
  </g>
  <path d="M60.32,58.5c.25,0,.46-.17.49-.42.36-2.48,2.19-15.41,2.19-24.33s-1.83-21.85-2.19-24.33c-.04-.25-.25-.42-.49-.42H11.68c-.25,0-.46.17-.49.42-.36,2.48-2.19,15.41-2.19,24.33s1.83,21.85,2.19,24.33c.04.25.25.42.49.42h48.64Z" style="fill: none; stroke: #010101; stroke-miterlimit: 10; stroke-width: 4px;"/>
  <circle cx="36" cy="36" r="13.5" style="fill: none; stroke: #010101; stroke-miterlimit: 10; stroke-width: 4px;"/>
  <path d="M22.5,40.5c12,0,12-9,27-9" style="fill: none; stroke: #010101; stroke-miterlimit: 10; stroke-width: 4px;"/>
  <line x1="22.5" y1="18" x2="22.5" y2="18" style="fill: none; stroke: #010101; stroke-linecap: round; stroke-linejoin: round; stroke-width: 4px;"/>
</svg>