<?xml version="1.0" encoding="UTF-8"?>
<svg id="cloud-lightning" xmlns="http://www.w3.org/2000/svg" viewBox="0 0 72 72">
  <path d="M30.7,46.19v7.14c0,.55.45,1,1,1h4.3v6.67c0,1.02,1.35,1.39,1.86.5l6.5-11.2c.39-.67-.09-1.5-.87-1.5h-3v-2.39" style="fill: none; stroke: #ed2024; stroke-miterlimit: 10; stroke-width: 4px;"/>
  <path d="M54,24.5c-.2,0-.39.02-.58.03-1.99-7.77-9.02-13.53-17.42-13.53s-15.43,5.76-17.42,13.53c-.19-.01-.39-.03-.58-.03-4.97,0-9,4.03-9,9s4.03,9,9,9c1.74,0,3.36-.5,4.74-1.36,3.29,3.59,8.01,5.86,13.26,5.86s9.97-2.27,13.26-5.86c1.38.86,3,1.36,4.74,1.36,4.97,0,9-4.03,9-9s-4.03-9-9-9Z" style="fill: #ed2024; opacity: .5;"/>
  <path d="M54,24.5c-.2,0-.39.02-.58.03-1.99-7.77-9.02-13.53-17.42-13.53s-15.43,5.76-17.42,13.53c-.19-.01-.39-.03-.58-.03-4.97,0-9,4.03-9,9s4.03,9,9,9c1.74,0,3.36-.5,4.74-1.36,3.29,3.59,8.01,5.86,13.26,5.86s9.97-2.27,13.26-5.86c1.38.86,3,1.36,4.74,1.36,4.97,0,9-4.03,9-9s-4.03-9-9-9Z" style="fill: none; stroke: #010101; stroke-linecap: round; stroke-miterlimit: 10; stroke-width: 4px;"/>
</svg>