<svg id="moon-2" data-name="moon" xmlns="http://www.w3.org/2000/svg" viewBox="0 0 72 72"><path d="M41.19,53.67c-9.18-9.18-9.18-24.05,0-33.23,2.44-2.44,5.28-4.21,8.31-5.35-8.37-3.16-18.18-1.39-24.92,5.35-9.18,9.18-9.18,24.05,0,33.23,6.74,6.74,16.55,8.51,24.92,5.35-3.03-1.14-5.87-2.91-8.31-5.35Z" style="fill: var(--icon-fill, rgba(0, 0, 0, 0)); opacity: var(--icon-fill-opacity, 1);"/><path d="M41.19,53.67c-9.18-9.18-9.18-24.05,0-33.23,2.44-2.44,5.28-4.21,8.31-5.35-8.37-3.16-18.18-1.39-24.92,5.35-9.18,9.18-9.18,24.05,0,33.23,6.74,6.74,16.55,8.51,24.92,5.35-3.03-1.14-5.87-2.91-8.31-5.35Z" style="fill: none; stroke: var(--icon-stroke-color, currentColor); stroke-linecap: round; stroke-linejoin: round; stroke-width:var(--icon-stroke-width-m, calc(var(--icon-stroke-width, 5) * 1));"/></svg>
