<svg id="cloud-thermometer" xmlns="http://www.w3.org/2000/svg" viewBox="0 0 72 72"><circle cx="51.75" cy="51.75" r="4.5" style="fill: none; stroke: var(--icon-stroke-color-secondary, var(--icon-stroke-color, currentColor)); stroke-miterlimit: 10; stroke-width:var(--icon-stroke-width-secondary-m, var(--icon-stroke-width-m, calc(var(--icon-stroke-width, 5) * 1)));"/><line x1="51.75" y1="16.5" x2="51.75" y2="47.25" style="fill: none; stroke: var(--icon-stroke-color-secondary, var(--icon-stroke-color, currentColor)); stroke-miterlimit: 10; stroke-width:var(--icon-stroke-width-secondary-m, var(--icon-stroke-width-m, calc(var(--icon-stroke-width, 5) * 1)));"/><path d="M45,22.67c-2.65-1.54-5.72-2.42-9-2.42-8.39,0-15.43,5.76-17.42,13.53-.19-.01-.39-.03-.58-.03-4.97,0-9,4.03-9,9s4.03,9,9,9c1.74,0,3.36-.5,4.74-1.36,3.29,3.59,8.01,5.86,13.26,5.86,1.79,0,3.52-.26,5.15-.75" style="fill: var(--icon-fill, rgba(0, 0, 0, 0)); opacity: var(--icon-fill-opacity, 1);"/><path d="M58.5,42.77V15.75c0-3.73-3.02-6.75-6.75-6.75s-6.75,3.02-6.75,6.75v27.02c-2.73,2.05-4.5,5.31-4.5,8.98,0,6.21,5.04,11.25,11.25,11.25s11.25-5.04,11.25-11.25c0-3.68-1.77-6.93-4.5-8.98Z" style="fill: none; stroke: var(--icon-stroke-color, currentColor); stroke-miterlimit: 10; stroke-width:var(--icon-stroke-width-m, calc(var(--icon-stroke-width, 5) * 1));"/><path d="M45,22.67c-2.65-1.54-5.72-2.42-9-2.42-8.39,0-15.43,5.76-17.42,13.53-.19-.01-.39-.03-.58-.03-4.97,0-9,4.03-9,9s4.03,9,9,9c1.74,0,3.36-.5,4.74-1.36,3.29,3.59,8.01,5.86,13.26,5.86,1.79,0,3.52-.26,5.15-.75" style="fill: none; stroke: var(--icon-stroke-color, currentColor); stroke-linecap: round; stroke-miterlimit: 10; stroke-width:var(--icon-stroke-width-m, calc(var(--icon-stroke-width, 5) * 1));"/></svg>
