<?xml version="1.0" encoding="UTF-8"?>
<svg id="moon-dark-mode" xmlns="http://www.w3.org/2000/svg" viewBox="0 0 72 72">
  <g style="opacity: .5;">
    <path d="M45,45.25c-9.94,0-18-8.06-18-18,0-2.64.58-5.14,1.6-7.4-6.25,2.82-10.6,9.1-10.6,16.4,0,9.94,8.06,18,18,18,7.3,0,13.57-4.36,16.4-10.6-2.26,1.02-4.76,1.6-7.4,1.6Z" style="fill: #ed2024;"/>
  </g>
  <path d="M45,45.25c-9.94,0-18-8.06-18-18,0-2.64.58-5.14,1.6-7.4-6.25,2.82-10.6,9.1-10.6,16.4,0,9.94,8.06,18,18,18,7.3,0,13.57-4.36,16.4-10.6-2.26,1.02-4.76,1.6-7.4,1.6Z" style="fill: none; stroke: #231f20; stroke-linecap: round; stroke-linejoin: round; stroke-width: 4px;"/>
</svg>