<svg id="thermometer-cold" xmlns="http://www.w3.org/2000/svg" viewBox="0 0 72 72"><circle cx="36" cy="51.75" r="4.5" style="fill: none; stroke: var(--icon-stroke-color-secondary, var(--icon-stroke-color, currentColor)); stroke-miterlimit: 10; stroke-width:var(--icon-stroke-width-secondary-m, var(--icon-stroke-width-m, calc(var(--icon-stroke-width, 5) * 1)));"/><line x1="36" y1="40.5" x2="36" y2="47.25" style="fill: none; stroke: var(--icon-stroke-color-secondary, var(--icon-stroke-color, currentColor)); stroke-miterlimit: 10; stroke-width:var(--icon-stroke-width-secondary-m, var(--icon-stroke-width-m, calc(var(--icon-stroke-width, 5) * 1)));"/><path d="M42.75,42.77V15.75c0-3.73-3.02-6.75-6.75-6.75s-6.75,3.02-6.75,6.75v27.02c-2.73,2.05-4.5,5.31-4.5,8.98,0,6.21,5.04,11.25,11.25,11.25s11.25-5.04,11.25-11.25c0-3.68-1.77-6.93-4.5-8.98Z" style="fill: var(--icon-fill, rgba(0, 0, 0, 0)); opacity: var(--icon-fill-opacity, 1);"/><path d="M42.75,42.77V15.75c0-3.73-3.02-6.75-6.75-6.75s-6.75,3.02-6.75,6.75v27.02c-2.73,2.05-4.5,5.31-4.5,8.98,0,6.21,5.04,11.25,11.25,11.25s11.25-5.04,11.25-11.25c0-3.68-1.77-6.93-4.5-8.98Z" style="fill: none; stroke: var(--icon-stroke-color, currentColor); stroke-miterlimit: 10; stroke-width:var(--icon-stroke-width-m, calc(var(--icon-stroke-width, 5) * 1));"/></svg>
