<svg id="cloud-rain_copy_2" data-name="cloud-rain copy 2" xmlns="http://www.w3.org/2000/svg" viewBox="0 0 72 72"><path d="M54,24.5c-.2,0-.39.02-.58.03-1.99-7.77-9.02-13.53-17.42-13.53s-15.43,5.76-17.42,13.53c-.19-.01-.39-.03-.58-.03-4.97,0-9,4.03-9,9s4.03,9,9,9c1.74,0,3.36-.5,4.74-1.36,3.29,3.59,8.01,5.86,13.26,5.86s9.97-2.27,13.26-5.86c1.38.86,3,1.36,4.74,1.36,4.97,0,9-4.03,9-9s-4.03-9-9-9Z" style="fill: var(--icon-fill, rgba(0, 0, 0, 0)); opacity: var(--icon-fill-opacity, 1);"/><path d="M54,24.5c-.2,0-.39.02-.58.03-1.99-7.77-9.02-13.53-17.42-13.53s-15.43,5.76-17.42,13.53c-.19-.01-.39-.03-.58-.03-4.97,0-9,4.03-9,9s4.03,9,9,9c1.74,0,3.36-.5,4.74-1.36,3.29,3.59,8.01,5.86,13.26,5.86s9.97-2.27,13.26-5.86c1.38.86,3,1.36,4.74,1.36,4.97,0,9-4.03,9-9s-4.03-9-9-9Z" style="fill: none; stroke: var(--icon-stroke-color, currentColor); stroke-linecap: round; stroke-miterlimit: 10; stroke-width:var(--icon-stroke-width-m, calc(var(--icon-stroke-width, 5) * 1));"/><line x1="26" y1="51.5" x2="21.5" y2="60.5" style="fill: none; stroke: var(--icon-stroke-color-secondary, var(--icon-stroke-color, currentColor)); stroke-linecap: round; stroke-miterlimit: 10; stroke-width:var(--icon-stroke-width-secondary-m, var(--icon-stroke-width-m, calc(var(--icon-stroke-width, 5) * 1)));"/><line x1="36" y1="54" x2="31.5" y2="63" style="fill: none; stroke: var(--icon-stroke-color-secondary, var(--icon-stroke-color, currentColor)); stroke-linecap: round; stroke-miterlimit: 10; stroke-width:var(--icon-stroke-width-secondary-m, var(--icon-stroke-width-m, calc(var(--icon-stroke-width, 5) * 1)));"/><line x1="49.5" y1="49.5" x2="45" y2="58.5" style="fill: none; stroke: var(--icon-stroke-color-secondary, var(--icon-stroke-color, currentColor)); stroke-linecap: round; stroke-miterlimit: 10; stroke-width:var(--icon-stroke-width-secondary-m, var(--icon-stroke-width-m, calc(var(--icon-stroke-width, 5) * 1)));"/><line x1="58.5" y1="54" x2="56.25" y2="58.5" style="fill: none; stroke: var(--icon-stroke-color-secondary, var(--icon-stroke-color, currentColor)); stroke-linecap: round; stroke-miterlimit: 10; stroke-width:var(--icon-stroke-width-secondary-m, var(--icon-stroke-width-m, calc(var(--icon-stroke-width, 5) * 1)));"/><line x1="13.5" y1="54" x2="11.25" y2="58.5" style="fill: none; stroke: var(--icon-stroke-color-secondary, var(--icon-stroke-color, currentColor)); stroke-linecap: round; stroke-miterlimit: 10; stroke-width:var(--icon-stroke-width-secondary-m, var(--icon-stroke-width-m, calc(var(--icon-stroke-width, 5) * 1)));"/></svg>
