<svg id="moon-dark-mode" xmlns="http://www.w3.org/2000/svg" viewBox="0 0 72 72"><g ><path d="M45,45.25c-9.94,0-18-8.06-18-18,0-2.64.58-5.14,1.6-7.4-6.25,2.82-10.6,9.1-10.6,16.4,0,9.94,8.06,18,18,18,7.3,0,13.57-4.36,16.4-10.6-2.26,1.02-4.76,1.6-7.4,1.6Z" style="fill: var(--icon-fill, rgba(0, 0, 0, 0)); opacity: var(--icon-fill-opacity, 1);" /></g><path d="M45,45.25c-9.94,0-18-8.06-18-18,0-2.64.58-5.14,1.6-7.4-6.25,2.82-10.6,9.1-10.6,16.4,0,9.94,8.06,18,18,18,7.3,0,13.57-4.36,16.4-10.6-2.26,1.02-4.76,1.6-7.4,1.6Z" style="fill: none; stroke: var(--icon-stroke-color, currentColor); stroke-linecap: round; stroke-linejoin: round; stroke-width:var(--icon-stroke-width-m, calc(var(--icon-stroke-width, 5) * 1));"/></svg>
