<svg id="location-marker" xmlns="http://www.w3.org/2000/svg" viewBox="0 0 72 72"><path d="M36,9c-12.43,0-22.5,10.07-22.5,22.5,0,18,22.5,31.5,22.5,31.5,0,0,22.5-13.5,22.5-31.5,0-12.43-10.07-22.5-22.5-22.5ZM36,40.5c-4.97,0-9-4.03-9-9s4.03-9,9-9,9,4.03,9,9-4.03,9-9,9Z" style="fill: var(--icon-fill, rgba(0, 0, 0, 0)); opacity: var(--icon-fill-opacity, 1); stroke-width: 0px;"/><path d="M58.5,31.5c0,18-22.5,31.5-22.5,31.5,0,0-22.5-13.5-22.5-31.5,0-12.43,10.07-22.5,22.5-22.5s22.5,10.07,22.5,22.5Z" style="fill: none; stroke: var(--icon-stroke-color, currentColor); stroke-miterlimit: 10; stroke-width:var(--icon-stroke-width-m, calc(var(--icon-stroke-width, 5) * 1));"/><circle cx="36" cy="31.5" r="9" style="fill: none; stroke: var(--icon-stroke-color-secondary, var(--icon-stroke-color, currentColor)); stroke-miterlimit: 10; stroke-width:var(--icon-stroke-width-secondary-m, var(--icon-stroke-width-m, calc(var(--icon-stroke-width, 5) * 1)));"/></svg>
