<svg id="parasol-island-wave" xmlns="http://www.w3.org/2000/svg" viewBox="0 0 72 72"><g ><path d="M23.42,12.77c-11.48,4.76-16.93,17.92-12.18,29.4,0,0,1.43-4.07,4.71-5.43s7.17.51,7.17.51c0,0,2.76-4.62,7.68-6.66s10.14-.72,10.14-.72c0,0,1.43-4.07,4.71-5.43s7.17.51,7.17.51c-4.76-11.48-17.92-16.93-29.4-12.18Z" style="fill: var(--icon-fill, rgba(0, 0, 0, 0)); opacity: var(--icon-fill-opacity, 1);" /></g><path d="M40.94,29.87c-7.38-17.82-17.52-17.1-17.52-17.1,0,0-7.68,6.66-.3,24.48" style="fill: none; stroke: var(--icon-stroke-color-secondary, var(--icon-stroke-color, currentColor)); stroke-linejoin: round; stroke-width:var(--icon-stroke-width-secondary-m, var(--icon-stroke-width-m, calc(var(--icon-stroke-width, 5) * 1)));"/><line x1="30.8" y1="30.59" x2="36" y2="49.5" style="fill: none; stroke: var(--icon-stroke-color-secondary, var(--icon-stroke-color, currentColor)); stroke-linejoin: round; stroke-width:var(--icon-stroke-width-secondary-m, var(--icon-stroke-width-m, calc(var(--icon-stroke-width, 5) * 1)));"/><path d="M23.42,12.77c-11.48,4.76-16.93,17.92-12.18,29.4,0,0,1.43-4.07,4.71-5.43s7.17.51,7.17.51c0,0,2.76-4.62,7.68-6.66s10.14-.72,10.14-.72c0,0,1.43-4.07,4.71-5.43s7.17.51,7.17.51c-4.76-11.48-17.92-16.93-29.4-12.18Z" style="fill: none; stroke: var(--icon-stroke-color, currentColor); stroke-linejoin: round; stroke-width:var(--icon-stroke-width-m, calc(var(--icon-stroke-width, 5) * 1));"/><path d="M15,58.5c3.5,0,7,4.5,10.5,4.5s7-4.5,10.5-4.5,7,4.5,10.5,4.5,7-4.5,10.5-4.5c.07,0,.15.01.22.02-3.08-5.25-11.42-9.02-21.22-9.02s-18.14,3.77-21.22,9.02c.08,0,.15-.02.22-.02Z" style="fill: var(--icon-fill, rgba(0, 0, 0, 0)); opacity: var(--icon-fill-opacity, 1); stroke-width: 0px;"/><path d="M57,58.5c.07,0,.15.01.22.02-3.08-5.25-11.42-9.02-21.22-9.02s-18.14,3.77-21.22,9.02c.08,0,.15-.02.22-.02" style="fill: none; stroke: var(--icon-stroke-color, currentColor); stroke-miterlimit: 10; stroke-width:var(--icon-stroke-width-m, calc(var(--icon-stroke-width, 5) * 1));"/><path d="M4.5,63c3.5,0,7-4.5,10.5-4.5s7,4.5,10.5,4.5,7-4.5,10.5-4.5,7,4.5,10.5,4.5,7-4.5,10.5-4.5,7,4.5,10.5,4.5" style="fill: none; stroke: var(--icon-stroke-color-secondary, var(--icon-stroke-color, currentColor)); stroke-miterlimit: 10; stroke-width:var(--icon-stroke-width-secondary-m, var(--icon-stroke-width-m, calc(var(--icon-stroke-width, 5) * 1)));"/></svg>
