<?xml version="1.0" encoding="UTF-8"?>
<svg id="metro_2" data-name="metro 2" xmlns="http://www.w3.org/2000/svg" viewBox="0 0 72 72">
  <path d="M50.05,59.06c7.76-4.74,12.95-13.29,12.95-23.06,0-14.91-12.09-27-27-27s-27,12.09-27,27c0,9.76,5.18,18.31,12.95,23.06" style="fill: none; stroke: #ed2024; stroke-miterlimit: 10; stroke-width: 4px;"/>
  <path d="M22.5,40.5h27v5.5c0,4.42-3.58,8-8,8h-11c-4.42,0-8-3.58-8-8v-5.5h0Z" style="fill: #ed2024; opacity: .5; stroke-width: 0px;"/>
  <line x1="13.5" y1="67.5" x2="27" y2="54" style="fill: none; stroke: #ed2024; stroke-miterlimit: 10; stroke-width: 4px;"/>
  <line x1="58.5" y1="67.5" x2="45" y2="54" style="fill: none; stroke: #ed2024; stroke-miterlimit: 10; stroke-width: 4px;"/>
  <line x1="18" y1="63" x2="54" y2="63" style="fill: none; stroke: #ed2024; stroke-miterlimit: 10; stroke-width: 4px;"/>
  <rect x="22.5" y="22.5" width="27" height="31.5" rx="8" ry="8" style="fill: none; stroke: #010101; stroke-miterlimit: 10; stroke-width: 4px;"/>
  <line x1="22.5" y1="40.5" x2="49.5" y2="40.5" style="fill: none; stroke: #010101; stroke-miterlimit: 10; stroke-width: 4px;"/>
</svg>