<?xml version="1.0" encoding="UTF-8"?>
<svg id="airport-connect-flights" xmlns="http://www.w3.org/2000/svg" viewBox="0 0 72 72">
  <line x1="27" y1="36" x2="27" y2="36" style="fill: #010101; stroke: #ed2024; stroke-linecap: round; stroke-linejoin: round; stroke-width: 2px;"/>
  <line x1="31.5" y1="36" x2="31.5" y2="36" style="fill: #010101; stroke: #ed2024; stroke-linecap: round; stroke-linejoin: round; stroke-width: 2px;"/>
  <line x1="36" y1="36" x2="36" y2="36" style="fill: #010101; stroke: #ed2024; stroke-linecap: round; stroke-linejoin: round; stroke-width: 2px;"/>
  <line x1="40.5" y1="36" x2="40.5" y2="36" style="fill: #010101; stroke: #ed2024; stroke-linecap: round; stroke-linejoin: round; stroke-width: 2px;"/>
  <line x1="45" y1="36" x2="45" y2="36" style="fill: #010101; stroke: #ed2024; stroke-linecap: round; stroke-linejoin: round; stroke-width: 2px;"/>
  <g style="opacity: .5;">
    <path d="M5.32,55.36l14.68-2.94v-12.4l-15.24,12.2c-.16.13-.26.33-.26.54v1.93c0,.43.4.76.82.68Z" style="fill: #ed2024; stroke-width: 0px;"/>
    <path d="M34.68,55.36l-14.68-2.94v-12.4l15.24,12.2c.16.13.26.33.26.54v1.93c0,.43-.4.76-.82.68Z" style="fill: #ed2024; stroke-width: 0px;"/>
    <path d="M13.8,66.81v-1.09c0-.14.04-.27.12-.38l6.09-9.82,6.09,9.82c.08.11.12.25.12.38v1.09c0,.51-.54.85-1,.62l-5.2-2.6-5.2,2.6c-.46.23-1-.1-1-.62Z" style="fill: #ed2024; stroke-width: 0px;"/>
    <path d="M23.1,33.82v18.6c0,1.71-1.39,12.4-3.1,12.4h0c-1.71,0-3.1-10.69-3.1-12.4v-18.6c0-3.1,1.39-6.2,3.1-6.2h0c1.71,0,3.1,3.1,3.1,6.2Z" style="fill: #ed2024; stroke-width: 0px;"/>
  </g>
  <g style="opacity: .5;">
    <path d="M37.32,32.24l14.68-2.94v-12.4l-15.24,12.2c-.16.13-.26.33-.26.54v1.93c0,.43.4.76.82.68Z" style="fill: #ed2024; stroke-width: 0px;"/>
    <path d="M66.68,32.24l-14.68-2.94v-12.4l15.24,12.2c.16.13.26.33.26.54v1.93c0,.43-.4.76-.82.68Z" style="fill: #ed2024; stroke-width: 0px;"/>
    <path d="M45.8,43.69v-1.09c0-.14.04-.27.12-.38l6.09-9.82,6.09,9.82c.08.11.12.25.12.38v1.09c0,.51-.54.85-1,.62l-5.2-2.6-5.2,2.6c-.46.23-1-.1-1-.62Z" style="fill: #ed2024; stroke-width: 0px;"/>
    <path d="M55.1,10.7v18.6c0,1.71-1.39,12.4-3.1,12.4h0c-1.71,0-3.1-10.69-3.1-12.4V10.7c0-3.1,1.39-6.2,3.1-6.2h0c1.71,0,3.1,3.1,3.1,6.2Z" style="fill: #ed2024; stroke-width: 0px;"/>
  </g>
  <path d="M23.1,42.5v-8.68c0-3.1-1.39-6.2-3.1-6.2s-3.1,3.1-3.1,6.2v8.68l-12.14,9.71c-.16.13-.26.33-.26.54v1.93c0,.43.4.76.82.68l11.61-2.32c.09,1.25.4,3.72.85,6.07l-3.86,6.23c-.08.11-.12.25-.12.38v1.09c0,.51.54.85,1,.62l5.2-2.6,5.2,2.6c.46.23,1-.1,1-.62v-1.09c0-.14-.04-.27-.12-.38l-3.86-6.23c.45-2.35.76-4.82.85-6.07l11.61,2.32c.43.09.82-.24.82-.68v-1.93c0-.21-.1-.41-.26-.54l-12.14-9.71Z" style="fill: none; stroke: #000; stroke-miterlimit: 10; stroke-width: 4px;"/>
  <path d="M67.24,29.1l-12.14-9.72v-8.68c0-3.1-1.39-6.2-3.1-6.2h0c-1.71,0-3.1,3.1-3.1,6.2v8.68l-12.14,9.72c-.16.13-.26.33-.26.54v1.93c0,.43.4.76.82.68l11.61-2.32c.09,1.25.4,3.72.85,6.07l-3.86,6.23c-.08.11-.12.25-.12.38v1.09c0,.51.54.85,1,.62l5.2-2.6,5.2,2.6c.46.23,1-.1,1-.62v-1.09c0-.14-.04-.27-.12-.38l-3.86-6.23c.45-2.35.76-4.82.85-6.07l11.61,2.32c.43.09.82-.24.82-.68v-1.93c0-.21-.1-.41-.26-.54Z" style="fill: none; stroke: #000; stroke-miterlimit: 10; stroke-width: 4px;"/>
</svg>