<?xml version="1.0" encoding="UTF-8"?>
<svg id="palmtree-island-wave" xmlns="http://www.w3.org/2000/svg" viewBox="0 0 72 72">
  <path d="M36,19.98c6.77,9.03,13.54,13.54,20.31,15.8,0-8.73-9.09-15.8-20.31-15.8s-20.31,7.07-20.31,15.8c4.51-2.26,15.8-6.77,20.31-15.8" style="fill: #ed2024; opacity: .5; stroke-width: 0px;"/>
  <path d="M36,19.98c-4.84-6.45-9.67-9.67-14.51-11.29,0,6.23,6.5,11.29,14.51,11.29s14.51-5.05,14.51-11.29c-3.22,1.61-11.29,4.84-14.51,11.29" style="fill: #ed2024; opacity: .5; stroke-width: 0px;"/>
  <path d="M40.51,31.26c0,6.23-4.51,11.29-4.51,11.29,0,0-4.51-5.05-4.51-11.29s4.51-11.29,4.51-11.29c0,0,4.51,5.05,4.51,11.29Z" style="fill: #ed2024; opacity: .5; stroke-width: 0px;"/>
  <path d="M36,19.98s-9,11.52-6.45,30.09" style="fill: none; stroke: #ed2024; stroke-linejoin: round; stroke-width: 4px;"/>
  <path d="M36,19.98c6.77,9.03,13.54,13.54,20.31,15.8,0-8.73-9.09-15.8-20.31-15.8s-20.31,7.07-20.31,15.8c4.51-2.26,15.8-6.77,20.31-15.8" style="fill: none; stroke: #000; stroke-linejoin: round; stroke-width: 4px;"/>
  <path d="M36,19.98c-4.84-6.45-9.67-9.67-14.51-11.29,0,6.23,6.5,11.29,14.51,11.29s14.51-5.05,14.51-11.29c-3.22,1.61-11.29,4.84-14.51,11.29" style="fill: none; stroke: #000; stroke-linejoin: round; stroke-width: 4px;"/>
  <path d="M40.51,31.26c0,6.23-4.51,11.29-4.51,11.29,0,0-4.51-5.05-4.51-11.29s4.51-11.29,4.51-11.29c0,0,4.51,5.05,4.51,11.29Z" style="fill: none; stroke: #000; stroke-linejoin: round; stroke-width: 4px;"/>
  <path d="M15,58.5c3.5,0,7,4.5,10.5,4.5s7-4.5,10.5-4.5,7,4.5,10.5,4.5,7-4.5,10.5-4.5c.07,0,.15.01.22.02-3.08-5.25-11.42-9.02-21.22-9.02s-18.14,3.77-21.22,9.02c.08,0,.15-.02.22-.02Z" style="fill: #ed1f24; opacity: .5; stroke-width: 0px;"/>
  <path d="M57,58.5c.07,0,.15.01.22.02-3.08-5.25-11.42-9.02-21.22-9.02s-18.14,3.77-21.22,9.02c.08,0,.15-.02.22-.02" style="fill: none; stroke: #000; stroke-miterlimit: 10; stroke-width: 4px;"/>
  <path d="M4.5,63c3.5,0,7-4.5,10.5-4.5s7,4.5,10.5,4.5,7-4.5,10.5-4.5,7,4.5,10.5,4.5,7-4.5,10.5-4.5,7,4.5,10.5,4.5" style="fill: none; stroke: #ed1f24; stroke-miterlimit: 10; stroke-width: 4px;"/>
</svg>