<?xml version="1.0" encoding="UTF-8"?>
<svg id="signpost-2" xmlns="http://www.w3.org/2000/svg" viewBox="0 0 72 72">
  <polygon points="45 18 22.5 18 13.5 24.75 22.5 31.5 54 31.5 54 18 45 18" style="fill: #ed2024; opacity: .5; stroke-width: 0px;"/>
  <polygon points="33 49.5 48 49.5 54 45 48 40.5 27 40.5 27 49.5 33 49.5" style="fill: #ed2024; opacity: .5; stroke-width: 0px;"/>
  <line x1="36" y1="49.5" x2="36" y2="58.5" style="fill: none; stroke: #000; stroke-linejoin: round; stroke-width: 4px;"/>
  <line x1="36" y1="31.5" x2="36" y2="40.5" style="fill: none; stroke: #000; stroke-linejoin: round; stroke-width: 4px;"/>
  <line x1="36" y1="9" x2="36" y2="18" style="fill: none; stroke: #000; stroke-linejoin: round; stroke-width: 4px;"/>
  <line x1="13.5" y1="58.5" x2="58.5" y2="58.5" style="fill: none; stroke: #ed2024; stroke-linejoin: round; stroke-width: 4px;"/>
  <polygon points="45 18 22.5 18 13.5 24.75 22.5 31.5 54 31.5 54 18 45 18" style="fill: none; stroke: #ed2024; stroke-linejoin: round; stroke-width: 4px;"/>
  <polygon points="33 49.5 48 49.5 54 45 48 40.5 27 40.5 27 49.5 33 49.5" style="fill: none; stroke: #ed2024; stroke-linejoin: round; stroke-width: 4px;"/>
</svg>