<?xml version="1.0" encoding="UTF-8"?>
<svg id="airplane" xmlns="http://www.w3.org/2000/svg" viewBox="0 0 72 72">
  <path d="M56.46,15.54c-1.76-1.76-6.36,0-9.55,3.18l-8.91,8.91-22.43-2.49c-.3-.03-.6.07-.82.29l-1.98,1.98c-.45.45-.37,1.19.15,1.54l14.29,9.53c-1.19,1.38-3.4,4.22-5.36,7.1l-10.36,2.43c-.19.04-.37.13-.51.27l-1.12,1.12c-.53.53-.31,1.42.39,1.66l8.01,2.67,2.67,8.01c.24.71,1.13.92,1.66.39l1.12-1.12c.14-.14.23-.32.27-.51l2.43-10.36c2.88-1.96,5.72-4.17,7.1-5.36l9.53,14.29c.35.52,1.09.6,1.54.15l1.98-1.98c.21-.21.32-.52.29-.82l-2.49-22.43,8.91-8.91c3.18-3.18,4.94-7.79,3.18-9.55Z" style="fill: #ed2024; opacity: .5; stroke-width: 0px;"/>
  <path d="M56.46,15.54c-1.76-1.76-6.36,0-9.55,3.18l-8.91,8.91-22.43-2.49c-.3-.03-.6.07-.82.29l-1.98,1.98c-.45.45-.37,1.19.15,1.54l14.29,9.53c-1.19,1.38-3.4,4.22-5.36,7.1l-10.36,2.43c-.19.04-.37.13-.51.27l-1.12,1.12c-.53.53-.31,1.42.39,1.66l8.01,2.67,2.67,8.01c.24.71,1.13.92,1.66.39l1.12-1.12c.14-.14.23-.32.27-.51l2.43-10.36c2.88-1.96,5.72-4.17,7.1-5.36l9.53,14.29c.35.52,1.09.6,1.54.15l1.98-1.98c.21-.21.32-.52.29-.82l-2.49-22.43,8.91-8.91c3.18-3.18,4.94-7.79,3.18-9.55Z" style="fill: none; stroke: #000; stroke-miterlimit: 10; stroke-width: 4px;"/>
</svg>