<?xml version="1.0" encoding="UTF-8"?>
<svg id="parasol" xmlns="http://www.w3.org/2000/svg" viewBox="0 0 72 72">
  <g style="opacity: .5;">
    <path d="M36,13.5c-12.43,0-22.5,10.07-22.5,22.5,0,0,2.88-3.21,6.43-3.21s6.43,3.21,6.43,3.21c0,0,4.32-3.21,9.64-3.21s9.64,3.21,9.64,3.21c0,0,2.88-3.21,6.43-3.21s6.43,3.21,6.43,3.21c0-12.43-10.07-22.5-22.5-22.5Z" style="fill: #ed1f24; stroke-width: 0px;"/>
  </g>
  <path d="M45.64,36c0-19.29-9.64-22.5-9.64-22.5,0,0-9.64,3.21-9.64,22.5" style="fill: none; stroke: #ed2024; stroke-linejoin: round; stroke-width: 4px;"/>
  <line x1="36" y1="32.79" x2="36" y2="63" style="fill: none; stroke: #ed2024; stroke-linejoin: round; stroke-width: 4px;"/>
  <path d="M36,13.5c-12.43,0-22.5,10.07-22.5,22.5,0,0,2.88-3.21,6.43-3.21s6.43,3.21,6.43,3.21c0,0,4.32-3.21,9.64-3.21s9.64,3.21,9.64,3.21c0,0,2.88-3.21,6.43-3.21s6.43,3.21,6.43,3.21c0-12.43-10.07-22.5-22.5-22.5Z" style="fill: none; stroke: #000; stroke-linejoin: round; stroke-width: 4px;"/>
  <line x1="13.5" y1="63" x2="58.5" y2="63" style="fill: none; stroke: #000; stroke-linejoin: round; stroke-width: 4px;"/>
</svg>