<?xml version="1.0" encoding="UTF-8"?>
<svg id="airplane-departures" xmlns="http://www.w3.org/2000/svg" viewBox="0 0 72 72">
  <g style="opacity: .5;">
    <path d="M63.95,17.7c-1.1-2.08-3.7-2.86-5.87-1.96l-39.32,16.29-7.66-1.52c-.19-.04-.39-.02-.58.06l-2.38.99c-.69.28-.83,1.19-.27,1.68l.3.36c4.64,5.55,12.35,7.45,19.04,4.68l4.56-1.89,3.33,16.81c.12.62.78.97,1.36.73l2.59-1.07c.28-.12.49-.35.58-.65l6.28-21.68,15.8-6.54c2.43-1.01,3.51-3.9,2.25-6.28Z" style="fill: #ed2024; stroke-width: 0px;"/>
    <path d="M26.75,25.72l12.6-5.22-16.66-9.18c-.27-.15-.58-.16-.87-.05l-2.59,1.07c-.58.24-.8.96-.45,1.48l7.96,11.89Z" style="fill: #ed2024; stroke-width: 0px;"/>
  </g>
  <line x1="9" y1="63" x2="40.5" y2="63" style="fill: #231f20; stroke: #ed2024; stroke-miterlimit: 10; stroke-width: 4px;"/>
  <path d="M8.17,33.59c4.64,5.55,12.35,7.45,19.04,4.68l4.56-1.89,3.33,16.81c.12.62.78.97,1.36.73l2.59-1.07c.28-.12.49-.35.58-.65l6.28-21.68,15.8-6.54c2.43-1.01,3.51-3.9,2.25-6.28-1.1-2.08-3.7-2.86-5.87-1.96l-39.32,16.29-7.66-1.52c-.19-.04-.39-.02-.58.06l-2.38.99c-.69.28-.83,1.19-.27,1.68l.3.36Z" style="fill: none; stroke: #000; stroke-miterlimit: 10; stroke-width: 4px;"/>
  <path d="M26.75,25.72l12.6-5.22-16.66-9.18c-.27-.15-.58-.16-.87-.05l-2.59,1.07c-.58.24-.8.96-.45,1.48l7.96,11.89Z" style="fill: none; stroke: #000; stroke-miterlimit: 10; stroke-width: 4px;"/>
</svg>