<?xml version="1.0" encoding="UTF-8"?>
<svg id="fire" xmlns="http://www.w3.org/2000/svg" viewBox="0 0 72 72">
  <g style="opacity: .5;">
    <path d="M18,45c0,9.94,8.06,18,18,18,13.5,0,31.5-13.5,13.5-36,0,0,0,9-4.5,9-9,0-4.5-18-13.5-27,0,18-13.5,18-13.5,36Z" style="fill: #ed2024; stroke-width: 0px;"/>
  </g>
  <path d="M18,45c0,9.94,8.06,18,18,18,13.5,0,31.5-13.5,13.5-36,0,0,0,9-4.5,9-9,0-4.5-18-13.5-27,0,18-13.5,18-13.5,36Z" style="fill: none; stroke: #231f20; stroke-miterlimit: 10; stroke-width: 4px;"/>
  <path d="M39.86,48.86c-6.43,0-8.36-12.86-8.36-12.86,0,0-4.5,8.41-4.5,12.86,0,5.33,4.32,9.64,9.64,9.64s9.64-4.32,9.64-9.64c0-1.26-.25-2.45-.68-3.55-1.06,2.11-3.23,3.55-5.74,3.55Z" style="fill: #231f20; stroke-width: 0px;"/>
</svg>