<?xml version="1.0" encoding="UTF-8"?>
<svg id="security-check" xmlns="http://www.w3.org/2000/svg" viewBox="0 0 72 72">
  <circle cx="18" cy="15.75" r="5.06" style="fill: #ed2024; opacity: .5; stroke-width: 0px;"/>
  <circle cx="49.5" cy="19.88" r="5.06" style="fill: #ed2024; opacity: .5; stroke-width: 0px;"/>
  <path d="M18,27h0c2.48,0,4.5,2.02,4.5,4.5v13.5h-9v-13.5c0-2.48,2.02-4.5,4.5-4.5Z" style="fill: #ed2024; opacity: .5; stroke-width: 0px;"/>
  <polygon points="58.5 49.5 40.5 49.5 45 40.5 45 31.5 54 31.5 54 40.5 58.5 49.5" style="fill: #ed2024; opacity: .5; stroke-width: 0px;"/>
  <polyline points="4.5 45 4.5 36 13.5 27 22.5 27 31.5 40.5" style="fill: none; stroke: #231f20; stroke-linecap: round; stroke-linejoin: round; stroke-width: 4px;"/>
  <path d="M13.5,63v-31.5c0-2.49,2.01-4.5,4.5-4.5h0c2.49,0,4.5,2.01,4.5,4.5v31.5" style="fill: none; stroke: #231f20; stroke-linecap: round; stroke-linejoin: round; stroke-width: 4px;"/>
  <line x1="13.5" y1="45" x2="22.5" y2="45" style="fill: #fff; stroke: #231f20; stroke-linecap: round; stroke-linejoin: round; stroke-width: 4px;"/>
  <polyline points="61 18 61 27 54 31.5 45 31.5 38 27 38 18" style="fill: none; stroke: #231f20; stroke-linecap: round; stroke-linejoin: round; stroke-width: 4px;"/>
  <polyline points="45 63 45 49.5 40.5 49.5 45 40.5 45 31.5 54 31.5 54 40.5 58.5 49.5 54 49.5 54 63" style="fill: none; stroke: #231f20; stroke-linecap: round; stroke-linejoin: round; stroke-width: 4px;"/>
  <circle cx="18" cy="15.75" r="5.06" style="fill: none; stroke: #231f20; stroke-linecap: round; stroke-linejoin: round; stroke-width: 4px;"/>
  <circle cx="49.5" cy="19.88" r="5.06" style="fill: none; stroke: #231f20; stroke-linecap: round; stroke-linejoin: round; stroke-width: 4px;"/>
  <line x1="45" y1="49.5" x2="54" y2="49.5" style="fill: none; stroke: #231f20; stroke-linecap: round; stroke-linejoin: round; stroke-width: 4px;"/>
  <polyline points="31.5 63 31.5 4.5 67.5 4.5 67.5 63" style="fill: none; stroke: #231f20; stroke-linecap: round; stroke-linejoin: round; stroke-width: 4px;"/>
</svg>