<svg id="location-path" xmlns="http://www.w3.org/2000/svg" viewBox="0 0 72 72"><g><path d="M58.5,20.89c0,6.75-6.75,10.61-6.75,10.61,0,0-6.75-3.86-6.75-10.61,0-3.73,3.02-6.75,6.75-6.75s6.75,3.02,6.75,6.75Z" style="fill: none; stroke: var(--icon-stroke-color, currentColor); stroke-linecap: round; stroke-miterlimit: 10; stroke-width:var(--icon-stroke-width-m, calc(var(--icon-stroke-width, 5) * 1));"/><line x1="51.75" y1="20.84" x2="51.75" y2="20.84" style="fill: none; stroke: var(--icon-stroke-color, currentColor); stroke-linecap: round; stroke-miterlimit: 10; stroke-width:var(--icon-stroke-width-m, calc(var(--icon-stroke-width, 5) * 1));"/></g><g><path d="M27,51.75c0,6.75-6.75,10.61-6.75,10.61,0,0-6.75-3.86-6.75-10.61,0-3.73,3.02-6.75,6.75-6.75s6.75,3.02,6.75,6.75Z" style="fill: none; stroke: var(--icon-stroke-color, currentColor); stroke-linecap: round; stroke-miterlimit: 10; stroke-width:var(--icon-stroke-width-m, calc(var(--icon-stroke-width, 5) * 1));"/><line x1="20.25" y1="51.7" x2="20.25" y2="51.7" style="fill: none; stroke: var(--icon-stroke-color, currentColor); stroke-linecap: round; stroke-miterlimit: 10; stroke-width:var(--icon-stroke-width-m, calc(var(--icon-stroke-width, 5) * 1));"/></g><g><line x1="36" y1="22.5" x2="36" y2="22.5" style="fill: none; stroke: var(--icon-stroke-color-secondary, var(--icon-stroke-color, currentColor)); stroke-linecap: round; stroke-linejoin: round; stroke-width:var(--icon-stroke-width-secondary-m, var(--icon-stroke-width-m, calc(var(--icon-stroke-width, 5) * 1)));"/><path d="M30.08,22.5h-11.35c-2.89,0-5.23,2.34-5.23,5.23,0,2.25,1.44,4.25,3.58,4.96l33.35,11.12c2.14.71,3.58,2.71,3.58,4.96,0,2.89-2.34,5.23-5.23,5.23h-9.81" style="fill: none; stroke: var(--icon-stroke-color-secondary, var(--icon-stroke-color, currentColor)); stroke-dasharray: 0 0 0 5.92; stroke-linecap: round; stroke-linejoin: round; stroke-width:var(--icon-stroke-width-secondary-m, var(--icon-stroke-width-m, calc(var(--icon-stroke-width, 5) * 1)));"/><line x1="36" y1="54" x2="36" y2="54" style="fill: none; stroke: var(--icon-stroke-color-secondary, var(--icon-stroke-color, currentColor)); stroke-linecap: round; stroke-linejoin: round; stroke-width:var(--icon-stroke-width-secondary-m, var(--icon-stroke-width-m, calc(var(--icon-stroke-width, 5) * 1)));"/></g></svg>
