<svg id="headphones" xmlns="http://www.w3.org/2000/svg" viewBox="0 0 72 72"><path d="M13.5,41.33v7.33c0,2.95,2.98,5.33,6.67,5.33h.83v-18h-.83c-3.68,0-6.67,2.39-6.67,5.33Z" style="fill: var(--icon-fill, rgba(0, 0, 0, 0)); opacity: var(--icon-fill-opacity, 1); stroke-width: 0px;"/><path d="M58.5,48.67v-7.33c0-2.95-2.98-5.33-6.67-5.33h-.83v18h.83c3.68,0,6.67-2.39,6.67-5.33Z" style="fill: var(--icon-fill, rgba(0, 0, 0, 0)); opacity: var(--icon-fill-opacity, 1); stroke-width: 0px;"/><path d="M51,36v-4.5c0-11.18-6.72-13.5-15-13.5s-15,2.32-15,13.5v4.5" style="fill: none; stroke: var(--icon-stroke-color, currentColor); stroke-miterlimit: 10; stroke-width:var(--icon-stroke-width-m, calc(var(--icon-stroke-width, 5) * 1));"/><path d="M13.5,41.33v7.33c0,2.95,2.98,5.33,6.67,5.33h.83v-18h-.83c-3.68,0-6.67,2.39-6.67,5.33Z" style="fill: none; stroke: var(--icon-stroke-color, currentColor); stroke-miterlimit: 10; stroke-width:var(--icon-stroke-width-m, calc(var(--icon-stroke-width, 5) * 1));"/><path d="M58.5,48.67v-7.33c0-2.95-2.98-5.33-6.67-5.33h-.83v18h.83c3.68,0,6.67-2.39,6.67-5.33Z" style="fill: none; stroke: var(--icon-stroke-color, currentColor); stroke-miterlimit: 10; stroke-width:var(--icon-stroke-width-m, calc(var(--icon-stroke-width, 5) * 1));"/></svg>
