<?xml version="1.0" encoding="UTF-8"?>
<svg id="alarm-bell-2" xmlns="http://www.w3.org/2000/svg" viewBox="0 0 72 72">
  <path d="M46.34,21.16c-6.33-6.33-14.44-4.89-24.18,1.27l-13.48,8.53c-1.08.69-1.25,2.2-.34,3.1l12.55,12.55,12.55,12.55c.91.91,2.42.74,3.1-.34l8.53-13.48c6.17-9.75,7.6-17.86,1.27-24.18h0Z" style="fill: #ed2024; opacity: .5; stroke-width: 0px;"/>
  <path d="M27.25,52.98c-3.51,3.51-9.21,3.51-12.73,0s-3.51-9.21,0-12.73" style="fill: none; stroke: #ed2024; stroke-miterlimit: 10; stroke-width: 4px;"/>
  <path d="M46.34,21.16c-6.33-6.33-14.44-4.89-24.18,1.27l-13.48,8.53c-1.08.69-1.25,2.2-.34,3.1l12.55,12.55,12.55,12.55c.91.91,2.42.74,3.1-.34l8.53-13.48c6.17-9.75,7.6-17.86,1.27-24.18h0Z" style="fill: none; stroke: #010101; stroke-miterlimit: 10; stroke-width: 4px;"/>
  <path d="M15.05,15.33c4.98-8.2,14.71-12.71,21.74-10.08" style="fill: none; stroke: #ed2024; stroke-miterlimit: 10; stroke-width: 4px;"/>
  <path d="M52.17,52.45c8.2-4.98,12.71-14.71,10.08-21.74" style="fill: none; stroke: #ed2024; stroke-miterlimit: 10; stroke-width: 4px;"/>
</svg>