<?xml version="1.0" encoding="UTF-8"?>
<svg id="filmroll" xmlns="http://www.w3.org/2000/svg" viewBox="0 0 72 72">
  <rect x="18" y="9" width="36" height="54" style="fill: #ed2024; opacity: .5; stroke-width: 0px;"/>
  <line x1="18" y1="9" x2="18" y2="63" style="fill: none; stroke: #ed2024; stroke-miterlimit: 10; stroke-width: 4px;"/>
  <line x1="54" y1="9" x2="54" y2="63" style="fill: none; stroke: #ed2024; stroke-miterlimit: 10; stroke-width: 4px;"/>
  <line x1="9" y1="18" x2="18" y2="18" style="fill: none; stroke: #ed2024; stroke-miterlimit: 10; stroke-width: 4px;"/>
  <line x1="9" y1="27" x2="18" y2="27" style="fill: none; stroke: #ed2024; stroke-miterlimit: 10; stroke-width: 4px;"/>
  <line x1="9" y1="36" x2="18" y2="36" style="fill: none; stroke: #ed2024; stroke-miterlimit: 10; stroke-width: 4px;"/>
  <line x1="9" y1="45" x2="18" y2="45" style="fill: none; stroke: #ed2024; stroke-miterlimit: 10; stroke-width: 4px;"/>
  <line x1="9" y1="54" x2="18" y2="54" style="fill: none; stroke: #ed2024; stroke-miterlimit: 10; stroke-width: 4px;"/>
  <line x1="54" y1="54" x2="63" y2="54" style="fill: none; stroke: #ed2024; stroke-miterlimit: 10; stroke-width: 4px;"/>
  <line x1="54" y1="45" x2="63" y2="45" style="fill: none; stroke: #ed2024; stroke-miterlimit: 10; stroke-width: 4px;"/>
  <line x1="54" y1="36" x2="63" y2="36" style="fill: none; stroke: #ed2024; stroke-miterlimit: 10; stroke-width: 4px;"/>
  <line x1="54" y1="27" x2="63" y2="27" style="fill: none; stroke: #ed2024; stroke-miterlimit: 10; stroke-width: 4px;"/>
  <line x1="54" y1="18" x2="63" y2="18" style="fill: none; stroke: #ed2024; stroke-miterlimit: 10; stroke-width: 4px;"/>
  <line x1="18" y1="36" x2="54" y2="36" style="fill: none; stroke: #ed2024; stroke-miterlimit: 10; stroke-width: 4px;"/>
  <rect x="9" y="9" width="54" height="54" rx="4" ry="4" style="fill: none; stroke: #010101; stroke-miterlimit: 10; stroke-width: 4px;"/>
</svg>