<svg id="microphone" xmlns="http://www.w3.org/2000/svg" xmlns:xlink="http://www.w3.org/1999/xlink" viewBox="0 0 72 72"><defs><clipPath id="clippath"><rect x="27" y="9" width="18" height="31.5" style="fill: none; stroke-width: 0px;"/></clipPath></defs><g style="clip-path: url(#clippath);"><path d="M36,9c-4.97,0-9,4.03-9,9v13.5c0,4.97,4.03,9,9,9s9-4.03,9-9v-13.5c0-4.97-4.03-9-9-9Z" style="fill: var(--icon-fill, rgba(0, 0, 0, 0)); opacity: var(--icon-fill-opacity, 1); stroke-width: 0px;"/></g><line x1="22.5" y1="63" x2="49.5" y2="63" style="fill: none; stroke: var(--icon-stroke-color, currentColor); stroke-miterlimit: 10; stroke-width:var(--icon-stroke-width-m, calc(var(--icon-stroke-width, 5) * 1));"/><line x1="36" y1="49.5" x2="36" y2="63" style="fill: none; stroke: var(--icon-stroke-color, currentColor); stroke-miterlimit: 10; stroke-width:var(--icon-stroke-width-m, calc(var(--icon-stroke-width, 5) * 1));"/><path d="M36,9c-4.97,0-9,4.03-9,9v13.5c0,4.97,4.03,9,9,9s9-4.03,9-9v-13.5c0-4.97-4.03-9-9-9Z" style="fill: none; stroke: var(--icon-stroke-color, currentColor); stroke-miterlimit: 10; stroke-width:var(--icon-stroke-width-m, calc(var(--icon-stroke-width, 5) * 1));"/><path d="M54,31.5c0,9.94-8.06,18-18,18s-18-8.06-18-18" style="fill: none; stroke: var(--icon-stroke-color, currentColor); stroke-miterlimit: 10; stroke-width:var(--icon-stroke-width-m, calc(var(--icon-stroke-width, 5) * 1));"/></svg>
