<?xml version="1.0" encoding="UTF-8"?>
<svg id="laptop" xmlns="http://www.w3.org/2000/svg" viewBox="0 0 72 72">
  <g style="opacity: .5;">
    <path d="M17.5,16h37c2.21,0,4,1.79,4,4v27H13.5v-27c0-2.21,1.79-4,4-4Z" style="fill: #ed2024; stroke-width: 0px;"/>
    <path d="M9,47h54v3c0,3.31-2.69,6-6,6H15c-3.31,0-6-2.69-6-6v-3Z" style="fill: #ed2024; stroke-width: 0px;"/>
  </g>
  <g>
    <path d="M17.5,16h37c2.21,0,4,1.79,4,4v27H13.5v-27c0-2.21,1.79-4,4-4Z" style="fill: none; stroke: #010101; stroke-linecap: round; stroke-linejoin: round; stroke-width: 4px;"/>
    <path d="M9,47h54v3c0,3.31-2.69,6-6,6H15c-3.31,0-6-2.69-6-6v-3Z" style="fill: none; stroke: #010101; stroke-linecap: round; stroke-linejoin: round; stroke-width: 4px;"/>
  </g>
</svg>