<?xml version="1.0" encoding="UTF-8"?>
<svg id="bug-3" xmlns="http://www.w3.org/2000/svg" viewBox="0 0 72 72">
  <path d="M13.5,18v9.5c0,2.21,1.79,4,4,4h5.74" style="fill: none; stroke: #ed1c24; stroke-miterlimit: 10; stroke-width: 4px;"/>
  <path d="M18,54v-9.5c0-2.21,1.79-4,4-4h3.26" style="fill: none; stroke: #ed1c24; stroke-miterlimit: 10; stroke-width: 4px;"/>
  <line x1="9" y1="36" x2="24.06" y2="36" style="fill: none; stroke: #ed1c24; stroke-miterlimit: 10; stroke-width: 4px;"/>
  <path d="M54,54v-9.5c0-2.21-1.79-4-4-4h-3.26" style="fill: none; stroke: #ed1c24; stroke-miterlimit: 10; stroke-width: 4px;"/>
  <path d="M58.5,18v9.5c0,2.21-1.79,4-4,4h-5.74" style="fill: none; stroke: #ed1c24; stroke-miterlimit: 10; stroke-width: 4px;"/>
  <line x1="63" y1="36" x2="47.94" y2="36" style="fill: none; stroke: #ed1c24; stroke-miterlimit: 10; stroke-width: 4px;"/>
  <path d="M22.5,22.5h13.5s13.5,0,13.5,0c0,0,0,27-13.5,31.5-13.5-4.5-13.5-31.5-13.5-31.5Z" style="fill: #ed1c24; opacity: .5;"/>
  <path d="M36,15.54c-3.84,0-6.96,3.12-6.96,6.96h13.92c0-3.84-3.12-6.96-6.96-6.96Z" style="fill: #ed1c24; opacity: .5;"/>
  <path d="M22.5,22.5h13.5s13.5,0,13.5,0c0,0,0,27-13.5,31.5-13.5-4.5-13.5-31.5-13.5-31.5Z" style="fill: none; stroke: #231f20; stroke-miterlimit: 10; stroke-width: 4px;"/>
  <path d="M29.04,22.5c0-3.84,3.12-6.96,6.96-6.96s6.96,3.12,6.96,6.96" style="fill: none; stroke: #231f20; stroke-miterlimit: 10; stroke-width: 4px;"/>
  <line x1="36" y1="22.5" x2="36" y2="54" style="fill: none; stroke: #231f20; stroke-miterlimit: 10; stroke-width: 4px;"/>
</svg>