<?xml version="1.0" encoding="UTF-8"?>
<svg id="building-house-2" xmlns="http://www.w3.org/2000/svg" viewBox="0 0 72 72">
  <path d="M57.75,30.55l-20.49-16.39c-.74-.59-1.78-.58-2.51.01L14.24,30.9c-.47.38-.74.95-.74,1.55v24.05c0,1.1.9,2,2,2h41c1.1,0,2-.9,2-2v-24.39c0-.61-.28-1.18-.75-1.56Z" style="fill: #ed2024; opacity: .5;"/>
  <path d="M14.24,30.9l20.51-16.73c.73-.6,1.78-.6,2.51-.01l20.49,16.39c.47.38.75.95.75,1.56v24.39c0,1.1-.9,2-2,2H15.5c-1.1,0-2-.9-2-2v-24.05c0-.6.27-1.17.74-1.55Z" style="fill: none; stroke: #000; stroke-miterlimit: 10; stroke-width: 4px;"/>
</svg>