<?xml version="1.0" encoding="UTF-8"?>
<svg id="chart-half-circle" xmlns="http://www.w3.org/2000/svg" viewBox="0 0 72 72">
  <path d="M36,19c-14.91,0-27,12.09-27,27h18c0-4.97,4.03-9,9-9s9,4.03,9,9h18c0-14.91-12.09-27-27-27Z" style="fill: #ed2024; opacity: .5;"/>
  <line x1="42.36" y1="39.64" x2="55.09" y2="26.91" style="fill: none; stroke: #ed2024; stroke-miterlimit: 10; stroke-width: 4px;"/>
  <line x1="29.64" y1="39.64" x2="16.91" y2="26.91" style="fill: none; stroke: #ed2024; stroke-miterlimit: 10; stroke-width: 4px;"/>
  <line x1="36" y1="19" x2="36" y2="37" style="fill: none; stroke: #ed2024; stroke-miterlimit: 10; stroke-width: 4px;"/>
  <path d="M36,19c-14.91,0-27,12.09-27,27h18c0-4.97,4.03-9,9-9s9,4.03,9,9h18c0-14.91-12.09-27-27-27Z" style="fill: none; stroke: #000; stroke-miterlimit: 10; stroke-width: 4px;"/>
</svg>