<?xml version="1.0" encoding="UTF-8"?>
<svg id="edit-line-swirl" xmlns="http://www.w3.org/2000/svg" viewBox="0 0 72 72">
  <path d="M13.5,58.5l-.95-6.66c-.73-5.09-1.98-10.14-4.32-14.72-1.16-2.26-1.09-5.07.42-7.35l.51-.76c2.34-3.52,7.18-4.3,10.52-1.71l29.26,22.75c2.9,2.25,7.01,2,9.61-.6h0c2.56-2.56,2.85-6.61.68-9.51l-23.22-30.95" style="fill: none; stroke: #ed2024; stroke-miterlimit: 10; stroke-width: 4px;"/>
  <path d="M16.44,43.78l-2.94,14.72,14.72-2.94c.77-.15,1.49-.54,2.04-1.09l28.13-28.13c1.56-1.56,1.56-4.09,0-5.66l-7.07-7.07c-1.56-1.56-4.09-1.56-5.66,0l-28.13,28.13c-.56.56-.94,1.27-1.09,2.04Z" style="fill: #ed2024; opacity: .5; stroke: #231f20; stroke-miterlimit: 10; stroke-width: 4px;"/>
  <path d="M16.44,43.78l-2.94,14.72,14.72-2.94c.77-.15,1.49-.54,2.04-1.09l28.13-28.13c1.56-1.56,1.56-4.09,0-5.66l-7.07-7.07c-1.56-1.56-4.09-1.56-5.66,0l-28.13,28.13c-.56.56-.94,1.27-1.09,2.04Z" style="fill: none; stroke: #231f20; stroke-miterlimit: 10; stroke-width: 4px;"/>
  <line x1="38.96" y1="20.32" x2="51.68" y2="33.04" style="fill: none; stroke: #231f20; stroke-miterlimit: 10; stroke-width: 4px;"/>
</svg>