<?xml version="1.0" encoding="UTF-8"?>
<svg id="file-edit_2" data-name="file-edit 2" xmlns="http://www.w3.org/2000/svg" viewBox="0 0 72 72">
  <path d="M40.5,9h-23c-2.21,0-4,1.79-4,4v46c0,2.21,1.79,4,4,4h37c2.21,0,4-1.79,4-4V27l-18-18Z" style="fill: #ed2024; opacity: .5;"/>
  <path d="M40.5,9v14c0,2.21,1.79,4,4,4h14" style="fill: none; stroke: #ed2024; stroke-linecap: round; stroke-miterlimit: 10; stroke-width: 4px;"/>
  <path d="M58.5,45v-18l-18-18h-23c-2.21,0-4,1.79-4,4v46c0,2.21,1.79,4,4,4h23" style="fill: none; stroke: #010101; stroke-miterlimit: 10; stroke-width: 4px;"/>
  <g>
    <path d="M51.14,61.53l7.36,1.47-1.47-7.36c-.08-.39-.27-.74-.55-1.02l-14.07-14.07c-.78-.78-2.05-.78-2.83,0l-3.54,3.54c-.78.78-.78,2.05,0,2.83l14.07,14.07c.28.28.63.47,1.02.55Z" style="fill: none; stroke: #231f20; stroke-miterlimit: 10; stroke-width: 4px;"/>
    <line x1="39.41" y1="50.27" x2="45.77" y2="43.91" style="fill: none; stroke: #231f20; stroke-miterlimit: 10; stroke-width: 4px;"/>
  </g>
</svg>