<?xml version="1.0" encoding="UTF-8"?>
<svg id="file-search_2" data-name="file-search 2" xmlns="http://www.w3.org/2000/svg" viewBox="0 0 72 72">
  <path d="M40.5,9h-23c-2.21,0-4,1.79-4,4v46c0,2.21,1.79,4,4,4h37c2.21,0,4-1.79,4-4V27l-18-18Z" style="fill: #ed2024; opacity: .5;"/>
  <path d="M40.5,9v14c0,2.21,1.79,4,4,4h14" style="fill: none; stroke: #ed2024; stroke-linecap: round; stroke-miterlimit: 10; stroke-width: 4px;"/>
  <path d="M58.5,40.5v-13.5l-18-18h-23c-2.21,0-4,1.79-4,4v46c0,2.21,1.79,4,4,4h18.5" style="fill: none; stroke: #010101; stroke-miterlimit: 10; stroke-width: 4px;"/>
  <line x1="63" y1="67.5" x2="55.86" y2="60.36" style="fill: #fff; stroke: #000; stroke-miterlimit: 10; stroke-width: 4px;"/>
  <circle cx="49.5" cy="54" r="9" style="fill: none; stroke: #231f20; stroke-miterlimit: 10; stroke-width: 4px;"/>
</svg>