<?xml version="1.0" encoding="UTF-8"?>
<svg id="file-star_2" data-name="file-star 2" xmlns="http://www.w3.org/2000/svg" viewBox="0 0 72 72">
  <path d="M40.5,9h-23c-2.21,0-4,1.79-4,4v46c0,2.21,1.79,4,4,4h37c2.21,0,4-1.79,4-4V27l-18-18Z" style="fill: #ed2024; opacity: .5;"/>
  <path d="M40.5,9v14c0,2.21,1.79,4,4,4h14" style="fill: none; stroke: #ed2024; stroke-linecap: round; stroke-miterlimit: 10; stroke-width: 4px;"/>
  <path d="M58.5,45v-18l-18-18h-23c-2.21,0-4,1.79-4,4v46c0,2.21,1.79,4,4,4h18.5" style="fill: none; stroke: #010101; stroke-miterlimit: 10; stroke-width: 4px;"/>
  <path d="M50.22,61.43l8.18,5.85c.39.28.91-.1.76-.56l-3.18-9.55,8.09-5.98c.39-.28.18-.9-.3-.89l-10.06.08-3.18-9.55c-.15-.45-.8-.45-.94,0l-3.04,9.59-10.06.08c-.48,0-.67.62-.28.9l8.18,5.85-3.04,9.59c-.14.46.38.83.76.55l8.09-5.98Z" style="fill: none; stroke: #231f20; stroke-miterlimit: 10; stroke-width: 4px;"/>
</svg>