<?xml version="1.0" encoding="UTF-8"?>
<svg id="note-edit" xmlns="http://www.w3.org/2000/svg" viewBox="0 0 72 72">
  <g style="opacity: .5;">
    <rect x="13.5" y="13.5" width="45" height="45" rx="4" ry="4" style="fill: #ed2024;"/>
  </g>
  <rect x="13.5" y="13.5" width="45" height="45" rx="4" ry="4" style="fill: none; stroke: #010101; stroke-linecap: round; stroke-miterlimit: 10; stroke-width: 4px;"/>
  <line x1="22.5" y1="6.5" x2="22.5" y2="20" style="fill: #010101; stroke: #ed2024; stroke-miterlimit: 10; stroke-width: 4px;"/>
  <line x1="31.5" y1="6.5" x2="31.5" y2="20" style="fill: #010101; stroke: #ed2024; stroke-miterlimit: 10; stroke-width: 4px;"/>
  <line x1="40.5" y1="6.5" x2="40.5" y2="20" style="fill: #010101; stroke: #ed2024; stroke-miterlimit: 10; stroke-width: 4px;"/>
  <line x1="49.5" y1="6.5" x2="49.5" y2="20" style="fill: #010101; stroke: #ed2024; stroke-miterlimit: 10; stroke-width: 4px;"/>
  <path d="M23.97,42.14l-1.47,7.36,7.36-1.47c.39-.08.74-.27,1.02-.55l14.07-14.07c.78-.78.78-2.05,0-2.83l-3.54-3.54c-.78-.78-2.05-.78-2.83,0l-14.07,14.07c-.28.28-.47.63-.55,1.02Z" style="fill: none; stroke: #231f20; stroke-miterlimit: 10; stroke-width: 4px;"/>
  <line x1="35.23" y1="30.41" x2="41.59" y2="36.77" style="fill: none; stroke: #231f20; stroke-miterlimit: 10; stroke-width: 4px;"/>
</svg>