<?xml version="1.0" encoding="UTF-8"?>
<svg id="on-target" xmlns="http://www.w3.org/2000/svg" viewBox="0 0 72 72">
  <path d="M58.5,36c0,6.21-2.52,11.84-6.59,15.91-4.07,4.07-9.7,6.59-15.91,6.59s-11.84-2.52-15.91-6.59c-4.07-4.07-6.59-9.7-6.59-15.91s2.52-11.84,6.59-15.91,9.7-6.59,15.91-6.59" style="fill: none; stroke: #010101; stroke-miterlimit: 10; stroke-width: 4px;"/>
  <path d="M49.5,36c0,3.73-1.51,7.1-3.95,9.55s-5.82,3.95-9.55,3.95-7.1-1.51-9.55-3.95c-2.44-2.44-3.95-5.82-3.95-9.55s1.51-7.1,3.95-9.55c2.44-2.44,5.82-3.95,9.55-3.95" style="fill: none; stroke: #010101; stroke-miterlimit: 10; stroke-width: 4px;"/>
  <path d="M40.5,36c0,1.24-.5,2.37-1.32,3.18-.81.81-1.94,1.32-3.18,1.32s-2.37-.5-3.18-1.32-1.32-1.94-1.32-3.18.5-2.37,1.32-3.18,1.94-1.32,3.18-1.32" style="fill: none; stroke: #010101; stroke-miterlimit: 10; stroke-width: 4px;"/>
  <polyline points="40.5 22.5 40.5 31.5 49.5 31.5" style="fill: none; stroke: #010101; stroke-miterlimit: 10; stroke-width: 4px;"/>
  <line x1="58.5" y1="13.5" x2="40.5" y2="31.5" style="fill: none; stroke: #010101; stroke-miterlimit: 10; stroke-width: 4px;"/>
</svg>