<?xml version="1.0" encoding="UTF-8"?>
<svg id="pointer-mouse" xmlns="http://www.w3.org/2000/svg" viewBox="0 0 72 72">
  <path d="M36,18c-8.13,0-14.73,6.59-14.73,14.73v15.55c0,8.13,6.59,14.73,14.73,14.73s14.73-6.59,14.73-14.73v-15.55c0-8.13-6.59-14.73-14.73-14.73Z" style="fill: #ed2024; opacity: .5;"/>
  <line x1="22.5" y1="36" x2="49.5" y2="36" style="fill: none; stroke: #ed1f24; stroke-miterlimit: 10; stroke-width: 4px;"/>
  <line x1="36" y1="4.5" x2="36" y2="36" style="fill: none; stroke: #ed1f24; stroke-miterlimit: 10; stroke-width: 4px;"/>
  <path d="M36,18c-8.13,0-14.73,6.59-14.73,14.73v15.55c0,8.13,6.59,14.73,14.73,14.73s14.73-6.59,14.73-14.73v-15.55c0-8.13-6.59-14.73-14.73-14.73Z" style="fill: none; stroke: #000; stroke-miterlimit: 10; stroke-width: 4px;"/>
</svg>