<?xml version="1.0" encoding="UTF-8"?>
<svg id="radar5" xmlns="http://www.w3.org/2000/svg" viewBox="0 0 72 72">
  <path d="M36,18c-9.94,0-18,8.06-18,18s8.06,18,18,18,18-8.06,18-18-8.06-18-18-18ZM36,40.5c-2.49,0-4.5-2.01-4.5-4.5s2.01-4.5,4.5-4.5,4.5,2.01,4.5,4.5-2.01,4.5-4.5,4.5Z" style="fill: #ed1c24; opacity: .5;"/>
  <circle cx="36" cy="36" r="4.5" style="fill: none; stroke: #ed1c24; stroke-linecap: square; stroke-miterlimit: 10; stroke-width: 6px;"/>
  <line x1="36" y1="9" x2="36" y2="18" style="fill: none; stroke: #010101; stroke-linecap: square; stroke-miterlimit: 10; stroke-width: 6px;"/>
  <line x1="36" y1="54" x2="36" y2="63" style="fill: none; stroke: #010101; stroke-linecap: square; stroke-miterlimit: 10; stroke-width: 6px;"/>
  <line x1="9" y1="36" x2="18" y2="36" style="fill: none; stroke: #010101; stroke-linecap: square; stroke-miterlimit: 10; stroke-width: 6px;"/>
  <line x1="54" y1="36" x2="63" y2="36" style="fill: none; stroke: #010101; stroke-linecap: square; stroke-miterlimit: 10; stroke-width: 6px;"/>
  <g>
    <line x1="55.09" y1="16.91" x2="48.73" y2="23.27" style="fill: none; stroke: #010101; stroke-linecap: square; stroke-miterlimit: 10; stroke-width: 6px;"/>
    <line x1="23.27" y1="48.73" x2="16.91" y2="55.09" style="fill: none; stroke: #010101; stroke-linecap: square; stroke-miterlimit: 10; stroke-width: 6px;"/>
    <line x1="16.91" y1="16.91" x2="23.27" y2="23.27" style="fill: none; stroke: #010101; stroke-linecap: square; stroke-miterlimit: 10; stroke-width: 6px;"/>
    <line x1="48.73" y1="48.73" x2="55.09" y2="55.09" style="fill: none; stroke: #010101; stroke-linecap: square; stroke-miterlimit: 10; stroke-width: 6px;"/>
  </g>
  <circle cx="36" cy="36" r="18" style="fill: none; stroke: #010101; stroke-linecap: square; stroke-miterlimit: 10; stroke-width: 6px;"/>
  <line x1="25.67" y1="11.06" x2="29.11" y2="19.37" style="fill: none; stroke: #010101; stroke-linecap: square; stroke-miterlimit: 10; stroke-width: 6px;"/>
  <line x1="42.89" y1="52.63" x2="46.33" y2="60.94" style="fill: none; stroke: #010101; stroke-linecap: square; stroke-miterlimit: 10; stroke-width: 6px;"/>
  <line x1="11.06" y1="46.33" x2="19.37" y2="42.89" style="fill: none; stroke: #010101; stroke-linecap: square; stroke-miterlimit: 10; stroke-width: 6px;"/>
  <line x1="52.63" y1="29.11" x2="60.94" y2="25.67" style="fill: none; stroke: #010101; stroke-linecap: square; stroke-miterlimit: 10; stroke-width: 6px;"/>
  <g>
    <line x1="46.33" y1="11.06" x2="42.89" y2="19.37" style="fill: none; stroke: #010101; stroke-linecap: square; stroke-miterlimit: 10; stroke-width: 6px;"/>
    <line x1="29.11" y1="52.63" x2="25.67" y2="60.94" style="fill: none; stroke: #010101; stroke-linecap: square; stroke-miterlimit: 10; stroke-width: 6px;"/>
    <line x1="11.06" y1="25.67" x2="19.37" y2="29.11" style="fill: none; stroke: #010101; stroke-linecap: square; stroke-miterlimit: 10; stroke-width: 6px;"/>
    <line x1="52.63" y1="42.89" x2="60.94" y2="46.33" style="fill: none; stroke: #010101; stroke-linecap: square; stroke-miterlimit: 10; stroke-width: 6px;"/>
  </g>
</svg>