<?xml version="1.0" encoding="UTF-8"?>
<svg id="flag-golf" xmlns="http://www.w3.org/2000/svg" viewBox="0 0 72 72">
  <path d="M61.17,31.5l-1.78.36c-5.5,1.1-11.17,1.1-16.67,0l-2.23-.45c-.84-.17-1.5-.83-1.67-1.67l-.45-2.23c-1.1-5.5-1.1-11.17,0-16.67l.03-.16-.07-.06c-6.04-.18-12.09.33-18.04,1.52l-4.2.84c-1.58.32-2.82,1.55-3.14,3.14l-.84,4.2c-2.07,10.36-2.07,21.02,0,31.38l.84,4.2c.32,1.58,1.55,2.82,3.14,3.14l4.2.84c10.36,2.07,21.02,2.07,31.38,0l4.2-.84c1.58-.32,2.82-1.55,3.14-3.14l.84-4.2c1.32-6.62,1.8-13.37,1.43-20.08l-.12-.11Z" style="fill: #ed1c24; opacity: .5;"/>
  <path d="M61.3,31.61c.37,6.71-.11,13.46-1.43,20.08l-.84,4.2c-.32,1.58-1.55,2.82-3.14,3.14l-4.2.84c-10.36,2.07-21.02,2.07-31.38,0l-4.2-.84c-1.58-.32-2.82-1.55-3.14-3.14l-.84-4.2c-2.07-10.36-2.07-21.02,0-31.38l.84-4.2c.32-1.58,1.55-2.82,3.14-3.14l4.2-.84c5.95-1.19,12-1.7,18.04-1.52" style="fill: none; stroke: #231f20; stroke-miterlimit: 10; stroke-width: 4px;"/>
  <path d="M61.62,31.41l-2.23.45c-5.5,1.1-11.17,1.1-16.67,0l-2.23-.45c-.84-.17-1.5-.83-1.67-1.67l-.45-2.23c-1.1-5.5-1.1-11.17,0-16.67l.45-2.23c.17-.84.83-1.5,1.67-1.67l2.23-.45c5.5-1.1,11.17-1.1,16.67,0l2.23.45c.84.17,1.5.83,1.67,1.67l.45,2.23c1.1,5.5,1.1,11.17,0,16.67l-.45,2.23c-.17.84-.83,1.5-1.67,1.67Z" style="fill: none; stroke: #ed1c24; stroke-dasharray: 3.97 3.97; stroke-miterlimit: 10; stroke-width: 4px;"/>
</svg>