<?xml version="1.0" encoding="UTF-8"?>
<svg id="speech-balloon-square_copy" data-name="speech-balloon-square copy" xmlns="http://www.w3.org/2000/svg" viewBox="0 0 72 72">
  <path d="M54.5,22.5h-28c-2.21,0-4,1.79-4,4v19c0,2.21,1.79,4,4,4h14s9,9,9,9v-9h5c2.21,0,4-1.79,4-4v-19c0-2.21-1.79-4-4-4Z" style="fill: #ed2024; opacity: .5;"/>
  <path d="M23.67,48.33c.72.72,1.72,1.17,2.83,1.17h14s9,9,9,9v-9h5c2.21,0,4-1.79,4-4v-19c0-2.21-1.79-4-4-4h-5" style="fill: none; stroke: #ed1f24; stroke-miterlimit: 10; stroke-width: 4px;"/>
  <path d="M17.5,13.5h28c2.21,0,4,1.79,4,4v19c0,2.21-1.79,4-4,4h-14s-9,9-9,9v-9s-5,0-5,0c-2.21,0-4-1.79-4-4v-19c0-2.21,1.79-4,4-4Z" style="fill: #ed2024; opacity: .5;"/>
  <path d="M17.5,13.5h28c2.21,0,4,1.79,4,4v19c0,2.21-1.79,4-4,4h-14s-9,9-9,9v-9s-5,0-5,0c-2.21,0-4-1.79-4-4v-19c0-2.21,1.79-4,4-4Z" style="fill: none; stroke: #000; stroke-miterlimit: 10; stroke-width: 4px;"/>
</svg>