<?xml version="1.0" encoding="UTF-8"?>
<svg id="user-add" xmlns="http://www.w3.org/2000/svg" viewBox="0 0 72 72">
  <g style="opacity: .5;">
    <circle cx="36" cy="22.5" r="11.25" style="fill: #ed2024;"/>
    <path d="M55.29,53.04c0,7.71-19.29,7.71-19.29,7.71,0,0-19.29,0-19.29-7.71,0-10.65,8.63-19.29,19.29-19.29s19.29,8.63,19.29,19.29Z" style="fill: #ed2024;"/>
  </g>
  <g>
    <circle cx="36" cy="22.5" r="11.25" style="fill: none; stroke: #010101; stroke-linecap: round; stroke-linejoin: round; stroke-width: 4px;"/>
    <path d="M55.29,53.04c0,7.71-19.29,7.71-19.29,7.71,0,0-19.29,0-19.29-7.71,0-10.65,8.63-19.29,19.29-19.29s19.29,8.63,19.29,19.29Z" style="fill: none; stroke: #010101; stroke-linecap: square; stroke-linejoin: round; stroke-width: 4px;"/>
  </g>
  <line x1="36" y1="40.5" x2="36" y2="54" style="fill: none; stroke: #ed2024; stroke-linejoin: round; stroke-width: 4px;"/>
  <line x1="29.25" y1="47.25" x2="42.75" y2="47.25" style="fill: none; stroke: #ed2024; stroke-linejoin: round; stroke-width: 4px;"/>
</svg>