<svg id="volume-II" xmlns="http://www.w3.org/2000/svg" viewBox="0 0 72 72"><polygon points="9 27 9 45 18 45 31.5 54 31.5 18 18 27 9 27" style="fill: var(--icon-fill, rgba(0, 0, 0, 0)); opacity: var(--icon-fill-opacity, 1); stroke-width: 0px;"/><polygon points="9 27 9 45 18 45 31.5 54 31.5 18 18 27 9 27" style="fill: none; stroke: var(--icon-stroke-color, currentColor); stroke-linecap: round; stroke-linejoin: round; stroke-width:var(--icon-stroke-width-m, calc(var(--icon-stroke-width, 5) * 1));"/><path d="M39.73,23.32c3.26,3.26,5.27,7.76,5.27,12.73s-2.01,9.47-5.27,12.73" style="fill: none; stroke: var(--icon-stroke-color, currentColor); stroke-linecap: round; stroke-linejoin: round; stroke-width:var(--icon-stroke-width-m, calc(var(--icon-stroke-width, 5) * 1));"/><path d="M45.31,16.2c5.08,4.69,8.37,11.31,8.66,18.76s-2.45,14.32-7.14,19.39" style="fill: none; stroke: var(--icon-stroke-color, currentColor); stroke-linecap: round; stroke-linejoin: round; stroke-width:var(--icon-stroke-width-m, calc(var(--icon-stroke-width, 5) * 1));"/><path d="M51.42,9.59c6.77,6.25,11.16,15.08,11.55,25.01s-3.27,19.09-9.52,25.86" style="fill: none; stroke: var(--icon-stroke-invisible, transparent); stroke-linecap: round; stroke-linejoin: round; stroke-width:var(--icon-stroke-width-m, calc(var(--icon-stroke-width, 5) * 1));"/></svg>
