<?xml version="1.0" encoding="UTF-8"?>
<svg id="paint-roller" xmlns="http://www.w3.org/2000/svg" viewBox="0 0 72 72">
  <path d="M31.5,45h9v16c0,1.1-.9,2-2,2h-5c-1.1,0-2-.9-2-2v-16h0Z" style="fill: #ed2024; opacity: .5; stroke-width: 0px;"/>
  <path d="M54,18h5c2.21,0,4,1.79,4,4v5.5c0,2.21-1.79,4-4,4h-19c-2.21,0-4,1.79-4,4v9.5" style="fill: none; stroke: #ed2024; stroke-miterlimit: 10; stroke-width: 4px;"/>
  <path d="M52,24.53H15.5c-1.1,0-2-.9-2-2v-9.5c0-1.1.9-2,2-2h36.5c1.1,0,2,.9,2,2v9.5c0,1.1-.9,2-2,2Z" style="fill: #ed2024; opacity: .5; stroke-width: 0px;"/>
  <line x1="9" y1="18" x2="13.5" y2="18" style="fill: none; stroke: #ed2024; stroke-miterlimit: 10; stroke-width: 4px;"/>
  <path d="M52,24.53H15.5c-1.1,0-2-.9-2-2v-9.5c0-1.1.9-2,2-2h36.5c1.1,0,2,.9,2,2v9.5c0,1.1-.9,2-2,2Z" style="fill: none; stroke: #000; stroke-miterlimit: 10; stroke-width: 4px;"/>
  <path d="M31.5,45h9v16c0,1.1-.9,2-2,2h-5c-1.1,0-2-.9-2-2v-16h0Z" style="fill: none; stroke: #000; stroke-miterlimit: 10; stroke-width: 4px;"/>
</svg>