<?xml version="1.0" encoding="UTF-8"?>
<svg id="television" xmlns="http://www.w3.org/2000/svg" viewBox="0 0 72 72">
  <path d="M59,18H13c-2.21,0-4,1.79-4,4v32.5c0,2.21,1.79,4,4,4h46c2.21,0,4-1.79,4-4V22c0-2.21-1.79-4-4-4ZM45,49.5h-27v-22.5h27v22.5Z" style="fill: #ed2024; opacity: .5; stroke-width: 0px;"/>
  <rect x="9" y="18" width="54" height="40.5" rx="4" ry="4" style="fill: none; stroke: #010101; stroke-linecap: round; stroke-linejoin: round; stroke-width: 4px;"/>
  <rect x="18" y="27" width="27" height="22.5" style="fill: none; stroke: #ed2024; stroke-linecap: round; stroke-linejoin: round; stroke-width: 4px;"/>
  <line x1="27" y1="9" x2="31.5" y2="18" style="fill: none; stroke: #010101; stroke-linecap: round; stroke-linejoin: round; stroke-width: 4px;"/>
  <line x1="45" y1="9" x2="40.5" y2="18" style="fill: none; stroke: #010101; stroke-linecap: round; stroke-linejoin: round; stroke-width: 4px;"/>
  <line x1="54" y1="31.5" x2="54" y2="31.5" style="fill: none; stroke: #010101; stroke-linecap: round; stroke-linejoin: round; stroke-width: 4px;"/>
  <line x1="54" y1="40.5" x2="54" y2="40.5" style="fill: none; stroke: #010101; stroke-linecap: round; stroke-linejoin: round; stroke-width: 4px;"/>
</svg>