<?xml version="1.0" encoding="UTF-8"?>
<svg id="playback-end" xmlns="http://www.w3.org/2000/svg" viewBox="0 0 72 72">
  <path d="M18.27,16.01v39.19c0,.95,1.2,1.37,1.79.62l15.3-19.59c.28-.36.28-.87,0-1.23l-15.3-19.59c-.59-.75-1.79-.34-1.79.62Z" style="fill: #ed2024; stroke-width: 0px;"/>
  <path d="M36.55,16.83v39.15c0,.95,1.21,1.37,1.79.61l15.17-19.58c.28-.36.28-.86,0-1.23l-15.17-19.58c-.58-.75-1.79-.34-1.79.61Z" style="fill: #ed2024; stroke-width: 0px;"/>
  <path d="M18.27,16.01v39.19c0,.95,1.2,1.37,1.79.62l15.3-19.59c.28-.36.28-.87,0-1.23l-15.3-19.59c-.59-.75-1.79-.34-1.79.62Z" style="fill: none; stroke: #231f20; stroke-miterlimit: 10; stroke-width: 4px;"/>
  <path d="M36.55,16.83v39.15c0,.95,1.21,1.37,1.79.61l15.17-19.58c.28-.36.28-.86,0-1.23l-15.17-19.58c-.58-.75-1.79-.34-1.79.61Z" style="fill: none; stroke: #231f20; stroke-miterlimit: 10; stroke-width: 4px;"/>
</svg>