<svg id="alarm-bell" xmlns="http://www.w3.org/2000/svg" viewBox="0 0 72 72"><path d="M36,13.5c-8.95,0-13.67,6.75-16.2,18l-3.5,15.56c-.28,1.25.67,2.44,1.95,2.44h17.75s17.75,0,17.75,0c1.28,0,2.23-1.19,1.95-2.44l-3.5-15.56c-2.53-11.25-7.25-18-16.2-18h0Z" style="fill: var(--icon-fill, rgba(0, 0, 0, 0)); opacity: var(--icon-fill-opacity, 1); stroke-width: 0px;"/><path d="M45,49.5c0,4.97-4.03,9-9,9s-9-4.03-9-9" style="fill: none; stroke: var(--icon-stroke-color-secondary, var(--icon-stroke-color, currentColor)); stroke-miterlimit: 10; stroke-width:var(--icon-stroke-width-secondary-m, var(--icon-stroke-width-m, calc(var(--icon-stroke-width, 5) * 1)));"/><path d="M36,13.5c-8.95,0-13.67,6.75-16.2,18l-3.5,15.56c-.28,1.25.67,2.44,1.95,2.44h17.75s17.75,0,17.75,0c1.28,0,2.23-1.19,1.95-2.44l-3.5-15.56c-2.53-11.25-7.25-18-16.2-18h0Z" style="fill: none; stroke: var(--icon-stroke-color, currentColor); stroke-miterlimit: 10; stroke-width:var(--icon-stroke-width-m, calc(var(--icon-stroke-width, 5) * 1));"/></svg>
