<?xml version="1.0" encoding="UTF-8"?>
<svg id="board-multiply-2" xmlns="http://www.w3.org/2000/svg" viewBox="0 0 72 72">
  <rect x="13.5" y="13.5" width="45" height="45" rx="6" ry="6" style="fill: #ed2024; opacity: .5;"/>
  <rect x="13.5" y="13.5" width="45" height="36" rx="6" ry="6" style="fill: #ed2024; opacity: .5;"/>
  <path d="M58.5,31.5v12c0,3.31-2.69,6-6,6H19.5c-3.31,0-6-2.69-6-6v-24c0-3.31,2.69-6,6-6h21" style="fill: none; stroke: #ed2024; stroke-miterlimit: 10; stroke-width: 4px;"/>
  <path d="M58.5,31.5v21c0,3.31-2.69,6-6,6H19.5c-3.31,0-6-2.69-6-6V19.5c0-3.31,2.69-6,6-6h21" style="fill: none; stroke: #010101; stroke-miterlimit: 10; stroke-width: 4px;"/>
  <line x1="47.64" y1="11.64" x2="60.36" y2="24.36" style="fill: none; stroke: #010101; stroke-miterlimit: 10; stroke-width: 4px;"/>
  <line x1="60.36" y1="11.64" x2="47.64" y2="24.36" style="fill: none; stroke: #010101; stroke-miterlimit: 10; stroke-width: 4px;"/>
</svg>