<?xml version="1.0" encoding="UTF-8"?>
<svg id="books" xmlns="http://www.w3.org/2000/svg" viewBox="0 0 72 72">
  <path d="M54,13.5H18s-4.5,3.02-4.5,6.75,4.5,6.75,4.5,6.75h36" style="fill: none; stroke: #231f20; stroke-miterlimit: 10; stroke-width: 4px;"/>
  <path d="M18,40.5s2.25-3.02,2.25-6.75-2.25-6.75-2.25-6.75" style="fill: none; stroke: #231f20; stroke-miterlimit: 10; stroke-width: 2px;"/>
  <path d="M51.75,13.5s-2.25,3.02-2.25,6.75,2.25,6.75,2.25,6.75" style="fill: none; stroke: #231f20; stroke-miterlimit: 10; stroke-width: 2px;"/>
  <path d="M49.5,40.5s-2.25,3.02-2.25,6.75,2.25,6.75,2.25,6.75" style="fill: none; stroke: #231f20; stroke-miterlimit: 10; stroke-width: 2px;"/>
  <path d="M54,40.5H18s-4.5,3.02-4.5,6.75,4.5,6.75,4.5,6.75h36" style="fill: none; stroke: #231f20; stroke-miterlimit: 10; stroke-width: 4px;"/>
  <path d="M13.5,40.5h36s4.5-3.02,4.5-6.75-4.5-6.75-4.5-6.75H13.5" style="fill: none; stroke: #231f20; stroke-miterlimit: 10; stroke-width: 4px;"/>
</svg>