<svg id="box" xmlns="http://www.w3.org/2000/svg" viewBox="0 0 72 72"><path d="M34.07,12.31l-18.5,10.18c-1.28.7-2.07,2.05-2.07,3.5v20.02c0,1.46.79,2.8,2.07,3.5l18.5,10.18c1.2.66,2.66.66,3.86,0l18.5-10.18c1.28-.7,2.07-2.05,2.07-3.5v-20.02c0-1.46-.79-2.8-2.07-3.5l-18.5-10.18c-1.2-.66-2.66-.66-3.86,0Z" style="fill: var(--icon-fill, rgba(0, 0, 0, 0)); opacity: var(--icon-fill-opacity, 1);"/><line x1="14.07" y1="23.94" x2="36" y2="36" style="fill: none; stroke: var(--icon-stroke-color, currentColor); stroke-miterlimit: 10; stroke-width:var(--icon-stroke-width-m, calc(var(--icon-stroke-width, 5) * 1));"/><g><path d="M34.07,12.31l-18.5,10.18c-1.28.7-2.07,2.05-2.07,3.5v20.02c0,1.46.79,2.8,2.07,3.5l18.5,10.18c1.2.66,2.66.66,3.86,0l18.5-10.18c1.28-.7,2.07-2.05,2.07-3.5v-20.02c0-1.46-.79-2.8-2.07-3.5l-18.5-10.18c-1.2-.66-2.66-.66-3.86,0Z" style="fill: none; stroke: var(--icon-stroke-color, currentColor); stroke-miterlimit: 10; stroke-width:var(--icon-stroke-width-m, calc(var(--icon-stroke-width, 5) * 1));"/><line x1="36" y1="36" x2="57.93" y2="23.94" style="fill: none; stroke: var(--icon-stroke-color, currentColor); stroke-miterlimit: 10; stroke-width:var(--icon-stroke-width-m, calc(var(--icon-stroke-width, 5) * 1));"/><line x1="36" y1="36" x2="36" y2="60.18" style="fill: none; stroke: var(--icon-stroke-color, currentColor); stroke-miterlimit: 10; stroke-width:var(--icon-stroke-width-m, calc(var(--icon-stroke-width, 5) * 1));"/></g></svg>
