<svg id="accessibility-person-circled" xmlns="http://www.w3.org/2000/svg" version="1.1" viewBox="0 0 72 72.1"><defs><style>.st0 { opacity: .5; } .st1 { stroke: var(--icon-stroke-color, currentColor); } .st1, .st2, .st3 { fill: none; stroke-miterlimit: 10; stroke-width:var(--icon-stroke-width-m, calc(var(--icon-stroke-width, 5) * 1)); } .st4 { fill: red; } .st2 { stroke: var(--icon-stroke-color-secondary, var(--icon-stroke-color, currentColor)); } .st3 { stroke: var(--icon-stroke-color, currentColor); }</style></defs><g class="st0"><path class="st4" d="M63,36.1c0-14.9-12.1-27-27-27s-27,12.1-27,27,2.6,13.2,6.9,18h40.2c4.3-4.8,6.9-11.1,6.9-18Z"/></g><line class="st2" x1="36" y1="22.6" x2="36" y2="45.1"/><circle class="st2" cx="36" cy="49.6" r="4.5"/><line class="st2" x1="36" y1="9.1" x2="36" y2="18.1"/><line class="st2" x1="9" y1="36.1" x2="18" y2="36.1"/><line class="st2" x1="54" y1="36.1" x2="63" y2="36.1"/><line class="st2" x1="16.9" y1="17" x2="23.3" y2="23.3"/><line class="st2" x1="48.7" y1="23.3" x2="55.1" y2="17"/><path class="st1" d="M63,36.1c0-14.9-12.1-27-27-27s-27,12.1-27,27,2.6,13.2,6.9,18h40.2c4.3-4.8,6.9-11.1,6.9-18Z"/><path class="st3" d="M36,49.6"/></svg>
