<svg id="file-user" xmlns="http://www.w3.org/2000/svg" viewBox="0 0 72 72"><path d="M40.5,9h-23c-2.21,0-4,1.79-4,4v46c0,2.21,1.79,4,4,4h37c2.21,0,4-1.79,4-4V27l-18-18Z" style="fill: var(--icon-fill, rgba(0, 0, 0, 0)); opacity: var(--icon-fill-opacity, 1);"/><path d="M40.5,9v14c0,2.21,1.79,4,4,4h14" style="fill: none; stroke: var(--icon-stroke-color-secondary, var(--icon-stroke-color, currentColor)); stroke-linecap: round; stroke-miterlimit: 10; stroke-width:var(--icon-stroke-width-secondary-m, var(--icon-stroke-width-m, calc(var(--icon-stroke-width, 5) * 1)));"/><path d="M40.5,9h-23c-2.21,0-4,1.79-4,4v46c0,2.21,1.79,4,4,4h37c2.21,0,4-1.79,4-4V27l-18-18Z" style="fill: none; stroke: var(--icon-stroke-color, currentColor); stroke-linecap: round; stroke-miterlimit: 10; stroke-width:var(--icon-stroke-width-m, calc(var(--icon-stroke-width, 5) * 1));"/><g><circle cx="36" cy="37.45" r="5.95" style="fill: none; stroke: var(--icon-stroke-color, currentColor); stroke-linecap: round; stroke-linejoin: round; stroke-width:var(--icon-stroke-width-m, calc(var(--icon-stroke-width, 5) * 1));"/><path d="M46.2,53.6c0,4.08-10.2,4.08-10.2,4.08,0,0-10.2,0-10.2-4.08,0-5.63,4.57-10.2,10.2-10.2s10.2,4.57,10.2,10.2Z" style="fill: none; stroke: var(--icon-stroke-color, currentColor); stroke-linecap: square; stroke-linejoin: round; stroke-width:var(--icon-stroke-width-m, calc(var(--icon-stroke-width, 5) * 1));"/></g></svg>
