<svg id="folder-search_2" data-name="folder-search 2" xmlns="http://www.w3.org/2000/svg" viewBox="0 0 72 72"><line x1="13.5" y1="31.5" x2="58.5" y2="31.5" style="fill: none; stroke: var(--icon-stroke-color-secondary, var(--icon-stroke-color, currentColor)); stroke-miterlimit: 10; stroke-width:var(--icon-stroke-width-secondary-m, var(--icon-stroke-width-m, calc(var(--icon-stroke-width, 5) * 1)));"/><path d="M17.5,58.5h37c2.21,0,4-1.79,4-4v-28c0-2.21-1.79-4-4-4h-18.5l-3.39-6.79c-.68-1.36-2.06-2.21-3.58-2.21h-11.53c-2.21,0-4,1.79-4,4v37c0,2.21,1.79,4,4,4Z" style="fill: var(--icon-fill, rgba(0, 0, 0, 0)); opacity: var(--icon-fill-opacity, 1);"/><path d="M58.5,36v-9.5c0-2.21-1.79-4-4-4h-18.5l-3.39-6.79c-.68-1.36-2.06-2.21-3.58-2.21h-11.53c-2.21,0-4,1.79-4,4v37c0,2.21,1.79,4,4,4h18.5" style="fill: none; stroke: var(--icon-stroke-color, currentColor); stroke-miterlimit: 10; stroke-width:var(--icon-stroke-width-m, calc(var(--icon-stroke-width, 5) * 1));"/><line x1="63" y1="63" x2="55.86" y2="55.86" style="fill: var(--icon-fill-secondary, white); stroke: var(--icon-stroke-color, currentColor); stroke-miterlimit: 10; stroke-width:var(--icon-stroke-width-m, calc(var(--icon-stroke-width, 5) * 1));"/><circle cx="49.5" cy="49.5" r="9" style="fill: none; stroke: var(--icon-stroke-color, currentColor); stroke-miterlimit: 10; stroke-width:var(--icon-stroke-width-m, calc(var(--icon-stroke-width, 5) * 1));"/></svg>
