<svg id="following-arrow" xmlns="http://www.w3.org/2000/svg" viewBox="0 0 72 72"><g ><circle cx="25.71" cy="24.75" r="11.25" style="fill: var(--icon-fill, rgba(0, 0, 0, 0)); opacity: var(--icon-fill-opacity, 1);" /><path d="M6.43,55.29c0,7.71,19.29,7.71,19.29,7.71,0,0,19.29,0,19.29-7.71,0-10.65-8.63-19.29-19.29-19.29S6.43,44.63,6.43,55.29Z" style="fill: var(--icon-fill, rgba(0, 0, 0, 0)); opacity: var(--icon-fill-opacity, 1);" /></g><g><circle cx="25.71" cy="24.75" r="11.25" style="fill: none; stroke: var(--icon-stroke-color, currentColor); stroke-linecap: round; stroke-linejoin: round; stroke-width:var(--icon-stroke-width-m, calc(var(--icon-stroke-width, 5) * 1));"/><path d="M6.43,55.29c0,7.71,19.29,7.71,19.29,7.71,0,0,19.29,0,19.29-7.71,0-10.65-8.63-19.29-19.29-19.29S6.43,44.63,6.43,55.29Z" style="fill: none; stroke: var(--icon-stroke-color, currentColor); stroke-linecap: square; stroke-linejoin: round; stroke-width:var(--icon-stroke-width-m, calc(var(--icon-stroke-width, 5) * 1));"/></g><g ><circle cx="54" cy="13.65" r="5.25" style="fill: var(--icon-fill, rgba(0, 0, 0, 0)); opacity: var(--icon-fill-opacity, 1);" /><path d="M45,27.9c0,3.6,9,3.6,9,3.6,0,0,9,0,9-3.6,0-4.97-4.03-9-9-9s-9,4.03-9,9Z" style="fill: var(--icon-fill, rgba(0, 0, 0, 0)); opacity: var(--icon-fill-opacity, 1);" /></g><g><circle cx="54" cy="13.65" r="5.25" style="fill: none; stroke: var(--icon-stroke-color, currentColor); stroke-linecap: round; stroke-linejoin: round; stroke-width:var(--icon-stroke-width-m, calc(var(--icon-stroke-width, 5) * 1));"/><path d="M45,27.9c0,3.6,9,3.6,9,3.6,0,0,9,0,9-3.6,0-4.97-4.03-9-9-9s-9,4.03-9,9Z" style="fill: none; stroke: var(--icon-stroke-color, currentColor); stroke-linecap: square; stroke-linejoin: round; stroke-width:var(--icon-stroke-width-m, calc(var(--icon-stroke-width, 5) * 1));"/></g><polyline points="58.5 49.5 58.5 40.5 49.5 40.5" style="fill: none; stroke: var(--icon-stroke-color-secondary, var(--icon-stroke-color, currentColor)); stroke-linejoin: round; stroke-width:var(--icon-stroke-width-secondary-m, var(--icon-stroke-width-m, calc(var(--icon-stroke-width, 5) * 1)));"/><line x1="49.5" y1="49.5" x2="58.5" y2="40.5" style="fill: none; stroke: var(--icon-stroke-color-secondary, var(--icon-stroke-color, currentColor)); stroke-linejoin: round; stroke-width:var(--icon-stroke-width-secondary-m, var(--icon-stroke-width-m, calc(var(--icon-stroke-width, 5) * 1)));"/></svg>
