<?xml version="1.0" encoding="UTF-8"?>
<svg id="globe-2" xmlns="http://www.w3.org/2000/svg" viewBox="0 0 72 72">
  <circle cx="36" cy="36" r="27" style="fill: #ed1c24; opacity: .5;"/>
  <circle cx="36" cy="36" r="27" style="fill: none; stroke: #231f20; stroke-miterlimit: 10; stroke-width: 4px;"/>
  <line x1="36" y1="9" x2="36" y2="63" style="fill: none; stroke: #231f20; stroke-miterlimit: 10; stroke-width: 4px;"/>
  <path d="M45.63,10.77c-2.99-1.14-6.24-1.77-9.63-1.77s-6.64.63-9.63,1.77c-2.39,6.5-3.87,15.4-3.87,25.23s1.48,18.73,3.87,25.23c2.99,1.14,6.24,1.77,9.63,1.77s6.64-.63,9.63-1.77c2.39-6.5,3.87-15.4,3.87-25.23s-1.48-18.73-3.87-25.23Z" style="fill: none; stroke: #231f20; stroke-miterlimit: 10; stroke-width: 4px;"/>
  <path d="M61.23,26.37c-6.5-2.39-15.4-3.87-25.23-3.87s-18.73,1.48-25.23,3.87c-1.14,2.99-1.77,6.23-1.77,9.63s.63,6.64,1.77,9.63c6.5,2.39,15.4,3.87,25.23,3.87s18.73-1.48,25.23-3.87c1.14-2.99,1.77-6.24,1.77-9.63s-.63-6.64-1.77-9.63Z" style="fill: none; stroke: #231f20; stroke-miterlimit: 10; stroke-width: 4px;"/>
</svg>