<svg id="flag-golf" xmlns="http://www.w3.org/2000/svg" viewBox="0 0 72 72"><path d="M40.5,41.45v-5.45l-2.5-4.5,2.5-4.5-2.5-4.5,2.5-4.5v-4.5l-4.5-4.5-4.5,4.5v27.94c-3.97,1.74-6.75,5.7-6.75,10.31,0,6.21,5.04,11.25,11.25,11.25s11.25-5.04,11.25-11.25c0-4.61-2.78-8.56-6.75-10.3ZM36,56.5c-1.24,0-2.25-1.01-2.25-2.25s1.01-2.25,2.25-2.25,2.25,1.01,2.25,2.25-1.01,2.25-2.25,2.25Z" style="fill: var(--icon-fill, rgba(0, 0, 0, 0)); opacity: var(--icon-fill-opacity, 1);"/><path d="M40.5,41.45v-5.45l-2.5-4.5,2.5-4.5-2.5-4.5,2.5-4.5v-4.5l-4.5-4.5-4.5,4.5v27.94c-3.97,1.74-6.75,5.7-6.75,10.31,0,6.21,5.04,11.25,11.25,11.25s11.25-5.04,11.25-11.25c0-4.61-2.78-8.56-6.75-10.3Z" style="fill: none; stroke: var(--icon-stroke-color, currentColor); stroke-linecap: square; stroke-miterlimit: 10; stroke-width:var(--icon-stroke-width-m, calc(var(--icon-stroke-width, 5) * 1));"/><circle cx="36" cy="54.25" r="2.25" style="fill: none; stroke: var(--icon-stroke-color, currentColor); stroke-linecap: square; stroke-miterlimit: 10; stroke-width:var(--icon-stroke-width-m, calc(var(--icon-stroke-width, 5) * 1));"/></svg>
