<svg id="layers-3" xmlns="http://www.w3.org/2000/svg" viewBox="0 0 72 72"><rect x="27" y="27" width="31.5" height="31.5" rx="2" ry="2" style="fill: var(--icon-fill, rgba(0, 0, 0, 0)); opacity: var(--icon-fill-opacity, 1);"/><path d="M18,40.5h-7c-1.1,0-2-.9-2-2V11c0-1.1.9-2,2-2h27.5c1.1,0,2,.9,2,2v7" style="fill: none; stroke: var(--icon-stroke-color-secondary, var(--icon-stroke-color, currentColor)); stroke-miterlimit: 10; stroke-width:var(--icon-stroke-width-secondary-m, var(--icon-stroke-width-m, calc(var(--icon-stroke-width, 5) * 1)));"/><path d="M27,49.5h-7c-1.1,0-2-.9-2-2v-27.5c0-1.1.9-2,2-2h27.5c1.1,0,2,.9,2,2v7" style="fill: none; stroke: var(--icon-stroke-color-secondary, var(--icon-stroke-color, currentColor)); stroke-miterlimit: 10; stroke-width:var(--icon-stroke-width-secondary-m, var(--icon-stroke-width-m, calc(var(--icon-stroke-width, 5) * 1)));"/><rect x="27" y="27" width="31.5" height="31.5" rx="2" ry="2" style="fill: none; stroke: var(--icon-stroke-color, currentColor); stroke-miterlimit: 10; stroke-width:var(--icon-stroke-width-m, calc(var(--icon-stroke-width, 5) * 1));"/></svg>
