<?xml version="1.0" encoding="UTF-8"?>
<svg id="like" xmlns="http://www.w3.org/2000/svg" viewBox="0 0 72 72">
  <path d="M42.12,54c1.72,0,3.25-1.1,3.79-2.74l6.33-19c.86-2.59-1.06-5.26-3.79-5.26h-13.82s5.49-9.16,5.49-9.16c1.19-1.99-.54-4.34-3.21-4.34h-.47c-1.13,0-2.2.44-2.88,1.2l-11.05,12.3h0v27h19.62Z" style="fill: #ed1f24; opacity: .5;"/>
  <path d="M15.5,27h7v27h-7c-1.1,0-2-.9-2-2v-23c0-1.1.9-2,2-2Z" style="fill: none; stroke: #010101; stroke-miterlimit: 10; stroke-width: 4px;"/>
  <path d="M42.12,54c1.72,0,3.25-1.1,3.79-2.74l6.33-19c.86-2.59-1.06-5.26-3.79-5.26h-13.82s5.49-9.16,5.49-9.16c1.19-1.99-.54-4.34-3.21-4.34h-.47c-1.13,0-2.2.44-2.88,1.2l-11.05,12.3h0v27h19.62Z" style="fill: none; stroke: #010101; stroke-miterlimit: 10; stroke-width: 4px;"/>
</svg>