<svg id="flag-golf" xmlns="http://www.w3.org/2000/svg" viewBox="0 0 72 72"><path d="M20.25,33.75v-6.75c0-8.7,7.05-15.75,15.75-15.75s15.75,7.05,15.75,15.75v6.75" style="fill: none; stroke: var(--icon-stroke-color-secondary, var(--icon-stroke-color, currentColor)); stroke-linecap: square; stroke-miterlimit: 10; stroke-width:var(--icon-stroke-width-secondary-m, var(--icon-stroke-width-m, calc(var(--icon-stroke-width, 5) * 1)));"/><path d="M20.25,33.75h31.5c2.49,0,4.5,1.79,4.5,4v19c0,2.21-2.01,4-4.5,4h-31.5c-2.49,0-4.5-1.79-4.5-4v-19c0-2.21,2.01-4,4.5-4Z" style="fill: var(--icon-fill, rgba(0, 0, 0, 0)); opacity: var(--icon-fill-opacity, 1);"/><path d="M20.25,33.75h31.5c2.49,0,4.5,1.79,4.5,4v19c0,2.21-2.01,4-4.5,4h-31.5c-2.49,0-4.5-1.79-4.5-4v-19c0-2.21,2.01-4,4.5-4Z" style="fill: none; stroke: var(--icon-stroke-color, currentColor); stroke-linecap: square; stroke-miterlimit: 10; stroke-width:var(--icon-stroke-width-m, calc(var(--icon-stroke-width, 5) * 1));"/></svg>
