<svg id="pointer-mouse" xmlns="http://www.w3.org/2000/svg" viewBox="0 0 72 72"><path d="M36,18c-8.13,0-14.73,6.59-14.73,14.73v15.55c0,8.13,6.59,14.73,14.73,14.73s14.73-6.59,14.73-14.73v-15.55c0-8.13-6.59-14.73-14.73-14.73Z" style="fill: var(--icon-fill, rgba(0, 0, 0, 0)); opacity: var(--icon-fill-opacity, 1);"/><line x1="22.5" y1="36" x2="49.5" y2="36" style="fill: none; stroke: var(--icon-stroke-color-secondary, var(--icon-stroke-color, currentColor)); stroke-miterlimit: 10; stroke-width:var(--icon-stroke-width-secondary-m, var(--icon-stroke-width-m, calc(var(--icon-stroke-width, 5) * 1)));"/><line x1="36" y1="4.5" x2="36" y2="36" style="fill: none; stroke: var(--icon-stroke-color-secondary, var(--icon-stroke-color, currentColor)); stroke-miterlimit: 10; stroke-width:var(--icon-stroke-width-secondary-m, var(--icon-stroke-width-m, calc(var(--icon-stroke-width, 5) * 1)));"/><path d="M36,18c-8.13,0-14.73,6.59-14.73,14.73v15.55c0,8.13,6.59,14.73,14.73,14.73s14.73-6.59,14.73-14.73v-15.55c0-8.13-6.59-14.73-14.73-14.73Z" style="fill: none; stroke: var(--icon-stroke-color, currentColor); stroke-miterlimit: 10; stroke-width:var(--icon-stroke-width-m, calc(var(--icon-stroke-width, 5) * 1));"/></svg>
