<svg id="flag-golf" xmlns="http://www.w3.org/2000/svg" viewBox="0 0 72 72"><path d="M58.16,60.01l-2.47.49c-6.1,1.22-12.37,1.22-18.47,0l-2.47-.49c-.93-.19-1.66-.91-1.85-1.85l-.49-2.47c-1.22-6.1-1.22-12.37,0-18.47l.49-2.47c.19-.93.91-1.66,1.85-1.85l2.47-.49c6.1-1.22,12.37-1.22,18.47,0l2.47.49c.93.19,1.66.91,1.85,1.85l.49,2.47c1.22,6.1,1.22,12.37,0,18.47l-.49,2.47c-.19.93-.91,1.66-1.85,1.85Z" style="fill: var(--icon-fill, rgba(0, 0, 0, 0)); opacity: var(--icon-fill-opacity, 1); stroke: var(--icon-stroke-color, currentColor); stroke-miterlimit: 10; stroke-width:var(--icon-stroke-width-m, calc(var(--icon-stroke-width, 5) * 1));"/><path d="M32.42,37.23l.49-2.47c.19-.93.91-1.66,1.85-1.85l2.47-.49c.94-.19,1.88-.34,2.83-.47.71-5.2.56-10.48-.47-15.64l-.49-2.47c-.19-.93-.92-1.66-1.85-1.85l-2.47-.49c-6.1-1.22-12.37-1.22-18.47,0l-2.47.49c-.93.19-1.66.91-1.85,1.85l-.49,2.47c-1.22,6.1-1.22,12.37,0,18.47l.49,2.47c.19.93.92,1.66,1.85,1.85l2.47.49c5.16,1.03,10.44,1.18,15.64.47.13-.95.28-1.89.47-2.83Z" style="fill: none; stroke: var(--icon-stroke-color-secondary, var(--icon-stroke-color, currentColor)); stroke-miterlimit: 10; stroke-width:var(--icon-stroke-width-secondary-m, var(--icon-stroke-width-m, calc(var(--icon-stroke-width, 5) * 1)));"/><path d="M58.16,60.01l-2.47.49c-6.1,1.22-12.37,1.22-18.47,0l-2.47-.49c-.93-.19-1.66-.91-1.85-1.85l-.49-2.47c-1.22-6.1-1.22-12.37,0-18.47l.49-2.47c.19-.93.91-1.66,1.85-1.85l2.47-.49c6.1-1.22,12.37-1.22,18.47,0l2.47.49c.93.19,1.66.91,1.85,1.85l.49,2.47c1.22,6.1,1.22,12.37,0,18.47l-.49,2.47c-.19.93-.91,1.66-1.85,1.85Z" style="fill: none; stroke: var(--icon-stroke-color, currentColor); stroke-miterlimit: 10; stroke-width:var(--icon-stroke-width-m, calc(var(--icon-stroke-width, 5) * 1));"/></svg>
