<?xml version="1.0" encoding="UTF-8"?>
<svg id="section" xmlns="http://www.w3.org/2000/svg" viewBox="0 0 72 72">
  <g style="opacity: .5;">
    <path d="M54.5,13.5h-14v2.5c0,1.1-.9,2-2,2H13.5v36.5c0,2.21,1.79,4,4,4h37c2.21,0,4-1.79,4-4V17.5c0-2.21-1.79-4-4-4Z" style="fill: #ed2024;"/>
  </g>
  <path d="M40.5,13.5h14c2.21,0,4,1.79,4,4v37c0,2.21-1.79,4-4,4H17.5c-2.21,0-4-1.79-4-4V18" style="fill: none; stroke: #000; stroke-linecap: round; stroke-linejoin: round; stroke-width: 4px;"/>
  <rect x="9" y="9" width="31.5" height="9" rx="2" ry="2" style="fill: none; stroke: #ed2024; stroke-linecap: round; stroke-linejoin: round; stroke-width: 4px;"/>
</svg>