<?xml version="1.0" encoding="UTF-8"?>
<svg id="speech-balloon" xmlns="http://www.w3.org/2000/svg" viewBox="0 0 72 72">
  <path d="M9,31.5c0-14.91,12.09-21.6,27-21.6,14.91,0,27,6.69,27,21.6s-12.09,21.6-27,21.6c-1.63,0-3.22-.08-4.77-.25l-9.74,9.74c-.86.86-2.34.25-2.34-.97v-12.32c-6.18-3.43-10.15-9.27-10.15-17.81Z" style="fill: #ed2024; opacity: .5;"/>
  <path d="M9,31.5c0-14.91,12.09-21.6,27-21.6,14.91,0,27,6.69,27,21.6s-12.09,21.6-27,21.6c-1.63,0-3.22-.08-4.77-.25l-9.74,9.74c-.86.86-2.34.25-2.34-.97v-12.32c-6.18-3.43-10.15-9.27-10.15-17.81Z" style="fill: none; stroke: #000; stroke-miterlimit: 10; stroke-width: 4px;"/>
</svg>