<svg id="speech-balloon-square_2" data-name="speech-balloon-square 2" xmlns="http://www.w3.org/2000/svg" viewBox="0 0 72 72"><path d="M54.5,13.5H17.5c-2.21,0-4,1.79-4,4v28c0,2.21,1.79,4,4,4h23l9,9v-9h5c2.21,0,4-1.79,4-4v-28c0-2.21-1.79-4-4-4Z" style="fill: var(--icon-fill, rgba(0, 0, 0, 0)); opacity: var(--icon-fill-opacity, 1);"/><path d="M54.5,13.5H17.5c-2.21,0-4,1.79-4,4v28c0,2.21,1.79,4,4,4h23l9,9v-9h5c2.21,0,4-1.79,4-4v-28c0-2.21-1.79-4-4-4Z" style="fill: none; stroke: var(--icon-stroke-color, currentColor); stroke-miterlimit: 10; stroke-width:var(--icon-stroke-width-m, calc(var(--icon-stroke-width, 5) * 1));"/></svg>
