<svg id="sticker-2-rounded" xmlns="http://www.w3.org/2000/svg" viewBox="0 0 72 72"><path d="M59.47,39.53l2.12-2.12c.78-.78.78-2.05,0-2.83l-2.12-2.12c-.57-.57-.74-1.43-.43-2.18l1.15-2.77c.42-1.02-.06-2.19-1.08-2.61l-2.77-1.15c-.75-.31-1.23-1.04-1.23-1.85v-3c0-1.1-.9-2-2-2h-3c-.81,0-1.54-.49-1.85-1.23l-1.15-2.77c-.42-1.02-1.59-1.51-2.61-1.08l-2.77,1.15c-.75.31-1.61.14-2.18-.43l-2.12-2.12c-.78-.78-2.05-.78-2.83,0l-2.12,2.12c-.57.57-1.43.74-2.18.43l-2.77-1.15c-1.02-.42-2.19.06-2.61,1.08l-1.15,2.77c-.31.75-1.04,1.23-1.85,1.23h-3c-1.1,0-2,.9-2,2v3c0,.81-.49,1.54-1.23,1.85l-2.77,1.15c-1.02.42-1.51,1.59-1.08,2.61l1.15,2.77c.31.75.14,1.61-.43,2.18l-2.12,2.12c-.78.78-.78,2.05,0,2.83l2.12,2.12c.57.57.74,1.43.43,2.18l-1.15,2.77c-.42,1.02.06,2.19,1.08,2.61l2.77,1.15c.75.31,1.23,1.04,1.23,1.85v3c0,1.1.9,2,2,2h3c.81,0,1.54.49,1.85,1.23l1.15,2.77c.42,1.02,1.59,1.51,2.61,1.08l2.77-1.15c.75-.31,1.61-.14,2.18.43l2.12,2.12c.78.78,2.05.78,2.83,0l2.12-2.12c.57-.57,1.43-.74,2.18-.43l2.77,1.15c1.02.42,2.19-.06,2.61-1.08l1.15-2.77c.31-.75,1.04-1.23,1.85-1.23h3c1.1,0,2-.9,2-2v-3c0-.81.49-1.54,1.23-1.85l2.77-1.15c1.02-.42,1.51-1.59,1.08-2.61l-1.15-2.77c-.31-.75-.14-1.61.43-2.18Z" style="fill: var(--icon-fill, rgba(0, 0, 0, 0)); opacity: var(--icon-fill-opacity, 1);"/><path d="M59.47,39.53l2.12-2.12c.78-.78.78-2.05,0-2.83l-2.12-2.12c-.57-.57-.74-1.43-.43-2.18l1.15-2.77c.42-1.02-.06-2.19-1.08-2.61l-2.77-1.15c-.75-.31-1.23-1.04-1.23-1.85v-3c0-1.1-.9-2-2-2h-3c-.81,0-1.54-.49-1.85-1.23l-1.15-2.77c-.42-1.02-1.59-1.51-2.61-1.08l-2.77,1.15c-.75.31-1.61.14-2.18-.43l-2.12-2.12c-.78-.78-2.05-.78-2.83,0l-2.12,2.12c-.57.57-1.43.74-2.18.43l-2.77-1.15c-1.02-.42-2.19.06-2.61,1.08l-1.15,2.77c-.31.75-1.04,1.23-1.85,1.23h-3c-1.1,0-2,.9-2,2v3c0,.81-.49,1.54-1.23,1.85l-2.77,1.15c-1.02.42-1.51,1.59-1.08,2.61l1.15,2.77c.31.75.14,1.61-.43,2.18l-2.12,2.12c-.78.78-.78,2.05,0,2.83l2.12,2.12c.57.57.74,1.43.43,2.18l-1.15,2.77c-.42,1.02.06,2.19,1.08,2.61l2.77,1.15c.75.31,1.23,1.04,1.23,1.85v3c0,1.1.9,2,2,2h3c.81,0,1.54.49,1.85,1.23l1.15,2.77c.42,1.02,1.59,1.51,2.61,1.08l2.77-1.15c.75-.31,1.61-.14,2.18.43l2.12,2.12c.78.78,2.05.78,2.83,0l2.12-2.12c.57-.57,1.43-.74,2.18-.43l2.77,1.15c1.02.42,2.19-.06,2.61-1.08l1.15-2.77c.31-.75,1.04-1.23,1.85-1.23h3c1.1,0,2-.9,2-2v-3c0-.81.49-1.54,1.23-1.85l2.77-1.15c1.02-.42,1.51-1.59,1.08-2.61l-1.15-2.77c-.31-.75-.14-1.61.43-2.18Z" style="fill: none; stroke: var(--icon-stroke-color, currentColor); stroke-miterlimit: 10; stroke-width:var(--icon-stroke-width-m, calc(var(--icon-stroke-width, 5) * 1));"/></svg>
