<svg id="sticker-rounded" xmlns="http://www.w3.org/2000/svg" viewBox="0 0 72 72"><path d="M56.26,42.74l3.91-3.91c1.56-1.56,1.56-4.09,0-5.66l-3.91-3.91c-.75-.75-1.17-1.77-1.17-2.83v-5.53c0-2.21-1.79-4-4-4h-5.53c-1.06,0-2.08-.42-2.83-1.17l-3.91-3.91c-1.56-1.56-4.09-1.56-5.66,0l-3.91,3.91c-.75.75-1.77,1.17-2.83,1.17h-5.53c-2.21,0-4,1.79-4,4v5.53c0,1.06-.42,2.08-1.17,2.83l-3.91,3.91c-1.56,1.56-1.56,4.09,0,5.66l3.91,3.91c.75.75,1.17,1.77,1.17,2.83v5.53c0,2.21,1.79,4,4,4h5.53c1.06,0,2.08.42,2.83,1.17l3.91,3.91c1.56,1.56,4.09,1.56,5.66,0l3.91-3.91c.75-.75,1.77-1.17,2.83-1.17h5.53c2.21,0,4-1.79,4-4v-5.53c0-1.06.42-2.08,1.17-2.83Z" style="fill: var(--icon-fill, rgba(0, 0, 0, 0)); opacity: var(--icon-fill-opacity, 1);"/><path d="M56.26,42.74l3.91-3.91c1.56-1.56,1.56-4.09,0-5.66l-3.91-3.91c-.75-.75-1.17-1.77-1.17-2.83v-5.53c0-2.21-1.79-4-4-4h-5.53c-1.06,0-2.08-.42-2.83-1.17l-3.91-3.91c-1.56-1.56-4.09-1.56-5.66,0l-3.91,3.91c-.75.75-1.77,1.17-2.83,1.17h-5.53c-2.21,0-4,1.79-4,4v5.53c0,1.06-.42,2.08-1.17,2.83l-3.91,3.91c-1.56,1.56-1.56,4.09,0,5.66l3.91,3.91c.75.75,1.17,1.77,1.17,2.83v5.53c0,2.21,1.79,4,4,4h5.53c1.06,0,2.08.42,2.83,1.17l3.91,3.91c1.56,1.56,4.09,1.56,5.66,0l3.91-3.91c.75-.75,1.77-1.17,2.83-1.17h5.53c2.21,0,4-1.79,4-4v-5.53c0-1.06.42-2.08,1.17-2.83Z" style="fill: none; stroke: var(--icon-stroke-color, currentColor); stroke-miterlimit: 10; stroke-width:var(--icon-stroke-width-m, calc(var(--icon-stroke-width, 5) * 1));"/></svg>
