<svg id="sticker" xmlns="http://www.w3.org/2000/svg" viewBox="0 0 72 72"><path d="M58.5,40.5h-14c-2.21,0-4,1.79-4,4v14l18-18Z" style="fill: var(--icon-fill, rgba(0, 0, 0, 0)); opacity: var(--icon-fill-opacity, 1);"/><path d="M40.5,58.5v-14c0-2.21,1.79-4,4-4h14" style="fill: none; stroke: var(--icon-stroke-color-secondary, var(--icon-stroke-color, currentColor)); stroke-miterlimit: 10; stroke-width:var(--icon-stroke-width-secondary-m, var(--icon-stroke-width-m, calc(var(--icon-stroke-width, 5) * 1)));"/><path d="M38.84,58.5h-21.34c-2.21,0-4-1.79-4-4V17.5c0-2.21,1.79-4,4-4h37c2.21,0,4,1.79,4,4v21.34c0,1.06-.42,2.08-1.17,2.83l-15.66,15.66c-.75.75-1.77,1.17-2.83,1.17Z" style="fill: none; stroke: var(--icon-stroke-color, currentColor); stroke-miterlimit: 10; stroke-width:var(--icon-stroke-width-m, calc(var(--icon-stroke-width, 5) * 1));"/></svg>
