<svg id="sticker_copy" data-name="sticker copy" xmlns="http://www.w3.org/2000/svg" viewBox="0 0 72 72"><polygon points="58.52 40.48 63 36 58.52 31.52 60.94 25.67 55.09 23.24 55.09 16.91 48.76 16.91 46.33 11.06 40.48 13.48 36 9 31.52 13.48 25.67 11.06 23.24 16.91 16.91 16.91 16.91 23.24 11.06 25.67 13.48 31.52 9 36 13.48 40.48 11.06 46.33 16.91 48.76 16.91 55.09 23.24 55.09 25.67 60.94 31.52 58.52 36 63 40.48 58.52 46.33 60.94 48.76 55.09 55.09 55.09 55.09 48.76 60.94 46.33 58.52 40.48" style="fill: var(--icon-fill, rgba(0, 0, 0, 0)); opacity: var(--icon-fill-opacity, 1);"/><polygon points="58.52 40.48 63 36 58.52 31.52 60.94 25.67 55.09 23.24 55.09 16.91 48.76 16.91 46.33 11.06 40.48 13.48 36 9 31.52 13.48 25.67 11.06 23.24 16.91 16.91 16.91 16.91 23.24 11.06 25.67 13.48 31.52 9 36 13.48 40.48 11.06 46.33 16.91 48.76 16.91 55.09 23.24 55.09 25.67 60.94 31.52 58.52 36 63 40.48 58.52 46.33 60.94 48.76 55.09 55.09 55.09 55.09 48.76 60.94 46.33 58.52 40.48" style="fill: none; stroke: var(--icon-stroke-color, currentColor); stroke-miterlimit: 10; stroke-width:var(--icon-stroke-width-m, calc(var(--icon-stroke-width, 5) * 1));"/></svg>
