<svg id="talk-star" xmlns="http://www.w3.org/2000/svg" viewBox="0 0 72 72"><path d="M17.5,13.5h37c2.21,0,4,1.79,4,4v28c0,2.21-1.79,4-4,4h-23s-9,9-9,9v-9s-5,0-5,0c-2.21,0-4-1.79-4-4v-28c0-2.21,1.79-4,4-4Z" style="fill: var(--icon-fill, rgba(0, 0, 0, 0)); opacity: var(--icon-fill-opacity, 1);"/><path d="M36.14,37.22l6.34,4.54c.3.22.7-.08.59-.43l-2.47-7.4,6.27-4.63c.3-.22.14-.69-.23-.69l-7.8.06-2.47-7.4c-.12-.35-.62-.35-.73,0l-2.35,7.43-7.8.06c-.37,0-.52.48-.22.69l6.34,4.54-2.35,7.43c-.11.35.29.64.59.42l6.27-4.63Z" style="fill: none; stroke: var(--icon-stroke-color, currentColor); stroke-miterlimit: 10; stroke-width:var(--icon-stroke-width-m, calc(var(--icon-stroke-width, 5) * 1));"/><path d="M17.5,13.5h37c2.21,0,4,1.79,4,4v28c0,2.21-1.79,4-4,4h-23s-9,9-9,9v-9s-5,0-5,0c-2.21,0-4-1.79-4-4v-28c0-2.21,1.79-4,4-4Z" style="fill: none; stroke: var(--icon-stroke-color, currentColor); stroke-miterlimit: 10; stroke-width:var(--icon-stroke-width-m, calc(var(--icon-stroke-width, 5) * 1));"/></svg>
