<svg id="talk-delete" xmlns="http://www.w3.org/2000/svg" viewBox="0 0 72 72"><path d="M17.5,13.5h37c2.21,0,4,1.79,4,4v28c0,2.21-1.79,4-4,4h-23s-9,9-9,9v-9s-5,0-5,0c-2.21,0-4-1.79-4-4v-28c0-2.21,1.79-4,4-4Z" style="fill: var(--icon-fill, rgba(0, 0, 0, 0)); opacity: var(--icon-fill-opacity, 1);"/><line x1="29.64" y1="25.27" x2="42.36" y2="38" style="fill: none; stroke: var(--icon-stroke-color, currentColor); stroke-miterlimit: 10; stroke-width:var(--icon-stroke-width-m, calc(var(--icon-stroke-width, 5) * 1));"/><line x1="42.36" y1="25.27" x2="29.64" y2="38" style="fill: none; stroke: var(--icon-stroke-color, currentColor); stroke-miterlimit: 10; stroke-width:var(--icon-stroke-width-m, calc(var(--icon-stroke-width, 5) * 1));"/><path d="M17.5,13.5h37c2.21,0,4,1.79,4,4v28c0,2.21-1.79,4-4,4h-23s-9,9-9,9v-9s-5,0-5,0c-2.21,0-4-1.79-4-4v-28c0-2.21,1.79-4,4-4Z" style="fill: none; stroke: var(--icon-stroke-color, currentColor); stroke-miterlimit: 10; stroke-width:var(--icon-stroke-width-m, calc(var(--icon-stroke-width, 5) * 1));"/></svg>
