<svg id="talk-heart-broken" xmlns="http://www.w3.org/2000/svg" viewBox="0 0 72 72"><path d="M17.5,13.5h37c2.21,0,4,1.79,4,4v28c0,2.21-1.79,4-4,4h-23s-9,9-9,9v-9s-5,0-5,0c-2.21,0-4-1.79-4-4v-28c0-2.21,1.79-4,4-4Z" style="fill: var(--icon-fill, rgba(0, 0, 0, 0)); opacity: var(--icon-fill-opacity, 1);"/><polyline points="36 26.3 37.9 32.01 34.1 33.91 36 41.52" style="fill: none; stroke: var(--icon-stroke-color, currentColor); stroke-miterlimit: 10; stroke-width:var(--icon-stroke-width-m, calc(var(--icon-stroke-width, 5) * 1));"/><path d="M36,41.52c-19.76-10.35-9.88-26.07,0-15.52,9.88-10.55,19.76,5.17,0,15.52Z" style="fill: none; stroke: var(--icon-stroke-color, currentColor); stroke-miterlimit: 10; stroke-width:var(--icon-stroke-width-m, calc(var(--icon-stroke-width, 5) * 1));"/><path d="M17.5,13.5h37c2.21,0,4,1.79,4,4v28c0,2.21-1.79,4-4,4h-23s-9,9-9,9v-9s-5,0-5,0c-2.21,0-4-1.79-4-4v-28c0-2.21,1.79-4,4-4Z" style="fill: none; stroke: var(--icon-stroke-color, currentColor); stroke-miterlimit: 10; stroke-width:var(--icon-stroke-width-m, calc(var(--icon-stroke-width, 5) * 1));"/></svg>
