<svg id="ai-stars" xmlns="http://www.w3.org/2000/svg" viewBox="0 0 72 72"><g ><path d="M45,36c-9.94,0-18-8.06-18-18,0,9.94-8.06,18-18,18,9.94,0,18,8.06,18,18,0-9.94,8.06-18,18-18Z" style="fill: var(--icon-fill, rgba(0, 0, 0, 0)); opacity: var(--icon-fill-opacity, 1);" /></g><g ><path d="M58.5,18c-4.97,0-9-4.03-9-9,0,4.97-4.03,9-9,9,4.97,0,9,4.03,9,9,0-4.97,4.03-9,9-9Z" style="fill: var(--icon-fill, rgba(0, 0, 0, 0)); opacity: var(--icon-fill-opacity, 1);" /></g><g ><path d="M58.5,54c-4.97,0-9-4.03-9-9,0,4.97-4.03,9-9,9,4.97,0,9,4.03,9,9,0-4.97,4.03-9,9-9Z" style="fill: var(--icon-fill, rgba(0, 0, 0, 0)); opacity: var(--icon-fill-opacity, 1);" /></g><path d="M45,36c-9.94,0-18-8.06-18-18,0,9.94-8.06,18-18,18,9.94,0,18,8.06,18,18,0-9.94,8.06-18,18-18Z" style="fill: none; stroke: var(--icon-stroke-color, currentColor); stroke-miterlimit: 10; stroke-width:var(--icon-stroke-width-m, calc(var(--icon-stroke-width, 5) * 1));"/><path d="M58.5,18c-4.97,0-9-4.03-9-9,0,4.97-4.03,9-9,9,4.97,0,9,4.03,9,9,0-4.97,4.03-9,9-9Z" style="fill: none; stroke: var(--icon-stroke-color, currentColor); stroke-miterlimit: 10; stroke-width:var(--icon-stroke-width-m, calc(var(--icon-stroke-width, 5) * 1));"/><path d="M58.5,54c-4.97,0-9-4.03-9-9,0,4.97-4.03,9-9,9,4.97,0,9,4.03,9,9,0-4.97,4.03-9,9-9Z" style="fill: none; stroke: var(--icon-stroke-color, currentColor); stroke-miterlimit: 10; stroke-width:var(--icon-stroke-width-m, calc(var(--icon-stroke-width, 5) * 1));"/></svg>
