<svg id="bulb" xmlns="http://www.w3.org/2000/svg" viewBox="0 0 72 72"><path d="M54,27c0-9.94-8.06-18-18-18s-18,8.06-18,18c0,13.5,10.8,18,10.8,27v5c0,2.21,1.79,4,4,4h6.4c2.21,0,4-1.79,4-4v-5c0-9,10.8-13.5,10.8-27" style="fill: var(--icon-fill, rgba(0, 0, 0, 0)); opacity: var(--icon-fill-opacity, 1);"/><path d="M40.5,31.5c0,2.49-2.01,4.5-4.5,4.5s-4.5-2.01-4.5-4.5" style="fill: none; stroke: var(--icon-stroke-color-secondary, var(--icon-stroke-color, currentColor)); stroke-linecap: round; stroke-miterlimit: 10; stroke-width:var(--icon-stroke-width-secondary-m, var(--icon-stroke-width-m, calc(var(--icon-stroke-width, 5) * 1)));"/><line x1="36" y1="36" x2="36" y2="54" style="fill: none; stroke: var(--icon-stroke-color-secondary, var(--icon-stroke-color, currentColor)); stroke-miterlimit: 10; stroke-width:var(--icon-stroke-width-secondary-m, var(--icon-stroke-width-m, calc(var(--icon-stroke-width, 5) * 1)));"/><path d="M54,27c0-9.94-8.06-18-18-18s-18,8.06-18,18c0,13.5,10.8,18,10.8,27v5c0,2.21,1.79,4,4,4h6.4c2.21,0,4-1.79,4-4v-5c0-9,10.8-13.5,10.8-27" style="fill: none; stroke: var(--icon-stroke-color, currentColor); stroke-linecap: round; stroke-miterlimit: 10; stroke-width:var(--icon-stroke-width-m, calc(var(--icon-stroke-width, 5) * 1));"/><line x1="27" y1="54" x2="45" y2="54" style="fill: none; stroke: var(--icon-stroke-color, currentColor); stroke-miterlimit: 10; stroke-width:var(--icon-stroke-width-m, calc(var(--icon-stroke-width, 5) * 1));"/></svg>
