<?xml version="1.0" encoding="UTF-8"?>
<svg id="cactus" xmlns="http://www.w3.org/2000/svg" viewBox="0 0 72 72">
  <path d="M58.06,18.02c-2.34.22-4.06,2.32-4.06,4.67v4.31h-9v-9c0-4.97-4.03-9-9-9s-9,4.03-9,9v22.5h-9v-9c0-2.63-2.26-4.73-4.94-4.48-2.34.22-4.06,2.32-4.06,4.67v9.81c0,4.42,3.58,8,8,8h10v13.5h18v-27h10c4.42,0,8-3.58,8-8v-5.5c0-2.63-2.26-4.73-4.94-4.48Z" style="fill: #ed2024; opacity: .5;"/>
  <path d="M58.06,18.02c-2.34.22-4.06,2.32-4.06,4.67v4.31h-9v-9c0-4.97-4.03-9-9-9s-9,4.03-9,9v22.5h-9v-9c0-2.63-2.26-4.73-4.94-4.48-2.34.22-4.06,2.32-4.06,4.67v9.81c0,4.42,3.58,8,8,8h10v13.5h18v-27h10c4.42,0,8-3.58,8-8v-5.5c0-2.63-2.26-4.73-4.94-4.48Z" style="fill: none; stroke: #010101; stroke-linecap: round; stroke-linejoin: round; stroke-width: 4px;"/>
  <line x1="13.5" y1="63" x2="58.5" y2="63" style="fill: none; stroke: #010101; stroke-linecap: round; stroke-linejoin: round; stroke-width: 4px;"/>
</svg>