<?xml version="1.0" encoding="UTF-8"?>
<svg id="cleaning-spray" xmlns="http://www.w3.org/2000/svg" viewBox="0 0 72 72">
  <path d="M38.32,65.28v-18c-15,0-15,9-27,9v9h27Z" style="fill: #ed2024; opacity: .5;"/>
  <path d="M11.32,56.28c12,0,12-9,27-9" style="fill: none; stroke: #010101; stroke-miterlimit: 10; stroke-width: 4px;"/>
  <path d="M11.32,65.28h27v-19.19c0-2.12-.84-4.16-2.34-5.66l-4.31-4.31c-1.5-1.5-2.34-3.54-2.34-5.66v-5.69h-9v5.69c0,2.12-.84,4.16-2.34,5.66l-4.31,4.31c-1.5,1.5-2.34,3.54-2.34,5.66v19.19Z" style="fill: none; stroke: #010101; stroke-miterlimit: 10; stroke-width: 4px;"/>
  <path d="M14.5,12.59h0c-1.76,1.76-1.76,4.61,0,6.36l5.82,5.82h9l4.5-4.5h9v-9h-25.14c-1.19,0-2.34.47-3.18,1.32Z" style="fill: none; stroke: #010101; stroke-miterlimit: 10; stroke-width: 4px;"/>
  <polyline points="33.82 11.28 33.82 20.28 38.32 29.28" style="fill: none; stroke: #010101; stroke-miterlimit: 10; stroke-width: 4px;"/>
  <line x1="60.82" y1="20.28" x2="60.82" y2="20.28" style="fill: none; stroke: #010101; stroke-linecap: round; stroke-linejoin: round; stroke-width: 4px;"/>
  <line x1="60.82" y1="11.28" x2="60.82" y2="11.28" style="fill: none; stroke: #010101; stroke-linecap: round; stroke-linejoin: round; stroke-width: 4px;"/>
  <line x1="51.82" y1="15.78" x2="51.82" y2="15.78" style="fill: none; stroke: #010101; stroke-linecap: round; stroke-linejoin: round; stroke-width: 4px;"/>
</svg>