<svg id="furniture-couch_4" data-name="furniture-couch 4" xmlns="http://www.w3.org/2000/svg" viewBox="0 0 72 72"><path d="M18,36v.5c0,2.21,1.79,4,4,4h28c2.21,0,4-1.79,4-4v-.5c0-2.49,2.01-4.5,4.5-4.5v-1c0-4.42-3.58-8-8-8h-29c-4.42,0-8,3.58-8,8v1c2.49,0,4.5,2.01,4.5,4.5Z" style="fill: var(--icon-fill, rgba(0, 0, 0, 0)); opacity: var(--icon-fill-opacity, 1);"/><path d="M58.5,31.5c-2.49,0-4.5,2.01-4.5,4.5v.5c0,2.21-1.79,4-4,4h-28c-2.21,0-4-1.79-4-4v-.5c0-2.49-2.01-4.5-4.5-4.5s-4.5,2.01-4.5,4.5v1.5c0,6.63,5.37,12,12,12h30c6.63,0,12-5.37,12-12v-1.5c0-2.49-2.01-4.5-4.5-4.5Z" style="fill: var(--icon-fill, rgba(0, 0, 0, 0)); opacity: var(--icon-fill-opacity, 1);"/><path d="M21,49.5h30c6.63,0,12-5.37,12-12v-1.5c0-2.49-2.01-4.5-4.5-4.5h0c-2.49,0-4.5,2.01-4.5,4.5v.5c0,2.21-1.79,4-4,4h-28c-2.21,0-4-1.79-4-4v-.5c0-2.49-2.01-4.5-4.5-4.5h0c-2.49,0-4.5,2.01-4.5,4.5v1.5c0,6.63,5.37,12,12,12Z" style="fill: none; stroke: var(--icon-stroke-color, currentColor); stroke-linecap: round; stroke-linejoin: round; stroke-width:var(--icon-stroke-width-m, calc(var(--icon-stroke-width, 5) * 1));"/><line x1="18" y1="54" x2="18" y2="49.5" style="fill: none; stroke: var(--icon-stroke-color, currentColor); stroke-linecap: square; stroke-linejoin: round; stroke-width:var(--icon-stroke-width-m, calc(var(--icon-stroke-width, 5) * 1));"/><line x1="54" y1="54" x2="54" y2="49.5" style="fill: none; stroke: var(--icon-stroke-color, currentColor); stroke-linecap: square; stroke-linejoin: round; stroke-width:var(--icon-stroke-width-m, calc(var(--icon-stroke-width, 5) * 1));"/><path d="M58.5,31.5v-1c0-4.42-3.58-8-8-8h-29c-4.42,0-8,3.58-8,8v1" style="fill: none; stroke: var(--icon-stroke-color, currentColor); stroke-linecap: round; stroke-linejoin: round; stroke-width:var(--icon-stroke-width-m, calc(var(--icon-stroke-width, 5) * 1));"/><line x1="36" y1="22.5" x2="36" y2="40.5" style="fill: none; stroke: var(--icon-stroke-color, currentColor); stroke-linecap: round; stroke-linejoin: round; stroke-width:var(--icon-stroke-width-m, calc(var(--icon-stroke-width, 5) * 1));"/></svg>
