<?xml version="1.0" encoding="UTF-8"?>
<svg id="hill-landscape" xmlns="http://www.w3.org/2000/svg" viewBox="0 0 72 72">
  <path d="M58.5,36v-8.17c0-.53-.21-1.04-.59-1.41l-7-7c-.78-.78-2.05-.78-2.83,0l-7,7c-.38.38-.59.88-.59,1.41v10.4c9.46.21,18-2.23,18-2.23Z" style="fill: #ed2024; opacity: .5;"/>
  <line x1="18" y1="11.25" x2="18" y2="49.5" style="fill: none; stroke: #010101; stroke-linecap: round; stroke-linejoin: round; stroke-width: 4px;"/>
  <path d="M18,9c0,3.73-3.02,6.75-6.75,6.75" style="fill: none; stroke: #010101; stroke-linecap: round; stroke-linejoin: round; stroke-width: 4px;"/>
  <path d="M18,15.75c0,4.97-4.03,9-9,9" style="fill: none; stroke: #010101; stroke-linecap: round; stroke-linejoin: round; stroke-width: 4px;"/>
  <path d="M18,9c0,3.73,3.02,6.75,6.75,6.75" style="fill: none; stroke: #010101; stroke-linecap: round; stroke-linejoin: round; stroke-width: 4px;"/>
  <path d="M18,15.75c0,4.97,4.03,9,9,9" style="fill: none; stroke: #010101; stroke-linecap: round; stroke-linejoin: round; stroke-width: 4px;"/>
  <path d="M40.5,38.24v-10.41c0-.53.21-1.04.59-1.41l7-7c.78-.78,2.05-.78,2.83,0l7,7c.38.38.59.88.59,1.41v8.17" style="fill: none; stroke: #010101; stroke-linecap: round; stroke-linejoin: round; stroke-width: 4px;"/>
  <path d="M58.5,36s-4.5,13.5-40.06,13.5" style="fill: none; stroke: #010101; stroke-linecap: round; stroke-linejoin: round; stroke-width: 4px;"/>
  <path d="M58.5,58.5s-31.5,9-40.5-9" style="fill: none; stroke: #010101; stroke-linecap: round; stroke-linejoin: round; stroke-width: 4px;"/>
  <path d="M58.5,36s-31.5,9-40.5-9" style="fill: none; stroke: #010101; stroke-linecap: round; stroke-linejoin: round; stroke-width: 4px;"/>
</svg>