<?xml version="1.0" encoding="UTF-8"?>
<svg id="shield-4-line" xmlns="http://www.w3.org/2000/svg" viewBox="0 0 72 72">
  <path d="M58.18,27H13.82c.32,2.58.35,5.64-.32,9-4.5,22.5,12.48,22.99,22.5,27,10.02-4.01,27-4.5,22.5-27-.67-3.36-.64-6.42-.32-9Z" style="fill: #ed2024; opacity: .5;"/>
  <path d="M58.18,27c.63-4.99,2.36-8.18,2.36-8.18l-6.55-7.32s-9,4.5-18,0c-9,4.5-18,0-18,0l-6.55,7.32s1.74,3.19,2.36,8.18h44.36Z" style="fill: #ed2024; opacity: .5;"/>
  <line x1="13.82" y1="27" x2="58.18" y2="27" style="fill: none; stroke: #ee1c4e; stroke-miterlimit: 10; stroke-width: 4px;"/>
  <path d="M54,11.5s-9,4.5-18,0c-9,4.5-18,0-18,0l-6.55,7.32s4.02,7.31,2.05,17.18c-4.5,22.5,12.48,22.99,22.5,27,10.02-4.01,27-4.5,22.5-27-1.97-9.87,2.05-17.18,2.05-17.18l-6.55-7.32Z" style="fill: none; stroke: #231f20; stroke-miterlimit: 10; stroke-width: 4px;"/>
</svg>