<svg id="swimming-pool" xmlns="http://www.w3.org/2000/svg" viewBox="0 0 72 72"><path d="M45,36c-4.5,0-4.5,4.5-9,4.5s-4.5-4.5-9-4.5-4.5,4.5-9,4.5-4.5-4.5-9-4.5v27h54v-27c-4.5,0-4.5,4.5-9,4.5s-4.5-4.5-9-4.5Z" style="fill: var(--icon-fill, rgba(0, 0, 0, 0)); opacity: var(--icon-fill-opacity, 1);"/><path d="M9,54c4.5,0,4.5,4.5,9,4.5s4.5-4.5,9-4.5,4.5,4.5,9,4.5,4.5-4.5,9-4.5" style="fill: none; stroke: var(--icon-stroke-color, currentColor); stroke-linecap: round; stroke-linejoin: round; stroke-width:var(--icon-stroke-width-m, calc(var(--icon-stroke-width, 5) * 1));"/><path d="M45,54c4.5,0,4.5,4.5,9,4.5s4.5-4.5,9-4.5" style="fill: none; stroke: var(--icon-stroke-color, currentColor); stroke-linecap: round; stroke-linejoin: round; stroke-width:var(--icon-stroke-width-m, calc(var(--icon-stroke-width, 5) * 1));"/><path d="M9,45c4.5,0,4.5,4.5,9,4.5s4.5-4.5,9-4.5,4.5,4.5,9,4.5,4.5-4.5,9-4.5,4.5,4.5,9,4.5,4.5-4.5,9-4.5" style="fill: none; stroke: var(--icon-stroke-color, currentColor); stroke-linecap: round; stroke-linejoin: round; stroke-width:var(--icon-stroke-width-m, calc(var(--icon-stroke-width, 5) * 1));"/><path d="M9,36c4.5,0,4.5,4.5,9,4.5s4.5-4.5,9-4.5,4.5,4.5,9,4.5,4.5-4.5,9-4.5,4.5,4.5,9,4.5,4.5-4.5,9-4.5" style="fill: none; stroke: var(--icon-stroke-color, currentColor); stroke-linecap: round; stroke-linejoin: round; stroke-width:var(--icon-stroke-width-m, calc(var(--icon-stroke-width, 5) * 1));"/><path d="M36,18c0-2.49-2.01-4.5-4.5-4.5s-4.5,2.01-4.5,4.5v4.5" style="fill: none; stroke: var(--icon-stroke-color, currentColor); stroke-linecap: round; stroke-linejoin: round; stroke-width:var(--icon-stroke-width-m, calc(var(--icon-stroke-width, 5) * 1));"/><path d="M36,40.5v-22.5c0-2.49,2.01-4.5,4.5-4.5s4.5,2.01,4.5,4.5v13.5" style="fill: none; stroke: var(--icon-stroke-color, currentColor); stroke-linecap: round; stroke-linejoin: round; stroke-width:var(--icon-stroke-width-m, calc(var(--icon-stroke-width, 5) * 1));"/><line x1="9" y1="22.5" x2="63" y2="22.5" style="fill: none; stroke: var(--icon-stroke-color, currentColor); stroke-linecap: round; stroke-linejoin: round; stroke-width:var(--icon-stroke-width-m, calc(var(--icon-stroke-width, 5) * 1));"/></svg>
