<?xml version="1.0" encoding="UTF-8"?>
<svg id="tent" xmlns="http://www.w3.org/2000/svg" viewBox="0 0 72 72">
  <path d="M9.21,54l12.05-31.5,13.5,34.39H11c-1.49,0-2.45-1.56-1.79-2.89Z" style="fill: #ed2024; opacity: .5;"/>
  <path d="M21.27,22.5h25.76c.76,0,1.45.43,1.79,1.11l11.5,30.39c.66,1.33-.3,2.89-1.79,2.89h-23.76l-13.5-34.39Z" style="fill: #ed2024; opacity: .5;"/>
  <path d="M9.21,54l12.05-31.5,13.5,34.39H11c-1.49,0-2.45-1.56-1.79-2.89Z" style="fill: none; stroke: #010101; stroke-linecap: round; stroke-linejoin: round; stroke-width: 4px;"/>
  <path d="M21.27,22.5h25.76c.76,0,1.45.43,1.79,1.11l11.5,30.39c.66,1.33-.3,2.89-1.79,2.89h-23.76l-13.5-34.39Z" style="fill: none; stroke: #010101; stroke-linecap: round; stroke-linejoin: round; stroke-width: 4px;"/>
  <line x1="21.27" y1="22.5" x2="21.27" y2="56.89" style="fill: none; stroke: #010101; stroke-linecap: round; stroke-linejoin: round; stroke-width: 4px;"/>
</svg>