<svg id="trees" xmlns="http://www.w3.org/2000/svg" viewBox="0 0 72 72"><path d="M40.5,40.5c0,7.46-6.04,13.5-13.5,13.5s-13.5-6.04-13.5-13.5,6.04-22.5,13.5-22.5,13.5,15.04,13.5,22.5Z" style="fill: var(--icon-fill, rgba(0, 0, 0, 0)); opacity: var(--icon-fill-opacity, 1);"/><path d="M57.94,45.56c0,4.66-3.78,8.44-8.44,8.44s-8.44-3.78-8.44-8.44,3.78-14.06,8.44-14.06,8.44,9.4,8.44,14.06Z" style="fill: var(--icon-fill, rgba(0, 0, 0, 0)); opacity: var(--icon-fill-opacity, 1);"/><path d="M40.5,40.5c0,7.46-6.04,13.5-13.5,13.5s-13.5-6.04-13.5-13.5,6.04-22.5,13.5-22.5,13.5,15.04,13.5,22.5Z" style="fill: none; stroke: var(--icon-stroke-color, currentColor); stroke-miterlimit: 10; stroke-width:var(--icon-stroke-width-m, calc(var(--icon-stroke-width, 5) * 1));"/><path d="M57.94,45.56c0,4.66-3.78,8.44-8.44,8.44s-8.44-3.78-8.44-8.44,3.78-14.06,8.44-14.06,8.44,9.4,8.44,14.06Z" style="fill: none; stroke: var(--icon-stroke-color, currentColor); stroke-miterlimit: 10; stroke-width:var(--icon-stroke-width-m, calc(var(--icon-stroke-width, 5) * 1));"/><line x1="27" y1="40.5" x2="27" y2="63" style="fill: none; stroke: var(--icon-stroke-color-secondary, var(--icon-stroke-color, currentColor)); stroke-miterlimit: 10; stroke-width:var(--icon-stroke-width-secondary-m, var(--icon-stroke-width-m, calc(var(--icon-stroke-width, 5) * 1)));"/><line x1="49.5" y1="45" x2="49.5" y2="63" style="fill: none; stroke: var(--icon-stroke-color-secondary, var(--icon-stroke-color, currentColor)); stroke-miterlimit: 10; stroke-width:var(--icon-stroke-width-secondary-m, var(--icon-stroke-width-m, calc(var(--icon-stroke-width, 5) * 1)));"/><line x1="9" y1="63" x2="63" y2="63" style="fill: none; stroke: var(--icon-stroke-color-secondary, var(--icon-stroke-color, currentColor)); stroke-miterlimit: 10; stroke-width:var(--icon-stroke-width-secondary-m, var(--icon-stroke-width-m, calc(var(--icon-stroke-width, 5) * 1)));"/></svg>
