<svg id="lightning-flash" xmlns="http://www.w3.org/2000/svg" version="1.1" viewBox="0 0 72 72"><defs><style>.st0 { fill: red; isolation: isolate; opacity: .5; } .st1 { fill: none; stroke: var(--icon-stroke-color, currentColor); stroke-miterlimit: 10; stroke-width:var(--icon-stroke-width-m, calc(var(--icon-stroke-width, 5) * 1)); }</style></defs><path class="st0" d="M27.7,9h19.4l-4.8,24.2h8.1c.8,0,1.3.8,1,1.5l-11.8,27.6c-.5,1.1-2.1.7-2.1-.4v-19h-18.3c-.6,0-1.1-.5-1.1-1.1L27.7,9Z"/><path class="st1" d="M27.7,9h19.4l-4.8,24.2h8.1c.8,0,1.3.8,1,1.5l-11.8,27.6c-.5,1.1-2.1.7-2.1-.4v-19h-18.3c-.6,0-1.1-.5-1.1-1.1L27.7,9Z"/></svg>
