<?xml version="1.0" encoding="UTF-8"?>
<svg id="moon-2" data-name="moon" xmlns="http://www.w3.org/2000/svg" viewBox="0 0 72 72">
  <path d="M41.19,53.67c-9.18-9.18-9.18-24.05,0-33.23,2.44-2.44,5.28-4.21,8.31-5.35-8.37-3.16-18.18-1.39-24.92,5.35-9.18,9.18-9.18,24.05,0,33.23,6.74,6.74,16.55,8.51,24.92,5.35-3.03-1.14-5.87-2.91-8.31-5.35Z" style="fill: #ed2024; opacity: .5; stroke-width: 0px;"/>
  <path d="M41.19,53.67c-9.18-9.18-9.18-24.05,0-33.23,2.44-2.44,5.28-4.21,8.31-5.35-8.37-3.16-18.18-1.39-24.92,5.35-9.18,9.18-9.18,24.05,0,33.23,6.74,6.74,16.55,8.51,24.92,5.35-3.03-1.14-5.87-2.91-8.31-5.35Z" style="fill: none; stroke: #231f20; stroke-linecap: round; stroke-linejoin: round; stroke-width: 4px;"/>
</svg>