<?xml version="1.0" encoding="UTF-8"?>
<svg id="moon" xmlns="http://www.w3.org/2000/svg" viewBox="0 0 72 72">
  <path d="M36,34.5c0-7.72,3.89-14.53,9.82-18.58.63-.43.57-1.39-.12-1.72-3.77-1.8-8.11-2.6-12.69-2-10.17,1.32-18.26,9.6-19.37,19.79-1.47,13.55,9.11,25.02,22.36,25.02,3.47,0,6.76-.79,9.69-2.2.69-.33.76-1.29.12-1.73-5.93-4.05-9.82-10.86-9.82-18.58Z" style="fill: #ed2024; opacity: .5; stroke-width: 0px;"/>
  <path d="M36,34.5c0-7.72,3.89-14.53,9.82-18.58.63-.43.57-1.39-.12-1.72-3.77-1.8-8.11-2.6-12.69-2-10.17,1.32-18.26,9.6-19.37,19.79-1.47,13.55,9.11,25.02,22.36,25.02,3.47,0,6.76-.79,9.69-2.2.69-.33.76-1.29.12-1.73-5.93-4.05-9.82-10.86-9.82-18.58Z" style="fill: none; stroke: #010101; stroke-miterlimit: 10; stroke-width: 4px;"/>
</svg>