<?xml version="1.0" encoding="UTF-8"?>
<svg id="clipboard" xmlns="http://www.w3.org/2000/svg" viewBox="0 0 72 72">
  <path d="M50,13.5h-9.5v4.5h-9v-4.5h-9.5c-2.21,0-4,1.79-4,4v41.5c0,2.21,1.79,4,4,4h28c2.21,0,4-1.79,4-4V17.5c0-2.21-1.79-4-4-4Z" style="fill: #ed2024; opacity: .5; stroke-width: 0px;"/>
  <path d="M40.5,13.5h9.5c2.21,0,4,1.79,4,4v41.5c0,2.21-1.79,4-4,4h-28c-2.21,0-4-1.79-4-4V17.5c0-2.21,1.79-4,4-4h9.5" style="fill: none; stroke: #010101; stroke-linejoin: round; stroke-width: 4px;"/>
  <rect x="31.5" y="9" width="9" height="9" style="fill: none; stroke: #010101; stroke-linecap: round; stroke-linejoin: round; stroke-width: 4px;"/>
</svg>