<?xml version="1.0" encoding="UTF-8"?>
<svg id="gamepad-classic" xmlns="http://www.w3.org/2000/svg" viewBox="0 0 72 72">
  <path d="M47.25,20.25h-22.5c-8.7,0-15.75,7.05-15.75,15.75s7.05,15.75,15.75,15.75h22.5c8.7,0,15.75-7.05,15.75-15.75s-7.05-15.75-15.75-15.75Z" style="fill: #ed2024; opacity: .5; stroke-width: 0px;"/>
  <path d="M47.25,20.25h-22.5c-8.7,0-15.75,7.05-15.75,15.75s7.05,15.75,15.75,15.75h22.5c8.7,0,15.75-7.05,15.75-15.75s-7.05-15.75-15.75-15.75Z" style="fill: none; stroke: #ed2024; stroke-miterlimit: 10; stroke-width: 4px;"/>
  <line x1="24.75" y1="29.25" x2="24.75" y2="42.75" style="fill: none; stroke: #000; stroke-miterlimit: 10; stroke-width: 4px;"/>
  <line x1="18" y1="36" x2="31.5" y2="36" style="fill: none; stroke: #000; stroke-miterlimit: 10; stroke-width: 4px;"/>
  <line x1="45" y1="31.5" x2="45" y2="31.5" style="fill: none; stroke: #000; stroke-linecap: round; stroke-linejoin: round; stroke-width: 6px;"/>
  <line x1="49.5" y1="40.5" x2="49.5" y2="40.5" style="fill: none; stroke: #000; stroke-linecap: round; stroke-linejoin: round; stroke-width: 6px;"/>
</svg>