<?xml version="1.0" encoding="UTF-8"?>
<svg id="reels" xmlns="http://www.w3.org/2000/svg" viewBox="0 0 72 72">
  <path d="M9,22.5v36.5c0,2.21,1.79,4,4,4h46c2.21,0,4-1.79,4-4V22.5H9Z" style="fill: #ed2024; opacity: .5; stroke-width: 0px;"/>
  <path d="M31.5,34.68v16.13c0,.4.45.64.78.42l12.1-8.07c.3-.2.3-.63,0-.83l-12.1-8.07c-.33-.22-.78.02-.78.42Z" style="fill: none; stroke: #ed2024; stroke-miterlimit: 10; stroke-width: 4px;"/>
  <rect x="9" y="9" width="54" height="54" rx="4" ry="4" style="fill: none; stroke: #010101; stroke-miterlimit: 10; stroke-width: 4px;"/>
  <line x1="9" y1="22.5" x2="63" y2="22.5" style="fill: none; stroke: #010101; stroke-miterlimit: 10; stroke-width: 4px;"/>
  <line x1="22.5" y1="9" x2="31.5" y2="22.5" style="fill: none; stroke: #010101; stroke-miterlimit: 10; stroke-width: 4px;"/>
  <line x1="36" y1="9" x2="45" y2="22.5" style="fill: none; stroke: #010101; stroke-miterlimit: 10; stroke-width: 4px;"/>
</svg>