<?xml version="1.0" encoding="UTF-8"?>
<svg id="mail-open" xmlns="http://www.w3.org/2000/svg" viewBox="0 0 72 72">
  <path d="M9,31.5l27,22.5,27-22.5v27.5c0,2.21-1.79,4-4,4H13c-2.21,0-4-1.79-4-4v-27.5" style="fill: #ed2024; opacity: .5; stroke-width: 0px;"/>
  <polyline points="18 39 18 18 54 18 54 39" style="fill: none; stroke: #010101; stroke-linecap: round; stroke-linejoin: round; stroke-width: 4px;"/>
  <path d="M9,31.5l27,22.5,27-22.5v27.5c0,2.21-1.79,4-4,4H13c-2.21,0-4-1.79-4-4v-27.5" style="fill: none; stroke: #010101; stroke-linecap: round; stroke-linejoin: round; stroke-width: 4px;"/>
  <g>
    <polyline points="46.8 18 36 9 25.2 18" style="fill: none; stroke: #010101; stroke-linecap: round; stroke-linejoin: round; stroke-width: 4px;"/>
    <polyline points="18 24 9 31.5 36 54 63 31.5 54 24" style="fill: none; stroke: #010101; stroke-linecap: round; stroke-linejoin: round; stroke-width: 4px;"/>
  </g>
</svg>