<?xml version="1.0" encoding="UTF-8"?>
<svg id="headphones" xmlns="http://www.w3.org/2000/svg" viewBox="0 0 72 72">
  <path d="M13.5,41.33v7.33c0,2.95,2.98,5.33,6.67,5.33h.83v-18h-.83c-3.68,0-6.67,2.39-6.67,5.33Z" style="fill: #ed2024; opacity: .5; stroke-width: 0px;"/>
  <path d="M58.5,48.67v-7.33c0-2.95-2.98-5.33-6.67-5.33h-.83v18h.83c3.68,0,6.67-2.39,6.67-5.33Z" style="fill: #ed2024; opacity: .5; stroke-width: 0px;"/>
  <path d="M51,36v-4.5c0-11.18-6.72-13.5-15-13.5s-15,2.32-15,13.5v4.5" style="fill: none; stroke: #000; stroke-miterlimit: 10; stroke-width: 4px;"/>
  <path d="M13.5,41.33v7.33c0,2.95,2.98,5.33,6.67,5.33h.83v-18h-.83c-3.68,0-6.67,2.39-6.67,5.33Z" style="fill: none; stroke: #000; stroke-miterlimit: 10; stroke-width: 4px;"/>
  <path d="M58.5,48.67v-7.33c0-2.95-2.98-5.33-6.67-5.33h-.83v18h.83c3.68,0,6.67-2.39,6.67-5.33Z" style="fill: none; stroke: #000; stroke-miterlimit: 10; stroke-width: 4px;"/>
</svg>