<?xml version="1.0" encoding="UTF-8"?>
<svg id="playback-previous" xmlns="http://www.w3.org/2000/svg" viewBox="0 0 72 72">
  <g style="opacity: .5;">
    <path d="M49.5,55.67V15.52c0-.89-1.08-1.34-1.71-.71l-19.96,20.08c-.39.39-.39,1.02,0,1.41l19.96,20.08c.63.63,1.71.19,1.71-.71Z" style="fill: #ed2024; stroke-width: 0px;"/>
    <rect x="18.28" y="18" width="9" height="36" rx="1" ry="1" transform="translate(45.56 72) rotate(180)" style="fill: #ed2024; stroke-width: 0px;"/>
  </g>
  <g>
    <path d="M49.5,55.67V15.52c0-.89-1.08-1.34-1.71-.71l-19.96,20.08c-.39.39-.39,1.02,0,1.41l19.96,20.08c.63.63,1.71.19,1.71-.71Z" style="fill: none; stroke: #231f20; stroke-miterlimit: 10; stroke-width: 4px;"/>
    <rect x="18.28" y="18" width="9" height="36" rx="1" ry="1" transform="translate(45.56 72) rotate(180)" style="fill: none; stroke: #231f20; stroke-miterlimit: 10; stroke-width: 4px;"/>
  </g>
</svg>