<?xml version="1.0" encoding="UTF-8"?>
<svg id="arrow-headed-in" xmlns="http://www.w3.org/2000/svg" viewBox="0 0 72 72">
  <polyline points="18 45 27 36 18 27" style="fill: none; stroke: #010101; stroke-linejoin: round; stroke-width: 4px;"/>
  <polyline points="54 27 45 36 54 45" style="fill: none; stroke: #010101; stroke-linejoin: round; stroke-width: 4px;"/>
  <line x1="64.09" y1="36" x2="54.55" y2="36" style="fill: none; stroke: #010101; stroke-linejoin: round; stroke-width: 4px;"/>
  <line x1="18" y1="36" x2="7.91" y2="36" style="fill: none; stroke: #010101; stroke-linejoin: round; stroke-width: 4px;"/>
  <polyline points="45 54 36 45 27 54" style="fill: none; stroke: #010101; stroke-linejoin: round; stroke-width: 4px;"/>
  <polyline points="27 18 36 27 45 18" style="fill: none; stroke: #010101; stroke-linejoin: round; stroke-width: 4px;"/>
  <line x1="36" y1="7.91" x2="36" y2="18" style="fill: none; stroke: #010101; stroke-linejoin: round; stroke-width: 4px;"/>
  <line x1="36" y1="54" x2="36" y2="64.09" style="fill: none; stroke: #010101; stroke-linejoin: round; stroke-width: 4px;"/>
  <polygon points="27 36 18 27 18 45 27 36" style="fill: #ed2024;"/>
  <polygon points="54 45 54 27 45 36 54 45" style="fill: #ed2024;"/>
  <polygon points="36 45 27 54 45 54 36 45" style="fill: #ed2024;"/>
  <polygon points="36 27 45 18 27 18 36 27" style="fill: #ed2024;"/>
  <polygon points="27 36 18 27 18 45 27 36" style="fill: none; stroke: #010101; stroke-linejoin: round; stroke-width: 4px;"/>
  <polygon points="54 45 54 27 45 36 54 45" style="fill: none; stroke: #010101; stroke-linejoin: round; stroke-width: 4px;"/>
  <polygon points="36 45 27 54 45 54 36 45" style="fill: none; stroke: #010101; stroke-linejoin: round; stroke-width: 4px;"/>
  <polygon points="36 27 45 18 27 18 36 27" style="fill: none; stroke: #010101; stroke-linejoin: round; stroke-width: 4px;"/>
</svg>