<?xml version="1.0" encoding="UTF-8"?>
<svg id="restroom" xmlns="http://www.w3.org/2000/svg" viewBox="0 0 72 72">
  <circle cx="20.25" cy="15.75" r="5.06" style="fill: #ed2024; opacity: .5; stroke-width: 0px;"/>
  <circle cx="50.97" cy="15.75" r="5.06" style="fill: #ed2024; opacity: .5; stroke-width: 0px;"/>
  <path d="M20.25,27h0c2.48,0,4.5,2.02,4.5,4.5v13.5h-9v-13.5c0-2.48,2.02-4.5,4.5-4.5Z" style="fill: #ed2024; opacity: .5; stroke-width: 0px;"/>
  <path d="M60.75,49.5h-18l4.5-9v-9c0-2.49,2.01-4.5,4.5-4.5h0c2.49,0,4.5,2.01,4.5,4.5v9l4.5,9Z" style="fill: #ed2024; opacity: .5; stroke-width: 0px;"/>
  <path d="M6.75,40.5l6.5-9.76c1.56-2.34,4.18-3.74,7-3.74h0c2.81,0,5.44,1.41,7,3.74l6.5,9.76" style="fill: none; stroke: #231f20; stroke-linecap: round; stroke-linejoin: round; stroke-width: 4px;"/>
  <path d="M15.75,63v-31.5c0-2.49,2.01-4.5,4.5-4.5h0c2.49,0,4.5,2.01,4.5,4.5v31.5" style="fill: none; stroke: #231f20; stroke-linecap: round; stroke-linejoin: round; stroke-width: 4px;"/>
  <line x1="15.75" y1="45" x2="24.75" y2="45" style="fill: #fff; stroke: #231f20; stroke-linecap: round; stroke-linejoin: round; stroke-width: 4px;"/>
  <path d="M38.25,40.5l6.5-9.76c1.56-2.34,4.18-3.74,7-3.74h0c2.81,0,5.44,1.41,7,3.74l6.5,9.76" style="fill: none; stroke: #231f20; stroke-linecap: round; stroke-linejoin: round; stroke-width: 4px;"/>
  <path d="M47.25,63v-13.5h-4.5l4.5-9v-9c0-2.49,2.01-4.5,4.5-4.5h0c2.49,0,4.5,2.01,4.5,4.5v9l4.5,9h-4.5v13.5" style="fill: none; stroke: #231f20; stroke-linecap: round; stroke-linejoin: round; stroke-width: 4px;"/>
  <circle cx="20.25" cy="15.75" r="5.06" style="fill: none; stroke: #231f20; stroke-linecap: round; stroke-linejoin: round; stroke-width: 4px;"/>
  <circle cx="50.97" cy="15.75" r="5.06" style="fill: none; stroke: #231f20; stroke-linecap: round; stroke-linejoin: round; stroke-width: 4px;"/>
  <line x1="47.25" y1="49.5" x2="56.25" y2="49.5" style="fill: none; stroke: #231f20; stroke-linecap: round; stroke-linejoin: round; stroke-width: 4px;"/>
</svg>