<?xml version="1.0" encoding="UTF-8"?>
<svg id="parasol-island" xmlns="http://www.w3.org/2000/svg" viewBox="0 0 72 72">
  <g style="opacity: .5;">
    <path d="M26.06,12.77c-11.48,4.76-16.93,17.92-12.18,29.4,0,0,1.43-4.07,4.71-5.43s7.17.51,7.17.51c0,0,2.76-4.62,7.68-6.66s10.14-.72,10.14-.72c0,0,1.43-4.07,4.71-5.43s7.17.51,7.17.51c-4.76-11.48-17.92-16.93-29.4-12.18Z" style="fill: #ed1f24; stroke-width: 0px;"/>
  </g>
  <path d="M58.5,63c0-4.97-10.07-9-22.5-9s-22.5,4.03-22.5,9h45Z" style="fill: #ed1f24; opacity: .5; stroke-width: 0px;"/>
  <path d="M43.58,29.87c-7.38-17.82-17.52-17.1-17.52-17.1,0,0-7.68,6.66-.3,24.48" style="fill: none; stroke: #ed2024; stroke-linejoin: round; stroke-width: 4px;"/>
  <line x1="33.44" y1="30.59" x2="43.14" y2="54" style="fill: none; stroke: #ed2024; stroke-linejoin: round; stroke-width: 4px;"/>
  <path d="M26.06,12.77c-11.48,4.76-16.93,17.92-12.18,29.4,0,0,1.43-4.07,4.71-5.43s7.17.51,7.17.51c0,0,2.76-4.62,7.68-6.66s10.14-.72,10.14-.72c0,0,1.43-4.07,4.71-5.43s7.17.51,7.17.51c-4.76-11.48-17.92-16.93-29.4-12.18Z" style="fill: none; stroke: #000; stroke-linejoin: round; stroke-width: 4px;"/>
  <path d="M58.5,63c0-4.97-10.07-9-22.5-9s-22.5,4.03-22.5,9h45Z" style="fill: none; stroke: #000; stroke-miterlimit: 10; stroke-width: 4px;"/>
</svg>