<?xml version="1.0" encoding="UTF-8"?>
<svg id="car" xmlns="http://www.w3.org/2000/svg" viewBox="0 0 72 72">
  <rect x="13.5" y="38.5" width="45" height="13.5" style="fill: #ed2024; opacity: .5; stroke-width: 0px;"/>
  <path d="M13.5,38.5l7.85-15.78c.68-1.36,2.06-2.22,3.58-2.22h22.14c1.52,0,2.91.86,3.58,2.22l7.85,15.78v13.5H13.5v-13.5Z" style="fill: none; stroke: #010101; stroke-miterlimit: 10; stroke-width: 4px;"/>
  <line x1="13.5" y1="38.5" x2="58.5" y2="38.5" style="fill: none; stroke: #010101; stroke-miterlimit: 10; stroke-width: 4px;"/>
  <path d="M13.5,52h6v4.5c0,1.1-.9,2-2,2h-2c-1.1,0-2-.9-2-2v-4.5h0Z" style="fill: none; stroke: #010101; stroke-miterlimit: 10; stroke-width: 4px;"/>
  <path d="M52.5,52h6v4.5c0,1.1-.9,2-2,2h-2c-1.1,0-2-.9-2-2v-4.5h0Z" style="fill: none; stroke: #010101; stroke-miterlimit: 10; stroke-width: 4px;"/>
  <path d="M13.5,52h6v4.5c0,1.1-.9,2-2,2h-2c-1.1,0-2-.9-2-2v-4.5h0Z" style="fill: #010101; stroke-width: 0px;"/>
  <path d="M52.5,52h6v4.5c0,1.1-.9,2-2,2h-2c-1.1,0-2-.9-2-2v-4.5h0Z" style="fill: #010101; stroke-width: 0px;"/>
  <line x1="18" y1="45.5" x2="27" y2="45.5" style="fill: none; stroke: #000; stroke-miterlimit: 10; stroke-width: 4px;"/>
  <line x1="45" y1="45.5" x2="54" y2="45.5" style="fill: none; stroke: #000; stroke-miterlimit: 10; stroke-width: 4px;"/>
  <line x1="9" y1="34" x2="15.74" y2="34" style="fill: none; stroke: #010101; stroke-miterlimit: 10; stroke-width: 4px;"/>
  <line x1="56.26" y1="34" x2="63" y2="34" style="fill: none; stroke: #010101; stroke-miterlimit: 10; stroke-width: 4px;"/>
</svg>