<?xml version="1.0" encoding="UTF-8"?>
<svg id="check_in" data-name="check in" xmlns="http://www.w3.org/2000/svg" viewBox="0 0 72 72">
  <path d="M9,11v2.5c0,2.49,2.01,4.5,4.5,4.5s4.5-2.01,4.5-4.5v-2.5h-9Z" style="fill: #ed2024; opacity: .5; stroke-width: 0px;"/>
  <rect x="13.5" y="45" width="9" height="13.5" style="fill: #ed2024; opacity: .5; stroke-width: 0px;"/>
  <circle cx="36" cy="15.75" r="5.06" style="fill: #ed2024; opacity: .5; stroke-width: 0px;"/>
  <rect x="31.5" y="27" width="9" height="18" style="fill: #ed2024; opacity: .5; stroke-width: 0px;"/>
  <rect x="9" y="22.5" width="9" height="9" style="fill: #ed2024; opacity: .5; stroke-width: 0px;"/>
  <polyline points="22.5 40.5 31.5 27 40.5 27 49.5 40.5" style="fill: none; stroke: #231f20; stroke-linecap: round; stroke-linejoin: round; stroke-width: 4px;"/>
  <polyline points="31.5 63 31.5 45 31.5 27 40.5 27 40.5 45 40.5 63" style="fill: none; stroke: #231f20; stroke-linecap: round; stroke-linejoin: round; stroke-width: 4px;"/>
  <polyline points="9 31.5 9 22.5 18 22.5 18 31.5" style="fill: none; stroke: #231f20; stroke-linecap: round; stroke-linejoin: round; stroke-width: 2px;"/>
  <line x1="31.5" y1="45" x2="40.5" y2="45" style="fill: #fff; stroke: #231f20; stroke-linecap: round; stroke-linejoin: round; stroke-width: 4px;"/>
  <circle cx="36" cy="15.75" r="5.06" style="fill: none; stroke: #231f20; stroke-linecap: round; stroke-linejoin: round; stroke-width: 4px;"/>
  <rect x="13.5" y="45" width="9" height="13.5" style="fill: none; stroke: #000; stroke-linecap: round; stroke-linejoin: round; stroke-width: 4px;"/>
  <rect x="49.5" y="45" width="13.5" height="18" style="fill: #ed2024; opacity: .5; stroke-width: 0px;"/>
  <rect x="49.5" y="45" width="13.5" height="18" style="fill: none; stroke: #000; stroke-linecap: round; stroke-linejoin: round; stroke-width: 4px;"/>
  <path d="M56,31.5h.5c1.1,0,2,.9,2,2v11.5h-4.5v-11.5c0-1.1.9-2,2-2Z" style="fill: none; stroke: #000; stroke-miterlimit: 10; stroke-width: 2px;"/>
  <path d="M9,11v2.5c0,2.49,2.01,4.5,4.5,4.5s4.5-2.01,4.5-4.5v-2.5h-9Z" style="fill: none; stroke: #231f20; stroke-linejoin: round; stroke-width: 2px;"/>
  <line x1="4.5" y1="31.5" x2="22.5" y2="31.5" style="fill: #fff; stroke: #231f20; stroke-linecap: round; stroke-miterlimit: 10; stroke-width: 2px;"/>
  <line x1="20.25" y1="11" x2="18" y2="11" style="fill: #fff; stroke: #231f20; stroke-linecap: round; stroke-linejoin: round; stroke-width: 2px;"/>
  <rect x="9" y="6.66" width="9" height="4.34" style="fill: #fff; stroke: #231f20; stroke-linecap: round; stroke-linejoin: round; stroke-width: 2px;"/>
</svg>