<svg version="1.1" id="Logo" xmlns="http://www.w3.org/2000/svg" xmlns:xlink="http://www.w3.org/1999/xlink" x="0px" y="0px" viewBox="0 0 108 72" style="enable-background:new 0 0 108 72;" xml:space="preserve"><path style="fill: var(--icon-fill, rgba(0, 0, 0, 0)); opacity: var(--icon-fill-opacity, 1);" d="M13.5,4.5c-4.97,0-9,4.03-9,9v9c0,4.97,4.03,9,9,9c4.97,0,9-4.03,9-9v-9 C22.5,8.53,18.47,4.5,13.5,4.5z"/><path style="fill:none;stroke: var(--icon-stroke-color, currentColor);stroke-width:var(--icon-stroke-width-m, calc(var(--icon-stroke-width, 5) * 1));stroke-miterlimit:10;" d="M40.5,49.5c0-4.97-4.03-9-9-9c-4.97,0-9,4.03-9,9v9 c0,4.97,4.03,9,9,9c4.97,0,9-4.03,9-9"/><path style="fill:none;stroke: var(--icon-stroke-color, currentColor);stroke-width:var(--icon-stroke-width-m, calc(var(--icon-stroke-width, 5) * 1));stroke-linecap: var(--icon-stroke-linecap, square);stroke-miterlimit:10;" d="M103.5,31.5v-18 c0-4.97-4.03-9-9-9c-4.97,0-9,4.03-9,9v18"/><path style="fill:none;stroke: var(--icon-stroke-color, currentColor);stroke-width:var(--icon-stroke-width-m, calc(var(--icon-stroke-width, 5) * 1));stroke-linecap: var(--icon-stroke-linecap, square);stroke-miterlimit:10;" d="M94.5,67.5v-18 c0-4.97-4.03-9-9-9c-4.97,0-9,4.03-9,9v18"/><path style="fill:none;stroke: var(--icon-stroke-color, currentColor);stroke-width:var(--icon-stroke-width-m, calc(var(--icon-stroke-width, 5) * 1));stroke-miterlimit:10;" d="M40.5,4.5c-4.97,0-9,4.03-9,9v9c0,4.97,4.03,9,9,9 c4.97,0,9-4.03,9-9v-9C49.5,8.53,45.47,4.5,40.5,4.5z"/><line style="fill:none;stroke: var(--icon-stroke-color, currentColor);stroke-width:var(--icon-stroke-width-m, calc(var(--icon-stroke-width, 5) * 1));stroke-linecap: var(--icon-stroke-linecap, square);stroke-miterlimit:10;" x1="31.5" y1="40.5" x2="31.5" y2="4.5"/><line style="fill:none;stroke: var(--icon-stroke-color, currentColor);stroke-width:var(--icon-stroke-width-m, calc(var(--icon-stroke-width, 5) * 1));stroke-linecap: var(--icon-stroke-linecap, square);stroke-miterlimit:10;" x1="85.5" y1="31.5" x2="85.5" y2="4.5"/><line style="fill:none;stroke: var(--icon-stroke-color, currentColor);stroke-width:var(--icon-stroke-width-m, calc(var(--icon-stroke-width, 5) * 1));stroke-linecap: var(--icon-stroke-linecap, square);stroke-miterlimit:10;" x1="76.5" y1="67.5" x2="76.5" y2="40.5"/><path style="fill:none;stroke: var(--icon-stroke-color, currentColor);stroke-width:var(--icon-stroke-width-m, calc(var(--icon-stroke-width, 5) * 1));stroke-miterlimit:10;" d="M58.5,22.5l18-4.5v-4.5c0-4.97-4.03-9-9-9 c-4.97,0-9,4.03-9,9V22.5c0,4.97,4.03,9,9,9c4.97,0,9-4.03,9-9"/><line style="fill:none;stroke: var(--icon-stroke-color, currentColor);stroke-width:var(--icon-stroke-width-m, calc(var(--icon-stroke-width, 5) * 1));stroke-linecap: var(--icon-stroke-linecap, square);stroke-miterlimit:10;" x1="4.5" y1="40.5" x2="9" y2="40.5"/><line style="fill:none;stroke: var(--icon-stroke-color, currentColor);stroke-width:var(--icon-stroke-width-m, calc(var(--icon-stroke-width, 5) * 1));stroke-linecap: var(--icon-stroke-linecap, square);stroke-miterlimit:10;" x1="4.5" y1="67.5" x2="13.5" y2="67.5"/><line style="fill:none;stroke: var(--icon-stroke-color, currentColor);stroke-width:var(--icon-stroke-width-m, calc(var(--icon-stroke-width, 5) * 1));stroke-linecap: var(--icon-stroke-linecap, square);stroke-miterlimit:10;" x1="9" y1="40.5" x2="9" y2="67.5"/><path style="fill:none;stroke: var(--icon-stroke-color-secondary, var(--icon-stroke-color, currentColor));stroke-width:var(--icon-stroke-width-secondary-m, var(--icon-stroke-width-m, calc(var(--icon-stroke-width, 5) * 1)));stroke-miterlimit:10;" d="M13.5,10.5c-1.65,0-2.99,1.34-2.99,2.99l0,0 c0,1.65,1.34,2.99,2.99,2.99c1.65,0,2.99-1.34,2.99-2.99l0,0C16.49,11.84,15.15,10.5,13.5,10.5z"/><path style="fill: var(--icon-fill-secondary, white);" d="M13.5,10.5c-1.65,0-2.99,1.34-2.99,2.99l0,0c0,1.65,1.34,2.99,2.99,2.99c1.65,0,2.99-1.34,2.99-2.99 l0,0C16.49,11.84,15.15,10.5,13.5,10.5z"/><path style="fill:none;stroke: var(--icon-stroke-color, currentColor);stroke-width:var(--icon-stroke-width-m, calc(var(--icon-stroke-width, 5) * 1));stroke-miterlimit:10;" d="M13.5,4.5c-4.97,0-9,4.03-9,9v9c0,4.97,4.03,9,9,9 c4.97,0,9-4.03,9-9v-9C22.5,8.53,18.47,4.5,13.5,4.5z"/><path style="fill: var(--icon-fill, rgba(0, 0, 0, 0)); opacity: var(--icon-fill-opacity, 1);" d="M58.5,67.5c4.97,0,9-4.03,9-9v-9c0-4.97-4.03-9-9-9c-4.97,0-9,4.03-9,9v9 C49.5,63.47,53.53,67.5,58.5,67.5z"/><path style="fill:none;stroke: var(--icon-stroke-color-secondary, var(--icon-stroke-color, currentColor));stroke-width:var(--icon-stroke-width-secondary-m, var(--icon-stroke-width-m, calc(var(--icon-stroke-width, 5) * 1)));stroke-miterlimit:10;" d="M58.5,61.5c1.65,0,2.99-1.34,2.99-2.99l0,0 c0-1.65-1.34-2.99-2.99-2.99c-1.65,0-2.99,1.34-2.99,2.99l0,0C55.51,60.16,56.85,61.5,58.5,61.5z"/><path style="fill: var(--icon-fill-secondary, white);" d="M58.5,61.5c1.65,0,2.99-1.34,2.99-2.99l0,0c0-1.65-1.34-2.99-2.99-2.99c-1.65,0-2.99,1.34-2.99,2.99 l0,0C55.51,60.16,56.85,61.5,58.5,61.5z"/><path style="fill:none;stroke: var(--icon-stroke-color, currentColor);stroke-width:var(--icon-stroke-width-m, calc(var(--icon-stroke-width, 5) * 1));stroke-miterlimit:10;" d="M58.5,67.5c4.97,0,9-4.03,9-9v-9c0-4.97-4.03-9-9-9 c-4.97,0-9,4.03-9,9v9C49.5,63.47,53.53,67.5,58.5,67.5z"/></svg>
