<?xml version="1.0" encoding="UTF-8"?>
<svg id="accessibility-person" xmlns="http://www.w3.org/2000/svg" viewBox="0 0 72 72.05">
  <path d="M17.77,28.23l9.67,6.45v4.78c0,2.48-.58,4.93-1.69,7.15l-5.87,11.73c-.6,1.2-.36,2.65.58,3.6l.15.15c1.34,1.34,3.56,1.18,4.7-.33l10.68-14.24,10.68,14.24c1.14,1.52,3.36,1.68,4.7.33l.15-.15c.95-.95,1.18-2.4.58-3.6l-5.87-11.73c-1.11-2.22-1.69-4.67-1.69-7.15v-4.78l9.67-6.45c1.64-1.09,1.87-3.41.48-4.8-.95-.95-2.4-1.18-3.6-.58l-10.9,5.45c-2.65,1.32-5.77,1.32-8.42,0l-10.9-5.45c-1.2-.6-2.65-.37-3.6.58-1.39,1.39-1.16,3.71.48,4.8Z" style="fill: #010101;"/>
  <circle cx="36" cy="17.56" r="8.56" style="fill: #010101;"/>
</svg>