<svg id="board-multi" xmlns="http://www.w3.org/2000/svg" viewBox="0 0 72 72"><rect x="40.5" y="40.5" width="18" height="18" rx="2" ry="2" transform="translate(99 99) rotate(180)" style="fill: var(--icon-fill, rgba(0, 0, 0, 0)); opacity: var(--icon-fill-opacity, 1);"/><rect x="13.5" y="40.5" width="18" height="18" rx="2" ry="2" transform="translate(45 99) rotate(180)" style="fill: var(--icon-fill, rgba(0, 0, 0, 0)); opacity: var(--icon-fill-opacity, 1);"/><rect x="13.5" y="13.5" width="18" height="18" rx="2" ry="2" transform="translate(45 45) rotate(180)" style="fill: var(--icon-fill, rgba(0, 0, 0, 0)); opacity: var(--icon-fill-opacity, 1);"/><rect x="40.5" y="13.5" width="18" height="18" rx="2" ry="2" transform="translate(99 45) rotate(180)" style="fill: var(--icon-fill, rgba(0, 0, 0, 0)); opacity: var(--icon-fill-opacity, 1);"/><rect x="40.5" y="40.5" width="18" height="18" rx="2" ry="2" transform="translate(99 99) rotate(180)" style="fill: none; stroke: var(--icon-stroke-color, currentColor); stroke-miterlimit: 10; stroke-width:var(--icon-stroke-width-m, calc(var(--icon-stroke-width, 5) * 1));"/><rect x="13.5" y="40.5" width="18" height="18" rx="2" ry="2" transform="translate(45 99) rotate(180)" style="fill: none; stroke: var(--icon-stroke-color, currentColor); stroke-miterlimit: 10; stroke-width:var(--icon-stroke-width-m, calc(var(--icon-stroke-width, 5) * 1));"/><rect x="40.5" y="13.5" width="18" height="18" rx="2" ry="2" transform="translate(99 45) rotate(180)" style="fill: none; stroke: var(--icon-stroke-color, currentColor); stroke-miterlimit: 10; stroke-width:var(--icon-stroke-width-m, calc(var(--icon-stroke-width, 5) * 1));"/><rect x="13.5" y="13.5" width="18" height="18" rx="2" ry="2" transform="translate(45 45) rotate(180)" style="fill: none; stroke: var(--icon-stroke-color, currentColor); stroke-miterlimit: 10; stroke-width:var(--icon-stroke-width-m, calc(var(--icon-stroke-width, 5) * 1));"/></svg>
