<svg id="book-pages" xmlns="http://www.w3.org/2000/svg" viewBox="0 0 72 72"><path d="M27,13.5h-9v36h9s9,0,9,9V18c0-4.5-9-4.5-9-4.5Z" style="fill: var(--icon-fill, rgba(0, 0, 0, 0)); opacity: var(--icon-fill-opacity, 1);"/><path d="M45,13.5s-9,0-9,4.5v40.5c0-9,9-9,9-9h9V13.5h-9Z" style="fill: var(--icon-fill, rgba(0, 0, 0, 0)); opacity: var(--icon-fill-opacity, 1);"/><path d="M27,13.5h-9v36h9s9,0,9,9V18c0-4.5-9-4.5-9-4.5Z" style="fill: none; stroke: var(--icon-stroke-color, currentColor); stroke-miterlimit: 10; stroke-width:var(--icon-stroke-width-m, calc(var(--icon-stroke-width, 5) * 1));"/><path d="M45,13.5s-9,0-9,4.5v40.5c0-9,9-9,9-9h9V13.5h-9Z" style="fill: none; stroke: var(--icon-stroke-color, currentColor); stroke-miterlimit: 10; stroke-width:var(--icon-stroke-width-m, calc(var(--icon-stroke-width, 5) * 1));"/><path d="M18,18h-9v36h14.4s12.6,0,12.6,4.5" style="fill: none; stroke: var(--icon-stroke-color, currentColor); stroke-miterlimit: 10; stroke-width:var(--icon-stroke-width-m, calc(var(--icon-stroke-width, 5) * 1));"/><path d="M36,58.5c0-4.5,12.6-4.5,12.6-4.5h14.4V18h-9" style="fill: none; stroke: var(--icon-stroke-color, currentColor); stroke-miterlimit: 10; stroke-width:var(--icon-stroke-width-m, calc(var(--icon-stroke-width, 5) * 1));"/></svg>
