<svg id="box-in" xmlns="http://www.w3.org/2000/svg" viewBox="0 0 72 72"><path d="M34.07,12.31l-18.5,10.18c-1.28.7-2.07,2.05-2.07,3.5v20.02c0,1.46.79,2.8,2.07,3.5l18.5,10.18c1.2.66,2.66.66,3.86,0l18.5-10.18c1.28-.7,2.07-2.05,2.07-3.5v-20.02c0-1.46-.79-2.8-2.07-3.5l-18.5-10.18c-1.2-.66-2.66-.66-3.86,0Z" style="fill: var(--icon-fill, rgba(0, 0, 0, 0)); opacity: var(--icon-fill-opacity, 1);"/><g><polyline points="14.07 23.94 36 36 57.93 23.94" style="fill: none; stroke: var(--icon-stroke-color, currentColor); stroke-miterlimit: 10; stroke-width:var(--icon-stroke-width-m, calc(var(--icon-stroke-width, 5) * 1));"/><line x1="36" y1="36" x2="36" y2="60.18" style="fill: none; stroke: var(--icon-stroke-color, currentColor); stroke-miterlimit: 10; stroke-width:var(--icon-stroke-width-m, calc(var(--icon-stroke-width, 5) * 1));"/><path d="M24.75,54.56l9.32,5.13c1.2.66,2.66.66,3.86,0l9.32-5.13,9.18-5.05c1.28-.7,2.07-2.05,2.07-3.5v-20.02c0-1.46-.79-2.8-2.07-3.5l-9.18-5.05-9.32-5.13c-1.2-.66-2.66-.66-3.86,0l-9.32,5.13-9.18,5.05c-1.28.7-2.07,2.05-2.07,3.5v5.51" style="fill: none; stroke: var(--icon-stroke-color, currentColor); stroke-miterlimit: 10; stroke-width:var(--icon-stroke-width-m, calc(var(--icon-stroke-width, 5) * 1));"/></g><line x1="4.5" y1="45" x2="27" y2="45" style="fill: none; stroke: var(--icon-stroke-color, currentColor); stroke-miterlimit: 10; stroke-width:var(--icon-stroke-width-m, calc(var(--icon-stroke-width, 5) * 1));"/><polyline points="18 36 27 45 18 54" style="fill: none; stroke: var(--icon-stroke-color, currentColor); stroke-miterlimit: 10; stroke-width:var(--icon-stroke-width-m, calc(var(--icon-stroke-width, 5) * 1));"/></svg>
