<?xml version="1.0" encoding="UTF-8"?>
<svg id="box-open" xmlns="http://www.w3.org/2000/svg" viewBox="0 0 72 72">
  <path d="M63,22.5l-18-9-9,9-9-9-18,9,9,9-9,9,9,4.5v9l18,9,18-9v-9l9-4.5-9-9,9-9Z" style="fill: #ed1c24; opacity: .5;"/>
  <polyline points="54 31.5 36 22.5 18 31.5" style="fill: none; stroke: #231f20; stroke-miterlimit: 10; stroke-width: 4px;"/>
  <polyline points="18 45 18 54 36 63 54 54 54 45" style="fill: none; stroke: #231f20; stroke-miterlimit: 10; stroke-width: 4px;"/>
  <polyline points="18 31.5 36 40.5 54 31.5" style="fill: none; stroke: #231f20; stroke-miterlimit: 10; stroke-width: 4px;"/>
  <line x1="36" y1="40.5" x2="36" y2="63" style="fill: none; stroke: #231f20; stroke-miterlimit: 10; stroke-width: 4px;"/>
  <polygon points="27 13.5 9 22.5 18 31.5 36 22.5 27 13.5" style="fill: none; stroke: #231f20; stroke-miterlimit: 10; stroke-width: 4px;"/>
  <polygon points="54 31.5 36 40.5 45 49.5 63 40.5 54 31.5" style="fill: none; stroke: #231f20; stroke-miterlimit: 10; stroke-width: 4px;"/>
  <polygon points="45 13.5 63 22.5 54 31.5 36 22.5 45 13.5" style="fill: none; stroke: #231f20; stroke-miterlimit: 10; stroke-width: 4px;"/>
  <polygon points="18 31.5 36 40.5 27 49.5 9 40.5 18 31.5" style="fill: none; stroke: #231f20; stroke-miterlimit: 10; stroke-width: 4px;"/>
</svg>