<svg id="boy" xmlns="http://www.w3.org/2000/svg" viewBox="0 0 72 72"><g ><polygon points="32.22 21.94 32.23 21.94 32.23 21.93 32.22 21.94" style="fill: var(--icon-fill, rgba(0, 0, 0, 0)); opacity: var(--icon-fill-opacity, 1);" /><path d="M22.5,34.88c6.07-2.87,9.64-12.71,9.72-12.94-4.94,1.48-9.61,5.84-9.72,12.94Z" style="fill: var(--icon-fill, rgba(0, 0, 0, 0)); opacity: var(--icon-fill-opacity, 1);" /><path d="M51,17.94c-3.65,6.78-9.61,3.42-15,3.42-1.23,0-2.51.2-3.77.58.05.18,3.87,12.94,17.27,12.94,11.31,0,6.52-12.02,1.5-16.93Z" style="fill: var(--icon-fill, rgba(0, 0, 0, 0)); opacity: var(--icon-fill-opacity, 1);" /></g><path d="M22.5,34.88c0,7.46,6.04,13.5,13.5,13.5s13.5-6.04,13.5-13.5" style="fill: none; stroke: var(--icon-stroke-color, currentColor); stroke-miterlimit: 10; stroke-width:var(--icon-stroke-width-m, calc(var(--icon-stroke-width, 5) * 1));"/><path d="M51,63c0-4.97-6.72-9-15-9s-15,4.03-15,9" style="fill: none; stroke: var(--icon-stroke-color, currentColor); stroke-miterlimit: 10; stroke-width:var(--icon-stroke-width-m, calc(var(--icon-stroke-width, 5) * 1));"/><line x1="31.5" y1="37.12" x2="31.5" y2="37.12" style="fill: none; stroke: var(--icon-stroke-color, currentColor); stroke-linecap: round; stroke-linejoin: round; stroke-width:var(--icon-stroke-width-m, calc(var(--icon-stroke-width, 5) * 1));"/><line x1="40.5" y1="37.12" x2="40.5" y2="37.12" style="fill: none; stroke: var(--icon-stroke-color, currentColor); stroke-linecap: round; stroke-linejoin: round; stroke-width:var(--icon-stroke-width-m, calc(var(--icon-stroke-width, 5) * 1));"/><g><polygon points="32.22 21.94 32.23 21.94 32.23 21.93 32.22 21.94" style="fill: none; stroke: var(--icon-stroke-color, currentColor); stroke-linejoin: round; stroke-width:var(--icon-stroke-width-m, calc(var(--icon-stroke-width, 5) * 1));"/><path d="M22.5,34.88c6.07-2.87,9.64-12.71,9.72-12.94-4.94,1.48-9.61,5.84-9.72,12.94Z" style="fill: none; stroke: var(--icon-stroke-color, currentColor); stroke-linejoin: round; stroke-width:var(--icon-stroke-width-m, calc(var(--icon-stroke-width, 5) * 1));"/><path d="M51,17.94c-3.65,6.78-9.61,3.42-15,3.42-1.23,0-2.51.2-3.77.58.05.18,3.87,12.94,17.27,12.94,11.31,0,6.52-12.02,1.5-16.93Z" style="fill: none; stroke: var(--icon-stroke-color, currentColor); stroke-linejoin: round; stroke-width:var(--icon-stroke-width-m, calc(var(--icon-stroke-width, 5) * 1));"/></g><polygon points="32.23 21.93 32.22 21.94 32.23 21.94 32.23 21.93" style="fill: var(--icon-fill-secondary, white); stroke: var(--icon-stroke-color, currentColor); stroke-linejoin: round; stroke-width:var(--icon-stroke-width-m, calc(var(--icon-stroke-width, 5) * 1));"/></svg>
