<?xml version="1.0" encoding="UTF-8"?>
<svg id="bug" xmlns="http://www.w3.org/2000/svg" viewBox="0 0 72 72">
  <line x1="4.5" y1="36" x2="22.5" y2="36" style="fill: none; stroke: #ed1c24; stroke-miterlimit: 10; stroke-width: 4px;"/>
  <line x1="49.5" y1="36" x2="67.5" y2="36" style="fill: none; stroke: #ed1c24; stroke-miterlimit: 10; stroke-width: 4px;"/>
  <path d="M13.5,13.5v9c0,4.97,4.03,9,9,9" style="fill: none; stroke: #ed1c24; stroke-miterlimit: 10; stroke-width: 4px;"/>
  <path d="M58.5,13.5v9c0,4.97-4.03,9-9,9" style="fill: none; stroke: #ed1c24; stroke-miterlimit: 10; stroke-width: 4px;"/>
  <path d="M58.5,58.5v-9c0-4.97-4.03-9-9-9" style="fill: none; stroke: #ed1c24; stroke-miterlimit: 10; stroke-width: 4px;"/>
  <path d="M13.5,58.5v-9c0-4.97,4.03-9,9-9" style="fill: none; stroke: #ed1c24; stroke-miterlimit: 10; stroke-width: 4px;"/>
  <path d="M22.5,27v13.5c0,7.46,6.04,13.5,13.5,13.5s13.5-6.04,13.5-13.5v-13.5h-27Z" style="fill: #ed1c24; opacity: .5;"/>
  <path d="M36,13.5c-4.97,0-9,4.03-9,9v4.5h18v-4.5c0-4.97-4.03-9-9-9Z" style="fill: #ed1c24; opacity: .5;"/>
  <path d="M22.5,27v13.5c0,7.46,6.04,13.5,13.5,13.5s13.5-6.04,13.5-13.5v-13.5h-27Z" style="fill: none; stroke: #231f20; stroke-miterlimit: 10; stroke-width: 4px;"/>
  <path d="M36,13.5c-4.97,0-9,4.03-9,9v4.5h18v-4.5c0-4.97-4.03-9-9-9Z" style="fill: none; stroke: #231f20; stroke-miterlimit: 10; stroke-width: 4px;"/>
</svg>