<?xml version="1.0" encoding="UTF-8"?>
<svg id="button-user-2" xmlns="http://www.w3.org/2000/svg" viewBox="0 0 72 72">
  <rect x="13.5" y="13.5" width="45" height="45" rx="6" ry="6" style="fill: #ed2024; opacity: .5;"/>
  <rect x="13.5" y="13.5" width="45" height="36" rx="6" ry="6" style="fill: #ed2024; opacity: .5;"/>
  <path d="M58.5,31.5v12c0,3.31-2.69,6-6,6H19.5c-3.31,0-6-2.69-6-6v-24c0-3.31,2.69-6,6-6h12" style="fill: none; stroke: #ed2024; stroke-miterlimit: 10; stroke-width: 4px;"/>
  <path d="M58.5,31.5v21c0,3.31-2.69,6-6,6H19.5c-3.31,0-6-2.69-6-6V19.5c0-3.31,2.69-6,6-6h16.5" style="fill: none; stroke: #010101; stroke-miterlimit: 10; stroke-width: 4px;"/>
  <g>
    <circle cx="49.5" cy="13.73" r="4.27" style="fill: none; stroke: #010101; stroke-linecap: round; stroke-linejoin: round; stroke-width: 4px;"/>
    <path d="M56.82,25.32c0,2.93-7.32,2.93-7.32,2.93,0,0-7.32,0-7.32-2.93,0-4.04,3.28-7.32,7.32-7.32s7.32,3.28,7.32,7.32Z" style="fill: none; stroke: #010101; stroke-linecap: square; stroke-linejoin: round; stroke-width: 4px;"/>
  </g>
</svg>