<?xml version="1.0" encoding="UTF-8"?>
<svg id="calendar-2" xmlns="http://www.w3.org/2000/svg" viewBox="0 0 72 72">
  <rect x="9" y="13.5" width="54" height="49.5" rx="4" ry="4" style="fill: #ed2024; opacity: .5;"/>
  <rect x="9" y="13.5" width="54" height="49.5" rx="4" ry="4" style="fill: none; stroke: #231f20; stroke-miterlimit: 10; stroke-width: 4px;"/>
  <line x1="18" y1="9" x2="18" y2="18" style="fill: none; stroke: #231f20; stroke-linecap: round; stroke-miterlimit: 10; stroke-width: 4px;"/>
  <line x1="36" y1="9" x2="36" y2="18" style="fill: none; stroke: #231f20; stroke-linecap: round; stroke-miterlimit: 10; stroke-width: 4px;"/>
  <line x1="27" y1="9" x2="27" y2="18" style="fill: none; stroke: #231f20; stroke-linecap: round; stroke-miterlimit: 10; stroke-width: 4px;"/>
  <line x1="45" y1="9" x2="45" y2="18" style="fill: none; stroke: #231f20; stroke-linecap: round; stroke-miterlimit: 10; stroke-width: 4px;"/>
  <line x1="54" y1="9" x2="54" y2="18" style="fill: none; stroke: #231f20; stroke-linecap: round; stroke-miterlimit: 10; stroke-width: 4px;"/>
  <line x1="22.5" y1="27" x2="22.5" y2="27" style="fill: none; stroke: #ed2024; stroke-linecap: round; stroke-linejoin: round; stroke-width: 4px;"/>
  <line x1="31.5" y1="27" x2="31.5" y2="27" style="fill: none; stroke: #ed2024; stroke-linecap: round; stroke-linejoin: round; stroke-width: 4px;"/>
  <line x1="40.5" y1="27" x2="40.5" y2="27" style="fill: none; stroke: #ed2024; stroke-linecap: round; stroke-linejoin: round; stroke-width: 4px;"/>
  <line x1="49.5" y1="27" x2="49.5" y2="27" style="fill: none; stroke: #ed2024; stroke-linecap: round; stroke-linejoin: round; stroke-width: 4px;"/>
  <line x1="22.5" y1="36" x2="22.5" y2="36" style="fill: none; stroke: #ed2024; stroke-linecap: round; stroke-linejoin: round; stroke-width: 4px;"/>
  <line x1="31.5" y1="36" x2="31.5" y2="36" style="fill: none; stroke: #ed2024; stroke-linecap: round; stroke-linejoin: round; stroke-width: 4px;"/>
  <line x1="40.5" y1="36" x2="40.5" y2="36" style="fill: none; stroke: #ed2024; stroke-linecap: round; stroke-linejoin: round; stroke-width: 4px;"/>
  <line x1="49.5" y1="36" x2="49.5" y2="36" style="fill: none; stroke: #ed2024; stroke-linecap: round; stroke-linejoin: round; stroke-width: 4px;"/>
  <line x1="22.5" y1="45" x2="22.5" y2="45" style="fill: none; stroke: #ed2024; stroke-linecap: round; stroke-linejoin: round; stroke-width: 4px;"/>
  <line x1="31.5" y1="45" x2="31.5" y2="45" style="fill: none; stroke: #ed2024; stroke-linecap: round; stroke-linejoin: round; stroke-width: 4px;"/>
  <line x1="40.5" y1="45" x2="40.5" y2="45" style="fill: none; stroke: #ed2024; stroke-linecap: round; stroke-linejoin: round; stroke-width: 4px;"/>
  <line x1="49.5" y1="45" x2="49.5" y2="45" style="fill: none; stroke: #ed2024; stroke-linecap: round; stroke-linejoin: round; stroke-width: 4px;"/>
  <line x1="22.5" y1="54" x2="22.5" y2="54" style="fill: none; stroke: #ed2024; stroke-linecap: round; stroke-linejoin: round; stroke-width: 4px;"/>
  <line x1="31.5" y1="54" x2="31.5" y2="54" style="fill: none; stroke: #ed2024; stroke-linecap: round; stroke-linejoin: round; stroke-width: 4px;"/>
  <line x1="40.5" y1="54" x2="40.5" y2="54" style="fill: none; stroke: #ed2024; stroke-linecap: round; stroke-linejoin: round; stroke-width: 4px;"/>
  <line x1="49.5" y1="54" x2="49.5" y2="54" style="fill: none; stroke: #ed2024; stroke-linecap: round; stroke-linejoin: round; stroke-width: 4px;"/>
</svg>