<?xml version="1.0" encoding="UTF-8"?>
<svg id="cookie" xmlns="http://www.w3.org/2000/svg" viewBox="0 0 72 72">
  <g style="opacity: .5;">
    <path d="M45.05,13.5c0-.82.09-1.64.47-2.3s1.11-1.1,1.79-1.49,1.37-.81,2.19-.81,1.6.3,2.26.69,1.22,1,1.61,1.68.59,1.42.59,2.24-.14,1.62-.52,2.28-.99,1.27-1.67,1.67-1.46.58-2.28.58-1.6-.24-2.26-.62-1.26-.97-1.66-1.65-.5-1.44-.5-2.26" style="fill: #ed1c24;"/>
  </g>
  <g style="opacity: .5;">
    <path d="M54.46,33.7c-.03-.05.03-.1-.02-.06-.63.51-1.39.93-2.18,1.05s-1.47-.39-2.25-.71c-.78-.32-1.74-.38-2.2-1.01s-.87-1.53-.95-2.34c0-.06.31.13.25.14-.77.23-1.6-.3-2.38-.5s-1.61-.22-2.2-.81c-.59-.59-.65-1.44-.84-2.2s-.8-1.64-.58-2.42c.02-.06.33.1.27.09-.8-.09-1.77-.2-2.41-.68s-1.02-1.34-1.34-2.12c-.32-.78-.42-1.64-.31-2.41s.55-1.54,1.06-2.17c.04-.05-.05.04-.1,0-.71-.39-1.35-1.02-1.77-1.71s-.62-1.42-.62-2.26c-.83,0-1.57-.38-2.37-.29s-1.64.32-2.43.49-1.62.4-2.39.66-1.43.85-2.17,1.19-1.48.69-2.18,1.11-1.47.76-2.12,1.26-1.24,1.08-1.83,1.65-1.24,1.1-1.76,1.72-.68,1.53-1.13,2.21-1.16,1.2-1.54,1.93-.9,1.4-1.2,2.17-.51,1.58-.73,2.37-.26,1.63-.39,2.44.1,1.64.06,2.46-.51,1.63-.46,2.46.71,1.6.85,2.41.11,1.67.34,2.46.47,1.6.79,2.36.86,1.42,1.27,2.14.66,1.54,1.14,2.22.94,1.4,1.49,2.01,1.33,1.02,1.95,1.58,1.05,1.36,1.73,1.84,1.58.63,2.3,1.04,1.25,1.26,2.02,1.58,1.63.49,2.43.73,1.74-.19,2.57-.04,1.58.51,2.42.57,1.64.23,2.45.19,1.64-.16,2.44-.28,1.5-.72,2.29-.93,1.75.11,2.51-.18,1.62-.47,2.34-.85,1.33-1.02,2.01-1.47,1.12-1.23,1.74-1.76,1.4-.89,1.97-1.48.71-1.52,1.21-2.17,1.4-1,1.83-1.7.88-1.4,1.23-2.14.68-1.51.95-2.29.54-1.57.72-2.37-.29-1.69-.21-2.51.75-1.88.75-2.7c-.84,0-1.88.02-2.55-.39s-1.38-.91-1.77-1.62Z" style="fill: #ed1c24;"/>
  </g>
  <path d="M54.64,33.6c-.03-.05-.39-.29-.43-.25-.63.51-1.1,1.55-1.9,1.67s-1.57-.6-2.35-.92c-.78-.32-1.24-.83-1.71-1.45s-1.3-1.21-1.38-2.01c0-.06.27.05.21.06-.77.23-1.71.34-2.49.15s-1.36-.89-1.95-1.49c-.59-.59-.93-1.29-1.12-2.04s.15-1.46.38-2.23c.02-.06-.47.07-.53.06-.8-.09-1.3-1.01-1.95-1.48s-1.07-.9-1.39-1.68c-.32-.78-.81-1.48-.69-2.25s.56-1.52,1.07-2.15c.04-.05.15-.38.09-.41-.71-.39-1.63-.59-2.04-1.28s-.44-1.57-.44-2.41c-.83,0-1.61.44-2.42.53s-1.75-.55-2.55-.37-1.37,1.19-2.14,1.45-1.62.27-2.36.62-1.42.77-2.12,1.2-1.59.57-2.24,1.07c-.65.5-.91,1.44-1.5,2-.59.56-1.11,1.15-1.64,1.77s-1.42.96-1.88,1.64-.97,1.35-1.35,2.07-.86,1.44-1.15,2.21-.25,1.66-.46,2.45-.38,1.59-.51,2.41-.03,1.63-.07,2.46-.48,1.64-.43,2.47.53,1.64.68,2.45-.09,1.76.14,2.55,1.3,1.31,1.62,2.07.14,1.77.55,2.5.83,1.48,1.31,2.15.96,1.41,1.52,2.02,1.28,1.11,1.9,1.67,1.41.92,2.08,1.4,1.14,1.34,1.87,1.75,1.55.71,2.32,1.04,1.74.08,2.54.32c.79.24,1.52.78,2.34.92.81.14,1.67-.03,2.51.02s1.64.23,2.44.19,1.61-.35,2.41-.47,1.54-.49,2.33-.7,1.82.28,2.57-.02,1.57-.62,2.29-1,1.19-1.24,1.87-1.69,1.16-1.14,1.79-1.66,1.51-.76,2.08-1.35,1.13-1.2,1.63-1.85.77-1.46,1.19-2.16,1.17-1.24,1.52-1.98.6-1.55.87-2.33.22-1.64.39-2.45.13-1.62.22-2.44.57-1.85.57-2.67c-.84,0-1.64-.36-2.31-.76s-1.4-.68-1.79-1.39Z" style="fill: none; stroke: #231f20; stroke-miterlimit: 10; stroke-width: 4px;"/>
  <path d="M53.95,13.5c0,.82-.09,1.64-.47,2.3s-1.11,1.1-1.79,1.49-1.37.81-2.19.81-1.6-.3-2.26-.69-1.22-1-1.61-1.68-.59-1.42-.59-2.24.14-1.62.52-2.28.99-1.27,1.67-1.67,1.46-.58,2.28-.58,1.6.24,2.26.62,1.26.97,1.66,1.65.54,1.44.54,2.26Z" style="fill: none; stroke: #ed1c24; stroke-miterlimit: 10; stroke-width: 4px;"/>
  <path d="M40.46,45c0,.82-.14,1.61-.53,2.27s-1,1.24-1.68,1.63-1.44.58-2.25.58-1.6-.18-2.26-.57-1.25-.98-1.64-1.66-.54-1.43-.54-2.25.17-1.59.55-2.25,1.01-1.17,1.69-1.56,1.38-.7,2.2-.7,1.62.18,2.28.56,1.29.98,1.68,1.66.5,1.47.5,2.29Z" style="fill: none; stroke: #ed1c24; stroke-miterlimit: 10; stroke-width: 4px;"/>
  <path d="M26.98,38.25c0,1.24-.98,2.27-2.23,2.27s-2.29-1.03-2.29-2.27,1.05-2.19,2.29-2.19,2.23.95,2.23,2.19Z" style="fill: none; stroke: #ed1c24; stroke-miterlimit: 10; stroke-width: 4px;"/>
  <path d="M36.02,29.25c0,1.24-1.03,2.25-2.27,2.25s-2.22-1-2.22-2.25.98-2.25,2.22-2.25,2.27,1.01,2.27,2.25Z" style="fill: none; stroke: #ed1c24; stroke-miterlimit: 10; stroke-width: 4px;"/>
</svg>