<?xml version="1.0" encoding="UTF-8"?>
<svg id="edit-l" xmlns="http://www.w3.org/2000/svg" viewBox="0 0 72 72">
  <path d="M16.44,43.78l-2.94,14.72,14.72-2.94c.77-.15,1.49-.54,2.04-1.09l28.13-28.13c1.56-1.56,1.56-4.09,0-5.66l-7.07-7.07c-1.56-1.56-4.09-1.56-5.66,0l-28.13,28.13c-.56.56-.94,1.27-1.09,2.04Z" style="fill: #ed2024; opacity: .5; stroke: #231f20; stroke-miterlimit: 10; stroke-width: 4px;"/>
  <path d="M16.44,43.78l-2.94,14.72,14.72-2.94c.77-.15,1.49-.54,2.04-1.09l28.13-28.13c1.56-1.56,1.56-4.09,0-5.66l-7.07-7.07c-1.56-1.56-4.09-1.56-5.66,0l-28.13,28.13c-.56.56-.94,1.27-1.09,2.04Z" style="fill: none; stroke: #231f20; stroke-miterlimit: 10; stroke-width: 4px;"/>
  <line x1="38.96" y1="20.32" x2="51.68" y2="33.04" style="fill: none; stroke: #231f20; stroke-miterlimit: 10; stroke-width: 4px;"/>
</svg>