<svg id="file-add_2-2" data-name="file-add 2" xmlns="http://www.w3.org/2000/svg" viewBox="0 0 72 72"><path d="M40.5,9h-23c-2.21,0-4,1.79-4,4v46c0,2.21,1.79,4,4,4h37c2.21,0,4-1.79,4-4V27l-18-18Z" style="fill: var(--icon-fill, rgba(0, 0, 0, 0)); opacity: var(--icon-fill-opacity, 1);"/><line x1="45" y1="49.5" x2="57.73" y2="62.23" style="fill: none; stroke: var(--icon-stroke-color, currentColor); stroke-miterlimit: 10; stroke-width:var(--icon-stroke-width-m, calc(var(--icon-stroke-width, 5) * 1));"/><line x1="57.73" y1="49.5" x2="45" y2="62.23" style="fill: none; stroke: var(--icon-stroke-color, currentColor); stroke-miterlimit: 10; stroke-width:var(--icon-stroke-width-m, calc(var(--icon-stroke-width, 5) * 1));"/><path d="M40.5,9v14c0,2.21,1.79,4,4,4h14" style="fill: none; stroke: var(--icon-stroke-color-secondary, var(--icon-stroke-color, currentColor)); stroke-linecap: round; stroke-miterlimit: 10; stroke-width:var(--icon-stroke-width-secondary-m, var(--icon-stroke-width-m, calc(var(--icon-stroke-width, 5) * 1)));"/><path d="M58.5,45v-18l-18-18h-23c-2.21,0-4,1.79-4,4v46c0,2.21,1.79,4,4,4h23" style="fill: none; stroke: var(--icon-stroke-color, currentColor); stroke-miterlimit: 10; stroke-width:var(--icon-stroke-width-m, calc(var(--icon-stroke-width, 5) * 1));"/></svg>
