<?xml version="1.0" encoding="UTF-8"?>
<svg id="file-cloud" xmlns="http://www.w3.org/2000/svg" viewBox="0 0 72 72">
  <path d="M40.5,9h-23c-2.21,0-4,1.79-4,4v46c0,2.21,1.79,4,4,4h37c2.21,0,4-1.79,4-4V27l-18-18Z" style="fill: #ed2024; opacity: .5;"/>
  <path d="M40.5,9v14c0,2.21,1.79,4,4,4h14" style="fill: none; stroke: #ed2024; stroke-linecap: round; stroke-miterlimit: 10; stroke-width: 4px;"/>
  <path d="M40.5,9h-23c-2.21,0-4,1.79-4,4v46c0,2.21,1.79,4,4,4h37c2.21,0,4-1.79,4-4V27l-18-18Z" style="fill: none; stroke: #010101; stroke-linecap: round; stroke-miterlimit: 10; stroke-width: 4px;"/>
  <path d="M45,42.75c-.1,0-.19,0-.29.01-1-3.89-4.51-6.76-8.71-6.76s-7.71,2.88-8.71,6.76c-.1,0-.19-.01-.29-.01-2.49,0-4.5,2.01-4.5,4.5s2.01,4.5,4.5,4.5c.87,0,1.68-.25,2.37-.68,1.65,1.8,4,2.93,6.63,2.93s4.99-1.13,6.63-2.93c.69.43,1.5.68,2.37.68,2.49,0,4.5-2.01,4.5-4.5s-2.01-4.5-4.5-4.5Z" style="fill: none; stroke: #010101; stroke-linecap: round; stroke-miterlimit: 10; stroke-width: 4px;"/>
</svg>