<?xml version="1.0" encoding="UTF-8"?>
<svg id="file-arrow-up" xmlns="http://www.w3.org/2000/svg" viewBox="0 0 72 72">
  <path d="M40.5,9h-23c-2.21,0-4,1.79-4,4v46c0,2.21,1.79,4,4,4h37c2.21,0,4-1.79,4-4V27l-18-18Z" style="fill: #ed2024; opacity: .5;"/>
  <path d="M40.5,9v14c0,2.21,1.79,4,4,4h14" style="fill: none; stroke: #ed2024; stroke-linecap: round; stroke-miterlimit: 10; stroke-width: 4px;"/>
  <path d="M40.5,9h-23c-2.21,0-4,1.79-4,4v46c0,2.21,1.79,4,4,4h37c2.21,0,4-1.79,4-4V27l-18-18Z" style="fill: none; stroke: #010101; stroke-linecap: round; stroke-miterlimit: 10; stroke-width: 4px;"/>
  <polyline points="40.5 36 49.5 36 49.5 45" style="fill: none; stroke: #000; stroke-miterlimit: 10; stroke-width: 4px;"/>
  <polyline points="49.5 36 36 49.5 31.5 45 22.5 54" style="fill: none; stroke: #000; stroke-miterlimit: 10; stroke-width: 4px;"/>
</svg>