<?xml version="1.0" encoding="UTF-8"?>
<svg id="folder-question-mark-2" xmlns="http://www.w3.org/2000/svg" viewBox="0 0 72 72">
  <line x1="13.5" y1="31.5" x2="58.5" y2="31.5" style="fill: none; stroke: #ed2024; stroke-miterlimit: 10; stroke-width: 4px;"/>
  <path d="M17.5,58.5h37c2.21,0,4-1.79,4-4v-28c0-2.21-1.79-4-4-4h-18.5l-3.39-6.79c-.68-1.36-2.06-2.21-3.58-2.21h-11.53c-2.21,0-4,1.79-4,4v37c0,2.21,1.79,4,4,4Z" style="fill: #ed2024; opacity: .5;"/>
  <path d="M58.5,36v-9.5c0-2.21-1.79-4-4-4h-18.5l-3.39-6.79c-.68-1.36-2.06-2.21-3.58-2.21h-11.53c-2.21,0-4,1.79-4,4v37c0,2.21,1.79,4,4,4h18.5" style="fill: none; stroke: #010101; stroke-miterlimit: 10; stroke-width: 4px;"/>
  <g>
    <line x1="50" y1="63" x2="50" y2="63" style="fill: none; stroke: #000; stroke-linecap: round; stroke-miterlimit: 10; stroke-width: 4px;"/>
    <path d="M44,46.5c0-3.31,2.69-6,6-6s6,2.69,6,6c0,6-6,6-6,12" style="fill: none; stroke: #000; stroke-miterlimit: 10; stroke-width: 4px;"/>
  </g>
</svg>