<?xml version="1.0" encoding="UTF-8"?>
<svg id="folder-user" xmlns="http://www.w3.org/2000/svg" viewBox="0 0 72 72">
  <path d="M17.5,58.5h37c2.21,0,4-1.79,4-4v-28c0-2.21-1.79-4-4-4h-18.5l-3.39-6.79c-.68-1.36-2.06-2.21-3.58-2.21h-11.53c-2.21,0-4,1.79-4,4v37c0,2.21,1.79,4,4,4Z" style="fill: #ed2024; opacity: .5;"/>
  <path d="M17.5,58.5h37c2.21,0,4-1.79,4-4v-28c0-2.21-1.79-4-4-4h-18.5l-3.39-6.79c-.68-1.36-2.06-2.21-3.58-2.21h-11.53c-2.21,0-4,1.79-4,4v37c0,2.21,1.79,4,4,4Z" style="fill: none; stroke: #010101; stroke-miterlimit: 10; stroke-width: 4px;"/>
  <g>
    <circle cx="36" cy="35.77" r="4.27" style="fill: none; stroke: #010101; stroke-linecap: round; stroke-linejoin: round; stroke-width: 4px;"/>
    <path d="M43.32,47.35c0,2.93-7.32,2.93-7.32,2.93,0,0-7.32,0-7.32-2.93,0-4.04,3.28-7.32,7.32-7.32s7.32,3.28,7.32,7.32Z" style="fill: none; stroke: #010101; stroke-linecap: square; stroke-linejoin: round; stroke-width: 4px;"/>
  </g>
</svg>