<?xml version="1.0" encoding="UTF-8"?>
<svg id="following" xmlns="http://www.w3.org/2000/svg" viewBox="0 0 72 72">
  <g style="opacity: .5;">
    <circle cx="25.71" cy="24.75" r="11.25" style="fill: #ed2024;"/>
    <path d="M6.43,55.29c0,7.71,19.29,7.71,19.29,7.71,0,0,19.29,0,19.29-7.71,0-10.65-8.63-19.29-19.29-19.29S6.43,44.63,6.43,55.29Z" style="fill: #ed2024;"/>
  </g>
  <g>
    <circle cx="25.71" cy="24.75" r="11.25" style="fill: none; stroke: #010101; stroke-linecap: round; stroke-linejoin: round; stroke-width: 4px;"/>
    <path d="M6.43,55.29c0,7.71,19.29,7.71,19.29,7.71,0,0,19.29,0,19.29-7.71,0-10.65-8.63-19.29-19.29-19.29S6.43,44.63,6.43,55.29Z" style="fill: none; stroke: #010101; stroke-linecap: square; stroke-linejoin: round; stroke-width: 4px;"/>
  </g>
  <g style="opacity: .5;">
    <circle cx="54" cy="13.65" r="5.25" style="fill: #ed2024;"/>
    <path d="M45,27.9c0,3.6,9,3.6,9,3.6,0,0,9,0,9-3.6,0-4.97-4.03-9-9-9s-9,4.03-9,9Z" style="fill: #ed2024;"/>
  </g>
  <g>
    <circle cx="54" cy="13.65" r="5.25" style="fill: none; stroke: #010101; stroke-linecap: round; stroke-linejoin: round; stroke-width: 4px;"/>
    <path d="M45,27.9c0,3.6,9,3.6,9,3.6,0,0,9,0,9-3.6,0-4.97-4.03-9-9-9s-9,4.03-9,9Z" style="fill: none; stroke: #010101; stroke-linecap: square; stroke-linejoin: round; stroke-width: 4px;"/>
  </g>
</svg>