<?xml version="1.0" encoding="UTF-8"?>
<svg id="home-location" xmlns="http://www.w3.org/2000/svg" viewBox="0 0 72 72">
  <polyline points="27 40.5 9 40.5 9 22.5 22.5 9 36 22.5 36 24.91" style="fill: none; stroke: #ed1c24; stroke-miterlimit: 10; stroke-width: 4px;"/>
  <path d="M45,22.5c-9.94,0-18,8.06-18,18,0,18,18,27,18,27,0,0,18-9,18-27,0-9.94-8.06-18-18-18ZM45,49.5c-4.97,0-9-4.03-9-9s4.03-9,9-9,9,4.03,9,9-4.03,9-9,9Z" style="fill: #ed1c24; opacity: .5;"/>
  <path d="M63,40.5c0,18-18,27-18,27,0,0-18-9-18-27,0-9.94,8.06-18,18-18s18,8.06,18,18Z" style="fill: none; stroke: #231f20; stroke-miterlimit: 10; stroke-width: 4px;"/>
  <circle cx="45" cy="40.5" r="9" style="fill: none; stroke: #231f20; stroke-miterlimit: 10; stroke-width: 4px;"/>
</svg>