<?xml version="1.0" encoding="UTF-8"?>
<svg id="book" xmlns="http://www.w3.org/2000/svg" viewBox="0 0 72 72">
  <path d="M27,18s9,0,9,4.5v36c0-4.5-9-4.5-9-4.5H9V18h18" style="fill: #ed1c24; opacity: .5;"/>
  <path d="M45,18s-9,0-9,4.5c0,0,0,18,0,36,0-4.5,9-4.5,9-4.5h18s0-36,0-36c0,0-9,0-18,0" style="fill: #ed1c24; opacity: .5;"/>
  <path d="M27,18s9,0,9,4.5v36c0-4.5-9-4.5-9-4.5H9V18h18" style="fill: none; stroke: #231f20; stroke-miterlimit: 10; stroke-width: 4px;"/>
  <path d="M45,18s-9,0-9,4.5c0,0,0,18,0,36,0-4.5,9-4.5,9-4.5h18s0-36,0-36c0,0-9,0-18,0" style="fill: none; stroke: #231f20; stroke-miterlimit: 10; stroke-width: 4px;"/>
</svg>