<?xml version="1.0" encoding="UTF-8"?>
<svg id="pointer-hand" xmlns="http://www.w3.org/2000/svg" viewBox="0 0 72 72">
  <path d="M54,36c-2.49,0-4.5,2.01-4.5,4.5h0v-4.5c0-2.49-2.01-4.5-4.5-4.5s-4.5,2.01-4.5,4.5v4.5-9c0-2.49-2.01-4.5-4.5-4.5s-4.5,2.01-4.5,4.5v9V13.5c0-2.49-2.01-4.5-4.5-4.5s-4.5,2.01-4.5,4.5v31.5l-9-9-4.5,4.15s4.5,13.85,18,27.35h22.5s9-9,9-22.5v-4.5c0-2.49-2.01-4.5-4.5-4.5Z" style="fill: #ed2024; opacity: .5;"/>
  <path d="M54,36c-2.49,0-4.5,2.01-4.5,4.5h0v-4.5c0-2.49-2.01-4.5-4.5-4.5s-4.5,2.01-4.5,4.5v4.5-9c0-2.49-2.01-4.5-4.5-4.5s-4.5,2.01-4.5,4.5v9V13.5c0-2.49-2.01-4.5-4.5-4.5s-4.5,2.01-4.5,4.5v31.5l-9-9-4.5,4.15s4.5,13.85,18,27.35h22.5s9-9,9-22.5v-4.5c0-2.49-2.01-4.5-4.5-4.5Z" style="fill: none; stroke: #000; stroke-miterlimit: 10; stroke-width: 4px;"/>
</svg>