<?xml version="1.0" encoding="UTF-8"?>
<svg id="user-add_2" data-name="user-add 2" xmlns="http://www.w3.org/2000/svg" viewBox="0 0 72 72">
  <line x1="52.27" y1="22.5" x2="65" y2="22.5" style="fill: none; stroke: #ed2024; stroke-linejoin: round; stroke-width: 4px;"/>
  <line x1="58.64" y1="28.86" x2="58.64" y2="16.14" style="fill: none; stroke: #ed2024; stroke-linejoin: round; stroke-width: 4px;"/>
  <g style="opacity: .5;">
    <circle cx="36" cy="22.5" r="11.25" style="fill: #ed2024;"/>
    <path d="M55.29,53.04c0,7.71-19.29,7.71-19.29,7.71,0,0-19.29,0-19.29-7.71,0-10.65,8.63-19.29,19.29-19.29s19.29,8.63,19.29,19.29Z" style="fill: #ed2024;"/>
  </g>
  <g>
    <circle cx="36" cy="22.5" r="11.25" style="fill: none; stroke: #010101; stroke-linecap: round; stroke-linejoin: round; stroke-width: 4px;"/>
    <path d="M55.29,53.04c0,7.71-19.29,7.71-19.29,7.71,0,0-19.29,0-19.29-7.71,0-10.65,8.63-19.29,19.29-19.29s19.29,8.63,19.29,19.29Z" style="fill: none; stroke: #010101; stroke-linecap: square; stroke-linejoin: round; stroke-width: 4px;"/>
  </g>
</svg>