<?xml version="1.0" encoding="UTF-8"?>
<svg id="plug-type-c" xmlns="http://www.w3.org/2000/svg" viewBox="0 0 72 72">
  <g>
    <line x1="28.8" y1="9" x2="28.8" y2="22.5" style="fill: none; stroke: #ed1c24; stroke-linecap: round; stroke-miterlimit: 10; stroke-width: 4px;"/>
    <line x1="42.3" y1="9" x2="42.3" y2="22.5" style="fill: none; stroke: #ed1c24; stroke-linecap: round; stroke-miterlimit: 10; stroke-width: 4px;"/>
  </g>
  <path d="M24.3,27c0,9.64,5.62,8.36,5.62,18h11.25c0-9.64,5.63-8.36,5.63-18" style="fill: #ed1c24; opacity: .5;"/>
  <polyline points="31.05 45 33.3 54 37.8 54 40.05 45" style="fill: #ed1c24; opacity: .5;"/>
  <rect x="22.05" y="22.5" width="27" height="4.5" style="fill: #ed1c24; opacity: .5;"/>
  <path d="M24.3,27c0,9.64,5.62,8.36,5.62,18h11.25c0-9.64,5.63-8.36,5.63-18" style="fill: none; stroke: #231f20; stroke-miterlimit: 10; stroke-width: 4px;"/>
  <polyline points="31.05 45 33.3 54 37.8 54 40.05 45" style="fill: none; stroke: #231f20; stroke-miterlimit: 10; stroke-width: 4px;"/>
  <line x1="35.55" y1="63" x2="35.55" y2="54" style="fill: none; stroke: #231f20; stroke-miterlimit: 10; stroke-width: 4px;"/>
  <rect x="22.05" y="22.5" width="27" height="4.5" style="fill: none; stroke: #231f20; stroke-miterlimit: 10; stroke-width: 4px;"/>
</svg>