<?xml version="1.0" encoding="UTF-8"?>
<svg id="performance_2" data-name="performance 2" xmlns="http://www.w3.org/2000/svg" viewBox="0 0 72 72">
  <path d="M59.38,54c2.3-3.97,3.62-8.58,3.62-13.5,0-14.91-12.09-27-27-27s-27,12.09-27,27c0,4.92,1.32,9.53,3.62,13.5h46.76Z" style="fill: #ed2024; opacity: .5;"/>
  <path d="M40.2,38.4l-4.2-29.4-4.2,29.4c-.19,1.32.26,2.66,1.2,3.6h0c1.66,1.66,4.34,1.66,6,0h0c.94-.94,1.39-2.28,1.2-3.6Z" style="fill: #ed1e2b; opacity: .5;"/>
  <path d="M27.6,14.83c-10.8,3.53-18.6,13.69-18.6,25.67,0,4.92,1.32,9.53,3.62,13.5h46.76c2.3-3.97,3.62-8.58,3.62-13.5,0-11.98-7.8-22.14-18.6-25.67" style="fill: none; stroke: #000; stroke-miterlimit: 10; stroke-width: 4px;"/>
  <path d="M40.2,38.4l-4.2-29.4-4.2,29.4c-.19,1.32.26,2.66,1.2,3.6h0c1.66,1.66,4.34,1.66,6,0h0c.94-.94,1.39-2.28,1.2-3.6Z" style="fill: none; stroke: #ed1e2b; stroke-linecap: round; stroke-linejoin: round; stroke-width: 4px;"/>
  <line x1="67.5" y1="40.5" x2="58.5" y2="40.5" style="fill: none; stroke: #ed2024; stroke-miterlimit: 10; stroke-width: 4px;"/>
  <line x1="13.5" y1="40.5" x2="4.5" y2="40.5" style="fill: none; stroke: #ed2024; stroke-miterlimit: 10; stroke-width: 4px;"/>
  <line x1="13.73" y1="18.23" x2="20.09" y2="24.59" style="fill: none; stroke: #ed2024; stroke-miterlimit: 10; stroke-width: 4px;"/>
  <line x1="58.27" y1="18.23" x2="51.91" y2="24.59" style="fill: none; stroke: #ed2024; stroke-miterlimit: 10; stroke-width: 4px;"/>
  <line x1="36" y1="9" x2="36" y2="18" style="fill: none; stroke: #ed2024; stroke-miterlimit: 10; stroke-width: 4px;"/>
</svg>