<?xml version="1.0" encoding="UTF-8"?>
<svg id="note-broken-heart_2" data-name="note-broken-heart 2" xmlns="http://www.w3.org/2000/svg" viewBox="0 0 72 72">
  <g style="opacity: .5;">
    <rect x="13.5" y="13.5" width="45" height="45" rx="4" ry="4" style="fill: #ed2024;"/>
  </g>
  <g>
    <path d="M58.5,41.5v-24c0-2.21-1.79-4-4-4H17.5c-2.21,0-4,1.79-4,4v37c0,2.21,1.79,4,4,4h18.5" style="fill: none; stroke: #010101; stroke-miterlimit: 10; stroke-width: 4px;"/>
    <path d="M58.5,41.5v-24c0-2.21-1.79-4-4-4H17.5c-2.21,0-4,1.79-4,4v37c0,2.21,1.79,4,4,4h18.5" style="fill: none; stroke: #010101; stroke-miterlimit: 10; stroke-width: 4px;"/>
  </g>
  <line x1="22.5" y1="6.5" x2="22.5" y2="20" style="fill: #010101; stroke: #ed2024; stroke-miterlimit: 10; stroke-width: 4px;"/>
  <line x1="31.5" y1="6.5" x2="31.5" y2="20" style="fill: #010101; stroke: #ed2024; stroke-miterlimit: 10; stroke-width: 4px;"/>
  <line x1="40.5" y1="6.5" x2="40.5" y2="20" style="fill: #010101; stroke: #ed2024; stroke-miterlimit: 10; stroke-width: 4px;"/>
  <line x1="49.5" y1="6.5" x2="49.5" y2="20" style="fill: #010101; stroke: #ed2024; stroke-miterlimit: 10; stroke-width: 4px;"/>
  <polyline points="54 49.5 56.25 56.25 51.75 58.5 54 67.5" style="fill: none; stroke: #231f20; stroke-miterlimit: 10; stroke-width: 4px;"/>
  <path d="M54,67.5c-23.38-12.24-11.69-30.85,0-18.36,11.69-12.48,23.38,6.12,0,18.36Z" style="fill: none; stroke: #231f20; stroke-miterlimit: 10; stroke-width: 4px;"/>
</svg>