<?xml version="1.0" encoding="UTF-8"?>
<svg id="edit-m" xmlns="http://www.w3.org/2000/svg" viewBox="0 0 72 72">
  <path d="M20.3,42.48l-2.3,11.52,11.52-2.3c.61-.12,1.16-.42,1.6-.86l22.01-22.01c1.22-1.22,1.22-3.2,0-4.43l-5.53-5.53c-1.22-1.22-3.2-1.22-4.43,0l-22.01,22.01c-.44.44-.73.99-.86,1.6Z" style="fill: #ed2024; opacity: .5; stroke: #231f20; stroke-miterlimit: 10; stroke-width: 4px;"/>
  <path d="M20.3,42.48l-2.3,11.52,11.52-2.3c.61-.12,1.16-.42,1.6-.86l22.01-22.01c1.22-1.22,1.22-3.2,0-4.43l-5.53-5.53c-1.22-1.22-3.2-1.22-4.43,0l-22.01,22.01c-.44.44-.73.99-.86,1.6Z" style="fill: none; stroke: #231f20; stroke-miterlimit: 10; stroke-width: 4px;"/>
  <line x1="37.92" y1="24.12" x2="47.88" y2="34.08" style="fill: none; stroke: #231f20; stroke-miterlimit: 10; stroke-width: 4px;"/>
</svg>