<?xml version="1.0" encoding="UTF-8"?>
<svg id="radar6" xmlns="http://www.w3.org/2000/svg" viewBox="0 0 72 72">
  <path d="M36,13.5c-12.43,0-22.5,10.07-22.5,22.5s10.07,22.5,22.5,22.5,22.5-10.07,22.5-22.5-10.07-22.5-22.5-22.5ZM36,49.5c-7.46,0-13.5-6.04-13.5-13.5s6.04-13.5,13.5-13.5,13.5,6.04,13.5,13.5-6.04,13.5-13.5,13.5Z" style="fill: #ed1c24; opacity: .5;"/>
  <line x1="36" y1="9" x2="36" y2="13.5" style="fill: none; stroke: #010101; stroke-linecap: square; stroke-miterlimit: 10; stroke-width: 6px;"/>
  <line x1="36" y1="58.5" x2="36" y2="63" style="fill: none; stroke: #010101; stroke-linecap: square; stroke-miterlimit: 10; stroke-width: 6px;"/>
  <line x1="9" y1="36" x2="13.5" y2="36" style="fill: none; stroke: #010101; stroke-linecap: square; stroke-miterlimit: 10; stroke-width: 6px;"/>
  <line x1="58.5" y1="36" x2="63" y2="36" style="fill: none; stroke: #010101; stroke-linecap: square; stroke-miterlimit: 10; stroke-width: 6px;"/>
  <circle cx="36" cy="36" r="22.5" style="fill: none; stroke: #010101; stroke-linecap: square; stroke-miterlimit: 10; stroke-width: 6px;"/>
  <circle cx="36" cy="36" r="13.5" style="fill: none; stroke: #ed1c24; stroke-linecap: square; stroke-miterlimit: 10; stroke-width: 6px;"/>
  <line x1="16.91" y1="16.91" x2="20.09" y2="20.09" style="fill: none; stroke: #010101; stroke-linecap: square; stroke-miterlimit: 10; stroke-width: 6px;"/>
  <line x1="51.91" y1="51.91" x2="55.09" y2="55.09" style="fill: none; stroke: #010101; stroke-linecap: square; stroke-miterlimit: 10; stroke-width: 6px;"/>
  <line x1="16.91" y1="55.09" x2="20.09" y2="51.91" style="fill: none; stroke: #010101; stroke-linecap: square; stroke-miterlimit: 10; stroke-width: 6px;"/>
  <line x1="51.91" y1="20.09" x2="55.09" y2="16.91" style="fill: none; stroke: #010101; stroke-linecap: square; stroke-miterlimit: 10; stroke-width: 6px;"/>
  <line x1="25.67" y1="11.06" x2="27.39" y2="15.21" style="fill: none; stroke: #010101; stroke-linecap: square; stroke-miterlimit: 10; stroke-width: 6px;"/>
  <line x1="44.61" y1="56.79" x2="46.33" y2="60.94" style="fill: none; stroke: #010101; stroke-linecap: square; stroke-miterlimit: 10; stroke-width: 6px;"/>
  <line x1="11.06" y1="46.33" x2="15.21" y2="44.61" style="fill: none; stroke: #010101; stroke-linecap: square; stroke-miterlimit: 10; stroke-width: 6px;"/>
  <line x1="56.79" y1="27.39" x2="60.94" y2="25.67" style="fill: none; stroke: #010101; stroke-linecap: square; stroke-miterlimit: 10; stroke-width: 6px;"/>
  <line x1="11.06" y1="25.67" x2="15.21" y2="27.39" style="fill: none; stroke: #010101; stroke-linecap: square; stroke-miterlimit: 10; stroke-width: 6px;"/>
  <line x1="56.79" y1="44.61" x2="60.94" y2="46.33" style="fill: none; stroke: #010101; stroke-linecap: square; stroke-miterlimit: 10; stroke-width: 6px;"/>
  <line x1="25.67" y1="60.94" x2="27.39" y2="56.79" style="fill: none; stroke: #010101; stroke-linecap: square; stroke-miterlimit: 10; stroke-width: 6px;"/>
  <line x1="44.61" y1="15.21" x2="46.33" y2="11.06" style="fill: none; stroke: #010101; stroke-linecap: square; stroke-miterlimit: 10; stroke-width: 6px;"/>
</svg>