<?xml version="1.0" encoding="UTF-8"?>
<svg id="flag-golf" xmlns="http://www.w3.org/2000/svg" viewBox="0 0 72 72">
  <path d="M59.86,20.31l-.84-4.2c-.32-1.58-1.55-2.82-3.14-3.14l-4.2-.84c-10.36-2.07-21.02-2.07-31.38,0l-4.2.84c-1.58.32-2.82,1.55-3.14,3.14l-.84,4.2c-2.07,10.36-2.07,21.02,0,31.38l.84,4.2c.32,1.58,1.55,2.82,3.14,3.14l4.2.84c10.36,2.07,21.02,2.07,31.38,0l4.2-.84c1.58-.32,2.82-1.55,3.14-3.14l.84-4.2c2.07-10.36,2.07-21.02,0-31.38ZM50.79,45.73l-.52,2.6c-.2.98-.96,1.75-1.95,1.95l-2.6.52c-6.42,1.28-13.03,1.28-19.45,0l-2.6-.52c-.98-.2-1.75-.96-1.95-1.95l-.52-2.6c-1.28-6.42-1.28-13.03,0-19.45l.52-2.6c.2-.98.96-1.75,1.95-1.95l2.6-.52c6.42-1.28,13.03-1.28,19.45,0l2.6.52c.98.2,1.75.96,1.95,1.95l.52,2.6c1.28,6.42,1.28,13.03,0,19.45Z" style="fill: #ed1c24; opacity: .5; stroke: #231f20; stroke-miterlimit: 10; stroke-width: 4px;"/>
  <path d="M55.89,59.02l-4.2.84c-10.36,2.07-21.02,2.07-31.38,0l-4.2-.84c-1.58-.32-2.82-1.55-3.14-3.14l-.84-4.2c-2.07-10.36-2.07-21.02,0-31.38l.84-4.2c.32-1.58,1.55-2.82,3.14-3.14l4.2-.84c10.36-2.07,21.02-2.07,31.38,0l4.2.84c1.58.32,2.82,1.55,3.14,3.14l.84,4.2c2.07,10.36,2.07,21.02,0,31.38l-.84,4.2c-.32,1.58-1.55,2.82-3.14,3.14Z" style="fill: none; stroke: #231f20; stroke-miterlimit: 10; stroke-width: 4px;"/>
  <path d="M48.33,50.27l-2.6.52c-6.42,1.28-13.03,1.28-19.45,0l-2.6-.52c-.98-.2-1.75-.96-1.95-1.95l-.52-2.6c-1.28-6.42-1.28-13.03,0-19.45l.52-2.6c.2-.98.96-1.75,1.95-1.95l2.6-.52c6.42-1.28,13.03-1.28,19.45,0l2.6.52c.98.2,1.75.96,1.95,1.95l.52,2.6c1.28,6.42,1.28,13.03,0,19.45l-.52,2.6c-.2.98-.96,1.75-1.95,1.95Z" style="fill: none; stroke: #ed1c24; stroke-miterlimit: 10; stroke-width: 4px;"/>
</svg>