<?xml version="1.0" encoding="UTF-8"?>
<svg id="building-shop" xmlns="http://www.w3.org/2000/svg" viewBox="0 0 72 72">
  <path d="M61.31,30.38l-2.53-15.2c-.16-.96-1-1.67-1.97-1.67H15.19c-.98,0-1.81.71-1.97,1.67l-2.53,15.2c-.59,3.52.58,6.73,2.83,8.55h-.01v17.57c0,1.1.9,2,2,2h16v-11.5c0-1.1.9-2,2-2h5c1.1,0,2,.9,2,2v11.5h16c1.1,0,2-.9,2-2v-17.57h-.01c2.25-1.82,3.41-5.03,2.83-8.55Z" style="fill: #ed2024; opacity: .5;"/>
  <path d="M61.31,30.38c.9,5.43-2.34,10.13-7.31,10.13s-9.26-4.7-9.56-10.13c.3,5.43-3.47,10.13-8.44,10.13s-8.74-4.7-8.44-10.13c-.3,5.43-4.59,10.13-9.56,10.13s-8.22-4.7-7.31-10.13l2.53-15.2c.16-.96,1-1.67,1.97-1.67h41.61c.98,0,1.81.71,1.97,1.67l2.53,15.2Z" style="fill: none; stroke: #000; stroke-miterlimit: 10; stroke-width: 4px;"/>
  <path d="M40.5,58.5v-11.5c0-1.1-.9-2-2-2h-5c-1.1,0-2,.9-2,2v11.5" style="fill: none; stroke: #ed2024; stroke-miterlimit: 10; stroke-width: 4px;"/>
  <path d="M13.5,38.93v17.57c0,1.1.9,2,2,2h41c1.1,0,2-.9,2-2v-17.57" style="fill: none; stroke: #000; stroke-miterlimit: 10; stroke-width: 4px;"/>
</svg>