<?xml version="1.0" encoding="UTF-8"?>
<svg id="folder-subtract_2" data-name="folder-subtract 2" xmlns="http://www.w3.org/2000/svg" viewBox="0 0 72 72">
  <path d="M17.5,58.5h37c2.21,0,4-1.79,4-4v-28c0-2.21-1.79-4-4-4h-18.5l-3.39-6.79c-.68-1.36-2.06-2.21-3.58-2.21h-11.53c-2.21,0-4,1.79-4,4v37c0,2.21,1.79,4,4,4Z" style="fill: #ed2024; opacity: .5;"/>
  <line x1="40.5" y1="49.5" x2="58.5" y2="49.5" style="fill: none; stroke: #010101; stroke-miterlimit: 10; stroke-width: 4px;"/>
  <line x1="13.5" y1="31.5" x2="58.5" y2="31.5" style="fill: none; stroke: #ed2024; stroke-miterlimit: 10; stroke-width: 4px;"/>
  <path d="M58.5,40.5v-14c0-2.21-1.79-4-4-4h-18.5l-3.39-6.79c-.68-1.36-2.06-2.21-3.58-2.21h-11.53c-2.21,0-4,1.79-4,4v37c0,2.21,1.79,4,4,4h23" style="fill: none; stroke: #010101; stroke-miterlimit: 10; stroke-width: 4px;"/>
</svg>