<?xml version="1.0" encoding="UTF-8"?>
<svg id="file-add" xmlns="http://www.w3.org/2000/svg" viewBox="0 0 72 72">
  <path d="M40.5,9h-23c-2.21,0-4,1.79-4,4v46c0,2.21,1.79,4,4,4h37c2.21,0,4-1.79,4-4V27l-18-18Z" style="fill: #ed2024; opacity: .5;"/>
  <line x1="27" y1="45" x2="45" y2="45" style="fill: none; stroke: #010101; stroke-miterlimit: 10; stroke-width: 4px;"/>
  <line x1="36" y1="36" x2="36" y2="54" style="fill: none; stroke: #010101; stroke-miterlimit: 10; stroke-width: 4px;"/>
  <path d="M40.5,9v14c0,2.21,1.79,4,4,4h14" style="fill: none; stroke: #ed2024; stroke-linecap: round; stroke-miterlimit: 10; stroke-width: 4px;"/>
  <path d="M40.5,9h-23c-2.21,0-4,1.79-4,4v46c0,2.21,1.79,4,4,4h37c2.21,0,4-1.79,4-4V27l-18-18Z" style="fill: none; stroke: #010101; stroke-linecap: round; stroke-miterlimit: 10; stroke-width: 4px;"/>
</svg>