<?xml version="1.0" encoding="UTF-8"?>
<svg id="flag-golf" xmlns="http://www.w3.org/2000/svg" viewBox="0 0 72 72">
  <path d="M58.16,60.01l-2.47.49c-6.1,1.22-12.37,1.22-18.47,0l-2.47-.49c-.93-.19-1.66-.91-1.85-1.85l-.49-2.47c-1.22-6.1-1.22-12.37,0-18.47l.49-2.47c.19-.93.91-1.66,1.85-1.85l2.47-.49c6.1-1.22,12.37-1.22,18.47,0l2.47.49c.93.19,1.66.91,1.85,1.85l.49,2.47c1.22,6.1,1.22,12.37,0,18.47l-.49,2.47c-.19.93-.91,1.66-1.85,1.85Z" style="fill: #ed1c24; opacity: .5; stroke: #231f20; stroke-miterlimit: 10; stroke-width: 4px;"/>
  <path d="M32.42,37.23l.49-2.47c.19-.93.91-1.66,1.85-1.85l2.47-.49c.94-.19,1.88-.34,2.83-.47.71-5.2.56-10.48-.47-15.64l-.49-2.47c-.19-.93-.92-1.66-1.85-1.85l-2.47-.49c-6.1-1.22-12.37-1.22-18.47,0l-2.47.49c-.93.19-1.66.91-1.85,1.85l-.49,2.47c-1.22,6.1-1.22,12.37,0,18.47l.49,2.47c.19.93.92,1.66,1.85,1.85l2.47.49c5.16,1.03,10.44,1.18,15.64.47.13-.95.28-1.89.47-2.83Z" style="fill: none; stroke: #ed1c24; stroke-miterlimit: 10; stroke-width: 4px;"/>
  <path d="M58.16,60.01l-2.47.49c-6.1,1.22-12.37,1.22-18.47,0l-2.47-.49c-.93-.19-1.66-.91-1.85-1.85l-.49-2.47c-1.22-6.1-1.22-12.37,0-18.47l.49-2.47c.19-.93.91-1.66,1.85-1.85l2.47-.49c6.1-1.22,12.37-1.22,18.47,0l2.47.49c.93.19,1.66.91,1.85,1.85l.49,2.47c1.22,6.1,1.22,12.37,0,18.47l-.49,2.47c-.19.93-.91,1.66-1.85,1.85Z" style="fill: none; stroke: #231f20; stroke-miterlimit: 10; stroke-width: 4px;"/>
</svg>