<svg id="key-mac-command" xmlns="http://www.w3.org/2000/svg" viewBox="0 0 72 72"><path d="M18,9c-4.97,0-9,4.03-9,9s4.03,9,9,9h9v-9c0-4.97-4.03-9-9-9Z" style="fill: none; stroke: var(--icon-stroke-color, currentColor); stroke-miterlimit: 10; stroke-width:var(--icon-stroke-width-m, calc(var(--icon-stroke-width, 5) * 1));"/><path d="M63,18c0-4.97-4.03-9-9-9s-9,4.03-9,9v9h9c4.97,0,9-4.03,9-9Z" style="fill: none; stroke: var(--icon-stroke-color, currentColor); stroke-miterlimit: 10; stroke-width:var(--icon-stroke-width-m, calc(var(--icon-stroke-width, 5) * 1));"/><path d="M54,63c4.97,0,9-4.03,9-9s-4.03-9-9-9h-9v9c0,4.97,4.03,9,9,9Z" style="fill: none; stroke: var(--icon-stroke-color, currentColor); stroke-miterlimit: 10; stroke-width:var(--icon-stroke-width-m, calc(var(--icon-stroke-width, 5) * 1));"/><path d="M9,54c0,4.97,4.03,9,9,9s9-4.03,9-9v-9h-9c-4.97,0-9,4.03-9,9Z" style="fill: none; stroke: var(--icon-stroke-color, currentColor); stroke-miterlimit: 10; stroke-width:var(--icon-stroke-width-m, calc(var(--icon-stroke-width, 5) * 1));"/><rect x="27" y="27" width="18" height="18" style="fill: none; stroke: var(--icon-stroke-color, currentColor); stroke-miterlimit: 10; stroke-width:var(--icon-stroke-width-m, calc(var(--icon-stroke-width, 5) * 1));"/></svg>
