<svg id="key-eject" xmlns="http://www.w3.org/2000/svg" viewBox="0 0 72 72"><path d="M36,36h20.09c.89,0,1.34-1.08.71-1.71l-20.79-20.79-20.79,20.79c-.63.63-.18,1.71.71,1.71h20.09Z" style="fill: var(--icon-fill, rgba(0, 0, 0, 0)); opacity: var(--icon-fill-opacity, 1);"/><path d="M14,45h44v7c0,1.1-.9,2-2,2H16c-1.1,0-2-.9-2-2v-7h0Z" style="fill: var(--icon-fill, rgba(0, 0, 0, 0)); opacity: var(--icon-fill-opacity, 1);"/><path d="M36,36h20.09c.89,0,1.34-1.08.71-1.71l-20.79-20.79-20.79,20.79c-.63.63-.18,1.71.71,1.71h20.09Z" style="fill: none; stroke: var(--icon-stroke-color, currentColor); stroke-miterlimit: 10; stroke-width:var(--icon-stroke-width-m, calc(var(--icon-stroke-width, 5) * 1));"/><path d="M14,45h44v7c0,1.1-.9,2-2,2H16c-1.1,0-2-.9-2-2v-7h0Z" style="fill: none; stroke: var(--icon-stroke-color, currentColor); stroke-miterlimit: 10; stroke-width:var(--icon-stroke-width-m, calc(var(--icon-stroke-width, 5) * 1));"/></svg>
