<svg id="key-shift" xmlns="http://www.w3.org/2000/svg" viewBox="0 0 72 72"><path d="M11.76,36h10.74v17c0,.55.45,1,1,1h25c.55,0,1-.45,1-1v-17h10.74c.94,0,1.36-1.17.64-1.77l-24.88-20.73-24.88,20.73c-.72.6-.3,1.77.64,1.77Z" style="fill: var(--icon-fill, rgba(0, 0, 0, 0)); opacity: var(--icon-fill-opacity, 1);"/><path d="M11.76,36h10.74v17c0,.55.45,1,1,1h25c.55,0,1-.45,1-1v-17h10.74c.94,0,1.36-1.17.64-1.77l-24.88-20.73-24.88,20.73c-.72.6-.3,1.77.64,1.77Z" style="fill: none; stroke: var(--icon-stroke-color, currentColor); stroke-miterlimit: 10; stroke-width:var(--icon-stroke-width-m, calc(var(--icon-stroke-width, 5) * 1));"/></svg>
