<svg id="key-tab" xmlns="http://www.w3.org/2000/svg" viewBox="0 0 72 72"><path d="M11.76,31.5h10.74v9h27v-9h10.74c.94,0,1.36-1.17.64-1.77l-24.88-20.73L11.12,29.73c-.72.6-.3,1.77.64,1.77Z" style="fill: var(--icon-fill, rgba(0, 0, 0, 0)); opacity: var(--icon-fill-opacity, 1);"/><path d="M22.5,49.5h27v7c0,1.1-.9,2-2,2h-23c-1.1,0-2-.9-2-2v-7h0Z" style="fill: var(--icon-fill, rgba(0, 0, 0, 0)); opacity: var(--icon-fill-opacity, 1);"/><path d="M11.76,31.5h10.74v9h27v-9h10.74c.94,0,1.36-1.17.64-1.77l-24.88-20.73L11.12,29.73c-.72.6-.3,1.77.64,1.77Z" style="fill: none; stroke: var(--icon-stroke-color, currentColor); stroke-miterlimit: 10; stroke-width:var(--icon-stroke-width-m, calc(var(--icon-stroke-width, 5) * 1));"/><path d="M22.5,49.5h27v7c0,1.1-.9,2-2,2h-23c-1.1,0-2-.9-2-2v-7h0Z" style="fill: none; stroke: var(--icon-stroke-color, currentColor); stroke-miterlimit: 10; stroke-width:var(--icon-stroke-width-m, calc(var(--icon-stroke-width, 5) * 1));"/></svg>
