<?xml version="1.0" encoding="UTF-8"?>
<svg id="key-shift" xmlns="http://www.w3.org/2000/svg" viewBox="0 0 72 72">
  <path d="M11.76,36h10.74v17c0,.55.45,1,1,1h25c.55,0,1-.45,1-1v-17h10.74c.94,0,1.36-1.17.64-1.77l-24.88-20.73-24.88,20.73c-.72.6-.3,1.77.64,1.77Z" style="fill: #ed1c24; opacity: .5;"/>
  <path d="M11.76,36h10.74v17c0,.55.45,1,1,1h25c.55,0,1-.45,1-1v-17h10.74c.94,0,1.36-1.17.64-1.77l-24.88-20.73-24.88,20.73c-.72.6-.3,1.77.64,1.77Z" style="fill: none; stroke: #000; stroke-miterlimit: 10; stroke-width: 4px;"/>
</svg>