<?xml version="1.0" encoding="UTF-8"?>
<svg id="flag-golf" xmlns="http://www.w3.org/2000/svg" viewBox="0 0 72 72">
  <path d="M35.33,43.04l3.86-3.86,1.41-4.95,4.95-1.41,1.41-4.95,4.95-1.41,3.18-3.18v-6.36h-6.36l-19.76,19.76c-4.04-1.58-8.8-.75-12.06,2.52-4.39,4.39-4.39,11.52,0,15.91s11.52,4.39,15.91,0c3.26-3.26,4.09-8.02,2.51-12.05ZM21.5,50.5c-.88-.88-.88-2.3,0-3.18s2.3-.88,3.18,0c.88.88.88,2.3,0,3.18-.88.88-2.3.88-3.18,0Z" style="fill: #ed1c24; opacity: .5;"/>
  <path d="M35.33,43.04l3.86-3.86,1.41-4.95,4.95-1.41,1.41-4.95,4.95-1.41,3.18-3.18v-6.36h-6.36l-19.76,19.76c-4.04-1.58-8.8-.75-12.06,2.52-4.39,4.39-4.39,11.52,0,15.91s11.52,4.39,15.91,0c3.26-3.26,4.09-8.02,2.51-12.05Z" style="fill: none; stroke: #231f20; stroke-linecap: square; stroke-miterlimit: 10; stroke-width: 4px;"/>
  <circle cx="23.1" cy="48.9" r="2.25" style="fill: none; stroke: #231f20; stroke-linecap: square; stroke-miterlimit: 10; stroke-width: 4px;"/>
</svg>