<?xml version="1.0" encoding="UTF-8"?>
<svg id="layers-3-dotted" xmlns="http://www.w3.org/2000/svg" viewBox="0 0 72 72">
  <rect x="27" y="27" width="31.5" height="31.5" rx="2" ry="2" style="fill: #ed1c24; opacity: .5;"/>
  <g>
    <line x1="18" y1="40.5" x2="16" y2="40.5" style="fill: none; stroke: #ed1c24; stroke-linejoin: round; stroke-width: 4px;"/>
    <path d="M12.08,40.5h-1.08c-1.1,0-2-.9-2-2V11c0-1.1.9-2,2-2h27.5c1.1,0,2,.9,2,2v3.04" style="fill: none; stroke: #ed1c24; stroke-dasharray: 3.92 3.92; stroke-linejoin: round; stroke-width: 4px;"/>
    <line x1="40.5" y1="16" x2="40.5" y2="18" style="fill: none; stroke: #ed1c24; stroke-linejoin: round; stroke-width: 4px;"/>
  </g>
  <g>
    <line x1="27" y1="49.5" x2="25" y2="49.5" style="fill: none; stroke: #ed1c24; stroke-linejoin: round; stroke-width: 4px;"/>
    <path d="M21.08,49.5h-1.08c-1.1,0-2-.9-2-2v-27.5c0-1.1.9-2,2-2h27.5c1.1,0,2,.9,2,2v3.04" style="fill: none; stroke: #ed1c24; stroke-dasharray: 3.92 3.92; stroke-linejoin: round; stroke-width: 4px;"/>
    <line x1="49.5" y1="25" x2="49.5" y2="27" style="fill: none; stroke: #ed1c24; stroke-linejoin: round; stroke-width: 4px;"/>
  </g>
  <rect x="27" y="27" width="31.5" height="31.5" rx="2" ry="2" style="fill: none; stroke: #231f20; stroke-miterlimit: 10; stroke-width: 4px;"/>
</svg>