<?xml version="1.0" encoding="UTF-8"?>
<svg id="note-edit_2" data-name="note-edit 2" xmlns="http://www.w3.org/2000/svg" viewBox="0 0 72 72">
  <g style="opacity: .5;">
    <rect x="13.5" y="13.5" width="45" height="45" rx="4" ry="4" style="fill: #ed2024;"/>
  </g>
  <g>
    <path d="M58.5,41.5v-24c0-2.21-1.79-4-4-4H17.5c-2.21,0-4,1.79-4,4v37c0,2.21,1.79,4,4,4h23" style="fill: none; stroke: #010101; stroke-miterlimit: 10; stroke-width: 4px;"/>
    <path d="M58.5,41.5v-24c0-2.21-1.79-4-4-4H17.5c-2.21,0-4,1.79-4,4v37c0,2.21,1.79,4,4,4h23" style="fill: none; stroke: #010101; stroke-miterlimit: 10; stroke-width: 4px;"/>
  </g>
  <line x1="22.5" y1="6.5" x2="22.5" y2="20" style="fill: #010101; stroke: #ed2024; stroke-miterlimit: 10; stroke-width: 4px;"/>
  <line x1="31.5" y1="6.5" x2="31.5" y2="20" style="fill: #010101; stroke: #ed2024; stroke-miterlimit: 10; stroke-width: 4px;"/>
  <line x1="40.5" y1="6.5" x2="40.5" y2="20" style="fill: #010101; stroke: #ed2024; stroke-miterlimit: 10; stroke-width: 4px;"/>
  <line x1="49.5" y1="6.5" x2="49.5" y2="20" style="fill: #010101; stroke: #ed2024; stroke-miterlimit: 10; stroke-width: 4px;"/>
  <g>
    <path d="M51.14,57.03l7.36,1.47-1.47-7.36c-.08-.39-.27-.74-.55-1.02l-14.07-14.07c-.78-.78-2.05-.78-2.83,0l-3.54,3.54c-.78.78-.78,2.05,0,2.83l14.07,14.07c.28.28.63.47,1.02.55Z" style="fill: none; stroke: #231f20; stroke-miterlimit: 10; stroke-width: 4px;"/>
    <line x1="39.41" y1="45.77" x2="45.77" y2="39.41" style="fill: none; stroke: #231f20; stroke-miterlimit: 10; stroke-width: 4px;"/>
  </g>
</svg>