<?xml version="1.0" encoding="UTF-8"?>
<svg id="note-star_2" data-name="note-star 2" xmlns="http://www.w3.org/2000/svg" viewBox="0 0 72 72">
  <g style="opacity: .5;">
    <rect x="13.5" y="13.5" width="45" height="45" rx="4" ry="4" style="fill: #ed2024;"/>
  </g>
  <g>
    <path d="M58.5,41.5v-24c0-2.21-1.79-4-4-4H17.5c-2.21,0-4,1.79-4,4v37c0,2.21,1.79,4,4,4h18.5" style="fill: none; stroke: #010101; stroke-miterlimit: 10; stroke-width: 4px;"/>
    <path d="M58.5,41.5v-24c0-2.21-1.79-4-4-4H17.5c-2.21,0-4,1.79-4,4v37c0,2.21,1.79,4,4,4h18.5" style="fill: none; stroke: #010101; stroke-miterlimit: 10; stroke-width: 4px;"/>
  </g>
  <line x1="22.5" y1="6.5" x2="22.5" y2="20" style="fill: #010101; stroke: #ed2024; stroke-miterlimit: 10; stroke-width: 4px;"/>
  <line x1="31.5" y1="6.5" x2="31.5" y2="20" style="fill: #010101; stroke: #ed2024; stroke-miterlimit: 10; stroke-width: 4px;"/>
  <line x1="40.5" y1="6.5" x2="40.5" y2="20" style="fill: #010101; stroke: #ed2024; stroke-miterlimit: 10; stroke-width: 4px;"/>
  <line x1="49.5" y1="6.5" x2="49.5" y2="20" style="fill: #010101; stroke: #ed2024; stroke-miterlimit: 10; stroke-width: 4px;"/>
  <path d="M50.22,56.93l8.18,5.85c.39.28.91-.1.76-.56l-3.18-9.55,8.09-5.98c.39-.28.18-.9-.3-.89l-10.06.08-3.18-9.55c-.15-.45-.8-.45-.94,0l-3.04,9.59-10.06.08c-.48,0-.67.62-.28.9l8.18,5.85-3.04,9.59c-.14.46.38.83.76.55l8.09-5.98Z" style="fill: none; stroke: #231f20; stroke-miterlimit: 10; stroke-width: 4px;"/>
</svg>