<svg id="flag-golf" xmlns="http://www.w3.org/2000/svg" viewBox="0 0 72 72"><rect x="13.5" y="40.5" width="45" height="22.5" style="fill: var(--icon-fill, rgba(0, 0, 0, 0)); opacity: var(--icon-fill-opacity, 1);"/><line x1="22.5" y1="49.5" x2="22.5" y2="63" style="fill: var(--icon-fill-secondary, white); stroke: var(--icon-stroke-color-secondary, var(--icon-stroke-color, currentColor)); stroke-miterlimit: 10; stroke-width:var(--icon-stroke-width-secondary-m, var(--icon-stroke-width-m, calc(var(--icon-stroke-width, 5) * 1)));"/><line x1="31.5" y1="45" x2="31.5" y2="63" style="fill: var(--icon-fill-secondary, white); stroke: var(--icon-stroke-color-secondary, var(--icon-stroke-color, currentColor)); stroke-miterlimit: 10; stroke-width:var(--icon-stroke-width-secondary-m, var(--icon-stroke-width-m, calc(var(--icon-stroke-width, 5) * 1)));"/><path d="M13.5,40.5v-5c0-2.21,1.79-4,4-4h10c2.21,0,4-1.79,4-4v-8.56c0-.62-.14-1.23-.42-1.79l-1.18-2.37c-1.33-2.66.6-5.79,3.58-5.79h5.06c2.97,0,4.91,3.13,3.58,5.79l-1.18,2.37c-.28.56-.42,1.17-.42,1.79v8.56c0,2.21,1.79,4,4,4h10c2.21,0,4,1.79,4,4v5H13.5Z" style="fill: none; stroke: var(--icon-stroke-color, currentColor); stroke-miterlimit: 10; stroke-width:var(--icon-stroke-width-m, calc(var(--icon-stroke-width, 5) * 1));"/><rect x="13.5" y="40.5" width="45" height="22.5" style="fill: none; stroke: var(--icon-stroke-color, currentColor); stroke-miterlimit: 10; stroke-width:var(--icon-stroke-width-m, calc(var(--icon-stroke-width, 5) * 1));"/></svg>
