<?xml version="1.0" encoding="UTF-8"?>
<svg id="flag-golf" xmlns="http://www.w3.org/2000/svg" viewBox="0 0 72 72">
  <polygon points="20.12 54 28.36 35.94 64.9 48.47 63 54 20.12 54" style="fill: #ed1c24; opacity: .5;"/>
  <line x1="33.16" y1="45.75" x2="30.33" y2="54" style="fill: #fff; stroke: #ed1c24; stroke-miterlimit: 10; stroke-width: 4px;"/>
  <line x1="41.72" y1="44.6" x2="38.43" y2="54.21" style="fill: #fff; stroke: #ed1c24; stroke-miterlimit: 10; stroke-width: 4px;"/>
  <path d="M28.36,35.94l1.39-4.06c.62-1.79,2.57-2.75,4.36-2.13l8.12,2.78c1.79.62,3.75-.34,4.36-2.13l2.38-6.95c.17-.5.23-1.04.16-1.57l-.3-2.25c-.34-2.53,2.1-4.53,4.52-3.7l4.11,1.41c2.41.83,3.11,3.91,1.29,5.7l-1.62,1.59c-.38.37-.67.83-.84,1.34l-2.38,6.95c-.62,1.79.34,3.75,2.13,4.36l8.12,2.78c1.79.62,2.75,2.57,2.13,4.36l-1.39,4.06-36.54-12.53Z" style="fill: none; stroke: #231f20; stroke-miterlimit: 10; stroke-width: 4px;"/>
  <polygon points="20.12 54 28.36 35.94 64.9 48.47 63 54 20.12 54" style="fill: none; stroke: #231f20; stroke-miterlimit: 10; stroke-width: 4px;"/>
  <line x1="4.5" y1="54" x2="67.5" y2="54" style="fill: none; stroke: #231f20; stroke-miterlimit: 10; stroke-width: 4px;"/>
</svg>