<?xml version="1.0" encoding="UTF-8"?>
<svg id="planner" xmlns="http://www.w3.org/2000/svg" xmlns:xlink="http://www.w3.org/1999/xlink" viewBox="0 0 72 72">
  <defs>
    <clipPath id="clippath">
      <rect x="9" y="13.5" width="54" height="49.5" rx="4" ry="4" style="fill: none;"/>
    </clipPath>
  </defs>
  <g style="clip-path: url(#clippath);">
    <g>
      <rect x="4.5" y="22.5" width="18" height="9" rx="1" ry="1" style="fill: #ed2024; opacity: .5;"/>
      <rect x="18" y="40.5" width="13.5" height="9" rx="1" ry="1" style="fill: #ed2024; opacity: .5;"/>
      <rect x="-4.5" y="40.5" width="13.5" height="9" rx="1" ry="1" style="fill: #ed2024; opacity: .5;"/>
      <rect x="40.5" y="22.5" width="13.5" height="9" rx="1" ry="1" style="fill: #ed2024; opacity: .5;"/>
      <rect x="40.5" y="54" width="27" height="9" rx="1" ry="1" style="fill: #ed2024; opacity: .5;"/>
      <rect x="4.5" y="22.5" width="18" height="9" rx="1" ry="1" style="fill: none; stroke: #ed2024; stroke-miterlimit: 10; stroke-width: 4px;"/>
      <rect x="18" y="40.5" width="13.5" height="9" rx="1" ry="1" style="fill: none; stroke: #ed2024; stroke-miterlimit: 10; stroke-width: 4px;"/>
      <rect x="72" y="40.5" width="13.5" height="9" rx="1" ry="1" style="fill: none; stroke: #ed2024; stroke-miterlimit: 10; stroke-width: 4px;"/>
      <rect x="-4.5" y="40.5" width="13.5" height="9" rx="1" ry="1" style="fill: none; stroke: #ed2024; stroke-miterlimit: 10; stroke-width: 4px;"/>
      <rect x="40.5" y="22.5" width="13.5" height="9" rx="1" ry="1" style="fill: none; stroke: #ed2024; stroke-miterlimit: 10; stroke-width: 4px;"/>
      <rect x="40.5" y="54" width="27" height="9" rx="1" ry="1" style="fill: none; stroke: #ed2024; stroke-miterlimit: 10; stroke-width: 4px;"/>
    </g>
  </g>
  <rect x="9" y="13.5" width="54" height="49.5" rx="4" ry="4" style="fill: none; stroke: #231f20; stroke-miterlimit: 10; stroke-width: 4px;"/>
  <line x1="18" y1="9" x2="18" y2="18" style="fill: none; stroke: #231f20; stroke-linecap: round; stroke-miterlimit: 10; stroke-width: 4px;"/>
  <line x1="36" y1="9" x2="36" y2="18" style="fill: none; stroke: #231f20; stroke-linecap: round; stroke-miterlimit: 10; stroke-width: 4px;"/>
  <line x1="27" y1="9" x2="27" y2="18" style="fill: none; stroke: #231f20; stroke-linecap: round; stroke-miterlimit: 10; stroke-width: 4px;"/>
  <line x1="45" y1="9" x2="45" y2="18" style="fill: none; stroke: #231f20; stroke-linecap: round; stroke-miterlimit: 10; stroke-width: 4px;"/>
  <line x1="54" y1="9" x2="54" y2="18" style="fill: none; stroke: #231f20; stroke-linecap: round; stroke-miterlimit: 10; stroke-width: 4px;"/>
</svg>