<?xml version="1.0" encoding="UTF-8"?>
<svg id="pointer-pen" xmlns="http://www.w3.org/2000/svg" viewBox="0 0 72 72">
  <path d="M36,9l-15.55,27.21c-1.5,2.63-1.39,5.89.29,8.41l6.26,9.39h18l6.26-9.39c1.68-2.52,1.79-5.78.29-8.41l-15.55-27.21Z" style="fill: #ed1e2b; opacity: .5;"/>
  <line x1="36" y1="36" x2="36" y2="9" style="fill: none; stroke: #ed1e2b; stroke-miterlimit: 10; stroke-width: 4px;"/>
  <path d="M36,9l-15.55,27.21c-1.5,2.63-1.39,5.89.29,8.41l6.26,9.39h18l6.26-9.39c1.68-2.52,1.79-5.78.29-8.41l-15.55-27.21Z" style="fill: none; stroke: #000; stroke-miterlimit: 10; stroke-width: 4px;"/>
  <path d="M27,54h18v7c0,1.1-.9,2-2,2h-14c-1.1,0-2-.9-2-2v-7h0Z" style="fill: none; stroke: #000; stroke-miterlimit: 10; stroke-width: 4px;"/>
</svg>