<?xml version="1.0" encoding="UTF-8"?>
<svg id="flag-golf" xmlns="http://www.w3.org/2000/svg" viewBox="0 0 72 72">
  <path d="M55.89,59.02l-4.2.84c-10.36,2.07-21.02,2.07-31.38,0l-4.2-.84c-1.58-.32-2.82-1.55-3.14-3.14l-.84-4.2c-2.07-10.36-2.07-21.02,0-31.38l.84-4.2c.32-1.58,1.55-2.82,3.14-3.14l4.2-.84c10.36-2.07,21.02-2.07,31.38,0l4.2.84c1.58.32,2.82,1.55,3.14,3.14l.84,4.2c2.07,10.36,2.07,21.02,0,31.38l-.84,4.2c-.32,1.58-1.55,2.82-3.14,3.14Z" style="fill: #ed1c24; opacity: .5; stroke: #231f20; stroke-miterlimit: 10; stroke-width: 4px;"/>
  <line x1="27" y1="11.09" x2="27" y2="60.91" style="fill: none; stroke: #ed1c24; stroke-miterlimit: 10; stroke-width: 4px;"/>
  <line x1="45" y1="11.09" x2="45" y2="60.91" style="fill: none; stroke: #ed1c24; stroke-miterlimit: 10; stroke-width: 4px;"/>
  <line x1="11.09" y1="27" x2="60.91" y2="27" style="fill: none; stroke: #ed1c24; stroke-miterlimit: 10; stroke-width: 4px;"/>
  <line x1="11.09" y1="45" x2="60.91" y2="45" style="fill: none; stroke: #ed1c24; stroke-miterlimit: 10; stroke-width: 4px;"/>
  <path d="M55.89,59.02l-4.2.84c-10.36,2.07-21.02,2.07-31.38,0l-4.2-.84c-1.58-.32-2.82-1.55-3.14-3.14l-.84-4.2c-2.07-10.36-2.07-21.02,0-31.38l.84-4.2c.32-1.58,1.55-2.82,3.14-3.14l4.2-.84c10.36-2.07,21.02-2.07,31.38,0l4.2.84c1.58.32,2.82,1.55,3.14,3.14l.84,4.2c2.07,10.36,2.07,21.02,0,31.38l-.84,4.2c-.32,1.58-1.55,2.82-3.14,3.14Z" style="fill: none; stroke: #231f20; stroke-miterlimit: 10; stroke-width: 4px;"/>
</svg>