<svg id="flag-golf" xmlns="http://www.w3.org/2000/svg" viewBox="0 0 72 72"><path d="M59.86,20.31l-.84-4.2c-.32-1.58-1.55-2.82-3.14-3.14l-4.2-.84c-10.36-2.07-21.02-2.07-31.38,0l-4.2.84c-1.58.32-2.82,1.55-3.14,3.14l-.84,4.2c-2.07,10.36-2.07,21.02,0,31.38l.84,4.2c.32,1.58,1.55,2.82,3.14,3.14l4.2.84c10.36,2.07,21.02,2.07,31.38,0l4.2-.84c1.58-.32,2.82-1.55,3.14-3.14l.84-4.2c2.07-10.36,2.07-21.02,0-31.38ZM50.79,45.73l-.52,2.6c-.2.98-.96,1.75-1.95,1.95l-2.6.52c-6.42,1.28-13.03,1.28-19.45,0l-2.6-.52c-.98-.2-1.75-.96-1.95-1.95l-.52-2.6c-1.28-6.42-1.28-13.03,0-19.45l.52-2.6c.2-.98.96-1.75,1.95-1.95l2.6-.52c6.42-1.28,13.03-1.28,19.45,0l2.6.52c.98.2,1.75.96,1.95,1.95l.52,2.6c1.28,6.42,1.28,13.03,0,19.45Z" style="fill: var(--icon-fill, rgba(0, 0, 0, 0)); opacity: var(--icon-fill-opacity, 1); stroke: var(--icon-stroke-color, currentColor); stroke-miterlimit: 10; stroke-width:var(--icon-stroke-width-m, calc(var(--icon-stroke-width, 5) * 1));"/><path d="M55.89,59.02l-4.2.84c-10.36,2.07-21.02,2.07-31.38,0l-4.2-.84c-1.58-.32-2.82-1.55-3.14-3.14l-.84-4.2c-2.07-10.36-2.07-21.02,0-31.38l.84-4.2c.32-1.58,1.55-2.82,3.14-3.14l4.2-.84c10.36-2.07,21.02-2.07,31.38,0l4.2.84c1.58.32,2.82,1.55,3.14,3.14l.84,4.2c2.07,10.36,2.07,21.02,0,31.38l-.84,4.2c-.32,1.58-1.55,2.82-3.14,3.14Z" style="fill: none; stroke: var(--icon-stroke-color, currentColor); stroke-miterlimit: 10; stroke-width:var(--icon-stroke-width-m, calc(var(--icon-stroke-width, 5) * 1));"/><path d="M48.33,50.27l-2.6.52c-6.42,1.28-13.03,1.28-19.45,0l-2.6-.52c-.98-.2-1.75-.96-1.95-1.95l-.52-2.6c-1.28-6.42-1.28-13.03,0-19.45l.52-2.6c.2-.98.96-1.75,1.95-1.95l2.6-.52c6.42-1.28,13.03-1.28,19.45,0l2.6.52c.98.2,1.75.96,1.95,1.95l.52,2.6c1.28,6.42,1.28,13.03,0,19.45l-.52,2.6c-.2.98-.96,1.75-1.95,1.95Z" style="fill: none; stroke: var(--icon-stroke-color-secondary, var(--icon-stroke-color, currentColor)); stroke-miterlimit: 10; stroke-width:var(--icon-stroke-width-secondary-m, var(--icon-stroke-width-m, calc(var(--icon-stroke-width, 5) * 1)));"/></svg>
