<?xml version="1.0" encoding="UTF-8"?>
<svg id="shovel" xmlns="http://www.w3.org/2000/svg" viewBox="0 0 72 72">
  <polygon points="50.86 17.95 28.59 40.23 27 45 31.77 43.41 54.05 21.14 50.86 17.95" style="fill: #ed1c24; opacity: .5;"/>
  <path d="M27,45l1.59-4.77-7.95-7.96S1.54,45,11.09,60.91c15.91,9.55,28.64-9.55,28.64-9.55l-7.96-7.96-4.77,1.59Z" style="fill: #ed1c24; opacity: .5;"/>
  <polygon points="50.86 17.95 28.59 40.23 27 45 31.77 43.41 54.05 21.14 50.86 17.95" style="fill: none; stroke: #231f20; stroke-miterlimit: 10; stroke-width: 4px;"/>
  <path d="M52.46,6.82l-3.18,3.18c-1.76,1.76-1.76,4.61,0,6.36l3.18,3.18,3.18,3.18c1.76,1.76,4.61,1.76,6.36,0l3.18-3.18-12.73-12.73Z" style="fill: none; stroke: #231f20; stroke-miterlimit: 10; stroke-width: 4px;"/>
  <path d="M27,45l1.59-4.77-7.95-7.96S1.54,45,11.09,60.91c15.91,9.55,28.64-9.55,28.64-9.55l-7.96-7.96-4.77,1.59Z" style="fill: none; stroke: #231f20; stroke-miterlimit: 10; stroke-width: 4px;"/>
</svg>