<?xml version="1.0" encoding="UTF-8"?>
<svg id="speech-balloon-square_2" data-name="speech-balloon-square 2" xmlns="http://www.w3.org/2000/svg" viewBox="0 0 72 72">
  <path d="M54.5,13.5H17.5c-2.21,0-4,1.79-4,4v28c0,2.21,1.79,4,4,4h23l9,9v-9h5c2.21,0,4-1.79,4-4v-28c0-2.21-1.79-4-4-4Z" style="fill: #ed2024; opacity: .5;"/>
  <path d="M54.5,13.5H17.5c-2.21,0-4,1.79-4,4v28c0,2.21,1.79,4,4,4h23l9,9v-9h5c2.21,0,4-1.79,4-4v-28c0-2.21-1.79-4-4-4Z" style="fill: none; stroke: #000; stroke-miterlimit: 10; stroke-width: 4px;"/>
</svg>