<?xml version="1.0" encoding="UTF-8"?>
<svg id="speech-balloons" xmlns="http://www.w3.org/2000/svg" viewBox="0 0 72 72">
  <path d="M63,40.5c0-11.18-9.07-16.2-20.25-16.2s-20.25,5.02-20.25,16.2,9.07,16.2,20.25,16.2c2.98,0,5.8-.37,8.35-1.1l5.7,5.7c.63.63,1.71.18,1.71-.71v-8.98c2.81-2.62,4.5-6.29,4.5-11.11Z" style="fill: #ed2024; opacity: .5;"/>
  <path d="M49.16,24.92c-1.71-8.74-9.97-12.71-19.91-12.71-11.18,0-20.25,5.02-20.25,16.2,0,4.82,1.69,8.49,4.5,11.11v8.98c0,.89,1.08,1.34,1.71.71l5.7-5.7c.63.18,1.28.34,1.94.48" style="fill: none; stroke: #ed2024; stroke-miterlimit: 10; stroke-width: 4px;"/>
  <path d="M63,40.5c0-11.18-9.07-16.2-20.25-16.2s-20.25,5.02-20.25,16.2,9.07,16.2,20.25,16.2c2.98,0,5.8-.37,8.35-1.1l5.7,5.7c.63.63,1.71.18,1.71-.71v-8.98c2.81-2.62,4.5-6.29,4.5-11.11Z" style="fill: none; stroke: #231f20; stroke-miterlimit: 10; stroke-width: 4px;"/>
</svg>