<svg id="squared-star" xmlns="http://www.w3.org/2000/svg" viewBox="0 0 72 72"><rect x="13.5" y="13.5" width="45" height="45" rx="4" ry="4" style="fill: var(--icon-fill, rgba(0, 0, 0, 0)); opacity: var(--icon-fill-opacity, 1); stroke: var(--icon-stroke-color-secondary, var(--icon-stroke-color, currentColor)); stroke-miterlimit: 10; stroke-width:var(--icon-stroke-width-secondary-m, var(--icon-stroke-width-m, calc(var(--icon-stroke-width, 5) * 1)));"/><rect x="13.5" y="13.5" width="45" height="45" rx="4" ry="4" style="fill: none; stroke: var(--icon-stroke-color-secondary, var(--icon-stroke-color, currentColor)); stroke-miterlimit: 10; stroke-width:var(--icon-stroke-width-secondary-m, var(--icon-stroke-width-m, calc(var(--icon-stroke-width, 5) * 1)));"/><path d="M36,43.43l8.18,5.85c.39.28.91-.1.76-.56l-3.18-9.55,8.09-5.98c.39-.28.18-.9-.3-.89l-10.06.08-3.18-9.55c-.15-.45-.8-.45-.94,0l-3.04,9.59-10.06.08c-.48,0-.67.62-.28.9l8.18,5.85-3.04,9.59c-.14.46.38.83.76.55l8.09-5.98Z" style="fill: none; stroke: var(--icon-stroke-color, currentColor); stroke-miterlimit: 10; stroke-width:var(--icon-stroke-width-m, calc(var(--icon-stroke-width, 5) * 1));"/></svg>
