<?xml version="1.0" encoding="UTF-8"?>
<svg id="star-m" xmlns="http://www.w3.org/2000/svg" viewBox="0 0 72 72">
  <g style="opacity: .5;">
    <path d="M36.13,47.82l13.03,9.31c.62.44,1.44-.17,1.2-.89l-5.06-15.19,12.88-9.51c.61-.45.29-1.43-.47-1.42l-16.01.12-5.06-15.19c-.24-.72-1.27-.72-1.5.01l-4.83,15.27-16.01.12c-.76,0-1.07.98-.45,1.43l13.03,9.31-4.83,15.27c-.23.73.6,1.32,1.22.87l12.89-9.51Z" style="fill: #ed2024;"/>
  </g>
  <path d="M36.13,47.82l13.03,9.31c.62.44,1.44-.17,1.2-.89l-5.06-15.19,12.88-9.51c.61-.45.29-1.43-.47-1.42l-16.01.12-5.06-15.19c-.24-.72-1.27-.72-1.5.01l-4.83,15.27-16.01.12c-.76,0-1.07.98-.45,1.43l13.03,9.31-4.83,15.27c-.23.73.6,1.32,1.22.87l12.89-9.51Z" style="fill: none; stroke: #231f20; stroke-miterlimit: 10; stroke-width: 4px;"/>
</svg>