<?xml version="1.0" encoding="UTF-8"?>
<svg id="star-small" xmlns="http://www.w3.org/2000/svg" viewBox="0 0 72 72">
  <g style="opacity: .5;">
    <path d="M36.1,45.46l10.42,7.45c.5.35,1.16-.13.96-.71l-4.05-12.15,10.31-7.61c.49-.36.23-1.14-.38-1.14l-12.81.1-4.05-12.15c-.19-.58-1.01-.57-1.2,0l-3.87,12.21-12.81.1c-.61,0-.86.79-.36,1.14l10.42,7.45-3.87,12.21c-.18.58.48,1.06.97.7l10.31-7.61Z" style="fill: #ed2024;"/>
  </g>
  <path d="M36.1,45.46l10.42,7.45c.5.35,1.16-.13.96-.71l-4.05-12.15,10.31-7.61c.49-.36.23-1.14-.38-1.14l-12.81.1-4.05-12.15c-.19-.58-1.01-.57-1.2,0l-3.87,12.21-12.81.1c-.61,0-.86.79-.36,1.14l10.42,7.45-3.87,12.21c-.18.58.48,1.06.97.7l10.31-7.61Z" style="fill: none; stroke: #231f20; stroke-miterlimit: 10; stroke-width: 4px;"/>
</svg>