<?xml version="1.0" encoding="UTF-8"?>
<svg id="star-fat" xmlns="http://www.w3.org/2000/svg" viewBox="0 0 72 72">
  <g style="opacity: .5;">
    <path d="M36.16,51.03l16.56,11.84c.79.56,1.84-.21,1.53-1.13l-6.44-19.32,16.38-12.09c.78-.58.37-1.81-.6-1.8l-20.36.15-6.44-19.32c-.31-.92-1.61-.91-1.9.01l-6.14,19.41-20.36.15c-.97,0-1.36,1.25-.57,1.81l16.56,11.84-6.14,19.41c-.29.92.77,1.68,1.55,1.11l16.38-12.09Z" style="fill: #ed2024;"/>
  </g>
  <path d="M36.16,51.03l16.56,11.84c.79.56,1.84-.21,1.53-1.13l-6.44-19.32,16.38-12.09c.78-.58.37-1.81-.6-1.8l-20.36.15-6.44-19.32c-.31-.92-1.61-.91-1.9.01l-6.14,19.41-20.36.15c-.97,0-1.36,1.25-.57,1.81l16.56,11.84-6.14,19.41c-.29.92.77,1.68,1.55,1.11l16.38-12.09Z" style="fill: none; stroke: #231f20; stroke-miterlimit: 10; stroke-width: 8px;"/>
</svg>