<?xml version="1.0" encoding="UTF-8"?>
<svg id="sticker-rounded-check" xmlns="http://www.w3.org/2000/svg" viewBox="0 0 72 72">
  <path d="M56.26,42.74l3.91-3.91c1.56-1.56,1.56-4.09,0-5.66l-3.91-3.91c-.75-.75-1.17-1.77-1.17-2.83v-5.53c0-2.21-1.79-4-4-4h-5.53c-1.06,0-2.08-.42-2.83-1.17l-3.91-3.91c-1.56-1.56-4.09-1.56-5.66,0l-3.91,3.91c-.75.75-1.77,1.17-2.83,1.17h-5.53c-2.21,0-4,1.79-4,4v5.53c0,1.06-.42,2.08-1.17,2.83l-3.91,3.91c-1.56,1.56-1.56,4.09,0,5.66l3.91,3.91c.75.75,1.17,1.77,1.17,2.83v5.53c0,2.21,1.79,4,4,4h5.53c1.06,0,2.08.42,2.83,1.17l3.91,3.91c1.56,1.56,4.09,1.56,5.66,0l3.91-3.91c.75-.75,1.77-1.17,2.83-1.17h5.53c2.21,0,4-1.79,4-4v-5.53c0-1.06.42-2.08,1.17-2.83Z" style="fill: #ed1c24; opacity: .5;"/>
  <path d="M56.26,42.74l3.91-3.91c1.56-1.56,1.56-4.09,0-5.66l-3.91-3.91c-.75-.75-1.17-1.77-1.17-2.83v-5.53c0-2.21-1.79-4-4-4h-5.53c-1.06,0-2.08-.42-2.83-1.17l-3.91-3.91c-1.56-1.56-4.09-1.56-5.66,0l-3.91,3.91c-.75.75-1.77,1.17-2.83,1.17h-5.53c-2.21,0-4,1.79-4,4v5.53c0,1.06-.42,2.08-1.17,2.83l-3.91,3.91c-1.56,1.56-1.56,4.09,0,5.66l3.91,3.91c.75.75,1.17,1.77,1.17,2.83v5.53c0,2.21,1.79,4,4,4h5.53c1.06,0,2.08.42,2.83,1.17l3.91,3.91c1.56,1.56,4.09,1.56,5.66,0l3.91-3.91c.75-.75,1.77-1.17,2.83-1.17h5.53c2.21,0,4-1.79,4-4v-5.53c0-1.06.42-2.08,1.17-2.83Z" style="fill: none; stroke: #000; stroke-miterlimit: 10; stroke-width: 4px;"/>
  <polyline points="28 34.5 36 43.5 46.5 28.5" style="fill: none; stroke: #000; stroke-miterlimit: 10; stroke-width: 4px;"/>
</svg>