<?xml version="1.0" encoding="UTF-8"?>
<svg id="talk-heart-broken" xmlns="http://www.w3.org/2000/svg" viewBox="0 0 72 72">
  <path d="M17.5,13.5h37c2.21,0,4,1.79,4,4v28c0,2.21-1.79,4-4,4h-23s-9,9-9,9v-9s-5,0-5,0c-2.21,0-4-1.79-4-4v-28c0-2.21,1.79-4,4-4Z" style="fill: #ed2024; opacity: .5;"/>
  <polyline points="36 26.3 37.9 32.01 34.1 33.91 36 41.52" style="fill: none; stroke: #231f20; stroke-miterlimit: 10; stroke-width: 4px;"/>
  <path d="M36,41.52c-19.76-10.35-9.88-26.07,0-15.52,9.88-10.55,19.76,5.17,0,15.52Z" style="fill: none; stroke: #231f20; stroke-miterlimit: 10; stroke-width: 4px;"/>
  <path d="M17.5,13.5h37c2.21,0,4,1.79,4,4v28c0,2.21-1.79,4-4,4h-23s-9,9-9,9v-9s-5,0-5,0c-2.21,0-4-1.79-4-4v-28c0-2.21,1.79-4,4-4Z" style="fill: none; stroke: #000; stroke-miterlimit: 10; stroke-width: 4px;"/>
</svg>