<?xml version="1.0" encoding="UTF-8"?>
<svg id="user-add_3" data-name="user-add 3" xmlns="http://www.w3.org/2000/svg" viewBox="0 0 72 72">
  <line x1="45.77" y1="56.64" x2="58.5" y2="56.64" style="fill: none; stroke: #ed2024; stroke-linejoin: round; stroke-width: 4px;"/>
  <line x1="52.14" y1="63" x2="52.14" y2="50.27" style="fill: none; stroke: #ed2024; stroke-linejoin: round; stroke-width: 4px;"/>
  <g style="opacity: .5;">
    <path d="M53.53,45.02c-3.04-6.65-9.74-11.27-17.53-11.27-10.65,0-19.29,8.63-19.29,19.29,0,7.71,19.29,7.71,19.29,7.71,0,0,1.98,0,4.66-.25-.1-.65-.16-1.32-.16-2,0-7.3,5.79-13.22,13.03-13.48Z" style="fill: #ed2024;"/>
    <circle cx="36" cy="22.5" r="11.25" style="fill: #ed2024;"/>
  </g>
  <circle cx="36" cy="22.5" r="11.25" style="fill: none; stroke: #010101; stroke-linecap: round; stroke-linejoin: round; stroke-width: 4px;"/>
  <path d="M53.52,45c-3.05-6.63-9.74-11.25-17.52-11.25-10.65,0-19.29,8.63-19.29,19.29,0,7.71,19.29,7.71,19.29,7.71,0,0,1.9,0,4.5-.24" style="fill: none; stroke: #010101; stroke-linecap: square; stroke-linejoin: round; stroke-width: 4px;"/>
</svg>