<?xml version="1.0" encoding="UTF-8"?>
<svg id="user-delete_3" data-name="user-delete 3" xmlns="http://www.w3.org/2000/svg" viewBox="0 0 72 72">
  <circle cx="36" cy="22.5" r="11.25" style="fill: #ed2024; opacity: .5;"/>
  <circle cx="36" cy="22.5" r="11.25" style="fill: none; stroke: #010101; stroke-linecap: round; stroke-linejoin: round; stroke-width: 4px;"/>
  <line x1="48.49" y1="51.75" x2="57.49" y2="60.75" style="fill: none; stroke: #ed2024; stroke-linejoin: round; stroke-width: 4px;"/>
  <line x1="48.49" y1="60.75" x2="57.49" y2="51.75" style="fill: none; stroke: #ed2024; stroke-linejoin: round; stroke-width: 4px;"/>
  <path d="M40.5,58.5c0-7.3,5.79-13.22,13.03-13.48-3.04-6.65-9.74-11.27-17.53-11.27-10.65,0-19.29,8.63-19.29,19.29,0,7.71,19.29,7.71,19.29,7.71,0,0,1.98,0,4.66-.25-.1-.65-.16-1.32-.16-2Z" style="fill: #ed2024; opacity: .5;"/>
  <path d="M53.52,45c-3.05-6.63-9.74-11.25-17.52-11.25-10.65,0-19.29,8.63-19.29,19.29,0,7.71,19.29,7.71,19.29,7.71,0,0,1.9,0,4.5-.24" style="fill: none; stroke: #010101; stroke-linecap: square; stroke-linejoin: round; stroke-width: 4px;"/>
</svg>