<svg id="user-add" xmlns="http://www.w3.org/2000/svg" viewBox="0 0 72 72"><g ><circle cx="36" cy="22.5" r="11.25" style="fill: var(--icon-fill, rgba(0, 0, 0, 0)); opacity: var(--icon-fill-opacity, 1);" /><path d="M55.29,53.04c0,7.71-19.29,7.71-19.29,7.71,0,0-19.29,0-19.29-7.71,0-10.65,8.63-19.29,19.29-19.29s19.29,8.63,19.29,19.29Z" style="fill: var(--icon-fill, rgba(0, 0, 0, 0)); opacity: var(--icon-fill-opacity, 1);" /></g><g><circle cx="36" cy="22.5" r="11.25" style="fill: none; stroke: var(--icon-stroke-color, currentColor); stroke-linecap: round; stroke-linejoin: round; stroke-width:var(--icon-stroke-width-m, calc(var(--icon-stroke-width, 5) * 1));"/><path d="M55.29,53.04c0,7.71-19.29,7.71-19.29,7.71,0,0-19.29,0-19.29-7.71,0-10.65,8.63-19.29,19.29-19.29s19.29,8.63,19.29,19.29Z" style="fill: none; stroke: var(--icon-stroke-color, currentColor); stroke-linecap: square; stroke-linejoin: round; stroke-width:var(--icon-stroke-width-m, calc(var(--icon-stroke-width, 5) * 1));"/></g><line x1="36" y1="40.5" x2="36" y2="54" style="fill: none; stroke: var(--icon-stroke-color-secondary, var(--icon-stroke-color, currentColor)); stroke-linejoin: round; stroke-width:var(--icon-stroke-width-secondary-m, var(--icon-stroke-width-m, calc(var(--icon-stroke-width, 5) * 1)));"/><line x1="29.25" y1="47.25" x2="42.75" y2="47.25" style="fill: none; stroke: var(--icon-stroke-color-secondary, var(--icon-stroke-color, currentColor)); stroke-linejoin: round; stroke-width:var(--icon-stroke-width-secondary-m, var(--icon-stroke-width-m, calc(var(--icon-stroke-width, 5) * 1)));"/></svg>
