<svg id="shopping-bag-3" xmlns="http://www.w3.org/2000/svg" viewBox="0 0 72 72"><path d="M46.84,60.18h0c-7.12,1.78-14.57,1.78-21.69,0h0c-3.61-.9-6.43-3.72-7.33-7.33h0c-1.78-7.12-1.78-14.57,0-21.69h0c.9-3.61,3.72-6.43,7.33-7.33h0c7.12-1.78,14.57-1.78,21.69,0h0c3.61.9,6.43,3.72,7.33,7.33h0c1.78,7.12,1.78,14.57,0,21.69h0c-.9,3.61-3.72,6.43-7.33,7.33Z" style="fill: var(--icon-fill, rgba(0, 0, 0, 0)); opacity: var(--icon-fill-opacity, 1); stroke-width: 0px;"/><path d="M29.25,31.5v-11.25c0-3.73,3.02-6.75,6.75-6.75s6.75,3.02,6.75,6.75v11.25" style="fill: none; stroke: var(--icon-stroke-color, currentColor); stroke-miterlimit: 10; stroke-width:var(--icon-stroke-width-m, calc(var(--icon-stroke-width, 5) * 1));"/><path d="M46.84,60.18h0c-7.12,1.78-14.57,1.78-21.69,0h0c-3.61-.9-6.43-3.72-7.33-7.33h0c-1.78-7.12-1.78-14.57,0-21.69h0c.9-3.61,3.72-6.43,7.33-7.33h0c7.12-1.78,14.57-1.78,21.69,0h0c3.61.9,6.43,3.72,7.33,7.33h0c1.78,7.12,1.78,14.57,0,21.69h0c-.9,3.61-3.72,6.43-7.33,7.33Z" style="fill: none; stroke: var(--icon-stroke-color, currentColor); stroke-miterlimit: 10; stroke-width:var(--icon-stroke-width-m, calc(var(--icon-stroke-width, 5) * 1));"/><path d="M54.17,52.85c-.9,3.61-3.72,6.43-7.33,7.33h0c-7.12,1.78-14.57,1.78-21.69,0h0c-3.61-.9-6.43-3.72-7.33-7.33" style="fill: none; stroke: var(--icon-stroke-color, currentColor); stroke-miterlimit: 10; stroke-width:var(--icon-stroke-width-m, calc(var(--icon-stroke-width, 5) * 1));"/></svg>
