<?xml version="1.0" encoding="UTF-8"?>
<svg id="no-leaks" xmlns="http://www.w3.org/2000/svg" viewBox="0 0 72 72">
  <path d="M44.63,13.5c0,6.21-4.03,11.25-9,11.25s-9-5.04-9-11.25h0c-22.5,0-18,22.5-18,22.5h9v27h36v-27h9s4.5-22.5-18-22.5Z" style="fill: #ed2024; opacity: .5;"/>
  <polyline points="18 27 18 63 54 63 54 27" style="fill: none; stroke: #231f20; stroke-miterlimit: 10; stroke-width: 4px;"/>
  <path d="M18,36h-9S4.5,13.5,27,13.5" style="fill: none; stroke: #231f20; stroke-miterlimit: 10; stroke-width: 4px;"/>
  <path d="M54,36h9s4.5-22.5-18-22.5" style="fill: none; stroke: #231f20; stroke-miterlimit: 10; stroke-width: 4px;"/>
  <path d="M45,13.5c0,6.21-4.03,11.25-9,11.25s-9-5.04-9-11.25h18Z" style="fill: none; stroke: #ed2024; stroke-miterlimit: 10; stroke-width: 4px;"/>
</svg>