<?xml version="1.0" encoding="UTF-8"?>
<svg id="cloud-sun" xmlns="http://www.w3.org/2000/svg" viewBox="0 0 72 72">
  <line x1="45.22" y1="3.41" x2="45.22" y2="9.68" style="fill: none; stroke: #ed2024; stroke-linecap: round; stroke-miterlimit: 10; stroke-width: 4px;"/>
  <line x1="60.88" y1="25.33" x2="67.14" y2="25.33" style="fill: none; stroke: #ed2024; stroke-linecap: round; stroke-miterlimit: 10; stroke-width: 4px;"/>
  <line x1="29.73" y1="9.83" x2="34.15" y2="14.26" style="fill: none; stroke: #ed2024; stroke-linecap: round; stroke-miterlimit: 10; stroke-width: 4px;"/>
  <line x1="56.29" y1="14.26" x2="60.72" y2="9.83" style="fill: none; stroke: #ed2024; stroke-linecap: round; stroke-miterlimit: 10; stroke-width: 4px;"/>
  <path d="M35.15,22.6c1.2-4.44,5.26-7.7,10.07-7.7,5.76,0,10.44,4.67,10.44,10.44,0,2.88-1.17,5.49-3.06,7.38" style="fill: none; stroke: #ed2024; stroke-miterlimit: 10; stroke-width: 4px;"/>
  <path d="M54,36c-.2,0-.39.02-.58.03-1.99-7.77-9.02-13.53-17.42-13.53s-15.43,5.76-17.42,13.53c-.19-.01-.39-.03-.58-.03-4.97,0-9,4.03-9,9s4.03,9,9,9c1.74,0,3.36-.5,4.74-1.36,3.29,3.59,8.01,5.86,13.26,5.86s9.97-2.27,13.26-5.86c1.38.86,3,1.36,4.74,1.36,4.97,0,9-4.03,9-9s-4.03-9-9-9Z" style="fill: #ed2024; opacity: .5;"/>
  <path d="M54,36c-.2,0-.39.02-.58.03-1.99-7.77-9.02-13.53-17.42-13.53s-15.43,5.76-17.42,13.53c-.19-.01-.39-.03-.58-.03-4.97,0-9,4.03-9,9s4.03,9,9,9c1.74,0,3.36-.5,4.74-1.36,3.29,3.59,8.01,5.86,13.26,5.86s9.97-2.27,13.26-5.86c1.38.86,3,1.36,4.74,1.36,4.97,0,9-4.03,9-9s-4.03-9-9-9Z" style="fill: none; stroke: #010101; stroke-linecap: round; stroke-miterlimit: 10; stroke-width: 4px;"/>
</svg>