<?xml version="1.0" encoding="UTF-8"?>
<svg id="lightning-flash" xmlns="http://www.w3.org/2000/svg" version="1.1" viewBox="0 0 72 72">
  <!-- Generator: Adobe Illustrator 29.0.1, SVG Export Plug-In . SVG Version: 2.1.0 Build 192)  -->
  <defs>
    <style>
      .st0 {
        fill: #ed2024;
        isolation: isolate;
        opacity: .5;
      }

      .st1 {
        fill: none;
        stroke: #000;
        stroke-miterlimit: 10;
        stroke-width: 4px;
      }
    </style>
  </defs>
  <path class="st0" d="M27.7,9h19.4l-4.8,24.2h8.1c.8,0,1.3.8,1,1.5l-11.8,27.6c-.5,1.1-2.1.7-2.1-.4v-19h-18.3c-.6,0-1.1-.5-1.1-1.1L27.7,9Z"/>
  <path class="st1" d="M27.7,9h19.4l-4.8,24.2h8.1c.8,0,1.3.8,1,1.5l-11.8,27.6c-.5,1.1-2.1.7-2.1-.4v-19h-18.3c-.6,0-1.1-.5-1.1-1.1L27.7,9Z"/>
</svg>