<?xml version="1.0" encoding="UTF-8"?>
<svg id="_x5F_g-star" xmlns="http://www.w3.org/2000/svg" version="1.1" viewBox="0 0 31.5 31.5">
  <!-- Generator: Adobe Illustrator 29.0.1, SVG Export Plug-In . SVG Version: 2.1.0 Build 192)  -->
  <g style="opacity: .5;">
    <path d="M15.91,22.12l6.57,4.7c.31.22.73-.08.61-.45l-2.55-7.66,6.5-4.8c.31-.23.15-.72-.24-.72l-8.08.06-2.55-7.66c-.12-.36-.64-.36-.75,0l-2.44,7.7-8.08.06c-.38,0-.54.5-.23.72l6.57,4.7-2.44,7.7c-.12.37.3.67.61.44l6.5-4.8Z" style="fill: #ed2024;"/>
  </g>
  <path d="M15.91,22.12l6.57,4.7c.31.22.73-.08.61-.45l-2.55-7.66,6.5-4.8c.31-.23.15-.72-.24-.72l-8.08.06-2.55-7.66c-.12-.36-.64-.36-.75,0l-2.44,7.7-8.08.06c-.38,0-.54.5-.23.72l6.57,4.7-2.44,7.7c-.12.37.3.67.61.44l6.5-4.8Z" style="fill: none; stroke: #231f20; stroke-miterlimit: 10; stroke-width: 4px;"/>
</svg>