<?xml version="1.0" encoding="UTF-8"?>
<svg id="cotton" xmlns="http://www.w3.org/2000/svg" viewBox="0 0 72 72">
  <path d="M49.5,22.5c-1.68,0-3.25.47-4.6,1.27.06-.42.1-.84.1-1.27,0-4.97-4.03-9-9-9s-9,4.03-9,9c0,.43.04.86.1,1.27-1.35-.8-2.92-1.27-4.6-1.27-4.97,0-9,4.03-9,9s4.03,9,9,9h27c4.97,0,9-4.03,9-9s-4.03-9-9-9Z" style="fill: #ed2024; opacity: .5;"/>
  <polyline points="27 31.5 36 40.5 45 31.5" style="fill: none; stroke: #ed2024; stroke-linecap: round; stroke-miterlimit: 10; stroke-width: 4px;"/>
  <line x1="36" y1="40.5" x2="36" y2="63" style="fill: none; stroke: #231f20; stroke-linecap: round; stroke-miterlimit: 10; stroke-width: 4px;"/>
  <line x1="36" y1="31.5" x2="36" y2="40.5" style="fill: none; stroke: #ed2024; stroke-linecap: round; stroke-miterlimit: 10; stroke-width: 4px;"/>
  <path d="M49.5,22.5c-1.68,0-3.25.47-4.6,1.27.06-.42.1-.84.1-1.27,0-4.97-4.03-9-9-9s-9,4.03-9,9c0,.43.04.86.1,1.27-1.35-.8-2.92-1.27-4.6-1.27-4.97,0-9,4.03-9,9s4.03,9,9,9h27c4.97,0,9-4.03,9-9s-4.03-9-9-9Z" style="fill: none; stroke: #231f20; stroke-miterlimit: 10; stroke-width: 4px;"/>
</svg>