<svg id="cotton" xmlns="http://www.w3.org/2000/svg" viewBox="0 0 72 72"><path d="M49.5,22.5c-1.68,0-3.25.47-4.6,1.27.06-.42.1-.84.1-1.27,0-4.97-4.03-9-9-9s-9,4.03-9,9c0,.43.04.86.1,1.27-1.35-.8-2.92-1.27-4.6-1.27-4.97,0-9,4.03-9,9s4.03,9,9,9h27c4.97,0,9-4.03,9-9s-4.03-9-9-9Z" style="fill: var(--icon-fill, rgba(0, 0, 0, 0)); opacity: var(--icon-fill-opacity, 1);"/><polyline points="27 31.5 36 40.5 45 31.5" style="fill: none; stroke: var(--icon-stroke-color-secondary, var(--icon-stroke-color, currentColor)); stroke-linecap: round; stroke-miterlimit: 10; stroke-width:var(--icon-stroke-width-secondary-m, var(--icon-stroke-width-m, calc(var(--icon-stroke-width, 5) * 1)));"/><line x1="36" y1="40.5" x2="36" y2="63" style="fill: none; stroke: var(--icon-stroke-color, currentColor); stroke-linecap: round; stroke-miterlimit: 10; stroke-width:var(--icon-stroke-width-m, calc(var(--icon-stroke-width, 5) * 1));"/><line x1="36" y1="31.5" x2="36" y2="40.5" style="fill: none; stroke: var(--icon-stroke-color-secondary, var(--icon-stroke-color, currentColor)); stroke-linecap: round; stroke-miterlimit: 10; stroke-width:var(--icon-stroke-width-secondary-m, var(--icon-stroke-width-m, calc(var(--icon-stroke-width, 5) * 1)));"/><path d="M49.5,22.5c-1.68,0-3.25.47-4.6,1.27.06-.42.1-.84.1-1.27,0-4.97-4.03-9-9-9s-9,4.03-9,9c0,.43.04.86.1,1.27-1.35-.8-2.92-1.27-4.6-1.27-4.97,0-9,4.03-9,9s4.03,9,9,9h27c4.97,0,9-4.03,9-9s-4.03-9-9-9Z" style="fill: none; stroke: var(--icon-stroke-color, currentColor); stroke-miterlimit: 10; stroke-width:var(--icon-stroke-width-m, calc(var(--icon-stroke-width, 5) * 1));"/></svg>
