<?xml version="1.0" encoding="UTF-8"?>
<svg id="shopping-bag" xmlns="http://www.w3.org/2000/svg" viewBox="0 0 72 72">
  <path d="M22.36,27.84l-4.17,25c-.1.61.37,1.16.99,1.16h33.64c.62,0,1.09-.55.99-1.16l-4.17-25c-.08-.48-.5-.84-.99-.84h-25.31c-.49,0-.91.35-.99.84Z" style="fill: #ed2024; opacity: .5; stroke-width: 0px;"/>
  <path d="M22.36,27.84l-4.17,25c-.1.61.37,1.16.99,1.16h33.64c.62,0,1.09-.55.99-1.16l-4.17-25c-.08-.48-.5-.84-.99-.84h-25.31c-.49,0-.91.35-.99.84Z" style="fill: none; stroke: #231f20; stroke-miterlimit: 10; stroke-width: 4px;"/>
  <path d="M31.5,27v-9c0-2.49,2.01-4.5,4.5-4.5s4.5,2.01,4.5,4.5v9" style="fill: none; stroke: #231f20; stroke-miterlimit: 10; stroke-width: 4px;"/>
</svg>