<?xml version="1.0" encoding="UTF-8"?>
<svg id="espress_machine_2" data-name="espress machine 2" xmlns="http://www.w3.org/2000/svg" viewBox="0 0 72 72">
  <path d="M45,27l-4.5,9h-9l-4.5-9h-13.5v36h45V27h-13.5ZM42.75,54c0,3.73-3.02,6.75-6.75,6.75s-6.75-3.02-6.75-6.75v-4.5h13.5v4.5Z" style="fill: #ed2024; opacity: .5; stroke-width: 0px;"/>
  <rect x="9" y="9" width="54" height="18" style="fill: #ed2024; opacity: .5; stroke-width: 0px;"/>
  <rect x="9" y="9" width="54" height="18" style="fill: none; stroke: #010101; stroke-linecap: square; stroke-miterlimit: 10; stroke-width: 4px;"/>
  <line x1="13.5" y1="63" x2="13.5" y2="27" style="fill: none; stroke: #010101; stroke-miterlimit: 10; stroke-width: 4px;"/>
  <line x1="58.5" y1="63" x2="58.5" y2="27" style="fill: none; stroke: #010101; stroke-miterlimit: 10; stroke-width: 4px;"/>
  <polyline points="27 27 31.5 36 40.5 36 45 27" style="fill: none; stroke: #010101; stroke-miterlimit: 10; stroke-width: 4px;"/>
  <path d="M29.25,54v-4.5h13.5v4.5c0,3.73-3.02,6.75-6.75,6.75s-6.75-3.02-6.75-6.75Z" style="fill: none; stroke: #010101; stroke-miterlimit: 10; stroke-width: 4px;"/>
  <line x1="9" y1="63" x2="63" y2="63" style="fill: none; stroke: #010101; stroke-linecap: square; stroke-miterlimit: 10; stroke-width: 4px;"/>
  <line x1="36" y1="36" x2="36" y2="40.5" style="fill: none; stroke: #010101; stroke-linecap: round; stroke-miterlimit: 10; stroke-width: 4px;"/>
  <line x1="36" y1="47" x2="36" y2="49.5" style="fill: none; stroke: #010101; stroke-linecap: round; stroke-miterlimit: 10; stroke-width: 4px;"/>
  <line x1="45" y1="18" x2="45" y2="18" style="fill: none; stroke: #010101; stroke-linecap: round; stroke-miterlimit: 10; stroke-width: 4px;"/>
  <line x1="54" y1="18" x2="54" y2="18" style="fill: none; stroke: #010101; stroke-linecap: round; stroke-miterlimit: 10; stroke-width: 4px;"/>
</svg>