<?xml version="1.0" encoding="UTF-8"?>
<svg id="hamburger" xmlns="http://www.w3.org/2000/svg" viewBox="0 0 72 72">
  <path d="M9,29.25h54s0-18-27-18S9,29.25,9,29.25Z" style="fill: #ed2024; opacity: .5;"/>
  <path d="M9,51.75q0,9,27,9t27-9H9Z" style="fill: #ed2024; opacity: .5;"/>
  <path d="M9,28.5h54s0-18-27-18S9,28.5,9,28.5Z" style="fill: none; stroke: #010101; stroke-miterlimit: 10; stroke-width: 4px;"/>
  <path d="M9,51q0,9,27,9t27-9H9Z" style="fill: none; stroke: #010101; stroke-miterlimit: 10; stroke-width: 4px;"/>
  <path d="M63,42c-6.75,0-6.75-3.38-13.5-3.38-6.75,0-6.75,3.38-13.5,3.38s-6.75-3.38-13.5-3.38c-6.75,0-6.75,3.38-13.5,3.38" style="fill: none; stroke: #ed2024; stroke-linecap: square; stroke-miterlimit: 10; stroke-width: 4px;"/>
</svg>