<?xml version="1.0" encoding="UTF-8"?>
<svg id="elevator_3" data-name="elevator 3" xmlns="http://www.w3.org/2000/svg" viewBox="0 0 72 72">
  <path d="M13.5,26.5v32h36V26.5c0-2.21-1.79-4-4-4h-28c-2.21,0-4,1.79-4,4Z" style="fill: #ed2024; opacity: .5; stroke-width: 0px;"/>
  <line x1="31.5" y1="22.5" x2="31.5" y2="58.5" style="fill: none; stroke: #ed2024; stroke-linecap: round; stroke-miterlimit: 10; stroke-width: 4px;"/>
  <path d="M13.5,26.5v32h36V26.5c0-2.21-1.79-4-4-4h-28c-2.21,0-4,1.79-4,4Z" style="fill: none; stroke: #000; stroke-linecap: round; stroke-miterlimit: 10; stroke-width: 4px;"/>
  <polyline points="27 9 22.5 13.5 18 9" style="fill: none; stroke: #ed1f24; stroke-miterlimit: 10; stroke-width: 4px;"/>
  <polyline points="45 13.5 40.5 9 36 13.5" style="fill: none; stroke: #ed1f24; stroke-miterlimit: 10; stroke-width: 4px;"/>
  <line x1="58.5" y1="27" x2="58.5" y2="27" style="fill: none; stroke: #000; stroke-linecap: round; stroke-miterlimit: 10; stroke-width: 4px;"/>
  <line x1="58.5" y1="36" x2="58.5" y2="36" style="fill: none; stroke: #000; stroke-linecap: round; stroke-miterlimit: 10; stroke-width: 4px;"/>
  <line x1="58.5" y1="45" x2="58.5" y2="45" style="fill: none; stroke: #000; stroke-linecap: round; stroke-miterlimit: 10; stroke-width: 4px;"/>
</svg>