<?xml version="1.0" encoding="UTF-8"?>
<svg id="airplane-arrivals" xmlns="http://www.w3.org/2000/svg" viewBox="0 0 72 72">
  <g style="opacity: .5;">
    <path d="M58.52,38.94L19.2,22.66l-4.35-6.49c-.11-.16-.27-.29-.45-.37l-2.38-.99c-.69-.29-1.43.25-1.38.99l-.04.46c-.64,7.21,3.47,14,10.16,16.77l4.56,1.89-9.54,14.24c-.35.52-.13,1.24.45,1.48l2.59,1.07c.28.12.6.1.87-.05l19.77-10.89,15.8,6.54c2.43,1.01,5.24-.27,6.03-2.85.69-2.25-.59-4.64-2.76-5.54Z" style="fill: #ed2024; stroke-width: 0px;"/>
    <path d="M36.61,10.79c-.08-.29-.3-.53-.58-.65l-2.59-1.07c-.58-.24-1.24.11-1.36.73l-2.78,14.04,12.6,5.22-5.29-18.27Z" style="fill: #ed2024; stroke-width: 0px;"/>
  </g>
  <line x1="31.5" y1="63.2" x2="63" y2="63.2" style="fill: #010101; stroke: #ed2024; stroke-miterlimit: 10; stroke-width: 4px;"/>
  <path d="M16.23,50.65l2.59,1.07c.28.12.6.1.87-.05l19.77-10.89,15.8,6.54c2.43,1.01,5.24-.27,6.03-2.85.69-2.25-.59-4.64-2.76-5.54L19.2,22.66l-4.35-6.49c-.11-.16-.27-.29-.45-.37l-2.38-.99c-.69-.29-1.43.25-1.38.99l-.04.46c-.64,7.21,3.47,14,10.16,16.77l4.56,1.89-9.54,14.24c-.35.52-.13,1.24.45,1.48Z" style="fill: none; stroke: #000; stroke-miterlimit: 10; stroke-width: 4px;"/>
  <path d="M36.04,10.15l-2.59-1.07c-.58-.24-1.24.11-1.36.73l-2.78,14.04,12.6,5.22-5.29-18.27c-.08-.29-.3-.53-.58-.65Z" style="fill: none; stroke: #000; stroke-miterlimit: 10; stroke-width: 4px;"/>
</svg>