<?xml version="1.0" encoding="UTF-8"?>
<svg id="briefcase-cross" xmlns="http://www.w3.org/2000/svg" viewBox="0 0 72 72">
  <path d="M54.5,18H17.5c-2.21,0-4,1.79-4,4v36c0,2.21,1.79,4,4,4h37c2.21,0,4-1.79,4-4V22c0-2.21-1.79-4-4-4ZM49.5,44.5h-9v9h-9v-9h-9v-9h9v-9h9v9h9v9Z" style="fill: #ed2024; opacity: .5; stroke-width: 0px;"/>
  <rect x="13.5" y="18.5" width="45" height="44" rx="4" ry="4" style="fill: none; stroke: #010101; stroke-miterlimit: 10; stroke-width: 4px;"/>
  <path d="M29.25,18v-5c0-2.21,1.79-4,4-4h5.5c2.21,0,4,1.79,4,4v5" style="fill: none; stroke: #010101; stroke-miterlimit: 10; stroke-width: 4px;"/>
  <polygon points="31.5 27 40.5 27 40.5 36 49.5 36 49.5 45 40.5 45 40.5 54 31.5 54 31.5 45 22.5 45 22.5 36 31.5 36 31.5 27" style="fill: none; stroke: #000; stroke-miterlimit: 10; stroke-width: 4px;"/>
</svg>