<svg id="airplane-arrivals" xmlns="http://www.w3.org/2000/svg" viewBox="0 0 72 72"><g ><path d="M58.52,38.94L19.2,22.66l-4.35-6.49c-.11-.16-.27-.29-.45-.37l-2.38-.99c-.69-.29-1.43.25-1.38.99l-.04.46c-.64,7.21,3.47,14,10.16,16.77l4.56,1.89-9.54,14.24c-.35.52-.13,1.24.45,1.48l2.59,1.07c.28.12.6.1.87-.05l19.77-10.89,15.8,6.54c2.43,1.01,5.24-.27,6.03-2.85.69-2.25-.59-4.64-2.76-5.54Z" style="fill: var(--icon-fill, rgba(0, 0, 0, 0)); opacity: var(--icon-fill-opacity, 1);" /><path d="M36.61,10.79c-.08-.29-.3-.53-.58-.65l-2.59-1.07c-.58-.24-1.24.11-1.36.73l-2.78,14.04,12.6,5.22-5.29-18.27Z" style="fill: var(--icon-fill, rgba(0, 0, 0, 0)); opacity: var(--icon-fill-opacity, 1);" /></g><line x1="31.5" y1="63.2" x2="63" y2="63.2" style="fill: var(--icon-line-color, currentColor); stroke: var(--icon-stroke-color-secondary, var(--icon-stroke-color, currentColor)); stroke-miterlimit: 10; stroke-width:var(--icon-stroke-width-secondary-m, var(--icon-stroke-width-m, calc(var(--icon-stroke-width, 5) * 1)));"/><path d="M16.23,50.65l2.59,1.07c.28.12.6.1.87-.05l19.77-10.89,15.8,6.54c2.43,1.01,5.24-.27,6.03-2.85.69-2.25-.59-4.64-2.76-5.54L19.2,22.66l-4.35-6.49c-.11-.16-.27-.29-.45-.37l-2.38-.99c-.69-.29-1.43.25-1.38.99l-.04.46c-.64,7.21,3.47,14,10.16,16.77l4.56,1.89-9.54,14.24c-.35.52-.13,1.24.45,1.48Z" style="fill: none; stroke: var(--icon-stroke-color, currentColor); stroke-miterlimit: 10; stroke-width:var(--icon-stroke-width-m, calc(var(--icon-stroke-width, 5) * 1));"/><path d="M36.04,10.15l-2.59-1.07c-.58-.24-1.24.11-1.36.73l-2.78,14.04,12.6,5.22-5.29-18.27c-.08-.29-.3-.53-.58-.65Z" style="fill: none; stroke: var(--icon-stroke-color, currentColor); stroke-miterlimit: 10; stroke-width:var(--icon-stroke-width-m, calc(var(--icon-stroke-width, 5) * 1));"/></svg>
