<svg id="signpost-2" xmlns="http://www.w3.org/2000/svg" viewBox="0 0 72 72"><polygon points="45 18 22.5 18 13.5 24.75 22.5 31.5 54 31.5 54 18 45 18" style="fill: var(--icon-fill, rgba(0, 0, 0, 0)); opacity: var(--icon-fill-opacity, 1); stroke-width: 0px;"/><polygon points="33 49.5 48 49.5 54 45 48 40.5 27 40.5 27 49.5 33 49.5" style="fill: var(--icon-fill, rgba(0, 0, 0, 0)); opacity: var(--icon-fill-opacity, 1); stroke-width: 0px;"/><line x1="36" y1="49.5" x2="36" y2="58.5" style="fill: none; stroke: var(--icon-stroke-color, currentColor); stroke-linejoin: round; stroke-width:var(--icon-stroke-width-m, calc(var(--icon-stroke-width, 5) * 1));"/><line x1="36" y1="31.5" x2="36" y2="40.5" style="fill: none; stroke: var(--icon-stroke-color, currentColor); stroke-linejoin: round; stroke-width:var(--icon-stroke-width-m, calc(var(--icon-stroke-width, 5) * 1));"/><line x1="36" y1="9" x2="36" y2="18" style="fill: none; stroke: var(--icon-stroke-color, currentColor); stroke-linejoin: round; stroke-width:var(--icon-stroke-width-m, calc(var(--icon-stroke-width, 5) * 1));"/><line x1="13.5" y1="58.5" x2="58.5" y2="58.5" style="fill: none; stroke: var(--icon-stroke-color-secondary, var(--icon-stroke-color, currentColor)); stroke-linejoin: round; stroke-width:var(--icon-stroke-width-secondary-m, var(--icon-stroke-width-m, calc(var(--icon-stroke-width, 5) * 1)));"/><polygon points="45 18 22.5 18 13.5 24.75 22.5 31.5 54 31.5 54 18 45 18" style="fill: none; stroke: var(--icon-stroke-color-secondary, var(--icon-stroke-color, currentColor)); stroke-linejoin: round; stroke-width:var(--icon-stroke-width-secondary-m, var(--icon-stroke-width-m, calc(var(--icon-stroke-width, 5) * 1)));"/><polygon points="33 49.5 48 49.5 54 45 48 40.5 27 40.5 27 49.5 33 49.5" style="fill: none; stroke: var(--icon-stroke-color-secondary, var(--icon-stroke-color, currentColor)); stroke-linejoin: round; stroke-width:var(--icon-stroke-width-secondary-m, var(--icon-stroke-width-m, calc(var(--icon-stroke-width, 5) * 1)));"/></svg>
