<?xml version="1.0" encoding="UTF-8"?>
<svg id="cruiseship" xmlns="http://www.w3.org/2000/svg" viewBox="0 0 72 72">
  <g style="opacity: .5;">
    <path d="M31.62,30.85c2.84-.95,5.91-.96,8.75-.03l10.88,3.53c.73.24,1.44-.4,1.29-1.15l-2.48-12.4c-.09-.47-.5-.8-.98-.8h-26.16c-.48,0-.89.34-.98.8l-2.51,12.53c-.15.75.57,1.39,1.3,1.14l10.89-3.63Z" style="fill: #ed2024; stroke-width: 0px;"/>
    <path d="M43.28,14.55l-1.67-3.34c-.68-1.36-2.06-2.21-3.58-2.21h-4.06c-1.51,0-2.9.86-3.58,2.21l-1.67,3.34c-.33.66.15,1.45.89,1.45h12.76c.74,0,1.23-.78.89-1.45Z" style="fill: #ed2024; stroke-width: 0px;"/>
    <path d="M39.14,34.62c-2.03-.66-4.22-.65-6.25.02l-18.43,6.15c-.48.16-.76.65-.66,1.14l2.45,12.24c3.09.82,6.18,4.32,9.26,4.32,3.5,0,7-4.5,10.5-4.5s7,4.5,10.5,4.5c3.09,0,6.18-3.5,9.26-4.32l2.48-12.42c.1-.5-.19-.99-.67-1.15l-18.44-5.99Z" style="fill: #ed2024; stroke-width: 0px;"/>
  </g>
  <g>
    <path d="M31.62,30.85c2.84-.95,5.91-.96,8.75-.03l10.88,3.53c.73.24,1.44-.4,1.29-1.15l-2.48-12.4c-.09-.47-.5-.8-.98-.8h-26.16c-.48,0-.89.34-.98.8l-2.51,12.53c-.15.75.57,1.39,1.3,1.14l10.89-3.63Z" style="fill: none; stroke: #000; stroke-miterlimit: 10; stroke-width: 4px;"/>
    <path d="M43.28,14.55l-1.67-3.34c-.68-1.36-2.06-2.21-3.58-2.21h-4.06c-1.51,0-2.9.86-3.58,2.21l-1.67,3.34c-.33.66.15,1.45.89,1.45h12.76c.74,0,1.23-.78.89-1.45Z" style="fill: none; stroke: #000; stroke-miterlimit: 10; stroke-width: 4px;"/>
    <path d="M39.14,34.62c-2.03-.66-4.22-.65-6.25.02l-18.43,6.15c-.48.16-.76.65-.66,1.14l2.45,12.24c3.09.82,6.18,4.32,9.26,4.32,3.5,0,7-4.5,10.5-4.5s7,4.5,10.5,4.5c3.09,0,6.18-3.5,9.26-4.32l2.48-12.42c.1-.5-.19-.99-.67-1.15l-18.44-5.99Z" style="fill: none; stroke: #000; stroke-miterlimit: 10; stroke-width: 4px;"/>
  </g>
  <path d="M4.5,58.5c3.5,0,7-4.5,10.5-4.5s7,4.5,10.5,4.5,7-4.5,10.5-4.5,7,4.5,10.5,4.5,7-4.5,10.5-4.5,7,4.5,10.5,4.5" style="fill: none; stroke: #ed2024; stroke-miterlimit: 10; stroke-width: 4px;"/>
</svg>