<?xml version="1.0" encoding="UTF-8"?>
<svg id="map" xmlns="http://www.w3.org/2000/svg" viewBox="0 0 72 72">
  <polygon points="27 18 27 58.5 45 54 45 13.5 27 18" style="fill: #ed2024; opacity: .5; stroke-width: 0px;"/>
  <path d="M10.24,13.81c-.63-.16-1.24.32-1.24.97v38.44c0,.46.31.86.76.97l17.24,4.31V18l-16.76-4.19Z" style="fill: #ed2024; opacity: .5; stroke-width: 0px;"/>
  <path d="M62.24,17.81l-17.24-4.31v40.5l16.76,4.19c.63.16,1.24-.32,1.24-.97V18.78c0-.46-.31-.86-.76-.97Z" style="fill: #ed2024; opacity: .5; stroke-width: 0px;"/>
  <line x1="27" y1="18" x2="27" y2="58.5" style="fill: none; stroke: #ed2024; stroke-linecap: round; stroke-miterlimit: 10; stroke-width: 4px;"/>
  <line x1="45" y1="13.5" x2="45" y2="54" style="fill: none; stroke: #ed2024; stroke-linecap: round; stroke-miterlimit: 10; stroke-width: 4px;"/>
  <path d="M62.24,17.81l-17.24-4.31-18,4.5-16.76-4.19c-.63-.16-1.24.32-1.24.97v38.44c0,.46.31.86.76.97l17.24,4.31,18-4.5,16.76,4.19c.63.16,1.24-.32,1.24-.97V18.78c0-.46-.31-.86-.76-.97Z" style="fill: none; stroke: #010101; stroke-linecap: round; stroke-miterlimit: 10; stroke-width: 4px;"/>
</svg>