<?xml version="1.0" encoding="UTF-8"?>
<svg id="family" xmlns="http://www.w3.org/2000/svg" viewBox="0 0 72 72">
  <circle cx="13.5" cy="15.75" r="5.06" style="fill: #ed2024; opacity: .5; stroke-width: 0px;"/>
  <circle cx="35.22" cy="15.75" r="5.06" style="fill: #ed2024; opacity: .5; stroke-width: 0px;"/>
  <path d="M13.5,27h0c2.48,0,4.5,2.02,4.5,4.5v13.5h-9v-13.5c0-2.48,2.02-4.5,4.5-4.5Z" style="fill: #ed2024; opacity: .5; stroke-width: 0px;"/>
  <path d="M45,49.5h-18l4.5-9v-9c0-2.49,2.01-4.5,4.5-4.5h0c2.49,0,4.5,2.01,4.5,4.5v9l4.5,9Z" style="fill: #ed2024; opacity: .5; stroke-width: 0px;"/>
  <path d="M4.5,45l1.6-11.36c.52-3.69,3.59-6.6,7.32-6.64.03,0,.06,0,.08,0h0c2.81,0,5.44,1.41,7,3.74l4.36,10.33" style="fill: none; stroke: #231f20; stroke-linecap: round; stroke-linejoin: round; stroke-width: 4px;"/>
  <path d="M9,63v-31.5c0-2.49,2.01-4.5,4.5-4.5h0c2.49,0,4.5,2.01,4.5,4.5v31.5" style="fill: none; stroke: #231f20; stroke-linecap: round; stroke-linejoin: round; stroke-width: 4px;"/>
  <line x1="9" y1="45" x2="18" y2="45" style="fill: #fff; stroke: #231f20; stroke-linecap: round; stroke-linejoin: round; stroke-width: 4px;"/>
  <path d="M24.85,41.07l4.15-10.33c1.56-2.34,4.18-3.74,7-3.74h0c2.81,0,5.44,1.41,7,3.74l6.5,9.76" style="fill: none; stroke: #231f20; stroke-linecap: round; stroke-linejoin: round; stroke-width: 4px;"/>
  <path d="M31.5,63v-13.5h-4.5l4.5-9v-9c0-2.49,2.01-4.5,4.5-4.5h0c2.49,0,4.5,2.01,4.5,4.5v9l4.5,9h-4.5v13.5" style="fill: none; stroke: #231f20; stroke-linecap: round; stroke-linejoin: round; stroke-width: 4px;"/>
  <circle cx="13.5" cy="15.75" r="5.06" style="fill: none; stroke: #231f20; stroke-linecap: round; stroke-linejoin: round; stroke-width: 4px;"/>
  <circle cx="58.5" cy="24.75" r="5.06" style="fill: #ed2024; opacity: .5; stroke-width: 0px;"/>
  <path d="M58.5,36h0c2.48,0,4.5,2.02,4.5,4.5v9h-9v-9c0-2.48,2.02-4.5,4.5-4.5Z" style="fill: #ed2024; opacity: .5; stroke-width: 0px;"/>
  <path d="M45,45l6.5-6.5c1.56-1.56,4.18-2.5,7-2.5h0s.06,0,.08,0c3.79.03,6.98,2.88,7.66,6.61l1.25,6.89" style="fill: none; stroke: #231f20; stroke-linecap: round; stroke-linejoin: round; stroke-width: 4px;"/>
  <path d="M54,63v-22.5c0-2.49,2.01-4.5,4.5-4.5h0c2.49,0,4.5,2.01,4.5,4.5v22.5" style="fill: none; stroke: #231f20; stroke-linecap: round; stroke-linejoin: round; stroke-width: 4px;"/>
  <line x1="54" y1="49.5" x2="63" y2="49.5" style="fill: #fff; stroke: #231f20; stroke-linecap: round; stroke-linejoin: round; stroke-width: 4px;"/>
  <circle cx="58.5" cy="24.75" r="5.06" style="fill: none; stroke: #231f20; stroke-linecap: round; stroke-linejoin: round; stroke-width: 4px;"/>
  <circle cx="35.22" cy="15.75" r="5.06" style="fill: none; stroke: #231f20; stroke-linecap: round; stroke-linejoin: round; stroke-width: 4px;"/>
  <line x1="31.5" y1="49.5" x2="40.5" y2="49.5" style="fill: none; stroke: #231f20; stroke-linecap: round; stroke-linejoin: round; stroke-width: 4px;"/>
</svg>