<svg id="espresso_machine_e61" data-name="espresso machine e61" xmlns="http://www.w3.org/2000/svg" viewBox="0 0 72 72"><path d="M13.5,9v45h45V9H13.5ZM42.75,36.37v5c0,2.21-1.79,4-4,4h-5.5c-2.21,0-4-1.79-4-4v-5h-.75l2.32-9.76c1.3-5.45,9.05-5.45,10.35,0l2.32,9.76h-.75Z" style="fill: var(--icon-fill, rgba(0, 0, 0, 0)); opacity: var(--icon-fill-opacity, 1);"/><rect x="9" y="54" width="54" height="9" style="fill: var(--icon-fill, rgba(0, 0, 0, 0)); opacity: var(--icon-fill-opacity, 1);"/><rect x="9" y="54" width="54" height="9" style="fill: none; stroke: var(--icon-stroke-color, currentColor); stroke-miterlimit: 10; stroke-width:var(--icon-stroke-width-m, calc(var(--icon-stroke-width, 5) * 1));"/><polygon points="13.5 49.5 13.5 9 58.5 9 58.5 54 13.5 54 13.5 49.5" style="fill: none; stroke: var(--icon-stroke-color, currentColor); stroke-miterlimit: 10; stroke-width:var(--icon-stroke-width-m, calc(var(--icon-stroke-width, 5) * 1));"/><line x1="22.5" y1="18" x2="22.5" y2="18" style="fill: none; stroke: var(--icon-stroke-color, currentColor); stroke-linecap: round; stroke-linejoin: round; stroke-width:var(--icon-stroke-width-m, calc(var(--icon-stroke-width, 5) * 1));"/><line x1="49.5" y1="18" x2="49.5" y2="18" style="fill: none; stroke: var(--icon-stroke-color, currentColor); stroke-linecap: round; stroke-linejoin: round; stroke-width:var(--icon-stroke-width-m, calc(var(--icon-stroke-width, 5) * 1));"/><g><line x1="47.25" y1="36.37" x2="24.75" y2="36.37" style="fill: none; stroke: var(--icon-stroke-color, currentColor); stroke-miterlimit: 10; stroke-width:var(--icon-stroke-width-m, calc(var(--icon-stroke-width, 5) * 1));"/><path d="M28.5,36.37l2.32-9.76c1.3-5.45,9.05-5.45,10.35,0l2.32,9.76" style="fill: none; stroke: var(--icon-stroke-color, currentColor); stroke-miterlimit: 10; stroke-width:var(--icon-stroke-width-m, calc(var(--icon-stroke-width, 5) * 1));"/><path d="M29.25,36.37h13.5v5c0,2.21-1.79,4-4,4h-5.5c-2.21,0-4-1.79-4-4v-5h0Z" style="fill: none; stroke: var(--icon-stroke-color, currentColor); stroke-miterlimit: 10; stroke-width:var(--icon-stroke-width-m, calc(var(--icon-stroke-width, 5) * 1));"/></g><line x1="45" y1="40.87" x2="63" y2="40.87" style="fill: none; stroke: var(--icon-stroke-color, currentColor); stroke-linecap: square; stroke-miterlimit: 10; stroke-width:var(--icon-stroke-width-m, calc(var(--icon-stroke-width, 5) * 1));"/></svg>
