<?xml version="1.0" encoding="UTF-8"?>
<svg id="coffee_cup" data-name="coffee cup" xmlns="http://www.w3.org/2000/svg" viewBox="0 0 72 72">
  <path d="M13.5,36c0,12.43,0,22.5,20.25,22.5s20.25-10.07,20.25-22.5H13.5Z" style="fill: #ed2024; opacity: .5;"/>
  <path d="M13.5,36c0,12.43,0,22.5,20.25,22.5s20.25-10.07,20.25-22.5H13.5Z" style="fill: none; stroke: #010101; stroke-linecap: square; stroke-miterlimit: 10; stroke-width: 4px;"/>
  <path d="M24.32,12c.31,9,6.96,6,6.96,15" style="fill: none; stroke: #ed2024; stroke-linecap: square; stroke-miterlimit: 10; stroke-width: 4px;"/>
  <path d="M35.79,9c.31,9,6.96,6,6.96,15" style="fill: none; stroke: #ed2024; stroke-linecap: square; stroke-miterlimit: 10; stroke-width: 4px;"/>
  <path d="M56.25,36h2.25c.79,0,1.55.14,2.25.38,2.62.93,4.5,3.43,4.5,6.37,0,3.73-3.02,6.75-6.75,6.75h-2.25" style="fill: none; stroke: #010101; stroke-linecap: square; stroke-miterlimit: 10; stroke-width: 4px;"/>
</svg>