<?xml version="1.0" encoding="UTF-8"?>
<svg id="ball-rugby" xmlns="http://www.w3.org/2000/svg" viewBox="0 0 72 72">
  <g style="opacity: .5;">
    <path d="M54.41,9.91c4.17.17,7.51,3.5,7.67,7.67.36,9.06-.61,24.76-10.18,34.32s-25.27,10.53-34.32,10.18c-4.17-.17-7.51-3.5-7.67-7.67-.36-9.06.61-24.76,10.18-34.32s25.27-10.53,34.32-10.18Z" style="fill: #ed2024; stroke-width: 0px;"/>
    <line x1="32.82" y1="32.82" x2="39.18" y2="39.18" style="fill: #ed2024; stroke-width: 0px;"/>
    <line x1="39.18" y1="26.45" x2="45.55" y2="32.82" style="fill: #ed2024; stroke-width: 0px;"/>
    <line x1="26.45" y1="39.18" x2="32.82" y2="45.55" style="fill: #ed2024; stroke-width: 0px;"/>
    <line x1="45.55" y1="26.45" x2="26.45" y2="45.55" style="fill: #ed2024; stroke-width: 0px;"/>
    <line x1="10.43" y1="42.25" x2="29.75" y2="61.57" style="fill: #ed2024; stroke-width: 0px;"/>
    <line x1="42.25" y1="10.43" x2="61.57" y2="29.75" style="fill: #ed2024; stroke-width: 0px;"/>
  </g>
  <g>
    <path d="M54.41,9.91c4.17.17,7.51,3.5,7.67,7.67.36,9.06-.61,24.76-10.18,34.32s-25.27,10.53-34.32,10.18c-4.17-.17-7.51-3.5-7.67-7.67-.36-9.06.61-24.76,10.18-34.32s25.27-10.53,34.32-10.18Z" style="fill: none; stroke: #231f20; stroke-miterlimit: 10; stroke-width: 4px;"/>
    <line x1="32.82" y1="32.82" x2="39.18" y2="39.18" style="fill: none; stroke: #231f20; stroke-miterlimit: 10; stroke-width: 4px;"/>
    <line x1="39.18" y1="26.45" x2="45.55" y2="32.82" style="fill: none; stroke: #231f20; stroke-miterlimit: 10; stroke-width: 4px;"/>
    <line x1="26.45" y1="39.18" x2="32.82" y2="45.55" style="fill: none; stroke: #231f20; stroke-miterlimit: 10; stroke-width: 4px;"/>
    <line x1="45.55" y1="26.45" x2="26.45" y2="45.55" style="fill: none; stroke: #231f20; stroke-miterlimit: 10; stroke-width: 4px;"/>
    <line x1="10.43" y1="42.25" x2="29.75" y2="61.57" style="fill: none; stroke: #231f20; stroke-miterlimit: 10; stroke-width: 4px;"/>
    <line x1="42.25" y1="10.43" x2="61.57" y2="29.75" style="fill: none; stroke: #231f20; stroke-miterlimit: 10; stroke-width: 4px;"/>
  </g>
  <g>
    <path d="M54.41,9.91c4.17.17,7.51,3.5,7.67,7.67.36,9.06-.61,24.76-10.18,34.32s-25.27,10.53-34.32,10.18c-4.17-.17-7.51-3.5-7.67-7.67-.36-9.06.61-24.76,10.18-34.32s25.27-10.53,34.32-10.18Z" style="fill: none; stroke: #231f20; stroke-miterlimit: 10; stroke-width: 4px;"/>
    <line x1="32.82" y1="32.82" x2="39.18" y2="39.18" style="fill: none; stroke: #231f20; stroke-miterlimit: 10; stroke-width: 4px;"/>
    <line x1="39.18" y1="26.45" x2="45.55" y2="32.82" style="fill: none; stroke: #231f20; stroke-miterlimit: 10; stroke-width: 4px;"/>
    <line x1="26.45" y1="39.18" x2="32.82" y2="45.55" style="fill: none; stroke: #231f20; stroke-miterlimit: 10; stroke-width: 4px;"/>
    <line x1="45.55" y1="26.45" x2="26.45" y2="45.55" style="fill: none; stroke: #231f20; stroke-miterlimit: 10; stroke-width: 4px;"/>
    <line x1="10.43" y1="42.25" x2="29.75" y2="61.57" style="fill: none; stroke: #231f20; stroke-miterlimit: 10; stroke-width: 4px;"/>
    <line x1="42.25" y1="10.43" x2="61.57" y2="29.75" style="fill: none; stroke: #231f20; stroke-miterlimit: 10; stroke-width: 4px;"/>
  </g>
</svg>