<?xml version="1.0" encoding="UTF-8"?>
<svg id="ball-basketball" xmlns="http://www.w3.org/2000/svg" viewBox="0 0 72 72">
  <circle cx="36" cy="36" r="27" style="fill: #ed2024; opacity: .5; stroke-width: 0px;"/>
  <circle cx="36" cy="36" r="27" style="fill: none; stroke: #231f20; stroke-miterlimit: 10; stroke-width: 4px;"/>
  <path d="M36.93,9.02c-.6,2.14-.93,4.39-.93,6.73,0,13.67,11.08,24.75,24.75,24.75.63,0,1.26-.03,1.88-.08.24-1.44.37-2.92.37-4.42,0-14.6-11.59-26.48-26.07-26.98Z" style="fill: none; stroke: #231f20; stroke-miterlimit: 10; stroke-width: 4px;"/>
  <path d="M9,36.11c.06,14.83,12.06,26.83,26.89,26.89.07-.74.11-1.49.11-2.25,0-13.67-11.08-24.75-24.75-24.75-.76,0-1.51.04-2.25.11Z" style="fill: none; stroke: #231f20; stroke-miterlimit: 10; stroke-width: 4px;"/>
  <line x1="16.25" y1="16.91" x2="52.98" y2="56.98" style="fill: none; stroke: #231f20; stroke-miterlimit: 10; stroke-width: 4px;"/>
  <line x1="55.09" y1="16.91" x2="16.91" y2="55.09" style="fill: none; stroke: #231f20; stroke-miterlimit: 10; stroke-width: 4px;"/>
  <circle cx="36" cy="36" r="27" style="fill: none; stroke: #231f20; stroke-miterlimit: 10; stroke-width: 4px;"/>
</svg>