<?xml version="1.0" encoding="UTF-8"?>
<svg id="espresso_machine" data-name="espresso machine" xmlns="http://www.w3.org/2000/svg" viewBox="0 0 72 72">
  <polygon points="47.25 27 47.25 36 42.75 36 42.75 45 29.25 45 29.25 36 24.75 36 24.75 27 13.5 27 18 54 54 54 58.5 27 47.25 27" style="fill: #ed2024; opacity: .5;"/>
  <rect x="9" y="54" width="54" height="9" style="fill: #ed2024; opacity: .5;"/>
  <path d="M17,9h38c4.42,0,8,3.58,8,8v10H9v-10c0-4.42,3.58-8,8-8Z" style="fill: #ed2024; opacity: .5;"/>
  <rect x="9" y="54" width="54" height="9" style="fill: none; stroke: #010101; stroke-miterlimit: 10; stroke-width: 4px;"/>
  <line x1="18" y1="18" x2="18" y2="18" style="fill: none; stroke: #010101; stroke-linecap: round; stroke-miterlimit: 10; stroke-width: 4px;"/>
  <line x1="27" y1="18" x2="27" y2="18" style="fill: none; stroke: #010101; stroke-linecap: round; stroke-miterlimit: 10; stroke-width: 4px;"/>
  <path d="M17,9h38c4.42,0,8,3.58,8,8v10H9v-10c0-4.42,3.58-8,8-8Z" style="fill: none; stroke: #010101; stroke-miterlimit: 10; stroke-width: 4px;"/>
  <line x1="13.5" y1="27" x2="18" y2="54" style="fill: none; stroke: #010101; stroke-miterlimit: 10; stroke-width: 4px;"/>
  <line x1="58.5" y1="27" x2="54" y2="54" style="fill: none; stroke: #010101; stroke-miterlimit: 10; stroke-width: 4px;"/>
  <rect x="24.75" y="27" width="22.5" height="9" style="fill: none; stroke: #010101; stroke-linecap: round; stroke-miterlimit: 10; stroke-width: 4px;"/>
  <rect x="29.25" y="36" width="13.5" height="9" style="fill: none; stroke: #010101; stroke-linecap: round; stroke-miterlimit: 10; stroke-width: 4px;"/>
  <line x1="42.75" y1="40.5" x2="60.75" y2="40.5" style="fill: none; stroke: #010101; stroke-miterlimit: 10; stroke-width: 4px;"/>
</svg>