<?xml version="1.0" encoding="UTF-8"?>
<svg id="bread_slice" data-name="bread slice" xmlns="http://www.w3.org/2000/svg" viewBox="0 0 72 72">
  <path d="M58.5,24.75c0-6.21-5.04-11.25-11.25-11.25s-11.25,4.5-11.25,4.5c0,0-5.04-4.5-11.25-4.5s-11.25,5.04-11.25,11.25c0,4.16,2.27,7.79,5.62,9.73v24.02h33.75v-24.02c3.36-1.95,5.62-5.57,5.62-9.73Z" style="fill: #ed2024; opacity: .5;"/>
  <path d="M58.5,24.75c0-6.21-5.04-11.25-11.25-11.25s-11.25,4.5-11.25,4.5c0,0-5.04-4.5-11.25-4.5s-11.25,5.04-11.25,11.25c0,4.16,2.27,7.79,5.62,9.73v24.02h33.75v-24.02c3.36-1.95,5.62-5.57,5.62-9.73Z" style="fill: none; stroke: #010101; stroke-miterlimit: 10; stroke-width: 4px;"/>
</svg>