<?xml version="1.0" encoding="utf-8"?>
<!-- Generator: Adobe Illustrator 29.0.1, SVG Export Plug-In . SVG Version: 9.03 Build 54978)  -->
<svg version="1.1" id="Layer_1" xmlns="http://www.w3.org/2000/svg" xmlns:xlink="http://www.w3.org/1999/xlink" x="0px" y="0px"
	 viewBox="0 0 346.5 90" style="enable-background:new 0 0 346.5 90;" xml:space="preserve">
<path style="fill:none;stroke:#000000;stroke-width:4;stroke-miterlimit:10;" d="M36,13.5c-7.46,0-13.5,6.04-13.5,13.5v27
	c0,7.46,6.04,13.5,13.5,13.5c7.46,0,13.5-6.04,13.5-13.5V27C49.5,19.54,43.46,13.5,36,13.5z"/>
<path style="fill:none;stroke:#000000;stroke-width:7;stroke-miterlimit:10;" d="M270,27c-7.46,0-13.5,6.04-13.5,13.5V54
	c0,7.46,6.04,13.5,13.5,13.5c7.46,0,13.5-6.04,13.5-13.5V40.5C283.5,33.04,277.46,27,270,27z"/>
<path style="fill:none;stroke:#000000;stroke-width:4;stroke-miterlimit:10;" d="M81,27c-7.46,0-13.5,6.04-13.5,13.5V54
	c0,7.46,6.04,13.5,13.5,13.5c7.46,0,13.5-6.04,13.5-13.5V40.5C94.5,33.04,88.46,27,81,27z"/>
<path style="fill:none;stroke:#000000;stroke-width:4;stroke-linecap:square;stroke-miterlimit:10;" d="M175.5,67.5v-27
	c0-7.46-6.04-13.5-13.5-13.5c-7.46,0-13.5,6.04-13.5,13.5v27"/>
<line style="fill:none;stroke:#000000;stroke-width:7;stroke-miterlimit:10;" x1="189" y1="27" x2="207" y2="27"/>
<line style="fill:none;stroke:#000000;stroke-width:7;stroke-miterlimit:10;" x1="189" y1="67.5" x2="207" y2="67.5"/>
<line style="fill:none;stroke:#000000;stroke-width:7;stroke-miterlimit:10;" x1="198" y1="27" x2="198" y2="67.5"/>
<polyline style="fill:none;stroke:#000000;stroke-width:4;stroke-linecap:square;stroke-miterlimit:10;" points="67.5,81 67.5,27 
	63,27 "/>
<path style="fill:none;stroke:#000000;stroke-width:4;stroke-miterlimit:10;" d="M63,27"/>
<polyline style="fill:none;stroke:#000000;stroke-width:4;stroke-linecap:square;stroke-miterlimit:10;" points="148.5,67.5 
	148.5,27 144,27 "/>
<path style="fill:none;stroke:#000000;stroke-width:4;stroke-miterlimit:10;" d="M144,27"/>
<path style="fill:none;stroke:#000000;stroke-width:7;stroke-linecap:square;stroke-miterlimit:10;" d="M324,67.5v-27
	c0-7.46-6.04-13.5-13.5-13.5c-7.46,0-13.5,6.04-13.5,13.5v27"/>
<polyline style="fill:none;stroke:#000000;stroke-width:7;stroke-linecap:square;stroke-miterlimit:10;" points="297,67.5 297,27 
	292.5,27 "/>
<path style="fill:none;stroke:#000000;stroke-width:7;stroke-miterlimit:10;" d="M292.5,27"/>
<path style="fill:none;stroke:#000000;stroke-width:4;stroke-miterlimit:10;" d="M108,49.5l27-4.5v-4.5c0-7.46-6.04-13.5-13.5-13.5
	c-7.46,0-13.5,6.04-13.5,13.5V54c0,7.46,6.04,13.5,13.5,13.5c7.46,0,13.5-6.04,13.5-13.5"/>
<path style="fill:none;stroke:#000000;stroke-width:7;stroke-miterlimit:10;" d="M243,40.5c0-7.46-6.04-13.5-13.5-13.5
	c-7.46,0-13.5,6.04-13.5,13.5V54c0,7.46,6.04,13.5,13.5,13.5c7.46,0,13.5-6.04,13.5-13.5"/>
<circle style="fill:none;stroke:#000000;stroke-width:7;stroke-miterlimit:10;" cx="198" cy="9" r="4.5"/>
</svg>
